G04 #@! TF.GenerationSoftware,KiCad,Pcbnew,8.0.4*
G04 #@! TF.CreationDate,2024-07-27T19:15:15-07:00*
G04 #@! TF.ProjectId,ns32k,6e733332-6b2e-46b6-9963-61645f706362,2*
G04 #@! TF.SameCoordinates,Original*
G04 #@! TF.FileFunction,Paste,Top*
G04 #@! TF.FilePolarity,Positive*
%FSLAX46Y46*%
G04 Gerber Fmt 4.6, Leading zero omitted, Abs format (unit mm)*
G04 Created by KiCad (PCBNEW 8.0.4) date 2024-07-27 19:15:15*
%MOMM*%
%LPD*%
G01*
G04 APERTURE LIST*
G04 Aperture macros list*
%AMRoundRect*
0 Rectangle with rounded corners*
0 $1 Rounding radius*
0 $2 $3 $4 $5 $6 $7 $8 $9 X,Y pos of 4 corners*
0 Add a 4 corners polygon primitive as box body*
4,1,4,$2,$3,$4,$5,$6,$7,$8,$9,$2,$3,0*
0 Add four circle primitives for the rounded corners*
1,1,$1+$1,$2,$3*
1,1,$1+$1,$4,$5*
1,1,$1+$1,$6,$7*
1,1,$1+$1,$8,$9*
0 Add four rect primitives between the rounded corners*
20,1,$1+$1,$2,$3,$4,$5,0*
20,1,$1+$1,$4,$5,$6,$7,0*
20,1,$1+$1,$6,$7,$8,$9,0*
20,1,$1+$1,$8,$9,$2,$3,0*%
G04 Aperture macros list end*
%ADD10RoundRect,0.250000X-0.650000X0.325000X-0.650000X-0.325000X0.650000X-0.325000X0.650000X0.325000X0*%
%ADD11RoundRect,0.135000X0.185000X-0.135000X0.185000X0.135000X-0.185000X0.135000X-0.185000X-0.135000X0*%
%ADD12RoundRect,0.140000X0.140000X0.170000X-0.140000X0.170000X-0.140000X-0.170000X0.140000X-0.170000X0*%
%ADD13RoundRect,0.135000X0.135000X0.185000X-0.135000X0.185000X-0.135000X-0.185000X0.135000X-0.185000X0*%
%ADD14RoundRect,0.250000X-0.475000X0.250000X-0.475000X-0.250000X0.475000X-0.250000X0.475000X0.250000X0*%
%ADD15RoundRect,0.140000X-0.170000X0.140000X-0.170000X-0.140000X0.170000X-0.140000X0.170000X0.140000X0*%
%ADD16RoundRect,0.100000X0.100000X-0.637500X0.100000X0.637500X-0.100000X0.637500X-0.100000X-0.637500X0*%
%ADD17RoundRect,0.140000X0.170000X-0.140000X0.170000X0.140000X-0.170000X0.140000X-0.170000X-0.140000X0*%
%ADD18RoundRect,0.135000X-0.135000X-0.185000X0.135000X-0.185000X0.135000X0.185000X-0.135000X0.185000X0*%
%ADD19RoundRect,0.218750X0.218750X0.256250X-0.218750X0.256250X-0.218750X-0.256250X0.218750X-0.256250X0*%
%ADD20RoundRect,0.140000X-0.140000X-0.170000X0.140000X-0.170000X0.140000X0.170000X-0.140000X0.170000X0*%
%ADD21RoundRect,0.218750X-0.256250X0.218750X-0.256250X-0.218750X0.256250X-0.218750X0.256250X0.218750X0*%
%ADD22RoundRect,0.225000X-0.250000X0.225000X-0.250000X-0.225000X0.250000X-0.225000X0.250000X0.225000X0*%
%ADD23RoundRect,0.100000X-0.637500X-0.100000X0.637500X-0.100000X0.637500X0.100000X-0.637500X0.100000X0*%
%ADD24RoundRect,0.075000X0.662500X0.075000X-0.662500X0.075000X-0.662500X-0.075000X0.662500X-0.075000X0*%
%ADD25RoundRect,0.075000X0.075000X0.662500X-0.075000X0.662500X-0.075000X-0.662500X0.075000X-0.662500X0*%
%ADD26RoundRect,0.135000X-0.185000X0.135000X-0.185000X-0.135000X0.185000X-0.135000X0.185000X0.135000X0*%
%ADD27RoundRect,0.100000X-0.100000X0.637500X-0.100000X-0.637500X0.100000X-0.637500X0.100000X0.637500X0*%
%ADD28RoundRect,0.175000X0.175000X0.325000X-0.175000X0.325000X-0.175000X-0.325000X0.175000X-0.325000X0*%
%ADD29RoundRect,0.150000X0.200000X0.150000X-0.200000X0.150000X-0.200000X-0.150000X0.200000X-0.150000X0*%
%ADD30RoundRect,0.147500X-0.147500X-0.172500X0.147500X-0.172500X0.147500X0.172500X-0.147500X0.172500X0*%
%ADD31RoundRect,0.225000X-0.225000X-0.250000X0.225000X-0.250000X0.225000X0.250000X-0.225000X0.250000X0*%
%ADD32R,1.400000X1.200000*%
%ADD33RoundRect,0.225000X0.250000X-0.225000X0.250000X0.225000X-0.250000X0.225000X-0.250000X-0.225000X0*%
%ADD34RoundRect,0.150000X-0.512500X-0.150000X0.512500X-0.150000X0.512500X0.150000X-0.512500X0.150000X0*%
%ADD35R,1.500000X1.500000*%
%ADD36RoundRect,0.250000X-0.250000X-0.475000X0.250000X-0.475000X0.250000X0.475000X-0.250000X0.475000X0*%
%ADD37RoundRect,0.147500X0.172500X-0.147500X0.172500X0.147500X-0.172500X0.147500X-0.172500X-0.147500X0*%
%ADD38R,1.800000X1.400000*%
%ADD39R,0.950000X1.000000*%
%ADD40RoundRect,0.237500X0.237500X-0.262500X0.237500X0.262500X-0.237500X0.262500X-0.237500X-0.262500X0*%
%ADD41RoundRect,0.075000X-0.075000X0.712500X-0.075000X-0.712500X0.075000X-0.712500X0.075000X0.712500X0*%
%ADD42R,1.800000X1.800000*%
%ADD43R,0.300000X0.300000*%
%ADD44R,0.300000X0.900000*%
%ADD45R,0.900000X0.300000*%
%ADD46RoundRect,0.150000X-0.150000X0.512500X-0.150000X-0.512500X0.150000X-0.512500X0.150000X0.512500X0*%
%ADD47RoundRect,0.225000X0.225000X0.250000X-0.225000X0.250000X-0.225000X-0.250000X0.225000X-0.250000X0*%
%ADD48R,2.000000X0.700000*%
G04 APERTURE END LIST*
D10*
X123875800Y-81075000D03*
X123875800Y-84025000D03*
D11*
X178257200Y-72087200D03*
X178257200Y-71067200D03*
D12*
X175917800Y-77571600D03*
X174957800Y-77571600D03*
D11*
X97155000Y-132075200D03*
X97155000Y-131055200D03*
D13*
X103126000Y-70806400D03*
X102106000Y-70806400D03*
D11*
X122631200Y-58235400D03*
X122631200Y-57215400D03*
D14*
X171881800Y-78859200D03*
X171881800Y-80759200D03*
D15*
X173685200Y-103575000D03*
X173685200Y-104535000D03*
D16*
X130937000Y-92990600D03*
X131587000Y-92990600D03*
X132237000Y-92990600D03*
X132887000Y-92990600D03*
X133537000Y-92990600D03*
X134187000Y-92990600D03*
X134837000Y-92990600D03*
X135487000Y-92990600D03*
X136137000Y-92990600D03*
X136787000Y-92990600D03*
X136787000Y-87265600D03*
X136137000Y-87265600D03*
X135487000Y-87265600D03*
X134837000Y-87265600D03*
X134187000Y-87265600D03*
X133537000Y-87265600D03*
X132887000Y-87265600D03*
X132237000Y-87265600D03*
X131587000Y-87265600D03*
X130937000Y-87265600D03*
D17*
X180390800Y-72110600D03*
X180390800Y-71150600D03*
D18*
X84732400Y-136109800D03*
X85752400Y-136109800D03*
D19*
X182677000Y-90930000D03*
X181102000Y-90930000D03*
D13*
X82044000Y-136109800D03*
X81024000Y-136109800D03*
X175131600Y-65927900D03*
X174111600Y-65927900D03*
D20*
X193070000Y-90168000D03*
X194030000Y-90168000D03*
D15*
X117373400Y-129187000D03*
X117373400Y-130147000D03*
D12*
X120164800Y-92625000D03*
X119204800Y-92625000D03*
D13*
X101348000Y-120920600D03*
X100328000Y-120920600D03*
D18*
X114145600Y-92625000D03*
X115165600Y-92625000D03*
D21*
X106883200Y-132858500D03*
X106883200Y-134433500D03*
D22*
X98552000Y-131171200D03*
X98552000Y-132721200D03*
D13*
X182120000Y-89533000D03*
X181100000Y-89533000D03*
D17*
X187299600Y-75333800D03*
X187299600Y-74373800D03*
X168300400Y-103163400D03*
X168300400Y-102203400D03*
D21*
X123647200Y-54194700D03*
X123647200Y-55769700D03*
D19*
X182677000Y-92611000D03*
X181102000Y-92611000D03*
D23*
X130868500Y-54764600D03*
X130868500Y-55414600D03*
X130868500Y-56064600D03*
X130868500Y-56714600D03*
X130868500Y-57364600D03*
X130868500Y-58014600D03*
X130868500Y-58664600D03*
X130868500Y-59314600D03*
X136593500Y-59314600D03*
X136593500Y-58664600D03*
X136593500Y-58014600D03*
X136593500Y-57364600D03*
X136593500Y-56714600D03*
X136593500Y-56064600D03*
X136593500Y-55414600D03*
X136593500Y-54764600D03*
D12*
X151102000Y-135144600D03*
X150142000Y-135144600D03*
D20*
X93741600Y-136246600D03*
X94701600Y-136246600D03*
D17*
X174650400Y-90599200D03*
X174650400Y-89639200D03*
D12*
X178991200Y-84988400D03*
X178031200Y-84988400D03*
D20*
X62484600Y-135754200D03*
X63444600Y-135754200D03*
D24*
X178355700Y-100585400D03*
X178355700Y-100085400D03*
X178355700Y-99585400D03*
X178355700Y-99085400D03*
X178355700Y-98585400D03*
X178355700Y-98085400D03*
X178355700Y-97585400D03*
X178355700Y-97085400D03*
X178355700Y-96585400D03*
X178355700Y-96085400D03*
X178355700Y-95585400D03*
X178355700Y-95085400D03*
D25*
X176943200Y-93672900D03*
X176443200Y-93672900D03*
X175943200Y-93672900D03*
X175443200Y-93672900D03*
X174943200Y-93672900D03*
X174443200Y-93672900D03*
X173943200Y-93672900D03*
X173443200Y-93672900D03*
X172943200Y-93672900D03*
X172443200Y-93672900D03*
X171943200Y-93672900D03*
X171443200Y-93672900D03*
D24*
X170030700Y-95085400D03*
X170030700Y-95585400D03*
X170030700Y-96085400D03*
X170030700Y-96585400D03*
X170030700Y-97085400D03*
X170030700Y-97585400D03*
X170030700Y-98085400D03*
X170030700Y-98585400D03*
X170030700Y-99085400D03*
X170030700Y-99585400D03*
X170030700Y-100085400D03*
X170030700Y-100585400D03*
D25*
X171443200Y-101997900D03*
X171943200Y-101997900D03*
X172443200Y-101997900D03*
X172943200Y-101997900D03*
X173443200Y-101997900D03*
X173943200Y-101997900D03*
X174443200Y-101997900D03*
X174943200Y-101997900D03*
X175443200Y-101997900D03*
X175943200Y-101997900D03*
X176443200Y-101997900D03*
X176943200Y-101997900D03*
D26*
X189103000Y-87118000D03*
X189103000Y-88138000D03*
D18*
X178001200Y-53263800D03*
X179021200Y-53263800D03*
D26*
X105283000Y-133644000D03*
X105283000Y-134664000D03*
D22*
X112776000Y-68583600D03*
X112776000Y-70133600D03*
D27*
X115945200Y-122994500D03*
X115295200Y-122994500D03*
X114645200Y-122994500D03*
X113995200Y-122994500D03*
X113345200Y-122994500D03*
X112695200Y-122994500D03*
X112045200Y-122994500D03*
X112045200Y-128719500D03*
X112695200Y-128719500D03*
X113345200Y-128719500D03*
X113995200Y-128719500D03*
X114645200Y-128719500D03*
X115295200Y-128719500D03*
X115945200Y-128719500D03*
D20*
X191874200Y-79470200D03*
X192834200Y-79470200D03*
D28*
X194143600Y-96139100D03*
D29*
X194143600Y-94439100D03*
X192143600Y-94439100D03*
X192143600Y-96339100D03*
D18*
X187221400Y-83337400D03*
X188241400Y-83337400D03*
D11*
X182854600Y-71020400D03*
X182854600Y-70000400D03*
D30*
X190827800Y-78301800D03*
X191797800Y-78301800D03*
D23*
X130741500Y-125701600D03*
X130741500Y-126351600D03*
X130741500Y-127001600D03*
X130741500Y-127651600D03*
X130741500Y-128301600D03*
X130741500Y-128951600D03*
X130741500Y-129601600D03*
X136466500Y-129601600D03*
X136466500Y-128951600D03*
X136466500Y-128301600D03*
X136466500Y-127651600D03*
X136466500Y-127001600D03*
X136466500Y-126351600D03*
X136466500Y-125701600D03*
D12*
X65148400Y-116272400D03*
X64188400Y-116272400D03*
D14*
X106299000Y-125939600D03*
X106299000Y-127839600D03*
D13*
X194080000Y-89025000D03*
X193060000Y-89025000D03*
D31*
X71996000Y-115332600D03*
X73546000Y-115332600D03*
D18*
X184478200Y-71551800D03*
X185498200Y-71551800D03*
D12*
X171015600Y-135017604D03*
X170055600Y-135017604D03*
D18*
X81278000Y-115332600D03*
X82298000Y-115332600D03*
D21*
X125425200Y-54194700D03*
X125425200Y-55769700D03*
D15*
X184429400Y-85143400D03*
X184429400Y-86103400D03*
D22*
X122682000Y-90732400D03*
X122682000Y-92282400D03*
D13*
X182120000Y-93978000D03*
X181100000Y-93978000D03*
X194644200Y-99845400D03*
X193624200Y-99845400D03*
D21*
X174647000Y-62676600D03*
X174647000Y-64251600D03*
D22*
X98806000Y-122685600D03*
X98806000Y-124235600D03*
D18*
X186992800Y-72745600D03*
X188012800Y-72745600D03*
D17*
X181457600Y-72110600D03*
X181457600Y-71150600D03*
D16*
X132330000Y-79272600D03*
X132980000Y-79272600D03*
X133630000Y-79272600D03*
X134280000Y-79272600D03*
X134930000Y-79272600D03*
X135580000Y-79272600D03*
X136230000Y-79272600D03*
X136880000Y-79272600D03*
X137530000Y-79272600D03*
X138180000Y-79272600D03*
X138180000Y-73547600D03*
X137530000Y-73547600D03*
X136880000Y-73547600D03*
X136230000Y-73547600D03*
X135580000Y-73547600D03*
X134930000Y-73547600D03*
X134280000Y-73547600D03*
X133630000Y-73547600D03*
X132980000Y-73547600D03*
X132330000Y-73547600D03*
D17*
X139319000Y-54598600D03*
X139319000Y-53638600D03*
D32*
X176131400Y-71946400D03*
X173931400Y-71946400D03*
X173931400Y-73646400D03*
X176131400Y-73646400D03*
D31*
X119621000Y-115713600D03*
X121171000Y-115713600D03*
D17*
X141427200Y-54598600D03*
X141427200Y-53638600D03*
D18*
X196543200Y-70485000D03*
X197563200Y-70485000D03*
D21*
X121869200Y-54194700D03*
X121869200Y-55769700D03*
D20*
X67414200Y-116374000D03*
X68374200Y-116374000D03*
D13*
X182145400Y-67030600D03*
X181125400Y-67030600D03*
D17*
X189738000Y-75181400D03*
X189738000Y-74221400D03*
D20*
X136426000Y-99110800D03*
X137386000Y-99110800D03*
D11*
X121259600Y-58235400D03*
X121259600Y-57215400D03*
D17*
X171221400Y-90980200D03*
X171221400Y-90020200D03*
D12*
X190395800Y-79521000D03*
X189435800Y-79521000D03*
D33*
X181991000Y-59195000D03*
X181991000Y-57645000D03*
D23*
X130868500Y-100342600D03*
X130868500Y-100992600D03*
X130868500Y-101642600D03*
X130868500Y-102292600D03*
X130868500Y-102942600D03*
X130868500Y-103592600D03*
X130868500Y-104242600D03*
X130868500Y-104892600D03*
X130868500Y-105542600D03*
X130868500Y-106192600D03*
X136593500Y-106192600D03*
X136593500Y-105542600D03*
X136593500Y-104892600D03*
X136593500Y-104242600D03*
X136593500Y-103592600D03*
X136593500Y-102942600D03*
X136593500Y-102292600D03*
X136593500Y-101642600D03*
X136593500Y-100992600D03*
X136593500Y-100342600D03*
D34*
X100843500Y-122576600D03*
X100843500Y-123526600D03*
X100843500Y-124476600D03*
X103118500Y-124476600D03*
X103118500Y-122576600D03*
D35*
X114641800Y-133350000D03*
X122441800Y-133350000D03*
D18*
X62482600Y-134357200D03*
X63502600Y-134357200D03*
D36*
X190362800Y-81299000D03*
X192262800Y-81299000D03*
D37*
X179349400Y-72138400D03*
X179349400Y-71168400D03*
D38*
X169224600Y-87407600D03*
X173624600Y-87407600D03*
X173624600Y-85007600D03*
X169224600Y-85007600D03*
D18*
X172362400Y-90728800D03*
X173382400Y-90728800D03*
D13*
X100332000Y-70806400D03*
X99312000Y-70806400D03*
D39*
X62865600Y-132905200D03*
D40*
X62865600Y-131055200D03*
X61315600Y-131055200D03*
X61315600Y-132905200D03*
D18*
X86231000Y-115332600D03*
X87251000Y-115332600D03*
D41*
X156630000Y-114118600D03*
X156130000Y-114118600D03*
X155630000Y-114118600D03*
X155130000Y-114118600D03*
X154630000Y-114118600D03*
X154130000Y-114118600D03*
X153630000Y-114118600D03*
X153130000Y-114118600D03*
X152630000Y-114118600D03*
X152130000Y-114118600D03*
X151630000Y-114118600D03*
X151130000Y-114118600D03*
X150630000Y-114118600D03*
X150130000Y-114118600D03*
X149630000Y-114118600D03*
X149130000Y-114118600D03*
X148630000Y-114118600D03*
X148130000Y-114118600D03*
X147630000Y-114118600D03*
X147130000Y-114118600D03*
X146630000Y-114118600D03*
X146130000Y-114118600D03*
X145630000Y-114118600D03*
X145130000Y-114118600D03*
X145130000Y-133493600D03*
X145630000Y-133493600D03*
X146130000Y-133493600D03*
X146630000Y-133493600D03*
X147130000Y-133493600D03*
X147630000Y-133493600D03*
X148130000Y-133493600D03*
X148630000Y-133493600D03*
X149130000Y-133493600D03*
X149630000Y-133493600D03*
X150130000Y-133493600D03*
X150630000Y-133493600D03*
X151130000Y-133493600D03*
X151630000Y-133493600D03*
X152130000Y-133493600D03*
X152630000Y-133493600D03*
X153130000Y-133493600D03*
X153630000Y-133493600D03*
X154130000Y-133493600D03*
X154630000Y-133493600D03*
X155130000Y-133493600D03*
X155630000Y-133493600D03*
X156130000Y-133493600D03*
X156630000Y-133493600D03*
X178053000Y-113808600D03*
X177553000Y-113808600D03*
X177053000Y-113808600D03*
X176553000Y-113808600D03*
X176053000Y-113808600D03*
X175553000Y-113808600D03*
X175053000Y-113808600D03*
X174553000Y-113808600D03*
X174053000Y-113808600D03*
X173553000Y-113808600D03*
X173053000Y-113808600D03*
X172553000Y-113808600D03*
X172053000Y-113808600D03*
X171553000Y-113808600D03*
X171053000Y-113808600D03*
X170553000Y-113808600D03*
X170053000Y-113808600D03*
X169553000Y-113808600D03*
X169053000Y-113808600D03*
X168553000Y-113808600D03*
X168053000Y-113808600D03*
X167553000Y-113808600D03*
X167053000Y-113808600D03*
X166553000Y-113808600D03*
X166553000Y-133183600D03*
X167053000Y-133183600D03*
X167553000Y-133183600D03*
X168053000Y-133183600D03*
X168553000Y-133183600D03*
X169053000Y-133183600D03*
X169553000Y-133183600D03*
X170053000Y-133183600D03*
X170553000Y-133183600D03*
X171053000Y-133183600D03*
X171553000Y-133183600D03*
X172053000Y-133183600D03*
X172553000Y-133183600D03*
X173053000Y-133183600D03*
X173553000Y-133183600D03*
X174053000Y-133183600D03*
X174553000Y-133183600D03*
X175053000Y-133183600D03*
X175553000Y-133183600D03*
X176053000Y-133183600D03*
X176553000Y-133183600D03*
X177053000Y-133183600D03*
X177553000Y-133183600D03*
X178053000Y-133183600D03*
D20*
X136172000Y-124095600D03*
X137132000Y-124095600D03*
D37*
X170205400Y-78541600D03*
X170205400Y-77571600D03*
D26*
X169443400Y-102175400D03*
X169443400Y-103195400D03*
D15*
X122682000Y-112820600D03*
X122682000Y-113780600D03*
D26*
X100965000Y-133644000D03*
X100965000Y-134664000D03*
D12*
X172819000Y-112157600D03*
X171859000Y-112157600D03*
D17*
X129895600Y-86399400D03*
X129895600Y-85439400D03*
D21*
X172567600Y-62737900D03*
X172567600Y-64312900D03*
D15*
X121539000Y-127536000D03*
X121539000Y-128496000D03*
D20*
X136629200Y-53619400D03*
X137589200Y-53619400D03*
D16*
X121531000Y-69876600D03*
X122181000Y-69876600D03*
X122831000Y-69876600D03*
X123481000Y-69876600D03*
X124131000Y-69876600D03*
X124781000Y-69876600D03*
X125431000Y-69876600D03*
X126081000Y-69876600D03*
X126731000Y-69876600D03*
X127381000Y-69876600D03*
X127381000Y-64151600D03*
X126731000Y-64151600D03*
X126081000Y-64151600D03*
X125431000Y-64151600D03*
X124781000Y-64151600D03*
X124131000Y-64151600D03*
X123481000Y-64151600D03*
X122831000Y-64151600D03*
X122181000Y-64151600D03*
X121531000Y-64151600D03*
D12*
X175486000Y-70307200D03*
X174526000Y-70307200D03*
D21*
X102590600Y-132858500D03*
X102590600Y-134433500D03*
D13*
X194644200Y-98626200D03*
X193624200Y-98626200D03*
D17*
X130937000Y-73648600D03*
X130937000Y-72688600D03*
X120142000Y-64250600D03*
X120142000Y-63290600D03*
D24*
X185874100Y-82074200D03*
X185874100Y-81574200D03*
X185874100Y-81074200D03*
X185874100Y-80574200D03*
X185874100Y-80074200D03*
X185874100Y-79574200D03*
X185874100Y-79074200D03*
X185874100Y-78574200D03*
X185874100Y-78074200D03*
X185874100Y-77574200D03*
X185874100Y-77074200D03*
X185874100Y-76574200D03*
D25*
X184461600Y-75161700D03*
X183961600Y-75161700D03*
X183461600Y-75161700D03*
X182961600Y-75161700D03*
X182461600Y-75161700D03*
X181961600Y-75161700D03*
X181461600Y-75161700D03*
X180961600Y-75161700D03*
X180461600Y-75161700D03*
X179961600Y-75161700D03*
X179461600Y-75161700D03*
X178961600Y-75161700D03*
D24*
X177549100Y-76574200D03*
X177549100Y-77074200D03*
X177549100Y-77574200D03*
X177549100Y-78074200D03*
X177549100Y-78574200D03*
X177549100Y-79074200D03*
X177549100Y-79574200D03*
X177549100Y-80074200D03*
X177549100Y-80574200D03*
X177549100Y-81074200D03*
X177549100Y-81574200D03*
X177549100Y-82074200D03*
D25*
X178961600Y-83486700D03*
X179461600Y-83486700D03*
X179961600Y-83486700D03*
X180461600Y-83486700D03*
X180961600Y-83486700D03*
X181461600Y-83486700D03*
X181961600Y-83486700D03*
X182461600Y-83486700D03*
X182961600Y-83486700D03*
X183461600Y-83486700D03*
X183961600Y-83486700D03*
X184461600Y-83486700D03*
D42*
X188976000Y-90930000D03*
D43*
X187726000Y-92180000D03*
D44*
X188226000Y-92480000D03*
X188726000Y-92480000D03*
X189226000Y-92480000D03*
X189726000Y-92480000D03*
D43*
X190226000Y-92180000D03*
D45*
X190526000Y-91680000D03*
X190526000Y-91180000D03*
X190526000Y-90680000D03*
X190526000Y-90180000D03*
D43*
X190226000Y-89680000D03*
D44*
X189726000Y-89380000D03*
X189226000Y-89380000D03*
X188726000Y-89380000D03*
X188226000Y-89380000D03*
D43*
X187726000Y-89680000D03*
D45*
X187426000Y-90180000D03*
X187426000Y-90680000D03*
X187426000Y-91180000D03*
X187426000Y-91680000D03*
D17*
X140360400Y-54598600D03*
X140360400Y-53638600D03*
D46*
X120177600Y-124414700D03*
X119227600Y-124414700D03*
X118277600Y-124414700D03*
X118277600Y-126689700D03*
X120177600Y-126689700D03*
D17*
X172161200Y-73378000D03*
X172161200Y-72418000D03*
D23*
X130683000Y-112269600D03*
X130683000Y-112919600D03*
X130683000Y-113569600D03*
X130683000Y-114219600D03*
X130683000Y-114869600D03*
X130683000Y-115519600D03*
X130683000Y-116169600D03*
X130683000Y-116819600D03*
X130683000Y-117469600D03*
X130683000Y-118119600D03*
X136408000Y-118119600D03*
X136408000Y-117469600D03*
X136408000Y-116819600D03*
X136408000Y-116169600D03*
X136408000Y-115519600D03*
X136408000Y-114869600D03*
X136408000Y-114219600D03*
X136408000Y-113569600D03*
X136408000Y-112919600D03*
X136408000Y-112269600D03*
D36*
X192676200Y-91768200D03*
X194576200Y-91768200D03*
D15*
X113411000Y-64826000D03*
X113411000Y-65786000D03*
D22*
X172716600Y-66118100D03*
X172716600Y-67668100D03*
D15*
X70764400Y-115106600D03*
X70764400Y-116066600D03*
D47*
X92164200Y-136516200D03*
X90614200Y-136516200D03*
D36*
X191140000Y-76701600D03*
X193040000Y-76701600D03*
D13*
X75948000Y-115332600D03*
X74928000Y-115332600D03*
D17*
X142925800Y-55267800D03*
X142925800Y-54307800D03*
D12*
X109954000Y-70425400D03*
X108994000Y-70425400D03*
D11*
X123901200Y-58235400D03*
X123901200Y-57215400D03*
D20*
X136172000Y-110887600D03*
X137132000Y-110887600D03*
D48*
X105791000Y-122608600D03*
X105791000Y-124058600D03*
M02*
