%TF.GenerationSoftware,KiCad,Pcbnew,8.0.4*%
%TF.CreationDate,2024-08-11T20:40:13-07:00*%
%TF.ProjectId,ns32k,6e733332-6b2e-46b6-9963-61645f706362,4*%
%TF.SameCoordinates,Original*%
%TF.FileFunction,Drillmap*%
%TF.FilePolarity,Positive*%
%FSLAX45Y45*%
G04 Gerber Fmt 4.5, Leading zero omitted, Abs format (unit mm)*
G04 Created by KiCad (PCBNEW 8.0.4) date 2024-08-11 20:40:13*
%MOMM*%
%LPD*%
G01*
G04 APERTURE LIST*
%ADD10C,0.100000*%
%ADD11C,0.200000*%
%ADD12C,0.160000*%
G04 APERTURE END LIST*
D10*
X5882640Y-5021580D02*
X20436840Y-5021580D01*
X20436840Y-13977620D01*
X5882640Y-13977620D01*
X5882640Y-5021580D01*
D11*
D10*
X6083540Y-13386040D02*
X6113540Y-13416040D01*
X6113540Y-13386040D02*
X6083540Y-13416040D01*
X6225780Y-5679680D02*
X6255780Y-5709680D01*
X6255780Y-5679680D02*
X6225780Y-5709680D01*
X6289210Y-11645330D02*
X6319210Y-11675330D01*
X6319210Y-11645330D02*
X6289210Y-11675330D01*
X6327440Y-13672180D02*
X6357440Y-13702180D01*
X6357440Y-13672180D02*
X6327440Y-13702180D01*
X6345160Y-12875500D02*
X6375160Y-12905500D01*
X6375160Y-12875500D02*
X6345160Y-12905500D01*
X6360400Y-5824460D02*
X6390400Y-5854460D01*
X6390400Y-5824460D02*
X6360400Y-5854460D01*
X6370560Y-5920980D02*
X6400560Y-5950980D01*
X6400560Y-5920980D02*
X6370560Y-5950980D01*
X6395605Y-6038175D02*
X6425605Y-6068175D01*
X6425605Y-6038175D02*
X6395605Y-6068175D01*
X6604240Y-6304520D02*
X6634240Y-6334520D01*
X6634240Y-6304520D02*
X6604240Y-6334520D01*
X6690600Y-8621000D02*
X6720600Y-8651000D01*
X6720600Y-8621000D02*
X6690600Y-8651000D01*
X6708380Y-6558520D02*
X6738380Y-6588520D01*
X6738380Y-6558520D02*
X6708380Y-6588520D01*
X6799820Y-6563600D02*
X6829820Y-6593600D01*
X6829820Y-6563600D02*
X6799820Y-6593600D01*
X6868400Y-11523340D02*
X6898400Y-11553340D01*
X6898400Y-11523340D02*
X6868400Y-11553340D01*
X6889721Y-6532292D02*
X6919721Y-6562292D01*
X6919721Y-6532292D02*
X6889721Y-6562292D01*
X6959840Y-5905960D02*
X6989840Y-5935960D01*
X6989840Y-5905960D02*
X6959840Y-5935960D01*
X6967460Y-5760960D02*
X6997460Y-5790960D01*
X6997460Y-5760960D02*
X6967460Y-5790960D01*
X7018892Y-5828634D02*
X7048892Y-5858634D01*
X7048892Y-5828634D02*
X7018892Y-5858634D01*
X7029161Y-6585371D02*
X7059161Y-6615371D01*
X7059161Y-6585371D02*
X7029161Y-6615371D01*
X7056360Y-11675740D02*
X7086360Y-11705740D01*
X7086360Y-11675740D02*
X7056360Y-11705740D01*
X7218920Y-11650340D02*
X7248920Y-11680340D01*
X7248920Y-11650340D02*
X7218920Y-11680340D01*
X7234160Y-10045060D02*
X7264160Y-10075060D01*
X7264160Y-10045060D02*
X7234160Y-10075060D01*
X7284960Y-12060160D02*
X7314960Y-12090160D01*
X7314960Y-12060160D02*
X7284960Y-12090160D01*
X7447520Y-11614780D02*
X7477520Y-11644780D01*
X7477520Y-11614780D02*
X7447520Y-11644780D01*
X7671040Y-9577700D02*
X7701040Y-9607700D01*
X7701040Y-9577700D02*
X7671040Y-9607700D01*
X7676120Y-11518260D02*
X7706120Y-11548260D01*
X7706120Y-11518260D02*
X7676120Y-11548260D01*
X7696440Y-6550900D02*
X7726440Y-6580900D01*
X7726440Y-6550900D02*
X7696440Y-6580900D01*
X7696440Y-9349100D02*
X7726440Y-9379100D01*
X7726440Y-9349100D02*
X7696440Y-9379100D01*
X7788016Y-5878408D02*
X7818016Y-5908408D01*
X7818016Y-5878408D02*
X7788016Y-5908408D01*
X7810740Y-5777860D02*
X7840740Y-5807860D01*
X7840740Y-5777860D02*
X7810740Y-5807860D01*
X7935200Y-6393420D02*
X7965200Y-6423420D01*
X7965200Y-6393420D02*
X7935200Y-6423420D01*
X7951900Y-10263500D02*
X7981900Y-10293500D01*
X7981900Y-10263500D02*
X7951900Y-10293500D01*
X8001240Y-13575660D02*
X8031240Y-13605660D01*
X8031240Y-13575660D02*
X8001240Y-13605660D01*
X8021560Y-11518260D02*
X8051560Y-11548260D01*
X8051560Y-11518260D02*
X8021560Y-11548260D01*
X8064740Y-5560300D02*
X8094740Y-5590300D01*
X8094740Y-5560300D02*
X8064740Y-5590300D01*
X8072457Y-6998820D02*
X8102457Y-7028820D01*
X8102457Y-6998820D02*
X8072457Y-7028820D01*
X8204440Y-10593674D02*
X8234440Y-10623674D01*
X8234440Y-10593674D02*
X8204440Y-10623674D01*
X8260320Y-7063980D02*
X8290320Y-7093980D01*
X8290320Y-7063980D02*
X8260320Y-7093980D01*
X8372080Y-13575660D02*
X8402080Y-13605660D01*
X8402080Y-13575660D02*
X8372080Y-13605660D01*
X8458440Y-9389740D02*
X8488440Y-9419740D01*
X8488440Y-9389740D02*
X8458440Y-9419740D01*
X8528745Y-11506432D02*
X8558745Y-11536432D01*
X8558745Y-11506432D02*
X8528745Y-11536432D01*
X8836900Y-11652000D02*
X8866900Y-11682000D01*
X8866900Y-11652000D02*
X8836900Y-11682000D01*
X8839440Y-7108820D02*
X8869440Y-7138820D01*
X8869440Y-7108820D02*
X8839440Y-7138820D01*
X8885160Y-7708260D02*
X8915160Y-7738260D01*
X8915160Y-7708260D02*
X8885160Y-7738260D01*
X8892780Y-8786100D02*
X8922780Y-8816100D01*
X8922780Y-8786100D02*
X8892780Y-8816100D01*
X8940341Y-13640570D02*
X8970341Y-13670570D01*
X8970341Y-13640570D02*
X8940341Y-13670570D01*
X8956280Y-8170540D02*
X8986280Y-8200540D01*
X8986280Y-8170540D02*
X8956280Y-8200540D01*
X8966440Y-7337420D02*
X8996440Y-7367420D01*
X8996440Y-7337420D02*
X8966440Y-7367420D01*
X9097790Y-7169050D02*
X9127790Y-7199050D01*
X9127790Y-7169050D02*
X9097790Y-7199050D01*
X9192500Y-6573760D02*
X9222500Y-6603760D01*
X9222500Y-6573760D02*
X9192500Y-6603760D01*
X9210280Y-8219820D02*
X9240280Y-8249820D01*
X9240280Y-8219820D02*
X9210280Y-8249820D01*
X9436340Y-5476480D02*
X9466340Y-5506480D01*
X9466340Y-5476480D02*
X9436340Y-5506480D01*
X9489680Y-5750800D02*
X9519680Y-5780800D01*
X9519680Y-5750800D02*
X9489680Y-5780800D01*
X9489680Y-7245980D02*
X9519680Y-7275980D01*
X9519680Y-7245980D02*
X9489680Y-7275980D01*
X9548100Y-13614640D02*
X9578100Y-13644640D01*
X9578100Y-13614640D02*
X9548100Y-13644640D01*
X9576040Y-5849860D02*
X9606040Y-5879860D01*
X9606040Y-5849860D02*
X9576040Y-5879860D01*
X9588740Y-5711820D02*
X9618740Y-5741820D01*
X9618740Y-5711820D02*
X9588740Y-5741820D01*
X9621760Y-13192320D02*
X9651760Y-13222320D01*
X9651760Y-13192320D02*
X9621760Y-13222320D01*
X9631920Y-12254860D02*
X9661920Y-12284860D01*
X9661920Y-12254860D02*
X9631920Y-12284860D01*
X9748760Y-8296740D02*
X9778760Y-8326740D01*
X9778760Y-8296740D02*
X9748760Y-8326740D01*
X9840200Y-12026260D02*
X9870200Y-12056260D01*
X9870200Y-12026260D02*
X9840200Y-12056260D01*
X9840200Y-12803500D02*
X9870200Y-12833500D01*
X9870200Y-12803500D02*
X9840200Y-12833500D01*
X9846550Y-13275550D02*
X9876550Y-13305550D01*
X9876550Y-13275550D02*
X9846550Y-13305550D01*
X9855440Y-6638920D02*
X9885440Y-6668920D01*
X9885440Y-6638920D02*
X9855440Y-6668920D01*
X10084040Y-13265780D02*
X10114040Y-13295780D01*
X10114040Y-13265780D02*
X10084040Y-13295780D01*
X10134840Y-6573760D02*
X10164840Y-6603760D01*
X10164840Y-6573760D02*
X10134840Y-6603760D01*
X10172940Y-13164180D02*
X10202940Y-13194180D01*
X10202940Y-13164180D02*
X10172940Y-13194180D01*
X10327880Y-12590140D02*
X10357880Y-12620140D01*
X10357880Y-12590140D02*
X10327880Y-12620140D01*
X10343120Y-12143100D02*
X10373120Y-12173100D01*
X10373120Y-12143100D02*
X10343120Y-12173100D01*
X10434560Y-12031340D02*
X10464560Y-12061340D01*
X10464560Y-12031340D02*
X10434560Y-12061340D01*
X10442180Y-7068180D02*
X10472180Y-7098180D01*
X10472180Y-7068180D02*
X10442180Y-7098180D01*
X10459960Y-12590140D02*
X10489960Y-12620140D01*
X10489960Y-12590140D02*
X10459960Y-12620140D01*
X10465040Y-12773020D02*
X10495040Y-12803020D01*
X10495040Y-12773020D02*
X10465040Y-12803020D01*
X10515840Y-13260700D02*
X10545840Y-13290700D01*
X10545840Y-13260700D02*
X10515840Y-13290700D01*
X10737295Y-12590140D02*
X10767295Y-12620140D01*
X10767295Y-12590140D02*
X10737295Y-12620140D01*
X10764760Y-8825860D02*
X10794760Y-8855860D01*
X10794760Y-8825860D02*
X10764760Y-8855860D01*
X10785080Y-7007220D02*
X10815080Y-7037220D01*
X10815080Y-7007220D02*
X10785080Y-7037220D01*
X10785080Y-12280260D02*
X10815080Y-12310260D01*
X10815080Y-12280260D02*
X10785080Y-12310260D01*
X10790160Y-5710160D02*
X10820160Y-5740160D01*
X10820160Y-5710160D02*
X10790160Y-5740160D01*
X10805400Y-13268320D02*
X10835400Y-13298320D01*
X10835400Y-13268320D02*
X10805400Y-13298320D01*
X10810480Y-6527420D02*
X10840480Y-6557420D01*
X10840480Y-6527420D02*
X10810480Y-6557420D01*
X10871440Y-12793340D02*
X10901440Y-12823340D01*
X10901440Y-12793340D02*
X10871440Y-12823340D01*
X10872900Y-12033639D02*
X10902900Y-12063639D01*
X10902900Y-12033639D02*
X10872900Y-12063639D01*
X10881600Y-9211940D02*
X10911600Y-9241940D01*
X10911600Y-9211940D02*
X10881600Y-9241940D01*
X10917160Y-12381860D02*
X10947160Y-12411860D01*
X10947160Y-12381860D02*
X10917160Y-12411860D01*
X11022215Y-5464695D02*
X11052215Y-5494695D01*
X11052215Y-5464695D02*
X11022215Y-5494695D01*
X11100040Y-5719440D02*
X11130040Y-5749440D01*
X11130040Y-5719440D02*
X11100040Y-5749440D01*
X11125440Y-6997060D02*
X11155440Y-7027060D01*
X11155440Y-6997060D02*
X11125440Y-7027060D01*
X11176240Y-12392900D02*
X11206240Y-12422900D01*
X11206240Y-12392900D02*
X11176240Y-12422900D01*
X11214340Y-5631420D02*
X11244340Y-5661420D01*
X11244340Y-5631420D02*
X11214340Y-5661420D01*
X11247360Y-12433540D02*
X11277360Y-12463540D01*
X11277360Y-12433540D02*
X11247360Y-12463540D01*
X11265140Y-12524980D02*
X11295140Y-12554980D01*
X11295140Y-12524980D02*
X11265140Y-12554980D01*
X11270220Y-6723620D02*
X11300220Y-6753620D01*
X11300220Y-6723620D02*
X11270220Y-6753620D01*
X11305821Y-9253460D02*
X11335821Y-9283460D01*
X11335821Y-9253460D02*
X11305821Y-9283460D01*
X11336260Y-5123420D02*
X11366260Y-5153420D01*
X11366260Y-5123420D02*
X11336260Y-5153420D01*
X11491200Y-8862300D02*
X11521200Y-8892300D01*
X11521200Y-8862300D02*
X11491200Y-8892300D01*
X11567400Y-12474180D02*
X11597400Y-12504180D01*
X11597400Y-12474180D02*
X11567400Y-12504180D01*
X11604620Y-6471280D02*
X11634620Y-6501280D01*
X11634620Y-6471280D02*
X11604620Y-6501280D01*
X11610580Y-13020280D02*
X11640580Y-13050280D01*
X11640580Y-13020280D02*
X11610580Y-13050280D01*
X11742660Y-12347180D02*
X11772660Y-12377180D01*
X11772660Y-12347180D02*
X11742660Y-12377180D01*
X11742660Y-12814540D02*
X11772660Y-12844540D01*
X11772660Y-12814540D02*
X11742660Y-12844540D01*
X11806160Y-9253460D02*
X11836160Y-9283460D01*
X11836160Y-9253460D02*
X11806160Y-9283460D01*
X11948400Y-7296000D02*
X11978400Y-7326000D01*
X11978400Y-7296000D02*
X11948400Y-7326000D01*
X11953205Y-12032494D02*
X11983205Y-12062494D01*
X11983205Y-12032494D02*
X11953205Y-12062494D01*
X11989040Y-10533620D02*
X12019040Y-10563620D01*
X12019040Y-10533620D02*
X11989040Y-10563620D01*
X11989040Y-10949300D02*
X12019040Y-10979300D01*
X12019040Y-10949300D02*
X11989040Y-10979300D01*
X11999200Y-6229980D02*
X12029200Y-6259980D01*
X12029200Y-6229980D02*
X11999200Y-6259980D01*
X11999200Y-6499220D02*
X12029200Y-6529220D01*
X12029200Y-6499220D02*
X11999200Y-6529220D01*
X12050000Y-12791680D02*
X12080000Y-12821680D01*
X12080000Y-12791680D02*
X12050000Y-12821680D01*
X12080480Y-9253460D02*
X12110480Y-9283460D01*
X12110480Y-9253460D02*
X12080480Y-9283460D01*
X12132009Y-6819989D02*
X12162009Y-6849989D01*
X12162009Y-6819989D02*
X12132009Y-6849989D01*
X12136360Y-12933920D02*
X12166360Y-12963920D01*
X12166360Y-12933920D02*
X12136360Y-12963920D01*
X12204940Y-7759940D02*
X12234940Y-7789940D01*
X12234940Y-7759940D02*
X12204940Y-7789940D01*
X12232880Y-11497940D02*
X12262880Y-11527940D01*
X12262880Y-11497940D02*
X12232880Y-11527940D01*
X12263360Y-6610980D02*
X12293360Y-6640980D01*
X12293360Y-6610980D02*
X12263360Y-6640980D01*
X12395440Y-13320000D02*
X12425440Y-13350000D01*
X12425440Y-13320000D02*
X12395440Y-13350000D01*
X12471945Y-6057565D02*
X12501945Y-6087565D01*
X12501945Y-6057565D02*
X12471945Y-6087565D01*
X12479260Y-10485360D02*
X12509260Y-10515360D01*
X12509260Y-10485360D02*
X12479260Y-10515360D01*
X12491960Y-6707500D02*
X12521960Y-6737500D01*
X12521960Y-6707500D02*
X12491960Y-6737500D01*
X12509995Y-6626304D02*
X12539995Y-6656304D01*
X12539995Y-6626304D02*
X12509995Y-6656304D01*
X12510780Y-7864080D02*
X12540780Y-7894080D01*
X12540780Y-7864080D02*
X12510780Y-7894080D01*
X12514820Y-8135860D02*
X12544820Y-8165860D01*
X12544820Y-8135860D02*
X12514820Y-8165860D01*
X12525531Y-5767700D02*
X12555531Y-5797700D01*
X12555531Y-5767700D02*
X12525531Y-5797700D01*
X12550380Y-6217280D02*
X12580380Y-6247280D01*
X12580380Y-6217280D02*
X12550380Y-6247280D01*
X12554138Y-6553665D02*
X12584138Y-6583665D01*
X12584138Y-6553665D02*
X12554138Y-6583665D01*
X12560532Y-5954600D02*
X12590532Y-5984600D01*
X12590532Y-5954600D02*
X12560532Y-5984600D01*
X12575780Y-7650720D02*
X12605780Y-7680720D01*
X12605780Y-7650720D02*
X12575780Y-7680720D01*
X12589110Y-6080421D02*
X12619110Y-6110421D01*
X12619110Y-6080421D02*
X12589110Y-6110421D01*
X12606260Y-12273520D02*
X12636260Y-12303520D01*
X12636260Y-12273520D02*
X12606260Y-12303520D01*
X12613880Y-10370180D02*
X12643880Y-10400180D01*
X12643880Y-10370180D02*
X12613880Y-10400180D01*
X12624040Y-5804140D02*
X12654040Y-5834140D01*
X12654040Y-5804140D02*
X12624040Y-5834140D01*
X12634200Y-5890500D02*
X12664200Y-5920500D01*
X12664200Y-5890500D02*
X12634200Y-5920500D01*
X12644360Y-10617440D02*
X12674360Y-10647440D01*
X12674360Y-10617440D02*
X12644360Y-10647440D01*
X12653720Y-10293980D02*
X12683720Y-10323980D01*
X12683720Y-10293980D02*
X12653720Y-10323980D01*
X12654519Y-7403459D02*
X12684519Y-7433459D01*
X12684519Y-7403459D02*
X12654519Y-7433459D01*
X12705320Y-6555980D02*
X12735320Y-6585980D01*
X12735320Y-6555980D02*
X12705320Y-6585980D01*
X12706348Y-12406628D02*
X12736348Y-12436628D01*
X12736348Y-12406628D02*
X12706348Y-12436628D01*
X12735800Y-7322180D02*
X12765800Y-7352180D01*
X12765800Y-7322180D02*
X12735800Y-7352180D01*
X12745960Y-10324460D02*
X12775960Y-10354460D01*
X12775960Y-10324460D02*
X12745960Y-10354460D01*
X12781520Y-5584820D02*
X12811520Y-5614820D01*
X12811520Y-5584820D02*
X12781520Y-5614820D01*
X12786600Y-10248260D02*
X12816600Y-10278260D01*
X12816600Y-10248260D02*
X12786600Y-10278260D01*
X12793460Y-6922174D02*
X12823460Y-6952174D01*
X12823460Y-6922174D02*
X12793460Y-6952174D01*
X12820180Y-7263636D02*
X12850180Y-7293636D01*
X12850180Y-7263636D02*
X12820180Y-7293636D01*
X12827240Y-12377660D02*
X12857240Y-12407660D01*
X12857240Y-12377660D02*
X12827240Y-12407660D01*
X12827477Y-11670790D02*
X12857477Y-11700790D01*
X12857477Y-11670790D02*
X12827477Y-11700790D01*
X12845020Y-5725400D02*
X12875020Y-5755400D01*
X12875020Y-5725400D02*
X12845020Y-5755400D01*
X12872960Y-10243180D02*
X12902960Y-10273180D01*
X12902960Y-10243180D02*
X12872960Y-10273180D01*
X12893280Y-11797660D02*
X12923280Y-11827660D01*
X12923280Y-11797660D02*
X12893280Y-11827660D01*
X12898360Y-11091540D02*
X12928360Y-11121540D01*
X12928360Y-11091540D02*
X12898360Y-11121540D01*
X12902640Y-10031538D02*
X12932640Y-10061538D01*
X12932640Y-10031538D02*
X12902640Y-10061538D01*
X12902640Y-9946459D02*
X12932640Y-9976459D01*
X12932640Y-9946459D02*
X12902640Y-9976459D01*
X12915772Y-10170857D02*
X12945772Y-10200857D01*
X12945772Y-10170857D02*
X12915772Y-10200857D01*
X12923760Y-8698860D02*
X12953760Y-8728860D01*
X12953760Y-8698860D02*
X12923760Y-8728860D01*
X12928840Y-12945740D02*
X12958840Y-12975740D01*
X12958840Y-12945740D02*
X12928840Y-12975740D01*
X12931380Y-7154510D02*
X12961380Y-7184510D01*
X12961380Y-7154510D02*
X12931380Y-7184510D01*
X12933920Y-5909940D02*
X12963920Y-5939940D01*
X12963920Y-5909940D02*
X12933920Y-5939940D01*
X12954240Y-10603860D02*
X12984240Y-10633860D01*
X12984240Y-10603860D02*
X12954240Y-10633860D01*
X12972800Y-5651558D02*
X13002800Y-5681558D01*
X13002800Y-5651558D02*
X12972800Y-5681558D01*
X12979640Y-7782800D02*
X13009640Y-7812800D01*
X13009640Y-7782800D02*
X12979640Y-7812800D01*
X12980840Y-6670280D02*
X13010840Y-6700280D01*
X13010840Y-6670280D02*
X12980840Y-6700280D01*
X12996540Y-7352660D02*
X13026540Y-7382660D01*
X13026540Y-7352660D02*
X12996540Y-7382660D01*
X13004240Y-9272900D02*
X13034240Y-9302900D01*
X13034240Y-9272900D02*
X13004240Y-9302900D01*
X13035520Y-8475340D02*
X13065520Y-8505340D01*
X13065520Y-8475340D02*
X13035520Y-8505340D01*
X13071080Y-10749520D02*
X13101080Y-10779520D01*
X13101080Y-10749520D02*
X13071080Y-10779520D01*
X13071880Y-9905120D02*
X13101880Y-9935120D01*
X13101880Y-9905120D02*
X13071880Y-9935120D01*
X13081240Y-7154540D02*
X13111240Y-7184540D01*
X13111240Y-7154540D02*
X13081240Y-7184540D01*
X13095136Y-9481705D02*
X13125136Y-9511705D01*
X13125136Y-9481705D02*
X13095136Y-9511705D01*
X13099020Y-9746460D02*
X13129020Y-9776460D01*
X13129020Y-9746460D02*
X13099020Y-9776460D01*
X13116800Y-8023220D02*
X13146800Y-8053220D01*
X13146800Y-8023220D02*
X13116800Y-8053220D01*
X13208240Y-11812900D02*
X13238240Y-11842900D01*
X13238240Y-11812900D02*
X13208240Y-11842900D01*
X13218400Y-11238860D02*
X13248400Y-11268860D01*
X13248400Y-11238860D02*
X13218400Y-11268860D01*
X13231100Y-6720200D02*
X13261100Y-6750200D01*
X13261100Y-6720200D02*
X13231100Y-6750200D01*
X13232661Y-11590359D02*
X13262661Y-11620359D01*
X13262661Y-11590359D02*
X13232661Y-11620359D01*
X13237840Y-9449411D02*
X13267840Y-9479411D01*
X13267840Y-9449411D02*
X13237840Y-9479411D01*
X13246796Y-8182907D02*
X13276796Y-8212907D01*
X13276796Y-8182907D02*
X13246796Y-8212907D01*
X13253960Y-11320140D02*
X13283960Y-11350140D01*
X13283960Y-11320140D02*
X13253960Y-11350140D01*
X13274280Y-11746860D02*
X13304280Y-11776860D01*
X13304280Y-11746860D02*
X13274280Y-11776860D01*
X13290400Y-9511583D02*
X13320400Y-9541583D01*
X13320400Y-9511583D02*
X13290400Y-9541583D01*
X13299680Y-8571860D02*
X13329680Y-8601860D01*
X13329680Y-8571860D02*
X13299680Y-8601860D01*
X13309840Y-11401420D02*
X13339840Y-11431420D01*
X13339840Y-11401420D02*
X13309840Y-11431420D01*
X13312380Y-12588480D02*
X13342380Y-12618480D01*
X13342380Y-12588480D02*
X13312380Y-12618480D01*
X13325080Y-8485500D02*
X13355080Y-8515500D01*
X13355080Y-8485500D02*
X13325080Y-8515500D01*
X13345400Y-7505060D02*
X13375400Y-7535060D01*
X13375400Y-7505060D02*
X13345400Y-7535060D01*
X13355940Y-11532856D02*
X13385940Y-11562856D01*
X13385940Y-11532856D02*
X13355940Y-11562856D01*
X13361403Y-8186918D02*
X13391403Y-8216918D01*
X13391403Y-8186918D02*
X13361403Y-8216918D01*
X13375880Y-7586340D02*
X13405880Y-7616340D01*
X13405880Y-7586340D02*
X13375880Y-7616340D01*
X13391120Y-11665580D02*
X13421120Y-11695580D01*
X13421120Y-11665580D02*
X13391120Y-11695580D01*
X13406360Y-8282300D02*
X13436360Y-8312300D01*
X13436360Y-8282300D02*
X13406360Y-8312300D01*
X13411440Y-6631300D02*
X13441440Y-6661300D01*
X13441440Y-6631300D02*
X13411440Y-6661300D01*
X13466062Y-9403862D02*
X13496062Y-9433862D01*
X13496062Y-9403862D02*
X13466062Y-9433862D01*
X13477480Y-7489820D02*
X13507480Y-7519820D01*
X13507480Y-7489820D02*
X13477480Y-7519820D01*
X13482560Y-5589900D02*
X13512560Y-5619900D01*
X13512560Y-5589900D02*
X13482560Y-5619900D01*
X13484665Y-8562774D02*
X13514665Y-8592774D01*
X13514665Y-8562774D02*
X13484665Y-8592774D01*
X13492720Y-9902820D02*
X13522720Y-9932820D01*
X13522720Y-9902820D02*
X13492720Y-9932820D01*
X13492720Y-10932400D02*
X13522720Y-10962400D01*
X13522720Y-10932400D02*
X13492720Y-10962400D01*
X13523200Y-9799560D02*
X13553200Y-9829560D01*
X13553200Y-9799560D02*
X13523200Y-9829560D01*
X13548600Y-7540620D02*
X13578600Y-7570620D01*
X13578600Y-7540620D02*
X13548600Y-7570620D01*
X13548600Y-8114660D02*
X13578600Y-8144660D01*
X13578600Y-8114660D02*
X13548600Y-8144660D01*
X13548600Y-9460860D02*
X13578600Y-9490860D01*
X13578600Y-9460860D02*
X13548600Y-9490860D01*
X13558892Y-6575552D02*
X13588892Y-6605552D01*
X13588892Y-6575552D02*
X13558892Y-6605552D01*
X13561300Y-6689720D02*
X13591300Y-6719720D01*
X13591300Y-6689720D02*
X13561300Y-6719720D01*
X13564589Y-8555871D02*
X13594589Y-8585871D01*
X13594589Y-8555871D02*
X13564589Y-8585871D01*
X13568489Y-5348600D02*
X13598489Y-5378600D01*
X13598489Y-5348600D02*
X13568489Y-5378600D01*
X13574000Y-7108820D02*
X13604000Y-7138820D01*
X13604000Y-7108820D02*
X13574000Y-7138820D01*
X13581620Y-8427960D02*
X13611620Y-8457960D01*
X13611620Y-8427960D02*
X13581620Y-8457960D01*
X13604480Y-12290420D02*
X13634480Y-12320420D01*
X13634480Y-12290420D02*
X13604480Y-12320420D01*
X13621496Y-10988296D02*
X13651496Y-11018296D01*
X13651496Y-10988296D02*
X13621496Y-11018296D01*
X13629880Y-9797020D02*
X13659880Y-9827020D01*
X13659880Y-9797020D02*
X13629880Y-9827020D01*
X13660360Y-7555860D02*
X13690360Y-7585860D01*
X13690360Y-7555860D02*
X13660360Y-7585860D01*
X13675600Y-8063860D02*
X13705600Y-8093860D01*
X13705600Y-8063860D02*
X13675600Y-8093860D01*
X13701000Y-7073260D02*
X13731000Y-7103260D01*
X13731000Y-7073260D02*
X13701000Y-7103260D01*
X13716240Y-9384660D02*
X13746240Y-9414660D01*
X13746240Y-9384660D02*
X13716240Y-9414660D01*
X13731521Y-8370209D02*
X13761521Y-8400209D01*
X13761521Y-8370209D02*
X13731521Y-8400209D01*
X13751800Y-11142340D02*
X13781800Y-11172340D01*
X13781800Y-11142340D02*
X13751800Y-11172340D01*
X13792440Y-9669140D02*
X13822440Y-9699140D01*
X13822440Y-9669140D02*
X13792440Y-9699140D01*
X13807680Y-12392020D02*
X13837680Y-12422020D01*
X13837680Y-12392020D02*
X13807680Y-12422020D01*
X13809355Y-6739655D02*
X13839355Y-6769655D01*
X13839355Y-6739655D02*
X13809355Y-6769655D01*
X13816304Y-8376287D02*
X13846304Y-8406287D01*
X13846304Y-8376287D02*
X13816304Y-8406287D01*
X13822920Y-9882500D02*
X13852920Y-9912500D01*
X13852920Y-9882500D02*
X13822920Y-9912500D01*
X13828000Y-5348600D02*
X13858000Y-5378600D01*
X13858000Y-5348600D02*
X13828000Y-5378600D01*
X13828000Y-5526460D02*
X13858000Y-5556460D01*
X13858000Y-5526460D02*
X13828000Y-5556460D01*
X13863560Y-11426820D02*
X13893560Y-11456820D01*
X13893560Y-11426820D02*
X13863560Y-11456820D01*
X13872037Y-7875900D02*
X13902037Y-7905900D01*
X13902037Y-7875900D02*
X13872037Y-7905900D01*
X13877345Y-9140646D02*
X13907345Y-9170646D01*
X13907345Y-9140646D02*
X13877345Y-9170646D01*
X13888605Y-7444455D02*
X13918605Y-7474455D01*
X13918605Y-7444455D02*
X13888605Y-7474455D01*
X13899120Y-10182220D02*
X13929120Y-10212220D01*
X13929120Y-10182220D02*
X13899120Y-10212220D01*
X13900000Y-11309980D02*
X13930000Y-11339980D01*
X13930000Y-11309980D02*
X13900000Y-11339980D01*
X13904200Y-8737840D02*
X13934200Y-8767840D01*
X13934200Y-8737840D02*
X13904200Y-8767840D01*
X13904200Y-12351380D02*
X13934200Y-12381380D01*
X13934200Y-12351380D02*
X13904200Y-12381380D01*
X13909280Y-11497940D02*
X13939280Y-11527940D01*
X13939280Y-11497940D02*
X13909280Y-11527940D01*
X13914360Y-12935580D02*
X13944360Y-12965580D01*
X13944360Y-12935580D02*
X13914360Y-12965580D01*
X13919440Y-10095860D02*
X13949440Y-10125860D01*
X13949440Y-10095860D02*
X13919440Y-10125860D01*
X13919440Y-10273660D02*
X13949440Y-10303660D01*
X13949440Y-10273660D02*
X13919440Y-10303660D01*
X13931500Y-11877040D02*
X13961500Y-11907040D01*
X13961500Y-11877040D02*
X13931500Y-11907040D01*
X13942300Y-9233140D02*
X13972300Y-9263140D01*
X13972300Y-9233140D02*
X13942300Y-9263140D01*
X13946739Y-9728201D02*
X13976739Y-9758201D01*
X13976739Y-9728201D02*
X13946739Y-9758201D01*
X13960080Y-11782420D02*
X13990080Y-11812420D01*
X13990080Y-11782420D02*
X13960080Y-11812420D01*
X13965160Y-8227300D02*
X13995160Y-8257300D01*
X13995160Y-8227300D02*
X13965160Y-8257300D01*
X13965160Y-11563980D02*
X13995160Y-11593980D01*
X13995160Y-11563980D02*
X13965160Y-11593980D01*
X13975320Y-5975980D02*
X14005320Y-6005980D01*
X14005320Y-5975980D02*
X13975320Y-6005980D01*
X13980400Y-8790300D02*
X14010400Y-8820300D01*
X14010400Y-8790300D02*
X13980400Y-8820300D01*
X13980400Y-10344780D02*
X14010400Y-10374780D01*
X14010400Y-10344780D02*
X13980400Y-10374780D01*
X13985480Y-11706220D02*
X14015480Y-11736220D01*
X14015480Y-11706220D02*
X13985480Y-11736220D01*
X13990560Y-9857100D02*
X14020560Y-9887100D01*
X14020560Y-9857100D02*
X13990560Y-9887100D01*
X13990560Y-9084940D02*
X14020560Y-9114940D01*
X14020560Y-9084940D02*
X13990560Y-9114940D01*
X14005800Y-9314420D02*
X14035800Y-9344420D01*
X14035800Y-9314420D02*
X14005800Y-9344420D01*
X14026120Y-11289660D02*
X14056120Y-11319660D01*
X14056120Y-11289660D02*
X14026120Y-11319660D01*
X14038688Y-11632428D02*
X14068688Y-11662428D01*
X14068688Y-11632428D02*
X14038688Y-11662428D01*
X14042394Y-10412281D02*
X14072394Y-10442281D01*
X14072394Y-10412281D02*
X14042394Y-10442281D01*
X14046440Y-9740260D02*
X14076440Y-9770260D01*
X14076440Y-9740260D02*
X14046440Y-9770260D01*
X14052500Y-6170220D02*
X14082500Y-6200220D01*
X14082500Y-6170220D02*
X14052500Y-6200220D01*
X14066932Y-9162515D02*
X14096932Y-9192515D01*
X14096932Y-9162515D02*
X14066932Y-9192515D01*
X14074380Y-9383000D02*
X14104380Y-9413000D01*
X14104380Y-9383000D02*
X14074380Y-9413000D01*
X14092160Y-9674220D02*
X14122160Y-9704220D01*
X14122160Y-9674220D02*
X14092160Y-9704220D01*
X14092160Y-13137120D02*
X14122160Y-13167120D01*
X14122160Y-13137120D02*
X14092160Y-13167120D01*
X14112480Y-10690220D02*
X14142480Y-10720220D01*
X14142480Y-10690220D02*
X14112480Y-10720220D01*
X14130392Y-10481600D02*
X14160392Y-10511600D01*
X14160392Y-10481600D02*
X14130392Y-10511600D01*
X14142960Y-8038460D02*
X14172960Y-8068460D01*
X14172960Y-8038460D02*
X14142960Y-8068460D01*
X14148920Y-9531980D02*
X14178920Y-9561980D01*
X14178920Y-9531980D02*
X14148920Y-9561980D01*
X14156015Y-11012445D02*
X14186015Y-11042445D01*
X14186015Y-11012445D02*
X14156015Y-11042445D01*
X14163280Y-11355700D02*
X14193280Y-11385700D01*
X14193280Y-11355700D02*
X14163280Y-11385700D01*
X14193760Y-10547980D02*
X14223760Y-10577980D01*
X14223760Y-10547980D02*
X14193760Y-10577980D01*
X14224240Y-13037180D02*
X14254240Y-13067180D01*
X14254240Y-13037180D02*
X14224240Y-13067180D01*
X14239486Y-10755380D02*
X14269486Y-10785380D01*
X14269486Y-10755380D02*
X14239486Y-10785380D01*
X14240972Y-11015154D02*
X14270972Y-11045154D01*
X14270972Y-11015154D02*
X14240972Y-11045154D01*
X14246745Y-7177045D02*
X14276745Y-7207045D01*
X14276745Y-7177045D02*
X14246745Y-7207045D01*
X14268012Y-10613743D02*
X14298012Y-10643743D01*
X14298012Y-10613743D02*
X14268012Y-10643743D01*
X14289498Y-6959242D02*
X14319498Y-6989242D01*
X14319498Y-6959242D02*
X14289498Y-6989242D01*
X14290280Y-11335380D02*
X14320280Y-11365380D01*
X14320280Y-11335380D02*
X14290280Y-11365380D01*
X14290280Y-12351380D02*
X14320280Y-12381380D01*
X14320280Y-12351380D02*
X14290280Y-12381380D01*
X14295297Y-7942713D02*
X14325297Y-7972713D01*
X14325297Y-7942713D02*
X14295297Y-7972713D01*
X14320211Y-8584890D02*
X14350211Y-8614890D01*
X14350211Y-8584890D02*
X14320211Y-8614890D01*
X14343620Y-9671680D02*
X14373620Y-9701680D01*
X14373620Y-9671680D02*
X14343620Y-9701680D01*
X14381365Y-7134575D02*
X14411365Y-7164575D01*
X14411365Y-7134575D02*
X14381365Y-7164575D01*
X14396960Y-8023220D02*
X14426960Y-8053220D01*
X14426960Y-8023220D02*
X14396960Y-8053220D01*
X14417280Y-11091540D02*
X14447280Y-11121540D01*
X14447280Y-11091540D02*
X14417280Y-11121540D01*
X14463000Y-7957180D02*
X14493000Y-7987180D01*
X14493000Y-7957180D02*
X14463000Y-7987180D01*
X14493480Y-13208240D02*
X14523480Y-13238240D01*
X14523480Y-13208240D02*
X14493480Y-13238240D01*
X14502940Y-7805479D02*
X14532940Y-7835479D01*
X14532940Y-7805479D02*
X14502940Y-7835479D01*
X14508080Y-11065500D02*
X14538080Y-11095500D01*
X14538080Y-11065500D02*
X14508080Y-11095500D01*
X14544280Y-6585580D02*
X14574280Y-6615580D01*
X14574280Y-6585580D02*
X14544280Y-6615580D01*
X14544280Y-7957180D02*
X14574280Y-7987180D01*
X14574280Y-7957180D02*
X14544280Y-7987180D01*
X14579840Y-9562780D02*
X14609840Y-9592780D01*
X14609840Y-9562780D02*
X14579840Y-9592780D01*
X14584920Y-13472400D02*
X14614920Y-13502400D01*
X14614920Y-13472400D02*
X14584920Y-13502400D01*
X14584920Y-12407260D02*
X14614920Y-12437260D01*
X14614920Y-12407260D02*
X14584920Y-12437260D01*
X14584920Y-12503780D02*
X14614920Y-12533780D01*
X14614920Y-12503780D02*
X14584920Y-12533780D01*
X14592540Y-7009760D02*
X14622540Y-7039760D01*
X14622540Y-7009760D02*
X14592540Y-7039760D01*
X14594948Y-12214220D02*
X14624948Y-12244220D01*
X14624948Y-12214220D02*
X14594948Y-12244220D01*
X14615400Y-12331060D02*
X14645400Y-12361060D01*
X14645400Y-12331060D02*
X14615400Y-12361060D01*
X14617940Y-5913360D02*
X14647940Y-5943360D01*
X14647940Y-5913360D02*
X14617940Y-5943360D01*
X14630640Y-13138000D02*
X14660640Y-13168000D01*
X14660640Y-13138000D02*
X14630640Y-13168000D01*
X14640800Y-7855580D02*
X14670800Y-7885580D01*
X14670800Y-7855580D02*
X14640800Y-7885580D01*
X14650960Y-7596500D02*
X14680960Y-7626500D01*
X14680960Y-7596500D02*
X14650960Y-7626500D01*
X14654288Y-7760812D02*
X14684288Y-7790812D01*
X14684288Y-7760812D02*
X14654288Y-7790812D01*
X14661120Y-13062580D02*
X14691120Y-13092580D01*
X14691120Y-13062580D02*
X14661120Y-13092580D01*
X14666200Y-11558900D02*
X14696200Y-11588900D01*
X14696200Y-11558900D02*
X14666200Y-11588900D01*
X14727160Y-6854820D02*
X14757160Y-6884820D01*
X14757160Y-6854820D02*
X14727160Y-6884820D01*
X14727515Y-6606255D02*
X14757515Y-6636255D01*
X14757515Y-6606255D02*
X14727515Y-6636255D01*
X14742400Y-7515220D02*
X14772400Y-7545220D01*
X14772400Y-7515220D02*
X14742400Y-7545220D01*
X14742400Y-11638520D02*
X14772400Y-11668520D01*
X14772400Y-11638520D02*
X14742400Y-11668520D01*
X14767800Y-7728580D02*
X14797800Y-7758580D01*
X14797800Y-7728580D02*
X14767800Y-7758580D01*
X14788320Y-12974560D02*
X14818320Y-13004560D01*
X14818320Y-12974560D02*
X14788320Y-13004560D01*
X14818427Y-7472127D02*
X14848427Y-7502127D01*
X14848427Y-7472127D02*
X14818427Y-7502127D01*
X14850006Y-11740854D02*
X14880006Y-11770854D01*
X14880006Y-11740854D02*
X14850006Y-11770854D01*
X14869400Y-7408540D02*
X14899400Y-7438540D01*
X14899400Y-7408540D02*
X14869400Y-7438540D01*
X14884640Y-11182980D02*
X14914640Y-11212980D01*
X14914640Y-11182980D02*
X14884640Y-11212980D01*
X14892520Y-12893153D02*
X14922520Y-12923153D01*
X14922520Y-12893153D02*
X14892520Y-12923153D01*
X14902420Y-5509500D02*
X14932420Y-5539500D01*
X14932420Y-5509500D02*
X14902420Y-5539500D01*
X14917660Y-13494380D02*
X14947660Y-13524380D01*
X14947660Y-13494380D02*
X14917660Y-13524380D01*
X14926977Y-7339532D02*
X14956977Y-7369532D01*
X14956977Y-7339532D02*
X14926977Y-7369532D01*
X14932900Y-9532860D02*
X14962900Y-9562860D01*
X14962900Y-9532860D02*
X14932900Y-9562860D01*
X14976080Y-11543660D02*
X15006080Y-11573660D01*
X15006080Y-11543660D02*
X14976080Y-11573660D01*
X14996400Y-5594980D02*
X15026400Y-5624980D01*
X15026400Y-5594980D02*
X14996400Y-5624980D01*
X15001480Y-11137260D02*
X15031480Y-11167260D01*
X15031480Y-11137260D02*
X15001480Y-11167260D01*
X15011640Y-12823820D02*
X15041640Y-12853820D01*
X15041640Y-12823820D02*
X15011640Y-12853820D01*
X15103080Y-11604620D02*
X15133080Y-11634620D01*
X15133080Y-11604620D02*
X15103080Y-11634620D01*
X15108160Y-7317100D02*
X15138160Y-7347100D01*
X15138160Y-7317100D02*
X15108160Y-7347100D01*
X15140340Y-12498700D02*
X15170340Y-12528700D01*
X15170340Y-12498700D02*
X15140340Y-12528700D01*
X15145905Y-10341885D02*
X15175905Y-10371885D01*
X15175905Y-10341885D02*
X15145905Y-10371885D01*
X15146615Y-5877275D02*
X15176615Y-5907275D01*
X15176615Y-5877275D02*
X15146615Y-5907275D01*
X15194520Y-13496920D02*
X15224520Y-13526920D01*
X15224520Y-13496920D02*
X15194520Y-13526920D01*
X15204680Y-12305660D02*
X15234680Y-12335660D01*
X15234680Y-12305660D02*
X15204680Y-12335660D01*
X15216849Y-11913517D02*
X15246849Y-11943517D01*
X15246849Y-11913517D02*
X15216849Y-11943517D01*
X15240240Y-10334620D02*
X15270240Y-10364620D01*
X15270240Y-10334620D02*
X15240240Y-10364620D01*
X15253110Y-12593255D02*
X15283110Y-12623255D01*
X15283110Y-12593255D02*
X15253110Y-12623255D01*
X15321520Y-10878180D02*
X15351520Y-10908180D01*
X15351520Y-10878180D02*
X15321520Y-10908180D01*
X15343785Y-10959493D02*
X15373785Y-10989493D01*
X15373785Y-10959493D02*
X15343785Y-10989493D01*
X15351927Y-12700920D02*
X15381927Y-12730920D01*
X15381927Y-12700920D02*
X15351927Y-12730920D01*
X15352000Y-10776580D02*
X15382000Y-10806580D01*
X15382000Y-10776580D02*
X15352000Y-10806580D01*
X15418040Y-7545700D02*
X15448040Y-7575700D01*
X15448040Y-7545700D02*
X15418040Y-7575700D01*
X15444240Y-10905350D02*
X15474240Y-10935350D01*
X15474240Y-10905350D02*
X15444240Y-10935350D01*
X15446808Y-13491926D02*
X15476808Y-13521926D01*
X15476808Y-13491926D02*
X15446808Y-13521926D01*
X15463160Y-12780113D02*
X15493160Y-12810113D01*
X15493160Y-12780113D02*
X15463160Y-12810113D01*
X15474303Y-10997865D02*
X15504303Y-11027865D01*
X15504303Y-10997865D02*
X15474303Y-11027865D01*
X15479000Y-9780900D02*
X15509000Y-9810900D01*
X15509000Y-9780900D02*
X15479000Y-9810900D01*
X15539186Y-9517514D02*
X15569186Y-9547514D01*
X15569186Y-9517514D02*
X15539186Y-9547514D01*
X15572980Y-5616180D02*
X15602980Y-5646180D01*
X15602980Y-5616180D02*
X15572980Y-5646180D01*
X15626320Y-10502260D02*
X15656320Y-10532260D01*
X15656320Y-10502260D02*
X15626320Y-10532260D01*
X15656800Y-9108680D02*
X15686800Y-9138680D01*
X15686800Y-9108680D02*
X15656800Y-9138680D01*
X15694900Y-10556480D02*
X15724900Y-10586480D01*
X15724900Y-10556480D02*
X15694900Y-10586480D01*
X15697440Y-8241660D02*
X15727440Y-8271660D01*
X15727440Y-8241660D02*
X15697440Y-8271660D01*
X15717760Y-13330160D02*
X15747760Y-13360160D01*
X15747760Y-13330160D02*
X15717760Y-13360160D01*
X15727840Y-10862940D02*
X15757840Y-10892940D01*
X15757840Y-10862940D02*
X15727840Y-10892940D01*
X15793080Y-11000100D02*
X15823080Y-11030100D01*
X15823080Y-11000100D02*
X15793080Y-11030100D01*
X15809200Y-13204820D02*
X15839200Y-13234820D01*
X15839200Y-13204820D02*
X15809200Y-13234820D01*
X15814280Y-9613260D02*
X15844280Y-9643260D01*
X15844280Y-9613260D02*
X15814280Y-9643260D01*
X15839680Y-12031340D02*
X15869680Y-12061340D01*
X15869680Y-12031340D02*
X15839680Y-12061340D01*
X15849190Y-9294589D02*
X15879190Y-9324589D01*
X15879190Y-9294589D02*
X15849190Y-9324589D01*
X15858240Y-10937101D02*
X15888240Y-10967101D01*
X15888240Y-10937101D02*
X15858240Y-10967101D01*
X15875240Y-9791004D02*
X15905240Y-9821004D01*
X15905240Y-9791004D02*
X15875240Y-9821004D01*
X15915881Y-12087220D02*
X15945881Y-12117220D01*
X15945881Y-12087220D02*
X15915881Y-12117220D01*
X15920960Y-13057500D02*
X15950960Y-13087500D01*
X15950960Y-13057500D02*
X15920960Y-13087500D01*
X15948900Y-8511780D02*
X15978900Y-8541780D01*
X15978900Y-8511780D02*
X15948900Y-8541780D01*
X15982800Y-12972900D02*
X16012800Y-13002900D01*
X16012800Y-12972900D02*
X15982800Y-13002900D01*
X16017480Y-7774300D02*
X16047480Y-7804300D01*
X16047480Y-7774300D02*
X16017480Y-7804300D01*
X16035615Y-12064715D02*
X16065615Y-12094715D01*
X16065615Y-12064715D02*
X16035615Y-12094715D01*
X16059475Y-11224975D02*
X16089475Y-11254975D01*
X16089475Y-11224975D02*
X16059475Y-11254975D01*
X16061145Y-12910433D02*
X16091145Y-12940433D01*
X16091145Y-12910433D02*
X16061145Y-12940433D01*
X16113989Y-12093021D02*
X16143989Y-12123021D01*
X16143989Y-12093021D02*
X16113989Y-12123021D01*
X16132738Y-12845722D02*
X16162738Y-12875722D01*
X16162738Y-12845722D02*
X16132738Y-12875722D01*
X16138510Y-9556490D02*
X16168510Y-9586490D01*
X16168510Y-9556490D02*
X16138510Y-9586490D01*
X16190200Y-12498700D02*
X16220200Y-12528700D01*
X16220200Y-12498700D02*
X16190200Y-12528700D01*
X16196206Y-12067826D02*
X16226206Y-12097826D01*
X16226206Y-12067826D02*
X16196206Y-12097826D01*
X16205440Y-11218540D02*
X16235440Y-11248540D01*
X16235440Y-11218540D02*
X16205440Y-11248540D01*
X16219800Y-10751180D02*
X16249800Y-10781180D01*
X16249800Y-10751180D02*
X16219800Y-10781180D01*
X16223220Y-11518260D02*
X16253220Y-11548260D01*
X16253220Y-11518260D02*
X16223220Y-11548260D01*
X16246080Y-7433940D02*
X16276080Y-7463940D01*
X16276080Y-7433940D02*
X16246080Y-7463940D01*
X16261320Y-5655140D02*
X16291320Y-5685140D01*
X16291320Y-5655140D02*
X16261320Y-5685140D01*
X16267941Y-12113423D02*
X16297941Y-12143423D01*
X16297941Y-12113423D02*
X16267941Y-12143423D01*
X16312120Y-7494900D02*
X16342120Y-7524900D01*
X16342120Y-7494900D02*
X16312120Y-7524900D01*
X16322280Y-12366620D02*
X16352280Y-12396620D01*
X16352280Y-12366620D02*
X16322280Y-12396620D01*
X16322280Y-12588818D02*
X16352280Y-12618818D01*
X16352280Y-12588818D02*
X16322280Y-12618818D01*
X16342600Y-5701660D02*
X16372600Y-5731660D01*
X16372600Y-5701660D02*
X16342600Y-5731660D01*
X16389200Y-12701900D02*
X16419200Y-12731900D01*
X16419200Y-12701900D02*
X16389200Y-12731900D01*
X16403560Y-10375260D02*
X16433560Y-10405260D01*
X16433560Y-10375260D02*
X16403560Y-10405260D01*
X16418800Y-9780900D02*
X16448800Y-9810900D01*
X16448800Y-9780900D02*
X16418800Y-9810900D01*
X16464520Y-12771985D02*
X16494520Y-12801985D01*
X16494520Y-12771985D02*
X16464520Y-12801985D01*
X16482887Y-12424280D02*
X16512887Y-12454280D01*
X16512887Y-12424280D02*
X16482887Y-12454280D01*
X16484840Y-12331060D02*
X16514840Y-12361060D01*
X16514840Y-12331060D02*
X16484840Y-12361060D01*
X16487380Y-9855440D02*
X16517380Y-9885440D01*
X16517380Y-9855440D02*
X16487380Y-9885440D01*
X16489920Y-5747380D02*
X16519920Y-5777380D01*
X16519920Y-5747380D02*
X16489920Y-5777380D01*
X16555960Y-8922380D02*
X16585960Y-8952380D01*
X16585960Y-8922380D02*
X16555960Y-8952380D01*
X16571200Y-8825860D02*
X16601200Y-8855860D01*
X16601200Y-8825860D02*
X16571200Y-8855860D01*
X16642320Y-13438500D02*
X16672320Y-13468500D01*
X16672320Y-13438500D02*
X16642320Y-13468500D01*
X16701840Y-9979460D02*
X16731840Y-10009460D01*
X16731840Y-9979460D02*
X16701840Y-10009460D01*
X16743788Y-5251200D02*
X16773788Y-5281200D01*
X16773788Y-5251200D02*
X16743788Y-5281200D01*
X16751540Y-9908780D02*
X16781540Y-9938780D01*
X16781540Y-9908780D02*
X16751540Y-9938780D01*
X16780634Y-10741177D02*
X16810634Y-10771177D01*
X16810634Y-10741177D02*
X16780634Y-10771177D01*
X16789640Y-13062580D02*
X16819640Y-13092580D01*
X16819640Y-13062580D02*
X16789640Y-13092580D01*
X16794720Y-9831700D02*
X16824720Y-9861700D01*
X16824720Y-9831700D02*
X16794720Y-9861700D01*
X16796500Y-9176380D02*
X16826500Y-9206380D01*
X16826500Y-9176380D02*
X16796500Y-9206380D01*
X16840440Y-12996540D02*
X16870440Y-13026540D01*
X16870440Y-12996540D02*
X16840440Y-13026540D01*
X16853140Y-10137380D02*
X16883140Y-10167380D01*
X16883140Y-10137380D02*
X16853140Y-10167380D01*
X16870943Y-11513134D02*
X16900943Y-11543134D01*
X16900943Y-11513134D02*
X16870943Y-11543134D01*
X16891240Y-12930500D02*
X16921240Y-12960500D01*
X16921240Y-12930500D02*
X16891240Y-12960500D01*
X16901400Y-13486760D02*
X16931400Y-13516760D01*
X16931400Y-13486760D02*
X16901400Y-13516760D01*
X16906480Y-10330420D02*
X16936480Y-10360420D01*
X16936480Y-10330420D02*
X16906480Y-10360420D01*
X16906480Y-11670660D02*
X16936480Y-11700660D01*
X16936480Y-11670660D02*
X16906480Y-11700660D01*
X16946503Y-11552067D02*
X16976503Y-11582067D01*
X16976503Y-11552067D02*
X16946503Y-11582067D01*
X16952200Y-5552680D02*
X16982200Y-5582680D01*
X16982200Y-5552680D02*
X16952200Y-5582680D01*
X16952200Y-12864460D02*
X16982200Y-12894460D01*
X16982200Y-12864460D02*
X16952200Y-12894460D01*
X16955640Y-10821240D02*
X16985640Y-10851240D01*
X16985640Y-10821240D02*
X16955640Y-10851240D01*
X16986000Y-8346680D02*
X17016000Y-8376680D01*
X17016000Y-8346680D02*
X16986000Y-8376680D01*
X16986000Y-8849600D02*
X17016000Y-8879600D01*
X17016000Y-8849600D02*
X16986000Y-8879600D01*
X17005540Y-10612360D02*
X17035540Y-10642360D01*
X17035540Y-10612360D02*
X17005540Y-10642360D01*
X17020780Y-8935960D02*
X17050780Y-8965960D01*
X17050780Y-8935960D02*
X17020780Y-8965960D01*
X17027381Y-10857032D02*
X17057381Y-10887032D01*
X17057381Y-10857032D02*
X17027381Y-10887032D01*
X17033480Y-8067280D02*
X17063480Y-8097280D01*
X17063480Y-8067280D02*
X17033480Y-8097280D01*
X17036020Y-6959840D02*
X17066020Y-6989840D01*
X17066020Y-6959840D02*
X17036020Y-6989840D01*
X17104600Y-11513180D02*
X17134600Y-11543180D01*
X17134600Y-11513180D02*
X17104600Y-11543180D01*
X17109680Y-7742160D02*
X17139680Y-7772160D01*
X17139680Y-7742160D02*
X17109680Y-7772160D01*
X17114760Y-8496540D02*
X17144760Y-8526540D01*
X17144760Y-8496540D02*
X17114760Y-8526540D01*
X17147780Y-8714980D02*
X17177780Y-8744980D01*
X17177780Y-8714980D02*
X17147780Y-8744980D01*
X17170640Y-9674220D02*
X17200640Y-9704220D01*
X17200640Y-9674220D02*
X17170640Y-9704220D01*
X17175140Y-13433420D02*
X17205140Y-13463420D01*
X17205140Y-13433420D02*
X17175140Y-13463420D01*
X17180800Y-13514173D02*
X17210800Y-13544173D01*
X17210800Y-13514173D02*
X17180800Y-13544173D01*
X17206200Y-5583160D02*
X17236200Y-5613160D01*
X17236200Y-5583160D02*
X17206200Y-5613160D01*
X17206200Y-12900020D02*
X17236200Y-12930020D01*
X17236200Y-12900020D02*
X17206200Y-12930020D01*
X17208740Y-7447520D02*
X17238740Y-7477520D01*
X17238740Y-7447520D02*
X17208740Y-7477520D01*
X17230800Y-9188220D02*
X17260800Y-9218220D01*
X17260800Y-9188220D02*
X17230800Y-9218220D01*
X17236680Y-6047980D02*
X17266680Y-6077980D01*
X17266680Y-6047980D02*
X17236680Y-6077980D01*
X17241760Y-9608180D02*
X17271760Y-9638180D01*
X17271760Y-9608180D02*
X17241760Y-9638180D01*
X17244300Y-7025880D02*
X17274300Y-7055880D01*
X17274300Y-7025880D02*
X17244300Y-7055880D01*
X17259540Y-6881100D02*
X17289540Y-6911100D01*
X17289540Y-6881100D02*
X17259540Y-6911100D01*
X17283574Y-11115766D02*
X17313574Y-11145766D01*
X17313574Y-11115766D02*
X17283574Y-11145766D01*
X17287480Y-10635220D02*
X17317480Y-10665220D01*
X17317480Y-10635220D02*
X17287480Y-10665220D01*
X17341580Y-11188060D02*
X17371580Y-11218060D01*
X17371580Y-11188060D02*
X17341580Y-11218060D01*
X17352640Y-9857181D02*
X17382640Y-9887181D01*
X17382640Y-9857181D02*
X17352640Y-9887181D01*
X17353520Y-10532740D02*
X17383520Y-10562740D01*
X17383520Y-10532740D02*
X17353520Y-10562740D01*
X17353520Y-10720700D02*
X17383520Y-10750700D01*
X17383520Y-10720700D02*
X17353520Y-10750700D01*
X17361140Y-10066260D02*
X17391140Y-10096260D01*
X17391140Y-10066260D02*
X17361140Y-10096260D01*
X17371744Y-9476040D02*
X17401744Y-9506040D01*
X17401744Y-9476040D02*
X17371744Y-9506040D01*
X17396700Y-7734540D02*
X17426700Y-7764540D01*
X17426700Y-7734540D02*
X17396700Y-7764540D01*
X17400510Y-9229330D02*
X17430510Y-9259330D01*
X17430510Y-9229330D02*
X17400510Y-9259330D01*
X17404320Y-12504660D02*
X17434320Y-12534660D01*
X17434320Y-12504660D02*
X17404320Y-12534660D01*
X17421798Y-9906599D02*
X17451798Y-9936599D01*
X17451798Y-9906599D02*
X17421798Y-9936599D01*
X17450040Y-6103860D02*
X17480040Y-6133860D01*
X17480040Y-6103860D02*
X17450040Y-6133860D01*
X17453192Y-10746100D02*
X17483192Y-10776100D01*
X17483192Y-10746100D02*
X17453192Y-10776100D01*
X17467820Y-9482060D02*
X17497820Y-9512060D01*
X17497820Y-9482060D02*
X17467820Y-9512060D01*
X17480520Y-12591020D02*
X17510520Y-12621020D01*
X17510520Y-12591020D02*
X17480520Y-12621020D01*
X17500840Y-10834119D02*
X17530840Y-10864119D01*
X17530840Y-10834119D02*
X17500840Y-10864119D01*
X17503380Y-8359380D02*
X17533380Y-8389380D01*
X17533380Y-8359380D02*
X17503380Y-8389380D01*
X17511000Y-8626080D02*
X17541000Y-8656080D01*
X17541000Y-8626080D02*
X17511000Y-8656080D01*
X17517795Y-10920218D02*
X17547795Y-10950218D01*
X17547795Y-10920218D02*
X17517795Y-10950218D01*
X17523700Y-8852140D02*
X17553700Y-8882140D01*
X17553700Y-8852140D02*
X17523700Y-8882140D01*
X17538940Y-12697700D02*
X17568940Y-12727700D01*
X17568940Y-12697700D02*
X17538940Y-12727700D01*
X17554180Y-11074640D02*
X17584180Y-11104640D01*
X17584180Y-11074640D02*
X17554180Y-11104640D01*
X17575140Y-10982960D02*
X17605140Y-11012960D01*
X17605140Y-10982960D02*
X17575140Y-11012960D01*
X17599900Y-6578840D02*
X17629900Y-6608840D01*
X17629900Y-6578840D02*
X17599900Y-6608840D01*
X17604100Y-12773900D02*
X17634100Y-12803900D01*
X17634100Y-12773900D02*
X17604100Y-12803900D01*
X17604980Y-7947899D02*
X17634980Y-7977899D01*
X17634980Y-7947899D02*
X17604980Y-7977899D01*
X17607520Y-8189200D02*
X17637520Y-8219200D01*
X17637520Y-8189200D02*
X17607520Y-8219200D01*
X17617680Y-5176760D02*
X17647680Y-5206760D01*
X17647680Y-5176760D02*
X17617680Y-5206760D01*
X17648160Y-7020800D02*
X17678160Y-7050800D01*
X17678160Y-7020800D02*
X17648160Y-7050800D01*
X17673560Y-9057880D02*
X17703560Y-9087880D01*
X17703560Y-9057880D02*
X17673560Y-9087880D01*
X17676138Y-9478380D02*
X17706138Y-9508380D01*
X17706138Y-9478380D02*
X17676138Y-9508380D01*
X17678369Y-8873232D02*
X17708369Y-8903232D01*
X17708369Y-8873232D02*
X17678369Y-8903232D01*
X17678640Y-9824960D02*
X17708640Y-9854960D01*
X17708640Y-9824960D02*
X17678640Y-9854960D01*
X17678902Y-9631920D02*
X17708902Y-9661920D01*
X17708902Y-9631920D02*
X17678902Y-9661920D01*
X17680400Y-8956280D02*
X17710400Y-8986280D01*
X17710400Y-8956280D02*
X17680400Y-8986280D01*
X17757380Y-7439900D02*
X17787380Y-7469900D01*
X17787380Y-7439900D02*
X17757380Y-7469900D01*
X17790300Y-13438400D02*
X17820300Y-13468400D01*
X17820300Y-13438400D02*
X17790300Y-13468400D01*
X17792542Y-8347766D02*
X17822542Y-8377766D01*
X17822542Y-8347766D02*
X17792542Y-8377766D01*
X17800560Y-7010640D02*
X17830560Y-7040640D01*
X17830560Y-7010640D02*
X17800560Y-7040640D01*
X17816898Y-11182418D02*
X17846898Y-11212418D01*
X17846898Y-11182418D02*
X17816898Y-11212418D01*
X17860039Y-7682080D02*
X17890039Y-7712080D01*
X17890039Y-7682080D02*
X17860039Y-7712080D01*
X17864060Y-10830800D02*
X17894060Y-10860800D01*
X17894060Y-10830800D02*
X17864060Y-10860800D01*
X17907240Y-6649960D02*
X17937240Y-6679960D01*
X17937240Y-6649960D02*
X17907240Y-6679960D01*
X17919940Y-7013180D02*
X17949940Y-7043180D01*
X17949940Y-7013180D02*
X17919940Y-7043180D01*
X17955500Y-7752320D02*
X17985500Y-7782320D01*
X17985500Y-7752320D02*
X17955500Y-7782320D01*
X17959289Y-10948743D02*
X17989289Y-10978743D01*
X17989289Y-10948743D02*
X17959289Y-10978743D01*
X17970740Y-8516860D02*
X18000740Y-8546860D01*
X18000740Y-8516860D02*
X17970740Y-8546860D01*
X17977617Y-10809393D02*
X18007617Y-10839393D01*
X18007617Y-10809393D02*
X17977617Y-10839393D01*
X17979339Y-8154619D02*
X18009339Y-8184619D01*
X18009339Y-8154619D02*
X17979339Y-8184619D01*
X18026620Y-7015720D02*
X18056620Y-7045720D01*
X18056620Y-7015720D02*
X18026620Y-7045720D01*
X18174073Y-7617113D02*
X18204073Y-7647113D01*
X18204073Y-7617113D02*
X18174073Y-7647113D01*
X18181560Y-6037820D02*
X18211560Y-6067820D01*
X18211560Y-6037820D02*
X18181560Y-6067820D01*
X18184100Y-5628880D02*
X18214100Y-5658880D01*
X18214100Y-5628880D02*
X18184100Y-5658880D01*
X18217672Y-8765938D02*
X18247672Y-8795938D01*
X18247672Y-8765938D02*
X18217672Y-8795938D01*
X18225720Y-7678209D02*
X18255720Y-7708209D01*
X18255720Y-7678209D02*
X18225720Y-7708209D01*
X18230881Y-8634490D02*
X18260881Y-8664490D01*
X18260881Y-8634490D02*
X18230881Y-8664490D01*
X18241939Y-8498973D02*
X18271939Y-8528973D01*
X18271939Y-8498973D02*
X18241939Y-8528973D01*
X18257760Y-6484860D02*
X18287760Y-6514860D01*
X18287760Y-6484860D02*
X18257760Y-6514860D01*
X18275540Y-7965680D02*
X18305540Y-7995680D01*
X18305540Y-7965680D02*
X18275540Y-7995680D01*
X18278080Y-6898880D02*
X18308080Y-6928880D01*
X18308080Y-6898880D02*
X18278080Y-6928880D01*
X18288240Y-8938500D02*
X18318240Y-8968500D01*
X18318240Y-8938500D02*
X18288240Y-8968500D01*
X18288439Y-9382801D02*
X18318439Y-9412801D01*
X18318439Y-9382801D02*
X18288439Y-9412801D01*
X18300940Y-8697200D02*
X18330940Y-8727200D01*
X18330940Y-8697200D02*
X18300940Y-8727200D01*
X18307611Y-8603509D02*
X18337611Y-8633509D01*
X18337611Y-8603509D02*
X18307611Y-8633509D01*
X18319086Y-8521064D02*
X18349086Y-8551064D01*
X18349086Y-8521064D02*
X18319086Y-8551064D01*
X18364051Y-8196980D02*
X18394051Y-8226980D01*
X18394051Y-8196980D02*
X18364051Y-8226980D01*
X18407620Y-7251940D02*
X18437620Y-7281940D01*
X18437620Y-7251940D02*
X18407620Y-7281940D01*
X18425400Y-7739620D02*
X18455400Y-7769620D01*
X18455400Y-7739620D02*
X18425400Y-7769620D01*
X18427940Y-8674340D02*
X18457940Y-8704340D01*
X18457940Y-8674340D02*
X18427940Y-8704340D01*
X18434680Y-7970963D02*
X18464680Y-8000963D01*
X18464680Y-7970963D02*
X18434680Y-8000963D01*
X18445583Y-8107580D02*
X18475583Y-8137580D01*
X18475583Y-8107580D02*
X18445583Y-8137580D01*
X18446899Y-8199746D02*
X18476899Y-8229746D01*
X18476899Y-8199746D02*
X18446899Y-8229746D01*
X18468580Y-9682720D02*
X18498580Y-9712720D01*
X18498580Y-9682720D02*
X18468580Y-9712720D01*
X18486360Y-9065500D02*
X18516360Y-9095500D01*
X18516360Y-9065500D02*
X18486360Y-9095500D01*
X18506680Y-7460220D02*
X18536680Y-7490220D01*
X18536680Y-7460220D02*
X18506680Y-7490220D01*
X18567010Y-9699870D02*
X18597010Y-9729870D01*
X18597010Y-9699870D02*
X18567010Y-9729870D01*
X18571355Y-9066462D02*
X18601355Y-9096462D01*
X18601355Y-9066462D02*
X18571355Y-9096462D01*
X18615900Y-7025880D02*
X18645900Y-7055880D01*
X18645900Y-7025880D02*
X18615900Y-7055880D01*
X18618440Y-7427200D02*
X18648440Y-7457200D01*
X18648440Y-7427200D02*
X18618440Y-7457200D01*
X18702260Y-7930120D02*
X18732260Y-7960120D01*
X18732260Y-7930120D02*
X18702260Y-7960120D01*
X18857599Y-9341961D02*
X18887599Y-9371961D01*
X18887599Y-9341961D02*
X18857599Y-9371961D01*
X18882600Y-8029180D02*
X18912600Y-8059180D01*
X18912600Y-8029180D02*
X18882600Y-8059180D01*
X18887680Y-8331440D02*
X18917680Y-8361440D01*
X18917680Y-8331440D02*
X18887680Y-8361440D01*
X18890220Y-7338300D02*
X18920220Y-7368300D01*
X18920220Y-7338300D02*
X18890220Y-7368300D01*
X18895500Y-8618260D02*
X18925500Y-8648260D01*
X18925500Y-8618260D02*
X18895500Y-8648260D01*
X19012340Y-8846860D02*
X19042340Y-8876860D01*
X19042340Y-8846860D02*
X19012340Y-8876860D01*
X19119020Y-9532660D02*
X19149020Y-9562660D01*
X19149020Y-9532660D02*
X19119020Y-9562660D01*
X19125040Y-9108078D02*
X19155040Y-9138078D01*
X19155040Y-9108078D02*
X19125040Y-9138078D01*
X19200100Y-7297660D02*
X19230100Y-7327660D01*
X19230100Y-7297660D02*
X19200100Y-7327660D01*
X19261260Y-9969540D02*
X19291260Y-9999540D01*
X19291260Y-9969540D02*
X19261260Y-9999540D01*
X19276500Y-9288821D02*
X19306500Y-9318821D01*
X19306500Y-9288821D02*
X19276500Y-9318821D01*
X19299360Y-9558060D02*
X19329360Y-9588060D01*
X19329360Y-9558060D02*
X19299360Y-9588060D01*
X19331160Y-8114900D02*
X19361160Y-8144900D01*
X19361160Y-8114900D02*
X19331160Y-8144900D01*
X19359100Y-7932020D02*
X19389100Y-7962020D01*
X19389100Y-7932020D02*
X19359100Y-7962020D01*
X19399740Y-7650080D02*
X19429740Y-7680080D01*
X19429740Y-7650080D02*
X19399740Y-7680080D01*
X19413661Y-9304059D02*
X19443661Y-9334059D01*
X19443661Y-9304059D02*
X19413661Y-9334059D01*
X19469540Y-8857020D02*
X19499540Y-8887020D01*
X19499540Y-8857020D02*
X19469540Y-8887020D01*
X19471880Y-8976600D02*
X19501880Y-9006600D01*
X19501880Y-8976600D02*
X19471880Y-9006600D01*
X19535580Y-9387880D02*
X19565580Y-9417880D01*
X19565580Y-9387880D02*
X19535580Y-9417880D01*
X19535580Y-9476780D02*
X19565580Y-9506780D01*
X19565580Y-9476780D02*
X19535580Y-9506780D01*
X19590500Y-9646960D02*
X19620500Y-9676960D01*
X19620500Y-9646960D02*
X19590500Y-9676960D01*
X19594255Y-9783865D02*
X19624255Y-9813865D01*
X19624255Y-9783865D02*
X19594255Y-9813865D01*
X19600705Y-8998345D02*
X19630705Y-9028345D01*
X19630705Y-8998345D02*
X19600705Y-9028345D01*
X19809700Y-10084040D02*
X19839700Y-10114040D01*
X19839700Y-10084040D02*
X19809700Y-10114040D01*
X19809900Y-8681760D02*
X19839900Y-8711760D01*
X19839900Y-8681760D02*
X19809900Y-8711760D01*
X12407580Y-7978140D02*
G75*
G02*
X12367580Y-7978140I-20000J0D01*
G01*
X12367580Y-7978140D02*
G75*
G02*
X12407580Y-7978140I20000J0D01*
G01*
X12410120Y-8542020D02*
G75*
G02*
X12370120Y-8542020I-20000J0D01*
G01*
X12370120Y-8542020D02*
G75*
G02*
X12410120Y-8542020I20000J0D01*
G01*
X19813920Y-8930920D02*
X19813920Y-8990920D01*
X19783920Y-8960920D02*
X19843920Y-8960920D01*
X19868920Y-8930920D02*
X19758920Y-8930920D01*
X19758920Y-8990920D02*
G75*
G02*
X19758920Y-8930920I0J30000D01*
G01*
X19758920Y-8990920D02*
X19868920Y-8990920D01*
X19868920Y-8990920D02*
G75*
G03*
X19868920Y-8930920I0J30000D01*
G01*
X19813920Y-9794920D02*
X19813920Y-9854920D01*
X19783920Y-9824920D02*
X19843920Y-9824920D01*
X19868920Y-9794920D02*
X19758920Y-9794920D01*
X19758920Y-9854920D02*
G75*
G02*
X19758920Y-9794920I0J30000D01*
G01*
X19758920Y-9854920D02*
X19868920Y-9854920D01*
X19868920Y-9854920D02*
G75*
G03*
X19868920Y-9794920I0J30000D01*
G01*
X20231920Y-8930920D02*
X20231920Y-8990920D01*
X20201920Y-8960920D02*
X20261920Y-8960920D01*
X20261920Y-8930920D02*
X20201920Y-8930920D01*
X20201920Y-8990920D02*
G75*
G02*
X20201920Y-8930920I0J30000D01*
G01*
X20201920Y-8990920D02*
X20261920Y-8990920D01*
X20261920Y-8990920D02*
G75*
G03*
X20261920Y-8930920I0J30000D01*
G01*
X20231920Y-9794920D02*
X20231920Y-9854920D01*
X20201920Y-9824920D02*
X20261920Y-9824920D01*
X20261920Y-9794920D02*
X20201920Y-9794920D01*
X20201920Y-9854920D02*
G75*
G02*
X20201920Y-9794920I0J30000D01*
G01*
X20201920Y-9854920D02*
X20261920Y-9854920D01*
X20261920Y-9854920D02*
G75*
G03*
X20261920Y-9794920I0J30000D01*
G01*
X6213184Y-5338545D02*
X6213184Y-5281976D01*
X6156615Y-5281976D01*
X6156615Y-5338545D01*
X6213184Y-5338545D01*
X6213184Y-6862544D02*
X6213184Y-6805975D01*
X6156615Y-6805975D01*
X6156615Y-6862544D01*
X6213184Y-6862544D01*
X6217184Y-7561044D02*
X6217184Y-7504475D01*
X6160615Y-7504475D01*
X6160615Y-7561044D01*
X6217184Y-7561044D01*
X6217184Y-9085045D02*
X6217184Y-9028476D01*
X6160615Y-9028476D01*
X6160615Y-9085045D01*
X6217184Y-9085045D01*
X6217184Y-9796245D02*
X6217184Y-9739676D01*
X6160615Y-9739676D01*
X6160615Y-9796245D01*
X6217184Y-9796245D01*
X6217184Y-11320244D02*
X6217184Y-11263675D01*
X6160615Y-11263675D01*
X6160615Y-11320244D01*
X6217184Y-11320244D01*
X6467184Y-5338545D02*
X6467184Y-5281976D01*
X6410615Y-5281976D01*
X6410615Y-5338545D01*
X6467184Y-5338545D01*
X6467184Y-6862544D02*
X6467184Y-6805975D01*
X6410615Y-6805975D01*
X6410615Y-6862544D01*
X6467184Y-6862544D01*
X6471184Y-7561044D02*
X6471184Y-7504475D01*
X6414615Y-7504475D01*
X6414615Y-7561044D01*
X6471184Y-7561044D01*
X6471184Y-9085045D02*
X6471184Y-9028476D01*
X6414615Y-9028476D01*
X6414615Y-9085045D01*
X6471184Y-9085045D01*
X6471184Y-9796245D02*
X6471184Y-9739676D01*
X6414615Y-9739676D01*
X6414615Y-9796245D01*
X6471184Y-9796245D01*
X6471184Y-11320244D02*
X6471184Y-11263675D01*
X6414615Y-11263675D01*
X6414615Y-11320244D01*
X6471184Y-11320244D01*
X6609424Y-11901904D02*
X6609424Y-11845335D01*
X6552855Y-11845335D01*
X6552855Y-11901904D01*
X6609424Y-11901904D01*
X6609424Y-13425904D02*
X6609424Y-13369335D01*
X6552855Y-13369335D01*
X6552855Y-13425904D01*
X6609424Y-13425904D01*
X6721184Y-5338545D02*
X6721184Y-5281976D01*
X6664615Y-5281976D01*
X6664615Y-5338545D01*
X6721184Y-5338545D01*
X6721184Y-6862544D02*
X6721184Y-6805975D01*
X6664615Y-6805975D01*
X6664615Y-6862544D01*
X6721184Y-6862544D01*
X6725184Y-7561044D02*
X6725184Y-7504475D01*
X6668615Y-7504475D01*
X6668615Y-7561044D01*
X6725184Y-7561044D01*
X6725184Y-9085045D02*
X6725184Y-9028476D01*
X6668615Y-9028476D01*
X6668615Y-9085045D01*
X6725184Y-9085045D01*
X6725184Y-9796245D02*
X6725184Y-9739676D01*
X6668615Y-9739676D01*
X6668615Y-9796245D01*
X6725184Y-9796245D01*
X6725184Y-11320244D02*
X6725184Y-11263675D01*
X6668615Y-11263675D01*
X6668615Y-11320244D01*
X6725184Y-11320244D01*
X6863424Y-11901904D02*
X6863424Y-11845335D01*
X6806855Y-11845335D01*
X6806855Y-11901904D01*
X6863424Y-11901904D01*
X6863424Y-13425904D02*
X6863424Y-13369335D01*
X6806855Y-13369335D01*
X6806855Y-13425904D01*
X6863424Y-13425904D01*
X6975184Y-5338545D02*
X6975184Y-5281976D01*
X6918615Y-5281976D01*
X6918615Y-5338545D01*
X6975184Y-5338545D01*
X6975184Y-6862544D02*
X6975184Y-6805975D01*
X6918615Y-6805975D01*
X6918615Y-6862544D01*
X6975184Y-6862544D01*
X6979184Y-7561044D02*
X6979184Y-7504475D01*
X6922615Y-7504475D01*
X6922615Y-7561044D01*
X6979184Y-7561044D01*
X6979184Y-9085045D02*
X6979184Y-9028476D01*
X6922615Y-9028476D01*
X6922615Y-9085045D01*
X6979184Y-9085045D01*
X6979184Y-9796245D02*
X6979184Y-9739676D01*
X6922615Y-9739676D01*
X6922615Y-9796245D01*
X6979184Y-9796245D01*
X6979184Y-11320244D02*
X6979184Y-11263675D01*
X6922615Y-11263675D01*
X6922615Y-11320244D01*
X6979184Y-11320244D01*
X7117424Y-11901904D02*
X7117424Y-11845335D01*
X7060855Y-11845335D01*
X7060855Y-11901904D01*
X7117424Y-11901904D01*
X7117424Y-13425904D02*
X7117424Y-13369335D01*
X7060855Y-13369335D01*
X7060855Y-13425904D01*
X7117424Y-13425904D01*
X7229184Y-5338545D02*
X7229184Y-5281976D01*
X7172615Y-5281976D01*
X7172615Y-5338545D01*
X7229184Y-5338545D01*
X7229184Y-6862544D02*
X7229184Y-6805975D01*
X7172615Y-6805975D01*
X7172615Y-6862544D01*
X7229184Y-6862544D01*
X7233184Y-7561044D02*
X7233184Y-7504475D01*
X7176615Y-7504475D01*
X7176615Y-7561044D01*
X7233184Y-7561044D01*
X7233184Y-9085045D02*
X7233184Y-9028476D01*
X7176615Y-9028476D01*
X7176615Y-9085045D01*
X7233184Y-9085045D01*
X7233184Y-9796245D02*
X7233184Y-9739676D01*
X7176615Y-9739676D01*
X7176615Y-9796245D01*
X7233184Y-9796245D01*
X7233184Y-11320244D02*
X7233184Y-11263675D01*
X7176615Y-11263675D01*
X7176615Y-11320244D01*
X7233184Y-11320244D01*
X7371424Y-11901904D02*
X7371424Y-11845335D01*
X7314855Y-11845335D01*
X7314855Y-11901904D01*
X7371424Y-11901904D01*
X7371424Y-13425904D02*
X7371424Y-13369335D01*
X7314855Y-13369335D01*
X7314855Y-13425904D01*
X7371424Y-13425904D01*
X7483184Y-5338545D02*
X7483184Y-5281976D01*
X7426615Y-5281976D01*
X7426615Y-5338545D01*
X7483184Y-5338545D01*
X7483184Y-6862544D02*
X7483184Y-6805975D01*
X7426615Y-6805975D01*
X7426615Y-6862544D01*
X7483184Y-6862544D01*
X7487184Y-7561044D02*
X7487184Y-7504475D01*
X7430615Y-7504475D01*
X7430615Y-7561044D01*
X7487184Y-7561044D01*
X7487184Y-9085045D02*
X7487184Y-9028476D01*
X7430615Y-9028476D01*
X7430615Y-9085045D01*
X7487184Y-9085045D01*
X7487184Y-9796245D02*
X7487184Y-9739676D01*
X7430615Y-9739676D01*
X7430615Y-9796245D01*
X7487184Y-9796245D01*
X7487184Y-11320244D02*
X7487184Y-11263675D01*
X7430615Y-11263675D01*
X7430615Y-11320244D01*
X7487184Y-11320244D01*
X7625424Y-11901904D02*
X7625424Y-11845335D01*
X7568855Y-11845335D01*
X7568855Y-11901904D01*
X7625424Y-11901904D01*
X7625424Y-13425904D02*
X7625424Y-13369335D01*
X7568855Y-13369335D01*
X7568855Y-13425904D01*
X7625424Y-13425904D01*
X7737184Y-5338545D02*
X7737184Y-5281976D01*
X7680615Y-5281976D01*
X7680615Y-5338545D01*
X7737184Y-5338545D01*
X7737184Y-6862544D02*
X7737184Y-6805975D01*
X7680615Y-6805975D01*
X7680615Y-6862544D01*
X7737184Y-6862544D01*
X7741184Y-7561044D02*
X7741184Y-7504475D01*
X7684615Y-7504475D01*
X7684615Y-7561044D01*
X7741184Y-7561044D01*
X7741184Y-9085045D02*
X7741184Y-9028476D01*
X7684615Y-9028476D01*
X7684615Y-9085045D01*
X7741184Y-9085045D01*
X7741184Y-9796245D02*
X7741184Y-9739676D01*
X7684615Y-9739676D01*
X7684615Y-9796245D01*
X7741184Y-9796245D01*
X7741184Y-11320244D02*
X7741184Y-11263675D01*
X7684615Y-11263675D01*
X7684615Y-11320244D01*
X7741184Y-11320244D01*
X7879424Y-11901904D02*
X7879424Y-11845335D01*
X7822855Y-11845335D01*
X7822855Y-11901904D01*
X7879424Y-11901904D01*
X7879424Y-13425904D02*
X7879424Y-13369335D01*
X7822855Y-13369335D01*
X7822855Y-13425904D01*
X7879424Y-13425904D01*
X7991184Y-5338545D02*
X7991184Y-5281976D01*
X7934615Y-5281976D01*
X7934615Y-5338545D01*
X7991184Y-5338545D01*
X7991184Y-6862544D02*
X7991184Y-6805975D01*
X7934615Y-6805975D01*
X7934615Y-6862544D01*
X7991184Y-6862544D01*
X7995184Y-7561044D02*
X7995184Y-7504475D01*
X7938615Y-7504475D01*
X7938615Y-7561044D01*
X7995184Y-7561044D01*
X7995184Y-9085045D02*
X7995184Y-9028476D01*
X7938615Y-9028476D01*
X7938615Y-9085045D01*
X7995184Y-9085045D01*
X7995184Y-9796245D02*
X7995184Y-9739676D01*
X7938615Y-9739676D01*
X7938615Y-9796245D01*
X7995184Y-9796245D01*
X7995184Y-11320244D02*
X7995184Y-11263675D01*
X7938615Y-11263675D01*
X7938615Y-11320244D01*
X7995184Y-11320244D01*
X8133424Y-11901904D02*
X8133424Y-11845335D01*
X8076855Y-11845335D01*
X8076855Y-11901904D01*
X8133424Y-11901904D01*
X8133424Y-13425904D02*
X8133424Y-13369335D01*
X8076855Y-13369335D01*
X8076855Y-13425904D01*
X8133424Y-13425904D01*
X8245184Y-5338545D02*
X8245184Y-5281976D01*
X8188615Y-5281976D01*
X8188615Y-5338545D01*
X8245184Y-5338545D01*
X8245184Y-6862544D02*
X8245184Y-6805975D01*
X8188615Y-6805975D01*
X8188615Y-6862544D01*
X8245184Y-6862544D01*
X8249184Y-7561044D02*
X8249184Y-7504475D01*
X8192615Y-7504475D01*
X8192615Y-7561044D01*
X8249184Y-7561044D01*
X8249184Y-9085045D02*
X8249184Y-9028476D01*
X8192615Y-9028476D01*
X8192615Y-9085045D01*
X8249184Y-9085045D01*
X8249184Y-9796245D02*
X8249184Y-9739676D01*
X8192615Y-9739676D01*
X8192615Y-9796245D01*
X8249184Y-9796245D01*
X8249184Y-11320244D02*
X8249184Y-11263675D01*
X8192615Y-11263675D01*
X8192615Y-11320244D01*
X8249184Y-11320244D01*
X8387424Y-11901904D02*
X8387424Y-11845335D01*
X8330855Y-11845335D01*
X8330855Y-11901904D01*
X8387424Y-11901904D01*
X8387424Y-13425904D02*
X8387424Y-13369335D01*
X8330855Y-13369335D01*
X8330855Y-13425904D01*
X8387424Y-13425904D01*
X8499185Y-5338545D02*
X8499185Y-5281976D01*
X8442616Y-5281976D01*
X8442616Y-5338545D01*
X8499185Y-5338545D01*
X8499185Y-6862544D02*
X8499185Y-6805975D01*
X8442616Y-6805975D01*
X8442616Y-6862544D01*
X8499185Y-6862544D01*
X8503185Y-7561044D02*
X8503185Y-7504475D01*
X8446616Y-7504475D01*
X8446616Y-7561044D01*
X8503185Y-7561044D01*
X8503185Y-9085045D02*
X8503185Y-9028476D01*
X8446616Y-9028476D01*
X8446616Y-9085045D01*
X8503185Y-9085045D01*
X8503185Y-9796245D02*
X8503185Y-9739676D01*
X8446616Y-9739676D01*
X8446616Y-9796245D01*
X8503185Y-9796245D01*
X8503185Y-11320244D02*
X8503185Y-11263675D01*
X8446616Y-11263675D01*
X8446616Y-11320244D01*
X8503185Y-11320244D01*
X8641425Y-11901904D02*
X8641425Y-11845335D01*
X8584856Y-11845335D01*
X8584856Y-11901904D01*
X8641425Y-11901904D01*
X8641425Y-13425904D02*
X8641425Y-13369335D01*
X8584856Y-13369335D01*
X8584856Y-13425904D01*
X8641425Y-13425904D01*
X8753185Y-5338545D02*
X8753185Y-5281976D01*
X8696616Y-5281976D01*
X8696616Y-5338545D01*
X8753185Y-5338545D01*
X8753185Y-6862544D02*
X8753185Y-6805975D01*
X8696616Y-6805975D01*
X8696616Y-6862544D01*
X8753185Y-6862544D01*
X8757185Y-7561044D02*
X8757185Y-7504475D01*
X8700616Y-7504475D01*
X8700616Y-7561044D01*
X8757185Y-7561044D01*
X8757185Y-9085045D02*
X8757185Y-9028476D01*
X8700616Y-9028476D01*
X8700616Y-9085045D01*
X8757185Y-9085045D01*
X8757185Y-9796245D02*
X8757185Y-9739676D01*
X8700616Y-9739676D01*
X8700616Y-9796245D01*
X8757185Y-9796245D01*
X8757185Y-11320244D02*
X8757185Y-11263675D01*
X8700616Y-11263675D01*
X8700616Y-11320244D01*
X8757185Y-11320244D01*
X8895425Y-11901904D02*
X8895425Y-11845335D01*
X8838856Y-11845335D01*
X8838856Y-11901904D01*
X8895425Y-11901904D01*
X8895425Y-13425904D02*
X8895425Y-13369335D01*
X8838856Y-13369335D01*
X8838856Y-13425904D01*
X8895425Y-13425904D01*
X9007185Y-5338545D02*
X9007185Y-5281976D01*
X8950616Y-5281976D01*
X8950616Y-5338545D01*
X9007185Y-5338545D01*
X9007185Y-6862544D02*
X9007185Y-6805975D01*
X8950616Y-6805975D01*
X8950616Y-6862544D01*
X9007185Y-6862544D01*
X9011185Y-7561044D02*
X9011185Y-7504475D01*
X8954616Y-7504475D01*
X8954616Y-7561044D01*
X9011185Y-7561044D01*
X9011185Y-9085045D02*
X9011185Y-9028476D01*
X8954616Y-9028476D01*
X8954616Y-9085045D01*
X9011185Y-9085045D01*
X9011185Y-9796245D02*
X9011185Y-9739676D01*
X8954616Y-9739676D01*
X8954616Y-9796245D01*
X9011185Y-9796245D01*
X9011185Y-11320244D02*
X9011185Y-11263675D01*
X8954616Y-11263675D01*
X8954616Y-11320244D01*
X9011185Y-11320244D01*
X9149425Y-11901904D02*
X9149425Y-11845335D01*
X9092856Y-11845335D01*
X9092856Y-11901904D01*
X9149425Y-11901904D01*
X9149425Y-13425904D02*
X9149425Y-13369335D01*
X9092856Y-13369335D01*
X9092856Y-13425904D01*
X9149425Y-13425904D01*
X9261185Y-5338545D02*
X9261185Y-5281976D01*
X9204616Y-5281976D01*
X9204616Y-5338545D01*
X9261185Y-5338545D01*
X9261185Y-6862544D02*
X9261185Y-6805975D01*
X9204616Y-6805975D01*
X9204616Y-6862544D01*
X9261185Y-6862544D01*
X9265185Y-7561044D02*
X9265185Y-7504475D01*
X9208616Y-7504475D01*
X9208616Y-7561044D01*
X9265185Y-7561044D01*
X9265185Y-9085045D02*
X9265185Y-9028476D01*
X9208616Y-9028476D01*
X9208616Y-9085045D01*
X9265185Y-9085045D01*
X9265185Y-9796245D02*
X9265185Y-9739676D01*
X9208616Y-9739676D01*
X9208616Y-9796245D01*
X9265185Y-9796245D01*
X9265185Y-11320244D02*
X9265185Y-11263675D01*
X9208616Y-11263675D01*
X9208616Y-11320244D01*
X9265185Y-11320244D01*
X9403425Y-11901904D02*
X9403425Y-11845335D01*
X9346856Y-11845335D01*
X9346856Y-11901904D01*
X9403425Y-11901904D01*
X9403425Y-13425904D02*
X9403425Y-13369335D01*
X9346856Y-13369335D01*
X9346856Y-13425904D01*
X9403425Y-13425904D01*
X9515185Y-5338545D02*
X9515185Y-5281976D01*
X9458616Y-5281976D01*
X9458616Y-5338545D01*
X9515185Y-5338545D01*
X9515185Y-6862544D02*
X9515185Y-6805975D01*
X9458616Y-6805975D01*
X9458616Y-6862544D01*
X9515185Y-6862544D01*
X9519185Y-7561044D02*
X9519185Y-7504475D01*
X9462616Y-7504475D01*
X9462616Y-7561044D01*
X9519185Y-7561044D01*
X9519185Y-9085045D02*
X9519185Y-9028476D01*
X9462616Y-9028476D01*
X9462616Y-9085045D01*
X9519185Y-9085045D01*
X9519185Y-9796245D02*
X9519185Y-9739676D01*
X9462616Y-9739676D01*
X9462616Y-9796245D01*
X9519185Y-9796245D01*
X9519185Y-11320244D02*
X9519185Y-11263675D01*
X9462616Y-11263675D01*
X9462616Y-11320244D01*
X9519185Y-11320244D01*
X9769185Y-5338545D02*
X9769185Y-5281976D01*
X9712616Y-5281976D01*
X9712616Y-5338545D01*
X9769185Y-5338545D01*
X9769185Y-6862544D02*
X9769185Y-6805975D01*
X9712616Y-6805975D01*
X9712616Y-6862544D01*
X9769185Y-6862544D01*
X9773185Y-7561044D02*
X9773185Y-7504475D01*
X9716616Y-7504475D01*
X9716616Y-7561044D01*
X9773185Y-7561044D01*
X9773185Y-9085045D02*
X9773185Y-9028476D01*
X9716616Y-9028476D01*
X9716616Y-9085045D01*
X9773185Y-9085045D01*
X9773185Y-9796245D02*
X9773185Y-9739676D01*
X9716616Y-9739676D01*
X9716616Y-9796245D01*
X9773185Y-9796245D01*
X9773185Y-11320244D02*
X9773185Y-11263675D01*
X9716616Y-11263675D01*
X9716616Y-11320244D01*
X9773185Y-11320244D01*
X10023185Y-5338545D02*
X10023185Y-5281976D01*
X9966616Y-5281976D01*
X9966616Y-5338545D01*
X10023185Y-5338545D01*
X10023185Y-6862544D02*
X10023185Y-6805975D01*
X9966616Y-6805975D01*
X9966616Y-6862544D01*
X10023185Y-6862544D01*
X10027185Y-7561044D02*
X10027185Y-7504475D01*
X9970616Y-7504475D01*
X9970616Y-7561044D01*
X10027185Y-7561044D01*
X10027185Y-9085045D02*
X10027185Y-9028476D01*
X9970616Y-9028476D01*
X9970616Y-9085045D01*
X10027185Y-9085045D01*
X10027185Y-9796245D02*
X10027185Y-9739676D01*
X9970616Y-9739676D01*
X9970616Y-9796245D01*
X10027185Y-9796245D01*
X10027185Y-11320244D02*
X10027185Y-11263675D01*
X9970616Y-11263675D01*
X9970616Y-11320244D01*
X10027185Y-11320244D01*
X10277185Y-5338545D02*
X10277185Y-5281976D01*
X10220616Y-5281976D01*
X10220616Y-5338545D01*
X10277185Y-5338545D01*
X10277185Y-6862544D02*
X10277185Y-6805975D01*
X10220616Y-6805975D01*
X10220616Y-6862544D01*
X10277185Y-6862544D01*
X10281185Y-7561044D02*
X10281185Y-7504475D01*
X10224616Y-7504475D01*
X10224616Y-7561044D01*
X10281185Y-7561044D01*
X10281185Y-9085045D02*
X10281185Y-9028476D01*
X10224616Y-9028476D01*
X10224616Y-9085045D01*
X10281185Y-9085045D01*
X10281185Y-9796245D02*
X10281185Y-9739676D01*
X10224616Y-9739676D01*
X10224616Y-9796245D01*
X10281185Y-9796245D01*
X10281185Y-11320244D02*
X10281185Y-11263675D01*
X10224616Y-11263675D01*
X10224616Y-11320244D01*
X10281185Y-11320244D01*
X10531185Y-5338545D02*
X10531185Y-5281976D01*
X10474616Y-5281976D01*
X10474616Y-5338545D01*
X10531185Y-5338545D01*
X10531185Y-6862544D02*
X10531185Y-6805975D01*
X10474616Y-6805975D01*
X10474616Y-6862544D01*
X10531185Y-6862544D01*
X10535185Y-7561044D02*
X10535185Y-7504475D01*
X10478616Y-7504475D01*
X10478616Y-7561044D01*
X10535185Y-7561044D01*
X10535185Y-9085045D02*
X10535185Y-9028476D01*
X10478616Y-9028476D01*
X10478616Y-9085045D01*
X10535185Y-9085045D01*
X10535185Y-9796245D02*
X10535185Y-9739676D01*
X10478616Y-9739676D01*
X10478616Y-9796245D01*
X10535185Y-9796245D01*
X10535185Y-11320244D02*
X10535185Y-11263675D01*
X10478616Y-11263675D01*
X10478616Y-11320244D01*
X10535185Y-11320244D01*
X10785185Y-5338545D02*
X10785185Y-5281976D01*
X10728616Y-5281976D01*
X10728616Y-5338545D01*
X10785185Y-5338545D01*
X10785185Y-6862544D02*
X10785185Y-6805975D01*
X10728616Y-6805975D01*
X10728616Y-6862544D01*
X10785185Y-6862544D01*
X10789185Y-7561044D02*
X10789185Y-7504475D01*
X10732616Y-7504475D01*
X10732616Y-7561044D01*
X10789185Y-7561044D01*
X10789185Y-9085045D02*
X10789185Y-9028476D01*
X10732616Y-9028476D01*
X10732616Y-9085045D01*
X10789185Y-9085045D01*
X10789185Y-9796245D02*
X10789185Y-9739676D01*
X10732616Y-9739676D01*
X10732616Y-9796245D01*
X10789185Y-9796245D01*
X10789185Y-11320244D02*
X10789185Y-11263675D01*
X10732616Y-11263675D01*
X10732616Y-11320244D01*
X10789185Y-11320244D01*
X11039185Y-5338545D02*
X11039185Y-5281976D01*
X10982616Y-5281976D01*
X10982616Y-5338545D01*
X11039185Y-5338545D01*
X11039185Y-6862544D02*
X11039185Y-6805975D01*
X10982616Y-6805975D01*
X10982616Y-6862544D01*
X11039185Y-6862544D01*
X11043185Y-7561044D02*
X11043185Y-7504475D01*
X10986616Y-7504475D01*
X10986616Y-7561044D01*
X11043185Y-7561044D01*
X11043185Y-9085045D02*
X11043185Y-9028476D01*
X10986616Y-9028476D01*
X10986616Y-9085045D01*
X11043185Y-9085045D01*
X11043185Y-9796245D02*
X11043185Y-9739676D01*
X10986616Y-9739676D01*
X10986616Y-9796245D01*
X11043185Y-9796245D01*
X11043185Y-11320244D02*
X11043185Y-11263675D01*
X10986616Y-11263675D01*
X10986616Y-11320244D01*
X11043185Y-11320244D01*
X11297184Y-7561044D02*
X11297184Y-7504475D01*
X11240615Y-7504475D01*
X11240615Y-7561044D01*
X11297184Y-7561044D01*
X11297184Y-9085045D02*
X11297184Y-9028476D01*
X11240615Y-9028476D01*
X11240615Y-9085045D01*
X11297184Y-9085045D01*
X11297184Y-9796245D02*
X11297184Y-9739676D01*
X11240615Y-9739676D01*
X11240615Y-9796245D01*
X11297184Y-9796245D01*
X11297184Y-11320244D02*
X11297184Y-11263675D01*
X11240615Y-11263675D01*
X11240615Y-11320244D01*
X11297184Y-11320244D01*
X11551184Y-7561044D02*
X11551184Y-7504475D01*
X11494615Y-7504475D01*
X11494615Y-7561044D01*
X11551184Y-7561044D01*
X11551184Y-9085045D02*
X11551184Y-9028476D01*
X11494615Y-9028476D01*
X11494615Y-9085045D01*
X11551184Y-9085045D01*
X11551184Y-9796245D02*
X11551184Y-9739676D01*
X11494615Y-9739676D01*
X11494615Y-9796245D01*
X11551184Y-9796245D01*
X11551184Y-11320244D02*
X11551184Y-11263675D01*
X11494615Y-11263675D01*
X11494615Y-11320244D01*
X11551184Y-11320244D01*
X11805184Y-7561044D02*
X11805184Y-7504475D01*
X11748615Y-7504475D01*
X11748615Y-7561044D01*
X11805184Y-7561044D01*
X11805184Y-9085045D02*
X11805184Y-9028476D01*
X11748615Y-9028476D01*
X11748615Y-9085045D01*
X11805184Y-9085045D01*
X11805184Y-9796245D02*
X11805184Y-9739676D01*
X11748615Y-9739676D01*
X11748615Y-9796245D01*
X11805184Y-9796245D01*
X11805184Y-11320244D02*
X11805184Y-11263675D01*
X11748615Y-11263675D01*
X11748615Y-11320244D01*
X11805184Y-11320244D01*
X12059184Y-7561044D02*
X12059184Y-7504475D01*
X12002615Y-7504475D01*
X12002615Y-7561044D01*
X12059184Y-7561044D01*
X12059184Y-9085045D02*
X12059184Y-9028476D01*
X12002615Y-9028476D01*
X12002615Y-9085045D01*
X12059184Y-9085045D01*
X12059184Y-9796245D02*
X12059184Y-9739676D01*
X12002615Y-9739676D01*
X12002615Y-9796245D01*
X12059184Y-9796245D01*
X12059184Y-11320244D02*
X12059184Y-11263675D01*
X12002615Y-11263675D01*
X12002615Y-11320244D01*
X12059184Y-11320244D01*
X15077784Y-6125944D02*
X15077784Y-6069375D01*
X15021215Y-6069375D01*
X15021215Y-6125944D01*
X15077784Y-6125944D01*
X15077784Y-6379944D02*
X15077784Y-6323375D01*
X15021215Y-6323375D01*
X15021215Y-6379944D01*
X15077784Y-6379944D01*
X15077784Y-6633944D02*
X15077784Y-6577375D01*
X15021215Y-6577375D01*
X15021215Y-6633944D01*
X15077784Y-6633944D01*
X15077784Y-6887944D02*
X15077784Y-6831375D01*
X15021215Y-6831375D01*
X15021215Y-6887944D01*
X15077784Y-6887944D01*
X15077784Y-7141944D02*
X15077784Y-7085375D01*
X15021215Y-7085375D01*
X15021215Y-7141944D01*
X15077784Y-7141944D01*
X15077784Y-8945345D02*
X15077784Y-8888776D01*
X15021215Y-8888776D01*
X15021215Y-8945345D01*
X15077784Y-8945345D01*
X15077784Y-9199345D02*
X15077784Y-9142776D01*
X15021215Y-9142776D01*
X15021215Y-9199345D01*
X15077784Y-9199345D01*
X15077784Y-9453345D02*
X15077784Y-9396776D01*
X15021215Y-9396776D01*
X15021215Y-9453345D01*
X15077784Y-9453345D01*
X15077784Y-9707345D02*
X15077784Y-9650776D01*
X15021215Y-9650776D01*
X15021215Y-9707345D01*
X15077784Y-9707345D01*
X15077784Y-9961345D02*
X15077784Y-9904776D01*
X15021215Y-9904776D01*
X15021215Y-9961345D01*
X15077784Y-9961345D01*
X15331784Y-5871944D02*
X15331784Y-5815375D01*
X15275215Y-5815375D01*
X15275215Y-5871944D01*
X15331784Y-5871944D01*
X15331784Y-6125944D02*
X15331784Y-6069375D01*
X15275215Y-6069375D01*
X15275215Y-6125944D01*
X15331784Y-6125944D01*
X15331784Y-6379944D02*
X15331784Y-6323375D01*
X15275215Y-6323375D01*
X15275215Y-6379944D01*
X15331784Y-6379944D01*
X15331784Y-6633944D02*
X15331784Y-6577375D01*
X15275215Y-6577375D01*
X15275215Y-6633944D01*
X15331784Y-6633944D01*
X15331784Y-6887944D02*
X15331784Y-6831375D01*
X15275215Y-6831375D01*
X15275215Y-6887944D01*
X15331784Y-6887944D01*
X15331784Y-7141944D02*
X15331784Y-7085375D01*
X15275215Y-7085375D01*
X15275215Y-7141944D01*
X15331784Y-7141944D01*
X15331784Y-7395944D02*
X15331784Y-7339375D01*
X15275215Y-7339375D01*
X15275215Y-7395944D01*
X15331784Y-7395944D01*
X15331784Y-8691345D02*
X15331784Y-8634776D01*
X15275215Y-8634776D01*
X15275215Y-8691345D01*
X15331784Y-8691345D01*
X15331784Y-8945345D02*
X15331784Y-8888776D01*
X15275215Y-8888776D01*
X15275215Y-8945345D01*
X15331784Y-8945345D01*
X15331784Y-9199345D02*
X15331784Y-9142776D01*
X15275215Y-9142776D01*
X15275215Y-9199345D01*
X15331784Y-9199345D01*
X15331784Y-9453345D02*
X15331784Y-9396776D01*
X15275215Y-9396776D01*
X15275215Y-9453345D01*
X15331784Y-9453345D01*
X15331784Y-9707345D02*
X15331784Y-9650776D01*
X15275215Y-9650776D01*
X15275215Y-9707345D01*
X15331784Y-9707345D01*
X15331784Y-9961345D02*
X15331784Y-9904776D01*
X15275215Y-9904776D01*
X15275215Y-9961345D01*
X15331784Y-9961345D01*
X15331784Y-10215345D02*
X15331784Y-10158776D01*
X15275215Y-10158776D01*
X15275215Y-10215345D01*
X15331784Y-10215345D01*
X15585784Y-5871944D02*
X15585784Y-5815375D01*
X15529215Y-5815375D01*
X15529215Y-5871944D01*
X15585784Y-5871944D01*
X15585784Y-6125944D02*
X15585784Y-6069375D01*
X15529215Y-6069375D01*
X15529215Y-6125944D01*
X15585784Y-6125944D01*
X15585784Y-7141944D02*
X15585784Y-7085375D01*
X15529215Y-7085375D01*
X15529215Y-7141944D01*
X15585784Y-7141944D01*
X15585784Y-7395944D02*
X15585784Y-7339375D01*
X15529215Y-7339375D01*
X15529215Y-7395944D01*
X15585784Y-7395944D01*
X15585784Y-8691345D02*
X15585784Y-8634776D01*
X15529215Y-8634776D01*
X15529215Y-8691345D01*
X15585784Y-8691345D01*
X15585784Y-8945345D02*
X15585784Y-8888776D01*
X15529215Y-8888776D01*
X15529215Y-8945345D01*
X15585784Y-8945345D01*
X15585784Y-9961345D02*
X15585784Y-9904776D01*
X15529215Y-9904776D01*
X15529215Y-9961345D01*
X15585784Y-9961345D01*
X15585784Y-10215345D02*
X15585784Y-10158776D01*
X15529215Y-10158776D01*
X15529215Y-10215345D01*
X15585784Y-10215345D01*
X15839784Y-5871944D02*
X15839784Y-5815375D01*
X15783215Y-5815375D01*
X15783215Y-5871944D01*
X15839784Y-5871944D01*
X15839784Y-6125944D02*
X15839784Y-6069375D01*
X15783215Y-6069375D01*
X15783215Y-6125944D01*
X15839784Y-6125944D01*
X15839784Y-7141944D02*
X15839784Y-7085375D01*
X15783215Y-7085375D01*
X15783215Y-7141944D01*
X15839784Y-7141944D01*
X15839784Y-7395944D02*
X15839784Y-7339375D01*
X15783215Y-7339375D01*
X15783215Y-7395944D01*
X15839784Y-7395944D01*
X15839784Y-8691345D02*
X15839784Y-8634776D01*
X15783215Y-8634776D01*
X15783215Y-8691345D01*
X15839784Y-8691345D01*
X15839784Y-8945345D02*
X15839784Y-8888776D01*
X15783215Y-8888776D01*
X15783215Y-8945345D01*
X15839784Y-8945345D01*
X15839784Y-9961345D02*
X15839784Y-9904776D01*
X15783215Y-9904776D01*
X15783215Y-9961345D01*
X15839784Y-9961345D01*
X15839784Y-10215345D02*
X15839784Y-10158776D01*
X15783215Y-10158776D01*
X15783215Y-10215345D01*
X15839784Y-10215345D01*
X16093784Y-5871944D02*
X16093784Y-5815375D01*
X16037215Y-5815375D01*
X16037215Y-5871944D01*
X16093784Y-5871944D01*
X16093784Y-6125944D02*
X16093784Y-6069375D01*
X16037215Y-6069375D01*
X16037215Y-6125944D01*
X16093784Y-6125944D01*
X16093784Y-6379944D02*
X16093784Y-6323375D01*
X16037215Y-6323375D01*
X16037215Y-6379944D01*
X16093784Y-6379944D01*
X16093784Y-6633944D02*
X16093784Y-6577375D01*
X16037215Y-6577375D01*
X16037215Y-6633944D01*
X16093784Y-6633944D01*
X16093784Y-6887944D02*
X16093784Y-6831375D01*
X16037215Y-6831375D01*
X16037215Y-6887944D01*
X16093784Y-6887944D01*
X16093784Y-7141944D02*
X16093784Y-7085375D01*
X16037215Y-7085375D01*
X16037215Y-7141944D01*
X16093784Y-7141944D01*
X16093784Y-7395944D02*
X16093784Y-7339375D01*
X16037215Y-7339375D01*
X16037215Y-7395944D01*
X16093784Y-7395944D01*
X16093784Y-8691345D02*
X16093784Y-8634776D01*
X16037215Y-8634776D01*
X16037215Y-8691345D01*
X16093784Y-8691345D01*
X16093784Y-8945345D02*
X16093784Y-8888776D01*
X16037215Y-8888776D01*
X16037215Y-8945345D01*
X16093784Y-8945345D01*
X16093784Y-9199345D02*
X16093784Y-9142776D01*
X16037215Y-9142776D01*
X16037215Y-9199345D01*
X16093784Y-9199345D01*
X16093784Y-9453345D02*
X16093784Y-9396776D01*
X16037215Y-9396776D01*
X16037215Y-9453345D01*
X16093784Y-9453345D01*
X16093784Y-9707345D02*
X16093784Y-9650776D01*
X16037215Y-9650776D01*
X16037215Y-9707345D01*
X16093784Y-9707345D01*
X16093784Y-9961345D02*
X16093784Y-9904776D01*
X16037215Y-9904776D01*
X16037215Y-9961345D01*
X16093784Y-9961345D01*
X16093784Y-10215345D02*
X16093784Y-10158776D01*
X16037215Y-10158776D01*
X16037215Y-10215345D01*
X16093784Y-10215345D01*
X16347784Y-6125944D02*
X16347784Y-6069375D01*
X16291215Y-6069375D01*
X16291215Y-6125944D01*
X16347784Y-6125944D01*
X16347784Y-6379944D02*
X16347784Y-6323375D01*
X16291215Y-6323375D01*
X16291215Y-6379944D01*
X16347784Y-6379944D01*
X16347784Y-6633944D02*
X16347784Y-6577375D01*
X16291215Y-6577375D01*
X16291215Y-6633944D01*
X16347784Y-6633944D01*
X16347784Y-6887944D02*
X16347784Y-6831375D01*
X16291215Y-6831375D01*
X16291215Y-6887944D01*
X16347784Y-6887944D01*
X16347784Y-7141944D02*
X16347784Y-7085375D01*
X16291215Y-7085375D01*
X16291215Y-7141944D01*
X16347784Y-7141944D01*
X16347784Y-8945345D02*
X16347784Y-8888776D01*
X16291215Y-8888776D01*
X16291215Y-8945345D01*
X16347784Y-8945345D01*
X16347784Y-9199345D02*
X16347784Y-9142776D01*
X16291215Y-9142776D01*
X16291215Y-9199345D01*
X16347784Y-9199345D01*
X16347784Y-9453345D02*
X16347784Y-9396776D01*
X16291215Y-9396776D01*
X16291215Y-9453345D01*
X16347784Y-9453345D01*
X16347784Y-9707345D02*
X16347784Y-9650776D01*
X16291215Y-9650776D01*
X16291215Y-9707345D01*
X16347784Y-9707345D01*
X16347784Y-9961345D02*
X16347784Y-9904776D01*
X16291215Y-9904776D01*
X16291215Y-9961345D01*
X16347784Y-9961345D01*
X19788860Y-5518160D02*
X19833360Y-5473660D01*
X19788860Y-5429160D01*
X19744360Y-5473660D01*
X19788860Y-5518160D01*
X19788860Y-6529160D02*
X19833360Y-6484660D01*
X19788860Y-6440160D01*
X19744360Y-6484660D01*
X19788860Y-6529160D01*
X19940860Y-5772160D02*
X19985360Y-5727660D01*
X19940860Y-5683160D01*
X19896360Y-5727660D01*
X19940860Y-5772160D01*
X19940860Y-6783160D02*
X19985360Y-6738660D01*
X19940860Y-6694160D01*
X19896360Y-6738660D01*
X19940860Y-6783160D01*
X18517860Y-5616660D02*
X18607860Y-5706660D01*
X18607860Y-5616660D02*
X18517860Y-5706660D01*
X18607860Y-5661660D02*
G75*
G02*
X18517860Y-5661660I-45000J0D01*
G01*
X18517860Y-5661660D02*
G75*
G02*
X18607860Y-5661660I45000J0D01*
G01*
X18517860Y-5870660D02*
X18607860Y-5960660D01*
X18607860Y-5870660D02*
X18517860Y-5960660D01*
X18607860Y-5915660D02*
G75*
G02*
X18517860Y-5915660I-45000J0D01*
G01*
X18517860Y-5915660D02*
G75*
G02*
X18607860Y-5915660I45000J0D01*
G01*
X18517860Y-6124660D02*
X18607860Y-6214660D01*
X18607860Y-6124660D02*
X18517860Y-6214660D01*
X18607860Y-6169660D02*
G75*
G02*
X18517860Y-6169660I-45000J0D01*
G01*
X18517860Y-6169660D02*
G75*
G02*
X18607860Y-6169660I45000J0D01*
G01*
X18517860Y-6378660D02*
X18607860Y-6468660D01*
X18607860Y-6378660D02*
X18517860Y-6468660D01*
X18607860Y-6423660D02*
G75*
G02*
X18517860Y-6423660I-45000J0D01*
G01*
X18517860Y-6423660D02*
G75*
G02*
X18607860Y-6423660I45000J0D01*
G01*
X18771860Y-5743660D02*
X18861860Y-5833660D01*
X18861860Y-5743660D02*
X18771860Y-5833660D01*
X18861860Y-5788660D02*
G75*
G02*
X18771860Y-5788660I-45000J0D01*
G01*
X18771860Y-5788660D02*
G75*
G02*
X18861860Y-5788660I45000J0D01*
G01*
X18771860Y-5997660D02*
X18861860Y-6087660D01*
X18861860Y-5997660D02*
X18771860Y-6087660D01*
X18861860Y-6042660D02*
G75*
G02*
X18771860Y-6042660I-45000J0D01*
G01*
X18771860Y-6042660D02*
G75*
G02*
X18861860Y-6042660I45000J0D01*
G01*
X18771860Y-6251660D02*
X18861860Y-6341660D01*
X18861860Y-6251660D02*
X18771860Y-6341660D01*
X18861860Y-6296660D02*
G75*
G02*
X18771860Y-6296660I-45000J0D01*
G01*
X18771860Y-6296660D02*
G75*
G02*
X18861860Y-6296660I45000J0D01*
G01*
X18771860Y-6505660D02*
X18861860Y-6595660D01*
X18861860Y-6505660D02*
X18771860Y-6595660D01*
X18861860Y-6550660D02*
G75*
G02*
X18771860Y-6550660I-45000J0D01*
G01*
X18771860Y-6550660D02*
G75*
G02*
X18861860Y-6550660I45000J0D01*
G01*
X11409980Y-5417740D02*
X11509980Y-5517740D01*
X11509980Y-5417740D02*
X11409980Y-5517740D01*
X11459980Y-5417740D02*
X11459980Y-5517740D01*
X11409980Y-5467740D02*
X11509980Y-5467740D01*
X11663980Y-5417740D02*
X11763980Y-5517740D01*
X11763980Y-5417740D02*
X11663980Y-5517740D01*
X11713980Y-5417740D02*
X11713980Y-5517740D01*
X11663980Y-5467740D02*
X11763980Y-5467740D01*
X19896620Y-10460520D02*
X19996620Y-10560520D01*
X19996620Y-10460520D02*
X19896620Y-10560520D01*
X19946620Y-10460520D02*
X19946620Y-10560520D01*
X19896620Y-10510520D02*
X19996620Y-10510520D01*
X19896620Y-10714520D02*
X19996620Y-10814520D01*
X19996620Y-10714520D02*
X19896620Y-10814520D01*
X19946620Y-10714520D02*
X19946620Y-10814520D01*
X19896620Y-10764520D02*
X19996620Y-10764520D01*
X19896620Y-10968520D02*
X19996620Y-11068520D01*
X19996620Y-10968520D02*
X19896620Y-11068520D01*
X19946620Y-10968520D02*
X19946620Y-11068520D01*
X19896620Y-11018520D02*
X19996620Y-11018520D01*
D12*
X19065860Y-5248660D02*
X19225860Y-5408660D01*
X19225860Y-5248660D02*
X19065860Y-5408660D01*
X19202429Y-5385229D02*
X19202429Y-5272091D01*
X19089291Y-5272091D01*
X19089291Y-5385229D01*
X19202429Y-5385229D01*
X19065860Y-6803660D02*
X19225860Y-6963660D01*
X19225860Y-6803660D02*
X19065860Y-6963660D01*
X19202429Y-6940229D02*
X19202429Y-6827091D01*
X19089291Y-6827091D01*
X19089291Y-6940229D01*
X19202429Y-6940229D01*
D11*
X6138417Y-14294104D02*
X6138417Y-14094104D01*
X6138417Y-14094104D02*
X6186036Y-14094104D01*
X6186036Y-14094104D02*
X6214607Y-14103628D01*
X6214607Y-14103628D02*
X6233655Y-14122675D01*
X6233655Y-14122675D02*
X6243179Y-14141723D01*
X6243179Y-14141723D02*
X6252702Y-14179818D01*
X6252702Y-14179818D02*
X6252702Y-14208389D01*
X6252702Y-14208389D02*
X6243179Y-14246485D01*
X6243179Y-14246485D02*
X6233655Y-14265532D01*
X6233655Y-14265532D02*
X6214607Y-14284580D01*
X6214607Y-14284580D02*
X6186036Y-14294104D01*
X6186036Y-14294104D02*
X6138417Y-14294104D01*
X6338417Y-14294104D02*
X6338417Y-14160770D01*
X6338417Y-14198866D02*
X6347941Y-14179818D01*
X6347941Y-14179818D02*
X6357464Y-14170294D01*
X6357464Y-14170294D02*
X6376512Y-14160770D01*
X6376512Y-14160770D02*
X6395560Y-14160770D01*
X6462226Y-14294104D02*
X6462226Y-14160770D01*
X6462226Y-14094104D02*
X6452702Y-14103628D01*
X6452702Y-14103628D02*
X6462226Y-14113151D01*
X6462226Y-14113151D02*
X6471750Y-14103628D01*
X6471750Y-14103628D02*
X6462226Y-14094104D01*
X6462226Y-14094104D02*
X6462226Y-14113151D01*
X6586036Y-14294104D02*
X6566988Y-14284580D01*
X6566988Y-14284580D02*
X6557464Y-14265532D01*
X6557464Y-14265532D02*
X6557464Y-14094104D01*
X6690798Y-14294104D02*
X6671750Y-14284580D01*
X6671750Y-14284580D02*
X6662226Y-14265532D01*
X6662226Y-14265532D02*
X6662226Y-14094104D01*
X6919369Y-14294104D02*
X6919369Y-14094104D01*
X6919369Y-14094104D02*
X6986036Y-14236961D01*
X6986036Y-14236961D02*
X7052702Y-14094104D01*
X7052702Y-14094104D02*
X7052702Y-14294104D01*
X7233655Y-14294104D02*
X7233655Y-14189342D01*
X7233655Y-14189342D02*
X7224131Y-14170294D01*
X7224131Y-14170294D02*
X7205083Y-14160770D01*
X7205083Y-14160770D02*
X7166988Y-14160770D01*
X7166988Y-14160770D02*
X7147941Y-14170294D01*
X7233655Y-14284580D02*
X7214607Y-14294104D01*
X7214607Y-14294104D02*
X7166988Y-14294104D01*
X7166988Y-14294104D02*
X7147941Y-14284580D01*
X7147941Y-14284580D02*
X7138417Y-14265532D01*
X7138417Y-14265532D02*
X7138417Y-14246485D01*
X7138417Y-14246485D02*
X7147941Y-14227437D01*
X7147941Y-14227437D02*
X7166988Y-14217913D01*
X7166988Y-14217913D02*
X7214607Y-14217913D01*
X7214607Y-14217913D02*
X7233655Y-14208389D01*
X7328893Y-14160770D02*
X7328893Y-14360770D01*
X7328893Y-14170294D02*
X7347941Y-14160770D01*
X7347941Y-14160770D02*
X7386036Y-14160770D01*
X7386036Y-14160770D02*
X7405083Y-14170294D01*
X7405083Y-14170294D02*
X7414607Y-14179818D01*
X7414607Y-14179818D02*
X7424131Y-14198866D01*
X7424131Y-14198866D02*
X7424131Y-14256008D01*
X7424131Y-14256008D02*
X7414607Y-14275056D01*
X7414607Y-14275056D02*
X7405083Y-14284580D01*
X7405083Y-14284580D02*
X7386036Y-14294104D01*
X7386036Y-14294104D02*
X7347941Y-14294104D01*
X7347941Y-14294104D02*
X7328893Y-14284580D01*
X7509845Y-14275056D02*
X7519369Y-14284580D01*
X7519369Y-14284580D02*
X7509845Y-14294104D01*
X7509845Y-14294104D02*
X7500322Y-14284580D01*
X7500322Y-14284580D02*
X7509845Y-14275056D01*
X7509845Y-14275056D02*
X7509845Y-14294104D01*
X7509845Y-14170294D02*
X7519369Y-14179818D01*
X7519369Y-14179818D02*
X7509845Y-14189342D01*
X7509845Y-14189342D02*
X7500322Y-14179818D01*
X7500322Y-14179818D02*
X7509845Y-14170294D01*
X7509845Y-14170294D02*
X7509845Y-14189342D01*
D10*
X5847640Y-14607620D02*
X5877640Y-14637620D01*
X5877640Y-14607620D02*
X5847640Y-14637620D01*
D11*
X6176512Y-14514104D02*
X6195560Y-14514104D01*
X6195560Y-14514104D02*
X6214607Y-14523628D01*
X6214607Y-14523628D02*
X6224131Y-14533151D01*
X6224131Y-14533151D02*
X6233655Y-14552199D01*
X6233655Y-14552199D02*
X6243179Y-14590294D01*
X6243179Y-14590294D02*
X6243179Y-14637913D01*
X6243179Y-14637913D02*
X6233655Y-14676008D01*
X6233655Y-14676008D02*
X6224131Y-14695056D01*
X6224131Y-14695056D02*
X6214607Y-14704580D01*
X6214607Y-14704580D02*
X6195560Y-14714104D01*
X6195560Y-14714104D02*
X6176512Y-14714104D01*
X6176512Y-14714104D02*
X6157464Y-14704580D01*
X6157464Y-14704580D02*
X6147941Y-14695056D01*
X6147941Y-14695056D02*
X6138417Y-14676008D01*
X6138417Y-14676008D02*
X6128893Y-14637913D01*
X6128893Y-14637913D02*
X6128893Y-14590294D01*
X6128893Y-14590294D02*
X6138417Y-14552199D01*
X6138417Y-14552199D02*
X6147941Y-14533151D01*
X6147941Y-14533151D02*
X6157464Y-14523628D01*
X6157464Y-14523628D02*
X6176512Y-14514104D01*
X6328893Y-14695056D02*
X6338417Y-14704580D01*
X6338417Y-14704580D02*
X6328893Y-14714104D01*
X6328893Y-14714104D02*
X6319369Y-14704580D01*
X6319369Y-14704580D02*
X6328893Y-14695056D01*
X6328893Y-14695056D02*
X6328893Y-14714104D01*
X6405083Y-14514104D02*
X6528893Y-14514104D01*
X6528893Y-14514104D02*
X6462226Y-14590294D01*
X6462226Y-14590294D02*
X6490798Y-14590294D01*
X6490798Y-14590294D02*
X6509845Y-14599818D01*
X6509845Y-14599818D02*
X6519369Y-14609342D01*
X6519369Y-14609342D02*
X6528893Y-14628389D01*
X6528893Y-14628389D02*
X6528893Y-14676008D01*
X6528893Y-14676008D02*
X6519369Y-14695056D01*
X6519369Y-14695056D02*
X6509845Y-14704580D01*
X6509845Y-14704580D02*
X6490798Y-14714104D01*
X6490798Y-14714104D02*
X6433655Y-14714104D01*
X6433655Y-14714104D02*
X6414607Y-14704580D01*
X6414607Y-14704580D02*
X6405083Y-14695056D01*
X6652702Y-14514104D02*
X6671750Y-14514104D01*
X6671750Y-14514104D02*
X6690798Y-14523628D01*
X6690798Y-14523628D02*
X6700322Y-14533151D01*
X6700322Y-14533151D02*
X6709845Y-14552199D01*
X6709845Y-14552199D02*
X6719369Y-14590294D01*
X6719369Y-14590294D02*
X6719369Y-14637913D01*
X6719369Y-14637913D02*
X6709845Y-14676008D01*
X6709845Y-14676008D02*
X6700322Y-14695056D01*
X6700322Y-14695056D02*
X6690798Y-14704580D01*
X6690798Y-14704580D02*
X6671750Y-14714104D01*
X6671750Y-14714104D02*
X6652702Y-14714104D01*
X6652702Y-14714104D02*
X6633655Y-14704580D01*
X6633655Y-14704580D02*
X6624131Y-14695056D01*
X6624131Y-14695056D02*
X6614607Y-14676008D01*
X6614607Y-14676008D02*
X6605083Y-14637913D01*
X6605083Y-14637913D02*
X6605083Y-14590294D01*
X6605083Y-14590294D02*
X6614607Y-14552199D01*
X6614607Y-14552199D02*
X6624131Y-14533151D01*
X6624131Y-14533151D02*
X6633655Y-14523628D01*
X6633655Y-14523628D02*
X6652702Y-14514104D01*
X6843179Y-14514104D02*
X6862226Y-14514104D01*
X6862226Y-14514104D02*
X6881274Y-14523628D01*
X6881274Y-14523628D02*
X6890798Y-14533151D01*
X6890798Y-14533151D02*
X6900322Y-14552199D01*
X6900322Y-14552199D02*
X6909845Y-14590294D01*
X6909845Y-14590294D02*
X6909845Y-14637913D01*
X6909845Y-14637913D02*
X6900322Y-14676008D01*
X6900322Y-14676008D02*
X6890798Y-14695056D01*
X6890798Y-14695056D02*
X6881274Y-14704580D01*
X6881274Y-14704580D02*
X6862226Y-14714104D01*
X6862226Y-14714104D02*
X6843179Y-14714104D01*
X6843179Y-14714104D02*
X6824131Y-14704580D01*
X6824131Y-14704580D02*
X6814607Y-14695056D01*
X6814607Y-14695056D02*
X6805083Y-14676008D01*
X6805083Y-14676008D02*
X6795560Y-14637913D01*
X6795560Y-14637913D02*
X6795560Y-14590294D01*
X6795560Y-14590294D02*
X6805083Y-14552199D01*
X6805083Y-14552199D02*
X6814607Y-14533151D01*
X6814607Y-14533151D02*
X6824131Y-14523628D01*
X6824131Y-14523628D02*
X6843179Y-14514104D01*
X6995560Y-14714104D02*
X6995560Y-14580770D01*
X6995560Y-14599818D02*
X7005083Y-14590294D01*
X7005083Y-14590294D02*
X7024131Y-14580770D01*
X7024131Y-14580770D02*
X7052703Y-14580770D01*
X7052703Y-14580770D02*
X7071750Y-14590294D01*
X7071750Y-14590294D02*
X7081274Y-14609342D01*
X7081274Y-14609342D02*
X7081274Y-14714104D01*
X7081274Y-14609342D02*
X7090798Y-14590294D01*
X7090798Y-14590294D02*
X7109845Y-14580770D01*
X7109845Y-14580770D02*
X7138417Y-14580770D01*
X7138417Y-14580770D02*
X7157464Y-14590294D01*
X7157464Y-14590294D02*
X7166988Y-14609342D01*
X7166988Y-14609342D02*
X7166988Y-14714104D01*
X7262226Y-14714104D02*
X7262226Y-14580770D01*
X7262226Y-14599818D02*
X7271750Y-14590294D01*
X7271750Y-14590294D02*
X7290798Y-14580770D01*
X7290798Y-14580770D02*
X7319369Y-14580770D01*
X7319369Y-14580770D02*
X7338417Y-14590294D01*
X7338417Y-14590294D02*
X7347941Y-14609342D01*
X7347941Y-14609342D02*
X7347941Y-14714104D01*
X7347941Y-14609342D02*
X7357464Y-14590294D01*
X7357464Y-14590294D02*
X7376512Y-14580770D01*
X7376512Y-14580770D02*
X7405083Y-14580770D01*
X7405083Y-14580770D02*
X7424131Y-14590294D01*
X7424131Y-14590294D02*
X7433655Y-14609342D01*
X7433655Y-14609342D02*
X7433655Y-14714104D01*
X7824131Y-14504580D02*
X7652703Y-14761723D01*
X8081274Y-14514104D02*
X8100322Y-14514104D01*
X8100322Y-14514104D02*
X8119369Y-14523628D01*
X8119369Y-14523628D02*
X8128893Y-14533151D01*
X8128893Y-14533151D02*
X8138417Y-14552199D01*
X8138417Y-14552199D02*
X8147941Y-14590294D01*
X8147941Y-14590294D02*
X8147941Y-14637913D01*
X8147941Y-14637913D02*
X8138417Y-14676008D01*
X8138417Y-14676008D02*
X8128893Y-14695056D01*
X8128893Y-14695056D02*
X8119369Y-14704580D01*
X8119369Y-14704580D02*
X8100322Y-14714104D01*
X8100322Y-14714104D02*
X8081274Y-14714104D01*
X8081274Y-14714104D02*
X8062226Y-14704580D01*
X8062226Y-14704580D02*
X8052703Y-14695056D01*
X8052703Y-14695056D02*
X8043179Y-14676008D01*
X8043179Y-14676008D02*
X8033655Y-14637913D01*
X8033655Y-14637913D02*
X8033655Y-14590294D01*
X8033655Y-14590294D02*
X8043179Y-14552199D01*
X8043179Y-14552199D02*
X8052703Y-14533151D01*
X8052703Y-14533151D02*
X8062226Y-14523628D01*
X8062226Y-14523628D02*
X8081274Y-14514104D01*
X8233655Y-14695056D02*
X8243179Y-14704580D01*
X8243179Y-14704580D02*
X8233655Y-14714104D01*
X8233655Y-14714104D02*
X8224131Y-14704580D01*
X8224131Y-14704580D02*
X8233655Y-14695056D01*
X8233655Y-14695056D02*
X8233655Y-14714104D01*
X8366988Y-14514104D02*
X8386036Y-14514104D01*
X8386036Y-14514104D02*
X8405084Y-14523628D01*
X8405084Y-14523628D02*
X8414608Y-14533151D01*
X8414608Y-14533151D02*
X8424131Y-14552199D01*
X8424131Y-14552199D02*
X8433655Y-14590294D01*
X8433655Y-14590294D02*
X8433655Y-14637913D01*
X8433655Y-14637913D02*
X8424131Y-14676008D01*
X8424131Y-14676008D02*
X8414608Y-14695056D01*
X8414608Y-14695056D02*
X8405084Y-14704580D01*
X8405084Y-14704580D02*
X8386036Y-14714104D01*
X8386036Y-14714104D02*
X8366988Y-14714104D01*
X8366988Y-14714104D02*
X8347941Y-14704580D01*
X8347941Y-14704580D02*
X8338417Y-14695056D01*
X8338417Y-14695056D02*
X8328893Y-14676008D01*
X8328893Y-14676008D02*
X8319369Y-14637913D01*
X8319369Y-14637913D02*
X8319369Y-14590294D01*
X8319369Y-14590294D02*
X8328893Y-14552199D01*
X8328893Y-14552199D02*
X8338417Y-14533151D01*
X8338417Y-14533151D02*
X8347941Y-14523628D01*
X8347941Y-14523628D02*
X8366988Y-14514104D01*
X8624131Y-14714104D02*
X8509846Y-14714104D01*
X8566988Y-14714104D02*
X8566988Y-14514104D01*
X8566988Y-14514104D02*
X8547941Y-14542675D01*
X8547941Y-14542675D02*
X8528893Y-14561723D01*
X8528893Y-14561723D02*
X8509846Y-14571247D01*
X8814608Y-14714104D02*
X8700322Y-14714104D01*
X8757465Y-14714104D02*
X8757465Y-14514104D01*
X8757465Y-14514104D02*
X8738417Y-14542675D01*
X8738417Y-14542675D02*
X8719369Y-14561723D01*
X8719369Y-14561723D02*
X8700322Y-14571247D01*
X8928893Y-14599818D02*
X8909846Y-14590294D01*
X8909846Y-14590294D02*
X8900322Y-14580770D01*
X8900322Y-14580770D02*
X8890798Y-14561723D01*
X8890798Y-14561723D02*
X8890798Y-14552199D01*
X8890798Y-14552199D02*
X8900322Y-14533151D01*
X8900322Y-14533151D02*
X8909846Y-14523628D01*
X8909846Y-14523628D02*
X8928893Y-14514104D01*
X8928893Y-14514104D02*
X8966989Y-14514104D01*
X8966989Y-14514104D02*
X8986036Y-14523628D01*
X8986036Y-14523628D02*
X8995560Y-14533151D01*
X8995560Y-14533151D02*
X9005084Y-14552199D01*
X9005084Y-14552199D02*
X9005084Y-14561723D01*
X9005084Y-14561723D02*
X8995560Y-14580770D01*
X8995560Y-14580770D02*
X8986036Y-14590294D01*
X8986036Y-14590294D02*
X8966989Y-14599818D01*
X8966989Y-14599818D02*
X8928893Y-14599818D01*
X8928893Y-14599818D02*
X8909846Y-14609342D01*
X8909846Y-14609342D02*
X8900322Y-14618866D01*
X8900322Y-14618866D02*
X8890798Y-14637913D01*
X8890798Y-14637913D02*
X8890798Y-14676008D01*
X8890798Y-14676008D02*
X8900322Y-14695056D01*
X8900322Y-14695056D02*
X8909846Y-14704580D01*
X8909846Y-14704580D02*
X8928893Y-14714104D01*
X8928893Y-14714104D02*
X8966989Y-14714104D01*
X8966989Y-14714104D02*
X8986036Y-14704580D01*
X8986036Y-14704580D02*
X8995560Y-14695056D01*
X8995560Y-14695056D02*
X9005084Y-14676008D01*
X9005084Y-14676008D02*
X9005084Y-14637913D01*
X9005084Y-14637913D02*
X8995560Y-14618866D01*
X8995560Y-14618866D02*
X8986036Y-14609342D01*
X8986036Y-14609342D02*
X8966989Y-14599818D01*
X9081274Y-14514104D02*
X9081274Y-14552199D01*
X9157465Y-14514104D02*
X9157465Y-14552199D01*
X9452703Y-14790294D02*
X9443179Y-14780770D01*
X9443179Y-14780770D02*
X9424131Y-14752199D01*
X9424131Y-14752199D02*
X9414608Y-14733151D01*
X9414608Y-14733151D02*
X9405084Y-14704580D01*
X9405084Y-14704580D02*
X9395560Y-14656961D01*
X9395560Y-14656961D02*
X9395560Y-14618866D01*
X9395560Y-14618866D02*
X9405084Y-14571247D01*
X9405084Y-14571247D02*
X9414608Y-14542675D01*
X9414608Y-14542675D02*
X9424131Y-14523628D01*
X9424131Y-14523628D02*
X9443179Y-14495056D01*
X9443179Y-14495056D02*
X9452703Y-14485532D01*
X9624131Y-14514104D02*
X9528893Y-14514104D01*
X9528893Y-14514104D02*
X9519370Y-14609342D01*
X9519370Y-14609342D02*
X9528893Y-14599818D01*
X9528893Y-14599818D02*
X9547941Y-14590294D01*
X9547941Y-14590294D02*
X9595560Y-14590294D01*
X9595560Y-14590294D02*
X9614608Y-14599818D01*
X9614608Y-14599818D02*
X9624131Y-14609342D01*
X9624131Y-14609342D02*
X9633655Y-14628389D01*
X9633655Y-14628389D02*
X9633655Y-14676008D01*
X9633655Y-14676008D02*
X9624131Y-14695056D01*
X9624131Y-14695056D02*
X9614608Y-14704580D01*
X9614608Y-14704580D02*
X9595560Y-14714104D01*
X9595560Y-14714104D02*
X9547941Y-14714104D01*
X9547941Y-14714104D02*
X9528893Y-14704580D01*
X9528893Y-14704580D02*
X9519370Y-14695056D01*
X9709846Y-14533151D02*
X9719370Y-14523628D01*
X9719370Y-14523628D02*
X9738417Y-14514104D01*
X9738417Y-14514104D02*
X9786036Y-14514104D01*
X9786036Y-14514104D02*
X9805084Y-14523628D01*
X9805084Y-14523628D02*
X9814608Y-14533151D01*
X9814608Y-14533151D02*
X9824131Y-14552199D01*
X9824131Y-14552199D02*
X9824131Y-14571247D01*
X9824131Y-14571247D02*
X9814608Y-14599818D01*
X9814608Y-14599818D02*
X9700322Y-14714104D01*
X9700322Y-14714104D02*
X9824131Y-14714104D01*
X9919370Y-14714104D02*
X9957465Y-14714104D01*
X9957465Y-14714104D02*
X9976512Y-14704580D01*
X9976512Y-14704580D02*
X9986036Y-14695056D01*
X9986036Y-14695056D02*
X10005084Y-14666485D01*
X10005084Y-14666485D02*
X10014608Y-14628389D01*
X10014608Y-14628389D02*
X10014608Y-14552199D01*
X10014608Y-14552199D02*
X10005084Y-14533151D01*
X10005084Y-14533151D02*
X9995560Y-14523628D01*
X9995560Y-14523628D02*
X9976512Y-14514104D01*
X9976512Y-14514104D02*
X9938417Y-14514104D01*
X9938417Y-14514104D02*
X9919370Y-14523628D01*
X9919370Y-14523628D02*
X9909846Y-14533151D01*
X9909846Y-14533151D02*
X9900322Y-14552199D01*
X9900322Y-14552199D02*
X9900322Y-14599818D01*
X9900322Y-14599818D02*
X9909846Y-14618866D01*
X9909846Y-14618866D02*
X9919370Y-14628389D01*
X9919370Y-14628389D02*
X9938417Y-14637913D01*
X9938417Y-14637913D02*
X9976512Y-14637913D01*
X9976512Y-14637913D02*
X9995560Y-14628389D01*
X9995560Y-14628389D02*
X10005084Y-14618866D01*
X10005084Y-14618866D02*
X10014608Y-14599818D01*
X10252703Y-14714104D02*
X10252703Y-14514104D01*
X10338417Y-14714104D02*
X10338417Y-14609342D01*
X10338417Y-14609342D02*
X10328893Y-14590294D01*
X10328893Y-14590294D02*
X10309846Y-14580770D01*
X10309846Y-14580770D02*
X10281274Y-14580770D01*
X10281274Y-14580770D02*
X10262227Y-14590294D01*
X10262227Y-14590294D02*
X10252703Y-14599818D01*
X10462227Y-14714104D02*
X10443179Y-14704580D01*
X10443179Y-14704580D02*
X10433655Y-14695056D01*
X10433655Y-14695056D02*
X10424132Y-14676008D01*
X10424132Y-14676008D02*
X10424132Y-14618866D01*
X10424132Y-14618866D02*
X10433655Y-14599818D01*
X10433655Y-14599818D02*
X10443179Y-14590294D01*
X10443179Y-14590294D02*
X10462227Y-14580770D01*
X10462227Y-14580770D02*
X10490798Y-14580770D01*
X10490798Y-14580770D02*
X10509846Y-14590294D01*
X10509846Y-14590294D02*
X10519370Y-14599818D01*
X10519370Y-14599818D02*
X10528893Y-14618866D01*
X10528893Y-14618866D02*
X10528893Y-14676008D01*
X10528893Y-14676008D02*
X10519370Y-14695056D01*
X10519370Y-14695056D02*
X10509846Y-14704580D01*
X10509846Y-14704580D02*
X10490798Y-14714104D01*
X10490798Y-14714104D02*
X10462227Y-14714104D01*
X10643179Y-14714104D02*
X10624132Y-14704580D01*
X10624132Y-14704580D02*
X10614608Y-14685532D01*
X10614608Y-14685532D02*
X10614608Y-14514104D01*
X10795560Y-14704580D02*
X10776513Y-14714104D01*
X10776513Y-14714104D02*
X10738417Y-14714104D01*
X10738417Y-14714104D02*
X10719370Y-14704580D01*
X10719370Y-14704580D02*
X10709846Y-14685532D01*
X10709846Y-14685532D02*
X10709846Y-14609342D01*
X10709846Y-14609342D02*
X10719370Y-14590294D01*
X10719370Y-14590294D02*
X10738417Y-14580770D01*
X10738417Y-14580770D02*
X10776513Y-14580770D01*
X10776513Y-14580770D02*
X10795560Y-14590294D01*
X10795560Y-14590294D02*
X10805084Y-14609342D01*
X10805084Y-14609342D02*
X10805084Y-14628389D01*
X10805084Y-14628389D02*
X10709846Y-14647437D01*
X10881274Y-14704580D02*
X10900322Y-14714104D01*
X10900322Y-14714104D02*
X10938417Y-14714104D01*
X10938417Y-14714104D02*
X10957465Y-14704580D01*
X10957465Y-14704580D02*
X10966989Y-14685532D01*
X10966989Y-14685532D02*
X10966989Y-14676008D01*
X10966989Y-14676008D02*
X10957465Y-14656961D01*
X10957465Y-14656961D02*
X10938417Y-14647437D01*
X10938417Y-14647437D02*
X10909846Y-14647437D01*
X10909846Y-14647437D02*
X10890798Y-14637913D01*
X10890798Y-14637913D02*
X10881274Y-14618866D01*
X10881274Y-14618866D02*
X10881274Y-14609342D01*
X10881274Y-14609342D02*
X10890798Y-14590294D01*
X10890798Y-14590294D02*
X10909846Y-14580770D01*
X10909846Y-14580770D02*
X10938417Y-14580770D01*
X10938417Y-14580770D02*
X10957465Y-14590294D01*
X11033655Y-14790294D02*
X11043179Y-14780770D01*
X11043179Y-14780770D02*
X11062227Y-14752199D01*
X11062227Y-14752199D02*
X11071751Y-14733151D01*
X11071751Y-14733151D02*
X11081274Y-14704580D01*
X11081274Y-14704580D02*
X11090798Y-14656961D01*
X11090798Y-14656961D02*
X11090798Y-14618866D01*
X11090798Y-14618866D02*
X11081274Y-14571247D01*
X11081274Y-14571247D02*
X11071751Y-14542675D01*
X11071751Y-14542675D02*
X11062227Y-14523628D01*
X11062227Y-14523628D02*
X11043179Y-14495056D01*
X11043179Y-14495056D02*
X11033655Y-14485532D01*
D10*
X5877640Y-14886620D02*
G75*
G02*
X5837640Y-14886620I-20000J0D01*
G01*
X5837640Y-14886620D02*
G75*
G02*
X5877640Y-14886620I20000J0D01*
G01*
D11*
X6176512Y-14778104D02*
X6195560Y-14778104D01*
X6195560Y-14778104D02*
X6214607Y-14787628D01*
X6214607Y-14787628D02*
X6224131Y-14797151D01*
X6224131Y-14797151D02*
X6233655Y-14816199D01*
X6233655Y-14816199D02*
X6243179Y-14854294D01*
X6243179Y-14854294D02*
X6243179Y-14901913D01*
X6243179Y-14901913D02*
X6233655Y-14940008D01*
X6233655Y-14940008D02*
X6224131Y-14959056D01*
X6224131Y-14959056D02*
X6214607Y-14968580D01*
X6214607Y-14968580D02*
X6195560Y-14978104D01*
X6195560Y-14978104D02*
X6176512Y-14978104D01*
X6176512Y-14978104D02*
X6157464Y-14968580D01*
X6157464Y-14968580D02*
X6147941Y-14959056D01*
X6147941Y-14959056D02*
X6138417Y-14940008D01*
X6138417Y-14940008D02*
X6128893Y-14901913D01*
X6128893Y-14901913D02*
X6128893Y-14854294D01*
X6128893Y-14854294D02*
X6138417Y-14816199D01*
X6138417Y-14816199D02*
X6147941Y-14797151D01*
X6147941Y-14797151D02*
X6157464Y-14787628D01*
X6157464Y-14787628D02*
X6176512Y-14778104D01*
X6328893Y-14959056D02*
X6338417Y-14968580D01*
X6338417Y-14968580D02*
X6328893Y-14978104D01*
X6328893Y-14978104D02*
X6319369Y-14968580D01*
X6319369Y-14968580D02*
X6328893Y-14959056D01*
X6328893Y-14959056D02*
X6328893Y-14978104D01*
X6509845Y-14844770D02*
X6509845Y-14978104D01*
X6462226Y-14768580D02*
X6414607Y-14911437D01*
X6414607Y-14911437D02*
X6538417Y-14911437D01*
X6652702Y-14778104D02*
X6671750Y-14778104D01*
X6671750Y-14778104D02*
X6690798Y-14787628D01*
X6690798Y-14787628D02*
X6700322Y-14797151D01*
X6700322Y-14797151D02*
X6709845Y-14816199D01*
X6709845Y-14816199D02*
X6719369Y-14854294D01*
X6719369Y-14854294D02*
X6719369Y-14901913D01*
X6719369Y-14901913D02*
X6709845Y-14940008D01*
X6709845Y-14940008D02*
X6700322Y-14959056D01*
X6700322Y-14959056D02*
X6690798Y-14968580D01*
X6690798Y-14968580D02*
X6671750Y-14978104D01*
X6671750Y-14978104D02*
X6652702Y-14978104D01*
X6652702Y-14978104D02*
X6633655Y-14968580D01*
X6633655Y-14968580D02*
X6624131Y-14959056D01*
X6624131Y-14959056D02*
X6614607Y-14940008D01*
X6614607Y-14940008D02*
X6605083Y-14901913D01*
X6605083Y-14901913D02*
X6605083Y-14854294D01*
X6605083Y-14854294D02*
X6614607Y-14816199D01*
X6614607Y-14816199D02*
X6624131Y-14797151D01*
X6624131Y-14797151D02*
X6633655Y-14787628D01*
X6633655Y-14787628D02*
X6652702Y-14778104D01*
X6843179Y-14778104D02*
X6862226Y-14778104D01*
X6862226Y-14778104D02*
X6881274Y-14787628D01*
X6881274Y-14787628D02*
X6890798Y-14797151D01*
X6890798Y-14797151D02*
X6900322Y-14816199D01*
X6900322Y-14816199D02*
X6909845Y-14854294D01*
X6909845Y-14854294D02*
X6909845Y-14901913D01*
X6909845Y-14901913D02*
X6900322Y-14940008D01*
X6900322Y-14940008D02*
X6890798Y-14959056D01*
X6890798Y-14959056D02*
X6881274Y-14968580D01*
X6881274Y-14968580D02*
X6862226Y-14978104D01*
X6862226Y-14978104D02*
X6843179Y-14978104D01*
X6843179Y-14978104D02*
X6824131Y-14968580D01*
X6824131Y-14968580D02*
X6814607Y-14959056D01*
X6814607Y-14959056D02*
X6805083Y-14940008D01*
X6805083Y-14940008D02*
X6795560Y-14901913D01*
X6795560Y-14901913D02*
X6795560Y-14854294D01*
X6795560Y-14854294D02*
X6805083Y-14816199D01*
X6805083Y-14816199D02*
X6814607Y-14797151D01*
X6814607Y-14797151D02*
X6824131Y-14787628D01*
X6824131Y-14787628D02*
X6843179Y-14778104D01*
X6995560Y-14978104D02*
X6995560Y-14844770D01*
X6995560Y-14863818D02*
X7005083Y-14854294D01*
X7005083Y-14854294D02*
X7024131Y-14844770D01*
X7024131Y-14844770D02*
X7052703Y-14844770D01*
X7052703Y-14844770D02*
X7071750Y-14854294D01*
X7071750Y-14854294D02*
X7081274Y-14873342D01*
X7081274Y-14873342D02*
X7081274Y-14978104D01*
X7081274Y-14873342D02*
X7090798Y-14854294D01*
X7090798Y-14854294D02*
X7109845Y-14844770D01*
X7109845Y-14844770D02*
X7138417Y-14844770D01*
X7138417Y-14844770D02*
X7157464Y-14854294D01*
X7157464Y-14854294D02*
X7166988Y-14873342D01*
X7166988Y-14873342D02*
X7166988Y-14978104D01*
X7262226Y-14978104D02*
X7262226Y-14844770D01*
X7262226Y-14863818D02*
X7271750Y-14854294D01*
X7271750Y-14854294D02*
X7290798Y-14844770D01*
X7290798Y-14844770D02*
X7319369Y-14844770D01*
X7319369Y-14844770D02*
X7338417Y-14854294D01*
X7338417Y-14854294D02*
X7347941Y-14873342D01*
X7347941Y-14873342D02*
X7347941Y-14978104D01*
X7347941Y-14873342D02*
X7357464Y-14854294D01*
X7357464Y-14854294D02*
X7376512Y-14844770D01*
X7376512Y-14844770D02*
X7405083Y-14844770D01*
X7405083Y-14844770D02*
X7424131Y-14854294D01*
X7424131Y-14854294D02*
X7433655Y-14873342D01*
X7433655Y-14873342D02*
X7433655Y-14978104D01*
X7824131Y-14768580D02*
X7652703Y-15025723D01*
X8081274Y-14778104D02*
X8100322Y-14778104D01*
X8100322Y-14778104D02*
X8119369Y-14787628D01*
X8119369Y-14787628D02*
X8128893Y-14797151D01*
X8128893Y-14797151D02*
X8138417Y-14816199D01*
X8138417Y-14816199D02*
X8147941Y-14854294D01*
X8147941Y-14854294D02*
X8147941Y-14901913D01*
X8147941Y-14901913D02*
X8138417Y-14940008D01*
X8138417Y-14940008D02*
X8128893Y-14959056D01*
X8128893Y-14959056D02*
X8119369Y-14968580D01*
X8119369Y-14968580D02*
X8100322Y-14978104D01*
X8100322Y-14978104D02*
X8081274Y-14978104D01*
X8081274Y-14978104D02*
X8062226Y-14968580D01*
X8062226Y-14968580D02*
X8052703Y-14959056D01*
X8052703Y-14959056D02*
X8043179Y-14940008D01*
X8043179Y-14940008D02*
X8033655Y-14901913D01*
X8033655Y-14901913D02*
X8033655Y-14854294D01*
X8033655Y-14854294D02*
X8043179Y-14816199D01*
X8043179Y-14816199D02*
X8052703Y-14797151D01*
X8052703Y-14797151D02*
X8062226Y-14787628D01*
X8062226Y-14787628D02*
X8081274Y-14778104D01*
X8233655Y-14959056D02*
X8243179Y-14968580D01*
X8243179Y-14968580D02*
X8233655Y-14978104D01*
X8233655Y-14978104D02*
X8224131Y-14968580D01*
X8224131Y-14968580D02*
X8233655Y-14959056D01*
X8233655Y-14959056D02*
X8233655Y-14978104D01*
X8366988Y-14778104D02*
X8386036Y-14778104D01*
X8386036Y-14778104D02*
X8405084Y-14787628D01*
X8405084Y-14787628D02*
X8414608Y-14797151D01*
X8414608Y-14797151D02*
X8424131Y-14816199D01*
X8424131Y-14816199D02*
X8433655Y-14854294D01*
X8433655Y-14854294D02*
X8433655Y-14901913D01*
X8433655Y-14901913D02*
X8424131Y-14940008D01*
X8424131Y-14940008D02*
X8414608Y-14959056D01*
X8414608Y-14959056D02*
X8405084Y-14968580D01*
X8405084Y-14968580D02*
X8386036Y-14978104D01*
X8386036Y-14978104D02*
X8366988Y-14978104D01*
X8366988Y-14978104D02*
X8347941Y-14968580D01*
X8347941Y-14968580D02*
X8338417Y-14959056D01*
X8338417Y-14959056D02*
X8328893Y-14940008D01*
X8328893Y-14940008D02*
X8319369Y-14901913D01*
X8319369Y-14901913D02*
X8319369Y-14854294D01*
X8319369Y-14854294D02*
X8328893Y-14816199D01*
X8328893Y-14816199D02*
X8338417Y-14797151D01*
X8338417Y-14797151D02*
X8347941Y-14787628D01*
X8347941Y-14787628D02*
X8366988Y-14778104D01*
X8624131Y-14978104D02*
X8509846Y-14978104D01*
X8566988Y-14978104D02*
X8566988Y-14778104D01*
X8566988Y-14778104D02*
X8547941Y-14806675D01*
X8547941Y-14806675D02*
X8528893Y-14825723D01*
X8528893Y-14825723D02*
X8509846Y-14835247D01*
X8805084Y-14778104D02*
X8709846Y-14778104D01*
X8709846Y-14778104D02*
X8700322Y-14873342D01*
X8700322Y-14873342D02*
X8709846Y-14863818D01*
X8709846Y-14863818D02*
X8728893Y-14854294D01*
X8728893Y-14854294D02*
X8776512Y-14854294D01*
X8776512Y-14854294D02*
X8795560Y-14863818D01*
X8795560Y-14863818D02*
X8805084Y-14873342D01*
X8805084Y-14873342D02*
X8814608Y-14892389D01*
X8814608Y-14892389D02*
X8814608Y-14940008D01*
X8814608Y-14940008D02*
X8805084Y-14959056D01*
X8805084Y-14959056D02*
X8795560Y-14968580D01*
X8795560Y-14968580D02*
X8776512Y-14978104D01*
X8776512Y-14978104D02*
X8728893Y-14978104D01*
X8728893Y-14978104D02*
X8709846Y-14968580D01*
X8709846Y-14968580D02*
X8700322Y-14959056D01*
X8881274Y-14778104D02*
X9014608Y-14778104D01*
X9014608Y-14778104D02*
X8928893Y-14978104D01*
X9081274Y-14778104D02*
X9081274Y-14816199D01*
X9157465Y-14778104D02*
X9157465Y-14816199D01*
X9452703Y-15054294D02*
X9443179Y-15044770D01*
X9443179Y-15044770D02*
X9424131Y-15016199D01*
X9424131Y-15016199D02*
X9414608Y-14997151D01*
X9414608Y-14997151D02*
X9405084Y-14968580D01*
X9405084Y-14968580D02*
X9395560Y-14920961D01*
X9395560Y-14920961D02*
X9395560Y-14882866D01*
X9395560Y-14882866D02*
X9405084Y-14835247D01*
X9405084Y-14835247D02*
X9414608Y-14806675D01*
X9414608Y-14806675D02*
X9424131Y-14787628D01*
X9424131Y-14787628D02*
X9443179Y-14759056D01*
X9443179Y-14759056D02*
X9452703Y-14749532D01*
X9519370Y-14797151D02*
X9528893Y-14787628D01*
X9528893Y-14787628D02*
X9547941Y-14778104D01*
X9547941Y-14778104D02*
X9595560Y-14778104D01*
X9595560Y-14778104D02*
X9614608Y-14787628D01*
X9614608Y-14787628D02*
X9624131Y-14797151D01*
X9624131Y-14797151D02*
X9633655Y-14816199D01*
X9633655Y-14816199D02*
X9633655Y-14835247D01*
X9633655Y-14835247D02*
X9624131Y-14863818D01*
X9624131Y-14863818D02*
X9509846Y-14978104D01*
X9509846Y-14978104D02*
X9633655Y-14978104D01*
X9871751Y-14978104D02*
X9871751Y-14778104D01*
X9957465Y-14978104D02*
X9957465Y-14873342D01*
X9957465Y-14873342D02*
X9947941Y-14854294D01*
X9947941Y-14854294D02*
X9928893Y-14844770D01*
X9928893Y-14844770D02*
X9900322Y-14844770D01*
X9900322Y-14844770D02*
X9881274Y-14854294D01*
X9881274Y-14854294D02*
X9871751Y-14863818D01*
X10081274Y-14978104D02*
X10062227Y-14968580D01*
X10062227Y-14968580D02*
X10052703Y-14959056D01*
X10052703Y-14959056D02*
X10043179Y-14940008D01*
X10043179Y-14940008D02*
X10043179Y-14882866D01*
X10043179Y-14882866D02*
X10052703Y-14863818D01*
X10052703Y-14863818D02*
X10062227Y-14854294D01*
X10062227Y-14854294D02*
X10081274Y-14844770D01*
X10081274Y-14844770D02*
X10109846Y-14844770D01*
X10109846Y-14844770D02*
X10128893Y-14854294D01*
X10128893Y-14854294D02*
X10138417Y-14863818D01*
X10138417Y-14863818D02*
X10147941Y-14882866D01*
X10147941Y-14882866D02*
X10147941Y-14940008D01*
X10147941Y-14940008D02*
X10138417Y-14959056D01*
X10138417Y-14959056D02*
X10128893Y-14968580D01*
X10128893Y-14968580D02*
X10109846Y-14978104D01*
X10109846Y-14978104D02*
X10081274Y-14978104D01*
X10262227Y-14978104D02*
X10243179Y-14968580D01*
X10243179Y-14968580D02*
X10233655Y-14949532D01*
X10233655Y-14949532D02*
X10233655Y-14778104D01*
X10414608Y-14968580D02*
X10395560Y-14978104D01*
X10395560Y-14978104D02*
X10357465Y-14978104D01*
X10357465Y-14978104D02*
X10338417Y-14968580D01*
X10338417Y-14968580D02*
X10328893Y-14949532D01*
X10328893Y-14949532D02*
X10328893Y-14873342D01*
X10328893Y-14873342D02*
X10338417Y-14854294D01*
X10338417Y-14854294D02*
X10357465Y-14844770D01*
X10357465Y-14844770D02*
X10395560Y-14844770D01*
X10395560Y-14844770D02*
X10414608Y-14854294D01*
X10414608Y-14854294D02*
X10424132Y-14873342D01*
X10424132Y-14873342D02*
X10424132Y-14892389D01*
X10424132Y-14892389D02*
X10328893Y-14911437D01*
X10500322Y-14968580D02*
X10519370Y-14978104D01*
X10519370Y-14978104D02*
X10557465Y-14978104D01*
X10557465Y-14978104D02*
X10576513Y-14968580D01*
X10576513Y-14968580D02*
X10586036Y-14949532D01*
X10586036Y-14949532D02*
X10586036Y-14940008D01*
X10586036Y-14940008D02*
X10576513Y-14920961D01*
X10576513Y-14920961D02*
X10557465Y-14911437D01*
X10557465Y-14911437D02*
X10528893Y-14911437D01*
X10528893Y-14911437D02*
X10509846Y-14901913D01*
X10509846Y-14901913D02*
X10500322Y-14882866D01*
X10500322Y-14882866D02*
X10500322Y-14873342D01*
X10500322Y-14873342D02*
X10509846Y-14854294D01*
X10509846Y-14854294D02*
X10528893Y-14844770D01*
X10528893Y-14844770D02*
X10557465Y-14844770D01*
X10557465Y-14844770D02*
X10576513Y-14854294D01*
X10652703Y-15054294D02*
X10662227Y-15044770D01*
X10662227Y-15044770D02*
X10681274Y-15016199D01*
X10681274Y-15016199D02*
X10690798Y-14997151D01*
X10690798Y-14997151D02*
X10700322Y-14968580D01*
X10700322Y-14968580D02*
X10709846Y-14920961D01*
X10709846Y-14920961D02*
X10709846Y-14882866D01*
X10709846Y-14882866D02*
X10700322Y-14835247D01*
X10700322Y-14835247D02*
X10690798Y-14806675D01*
X10690798Y-14806675D02*
X10681274Y-14787628D01*
X10681274Y-14787628D02*
X10662227Y-14759056D01*
X10662227Y-14759056D02*
X10652703Y-14749532D01*
D10*
X5847640Y-15120620D02*
X5847640Y-15180620D01*
X5817640Y-15150620D02*
X5877640Y-15150620D01*
D11*
X6176512Y-15042104D02*
X6195560Y-15042104D01*
X6195560Y-15042104D02*
X6214607Y-15051628D01*
X6214607Y-15051628D02*
X6224131Y-15061151D01*
X6224131Y-15061151D02*
X6233655Y-15080199D01*
X6233655Y-15080199D02*
X6243179Y-15118294D01*
X6243179Y-15118294D02*
X6243179Y-15165913D01*
X6243179Y-15165913D02*
X6233655Y-15204008D01*
X6233655Y-15204008D02*
X6224131Y-15223056D01*
X6224131Y-15223056D02*
X6214607Y-15232580D01*
X6214607Y-15232580D02*
X6195560Y-15242104D01*
X6195560Y-15242104D02*
X6176512Y-15242104D01*
X6176512Y-15242104D02*
X6157464Y-15232580D01*
X6157464Y-15232580D02*
X6147941Y-15223056D01*
X6147941Y-15223056D02*
X6138417Y-15204008D01*
X6138417Y-15204008D02*
X6128893Y-15165913D01*
X6128893Y-15165913D02*
X6128893Y-15118294D01*
X6128893Y-15118294D02*
X6138417Y-15080199D01*
X6138417Y-15080199D02*
X6147941Y-15061151D01*
X6147941Y-15061151D02*
X6157464Y-15051628D01*
X6157464Y-15051628D02*
X6176512Y-15042104D01*
X6328893Y-15223056D02*
X6338417Y-15232580D01*
X6338417Y-15232580D02*
X6328893Y-15242104D01*
X6328893Y-15242104D02*
X6319369Y-15232580D01*
X6319369Y-15232580D02*
X6328893Y-15223056D01*
X6328893Y-15223056D02*
X6328893Y-15242104D01*
X6509845Y-15042104D02*
X6471750Y-15042104D01*
X6471750Y-15042104D02*
X6452702Y-15051628D01*
X6452702Y-15051628D02*
X6443179Y-15061151D01*
X6443179Y-15061151D02*
X6424131Y-15089723D01*
X6424131Y-15089723D02*
X6414607Y-15127818D01*
X6414607Y-15127818D02*
X6414607Y-15204008D01*
X6414607Y-15204008D02*
X6424131Y-15223056D01*
X6424131Y-15223056D02*
X6433655Y-15232580D01*
X6433655Y-15232580D02*
X6452702Y-15242104D01*
X6452702Y-15242104D02*
X6490798Y-15242104D01*
X6490798Y-15242104D02*
X6509845Y-15232580D01*
X6509845Y-15232580D02*
X6519369Y-15223056D01*
X6519369Y-15223056D02*
X6528893Y-15204008D01*
X6528893Y-15204008D02*
X6528893Y-15156389D01*
X6528893Y-15156389D02*
X6519369Y-15137342D01*
X6519369Y-15137342D02*
X6509845Y-15127818D01*
X6509845Y-15127818D02*
X6490798Y-15118294D01*
X6490798Y-15118294D02*
X6452702Y-15118294D01*
X6452702Y-15118294D02*
X6433655Y-15127818D01*
X6433655Y-15127818D02*
X6424131Y-15137342D01*
X6424131Y-15137342D02*
X6414607Y-15156389D01*
X6652702Y-15042104D02*
X6671750Y-15042104D01*
X6671750Y-15042104D02*
X6690798Y-15051628D01*
X6690798Y-15051628D02*
X6700322Y-15061151D01*
X6700322Y-15061151D02*
X6709845Y-15080199D01*
X6709845Y-15080199D02*
X6719369Y-15118294D01*
X6719369Y-15118294D02*
X6719369Y-15165913D01*
X6719369Y-15165913D02*
X6709845Y-15204008D01*
X6709845Y-15204008D02*
X6700322Y-15223056D01*
X6700322Y-15223056D02*
X6690798Y-15232580D01*
X6690798Y-15232580D02*
X6671750Y-15242104D01*
X6671750Y-15242104D02*
X6652702Y-15242104D01*
X6652702Y-15242104D02*
X6633655Y-15232580D01*
X6633655Y-15232580D02*
X6624131Y-15223056D01*
X6624131Y-15223056D02*
X6614607Y-15204008D01*
X6614607Y-15204008D02*
X6605083Y-15165913D01*
X6605083Y-15165913D02*
X6605083Y-15118294D01*
X6605083Y-15118294D02*
X6614607Y-15080199D01*
X6614607Y-15080199D02*
X6624131Y-15061151D01*
X6624131Y-15061151D02*
X6633655Y-15051628D01*
X6633655Y-15051628D02*
X6652702Y-15042104D01*
X6843179Y-15042104D02*
X6862226Y-15042104D01*
X6862226Y-15042104D02*
X6881274Y-15051628D01*
X6881274Y-15051628D02*
X6890798Y-15061151D01*
X6890798Y-15061151D02*
X6900322Y-15080199D01*
X6900322Y-15080199D02*
X6909845Y-15118294D01*
X6909845Y-15118294D02*
X6909845Y-15165913D01*
X6909845Y-15165913D02*
X6900322Y-15204008D01*
X6900322Y-15204008D02*
X6890798Y-15223056D01*
X6890798Y-15223056D02*
X6881274Y-15232580D01*
X6881274Y-15232580D02*
X6862226Y-15242104D01*
X6862226Y-15242104D02*
X6843179Y-15242104D01*
X6843179Y-15242104D02*
X6824131Y-15232580D01*
X6824131Y-15232580D02*
X6814607Y-15223056D01*
X6814607Y-15223056D02*
X6805083Y-15204008D01*
X6805083Y-15204008D02*
X6795560Y-15165913D01*
X6795560Y-15165913D02*
X6795560Y-15118294D01*
X6795560Y-15118294D02*
X6805083Y-15080199D01*
X6805083Y-15080199D02*
X6814607Y-15061151D01*
X6814607Y-15061151D02*
X6824131Y-15051628D01*
X6824131Y-15051628D02*
X6843179Y-15042104D01*
X6995560Y-15242104D02*
X6995560Y-15108770D01*
X6995560Y-15127818D02*
X7005083Y-15118294D01*
X7005083Y-15118294D02*
X7024131Y-15108770D01*
X7024131Y-15108770D02*
X7052703Y-15108770D01*
X7052703Y-15108770D02*
X7071750Y-15118294D01*
X7071750Y-15118294D02*
X7081274Y-15137342D01*
X7081274Y-15137342D02*
X7081274Y-15242104D01*
X7081274Y-15137342D02*
X7090798Y-15118294D01*
X7090798Y-15118294D02*
X7109845Y-15108770D01*
X7109845Y-15108770D02*
X7138417Y-15108770D01*
X7138417Y-15108770D02*
X7157464Y-15118294D01*
X7157464Y-15118294D02*
X7166988Y-15137342D01*
X7166988Y-15137342D02*
X7166988Y-15242104D01*
X7262226Y-15242104D02*
X7262226Y-15108770D01*
X7262226Y-15127818D02*
X7271750Y-15118294D01*
X7271750Y-15118294D02*
X7290798Y-15108770D01*
X7290798Y-15108770D02*
X7319369Y-15108770D01*
X7319369Y-15108770D02*
X7338417Y-15118294D01*
X7338417Y-15118294D02*
X7347941Y-15137342D01*
X7347941Y-15137342D02*
X7347941Y-15242104D01*
X7347941Y-15137342D02*
X7357464Y-15118294D01*
X7357464Y-15118294D02*
X7376512Y-15108770D01*
X7376512Y-15108770D02*
X7405083Y-15108770D01*
X7405083Y-15108770D02*
X7424131Y-15118294D01*
X7424131Y-15118294D02*
X7433655Y-15137342D01*
X7433655Y-15137342D02*
X7433655Y-15242104D01*
X7824131Y-15032580D02*
X7652703Y-15289723D01*
X8081274Y-15042104D02*
X8100322Y-15042104D01*
X8100322Y-15042104D02*
X8119369Y-15051628D01*
X8119369Y-15051628D02*
X8128893Y-15061151D01*
X8128893Y-15061151D02*
X8138417Y-15080199D01*
X8138417Y-15080199D02*
X8147941Y-15118294D01*
X8147941Y-15118294D02*
X8147941Y-15165913D01*
X8147941Y-15165913D02*
X8138417Y-15204008D01*
X8138417Y-15204008D02*
X8128893Y-15223056D01*
X8128893Y-15223056D02*
X8119369Y-15232580D01*
X8119369Y-15232580D02*
X8100322Y-15242104D01*
X8100322Y-15242104D02*
X8081274Y-15242104D01*
X8081274Y-15242104D02*
X8062226Y-15232580D01*
X8062226Y-15232580D02*
X8052703Y-15223056D01*
X8052703Y-15223056D02*
X8043179Y-15204008D01*
X8043179Y-15204008D02*
X8033655Y-15165913D01*
X8033655Y-15165913D02*
X8033655Y-15118294D01*
X8033655Y-15118294D02*
X8043179Y-15080199D01*
X8043179Y-15080199D02*
X8052703Y-15061151D01*
X8052703Y-15061151D02*
X8062226Y-15051628D01*
X8062226Y-15051628D02*
X8081274Y-15042104D01*
X8233655Y-15223056D02*
X8243179Y-15232580D01*
X8243179Y-15232580D02*
X8233655Y-15242104D01*
X8233655Y-15242104D02*
X8224131Y-15232580D01*
X8224131Y-15232580D02*
X8233655Y-15223056D01*
X8233655Y-15223056D02*
X8233655Y-15242104D01*
X8366988Y-15042104D02*
X8386036Y-15042104D01*
X8386036Y-15042104D02*
X8405084Y-15051628D01*
X8405084Y-15051628D02*
X8414608Y-15061151D01*
X8414608Y-15061151D02*
X8424131Y-15080199D01*
X8424131Y-15080199D02*
X8433655Y-15118294D01*
X8433655Y-15118294D02*
X8433655Y-15165913D01*
X8433655Y-15165913D02*
X8424131Y-15204008D01*
X8424131Y-15204008D02*
X8414608Y-15223056D01*
X8414608Y-15223056D02*
X8405084Y-15232580D01*
X8405084Y-15232580D02*
X8386036Y-15242104D01*
X8386036Y-15242104D02*
X8366988Y-15242104D01*
X8366988Y-15242104D02*
X8347941Y-15232580D01*
X8347941Y-15232580D02*
X8338417Y-15223056D01*
X8338417Y-15223056D02*
X8328893Y-15204008D01*
X8328893Y-15204008D02*
X8319369Y-15165913D01*
X8319369Y-15165913D02*
X8319369Y-15118294D01*
X8319369Y-15118294D02*
X8328893Y-15080199D01*
X8328893Y-15080199D02*
X8338417Y-15061151D01*
X8338417Y-15061151D02*
X8347941Y-15051628D01*
X8347941Y-15051628D02*
X8366988Y-15042104D01*
X8509846Y-15061151D02*
X8519369Y-15051628D01*
X8519369Y-15051628D02*
X8538417Y-15042104D01*
X8538417Y-15042104D02*
X8586036Y-15042104D01*
X8586036Y-15042104D02*
X8605084Y-15051628D01*
X8605084Y-15051628D02*
X8614608Y-15061151D01*
X8614608Y-15061151D02*
X8624131Y-15080199D01*
X8624131Y-15080199D02*
X8624131Y-15099247D01*
X8624131Y-15099247D02*
X8614608Y-15127818D01*
X8614608Y-15127818D02*
X8500322Y-15242104D01*
X8500322Y-15242104D02*
X8624131Y-15242104D01*
X8690798Y-15042104D02*
X8814608Y-15042104D01*
X8814608Y-15042104D02*
X8747941Y-15118294D01*
X8747941Y-15118294D02*
X8776512Y-15118294D01*
X8776512Y-15118294D02*
X8795560Y-15127818D01*
X8795560Y-15127818D02*
X8805084Y-15137342D01*
X8805084Y-15137342D02*
X8814608Y-15156389D01*
X8814608Y-15156389D02*
X8814608Y-15204008D01*
X8814608Y-15204008D02*
X8805084Y-15223056D01*
X8805084Y-15223056D02*
X8795560Y-15232580D01*
X8795560Y-15232580D02*
X8776512Y-15242104D01*
X8776512Y-15242104D02*
X8719369Y-15242104D01*
X8719369Y-15242104D02*
X8700322Y-15232580D01*
X8700322Y-15232580D02*
X8690798Y-15223056D01*
X8986036Y-15042104D02*
X8947941Y-15042104D01*
X8947941Y-15042104D02*
X8928893Y-15051628D01*
X8928893Y-15051628D02*
X8919369Y-15061151D01*
X8919369Y-15061151D02*
X8900322Y-15089723D01*
X8900322Y-15089723D02*
X8890798Y-15127818D01*
X8890798Y-15127818D02*
X8890798Y-15204008D01*
X8890798Y-15204008D02*
X8900322Y-15223056D01*
X8900322Y-15223056D02*
X8909846Y-15232580D01*
X8909846Y-15232580D02*
X8928893Y-15242104D01*
X8928893Y-15242104D02*
X8966989Y-15242104D01*
X8966989Y-15242104D02*
X8986036Y-15232580D01*
X8986036Y-15232580D02*
X8995560Y-15223056D01*
X8995560Y-15223056D02*
X9005084Y-15204008D01*
X9005084Y-15204008D02*
X9005084Y-15156389D01*
X9005084Y-15156389D02*
X8995560Y-15137342D01*
X8995560Y-15137342D02*
X8986036Y-15127818D01*
X8986036Y-15127818D02*
X8966989Y-15118294D01*
X8966989Y-15118294D02*
X8928893Y-15118294D01*
X8928893Y-15118294D02*
X8909846Y-15127818D01*
X8909846Y-15127818D02*
X8900322Y-15137342D01*
X8900322Y-15137342D02*
X8890798Y-15156389D01*
X9081274Y-15042104D02*
X9081274Y-15080199D01*
X9157465Y-15042104D02*
X9157465Y-15080199D01*
X9452703Y-15318294D02*
X9443179Y-15308770D01*
X9443179Y-15308770D02*
X9424131Y-15280199D01*
X9424131Y-15280199D02*
X9414608Y-15261151D01*
X9414608Y-15261151D02*
X9405084Y-15232580D01*
X9405084Y-15232580D02*
X9395560Y-15184961D01*
X9395560Y-15184961D02*
X9395560Y-15146866D01*
X9395560Y-15146866D02*
X9405084Y-15099247D01*
X9405084Y-15099247D02*
X9414608Y-15070675D01*
X9414608Y-15070675D02*
X9424131Y-15051628D01*
X9424131Y-15051628D02*
X9443179Y-15023056D01*
X9443179Y-15023056D02*
X9452703Y-15013532D01*
X9566989Y-15042104D02*
X9586036Y-15042104D01*
X9586036Y-15042104D02*
X9605084Y-15051628D01*
X9605084Y-15051628D02*
X9614608Y-15061151D01*
X9614608Y-15061151D02*
X9624131Y-15080199D01*
X9624131Y-15080199D02*
X9633655Y-15118294D01*
X9633655Y-15118294D02*
X9633655Y-15165913D01*
X9633655Y-15165913D02*
X9624131Y-15204008D01*
X9624131Y-15204008D02*
X9614608Y-15223056D01*
X9614608Y-15223056D02*
X9605084Y-15232580D01*
X9605084Y-15232580D02*
X9586036Y-15242104D01*
X9586036Y-15242104D02*
X9566989Y-15242104D01*
X9566989Y-15242104D02*
X9547941Y-15232580D01*
X9547941Y-15232580D02*
X9538417Y-15223056D01*
X9538417Y-15223056D02*
X9528893Y-15204008D01*
X9528893Y-15204008D02*
X9519370Y-15165913D01*
X9519370Y-15165913D02*
X9519370Y-15118294D01*
X9519370Y-15118294D02*
X9528893Y-15080199D01*
X9528893Y-15080199D02*
X9538417Y-15061151D01*
X9538417Y-15061151D02*
X9547941Y-15051628D01*
X9547941Y-15051628D02*
X9566989Y-15042104D01*
X9871751Y-15242104D02*
X9871751Y-15042104D01*
X9957465Y-15242104D02*
X9957465Y-15137342D01*
X9957465Y-15137342D02*
X9947941Y-15118294D01*
X9947941Y-15118294D02*
X9928893Y-15108770D01*
X9928893Y-15108770D02*
X9900322Y-15108770D01*
X9900322Y-15108770D02*
X9881274Y-15118294D01*
X9881274Y-15118294D02*
X9871751Y-15127818D01*
X10081274Y-15242104D02*
X10062227Y-15232580D01*
X10062227Y-15232580D02*
X10052703Y-15223056D01*
X10052703Y-15223056D02*
X10043179Y-15204008D01*
X10043179Y-15204008D02*
X10043179Y-15146866D01*
X10043179Y-15146866D02*
X10052703Y-15127818D01*
X10052703Y-15127818D02*
X10062227Y-15118294D01*
X10062227Y-15118294D02*
X10081274Y-15108770D01*
X10081274Y-15108770D02*
X10109846Y-15108770D01*
X10109846Y-15108770D02*
X10128893Y-15118294D01*
X10128893Y-15118294D02*
X10138417Y-15127818D01*
X10138417Y-15127818D02*
X10147941Y-15146866D01*
X10147941Y-15146866D02*
X10147941Y-15204008D01*
X10147941Y-15204008D02*
X10138417Y-15223056D01*
X10138417Y-15223056D02*
X10128893Y-15232580D01*
X10128893Y-15232580D02*
X10109846Y-15242104D01*
X10109846Y-15242104D02*
X10081274Y-15242104D01*
X10262227Y-15242104D02*
X10243179Y-15232580D01*
X10243179Y-15232580D02*
X10233655Y-15213532D01*
X10233655Y-15213532D02*
X10233655Y-15042104D01*
X10414608Y-15232580D02*
X10395560Y-15242104D01*
X10395560Y-15242104D02*
X10357465Y-15242104D01*
X10357465Y-15242104D02*
X10338417Y-15232580D01*
X10338417Y-15232580D02*
X10328893Y-15213532D01*
X10328893Y-15213532D02*
X10328893Y-15137342D01*
X10328893Y-15137342D02*
X10338417Y-15118294D01*
X10338417Y-15118294D02*
X10357465Y-15108770D01*
X10357465Y-15108770D02*
X10395560Y-15108770D01*
X10395560Y-15108770D02*
X10414608Y-15118294D01*
X10414608Y-15118294D02*
X10424132Y-15137342D01*
X10424132Y-15137342D02*
X10424132Y-15156389D01*
X10424132Y-15156389D02*
X10328893Y-15175437D01*
X10500322Y-15232580D02*
X10519370Y-15242104D01*
X10519370Y-15242104D02*
X10557465Y-15242104D01*
X10557465Y-15242104D02*
X10576513Y-15232580D01*
X10576513Y-15232580D02*
X10586036Y-15213532D01*
X10586036Y-15213532D02*
X10586036Y-15204008D01*
X10586036Y-15204008D02*
X10576513Y-15184961D01*
X10576513Y-15184961D02*
X10557465Y-15175437D01*
X10557465Y-15175437D02*
X10528893Y-15175437D01*
X10528893Y-15175437D02*
X10509846Y-15165913D01*
X10509846Y-15165913D02*
X10500322Y-15146866D01*
X10500322Y-15146866D02*
X10500322Y-15137342D01*
X10500322Y-15137342D02*
X10509846Y-15118294D01*
X10509846Y-15118294D02*
X10528893Y-15108770D01*
X10528893Y-15108770D02*
X10557465Y-15108770D01*
X10557465Y-15108770D02*
X10576513Y-15118294D01*
X10824132Y-15165913D02*
X10976513Y-15165913D01*
X10900322Y-15242104D02*
X10900322Y-15089723D01*
X11309846Y-15108770D02*
X11309846Y-15242104D01*
X11262227Y-15032580D02*
X11214608Y-15175437D01*
X11214608Y-15175437D02*
X11338417Y-15175437D01*
X11557465Y-15232580D02*
X11576513Y-15242104D01*
X11576513Y-15242104D02*
X11614608Y-15242104D01*
X11614608Y-15242104D02*
X11633655Y-15232580D01*
X11633655Y-15232580D02*
X11643179Y-15213532D01*
X11643179Y-15213532D02*
X11643179Y-15204008D01*
X11643179Y-15204008D02*
X11633655Y-15184961D01*
X11633655Y-15184961D02*
X11614608Y-15175437D01*
X11614608Y-15175437D02*
X11586036Y-15175437D01*
X11586036Y-15175437D02*
X11566989Y-15165913D01*
X11566989Y-15165913D02*
X11557465Y-15146866D01*
X11557465Y-15146866D02*
X11557465Y-15137342D01*
X11557465Y-15137342D02*
X11566989Y-15118294D01*
X11566989Y-15118294D02*
X11586036Y-15108770D01*
X11586036Y-15108770D02*
X11614608Y-15108770D01*
X11614608Y-15108770D02*
X11633655Y-15118294D01*
X11757465Y-15242104D02*
X11738417Y-15232580D01*
X11738417Y-15232580D02*
X11728894Y-15213532D01*
X11728894Y-15213532D02*
X11728894Y-15042104D01*
X11862227Y-15242104D02*
X11843179Y-15232580D01*
X11843179Y-15232580D02*
X11833655Y-15223056D01*
X11833655Y-15223056D02*
X11824132Y-15204008D01*
X11824132Y-15204008D02*
X11824132Y-15146866D01*
X11824132Y-15146866D02*
X11833655Y-15127818D01*
X11833655Y-15127818D02*
X11843179Y-15118294D01*
X11843179Y-15118294D02*
X11862227Y-15108770D01*
X11862227Y-15108770D02*
X11890798Y-15108770D01*
X11890798Y-15108770D02*
X11909846Y-15118294D01*
X11909846Y-15118294D02*
X11919370Y-15127818D01*
X11919370Y-15127818D02*
X11928894Y-15146866D01*
X11928894Y-15146866D02*
X11928894Y-15204008D01*
X11928894Y-15204008D02*
X11919370Y-15223056D01*
X11919370Y-15223056D02*
X11909846Y-15232580D01*
X11909846Y-15232580D02*
X11890798Y-15242104D01*
X11890798Y-15242104D02*
X11862227Y-15242104D01*
X11986036Y-15108770D02*
X12062227Y-15108770D01*
X12014608Y-15042104D02*
X12014608Y-15213532D01*
X12014608Y-15213532D02*
X12024132Y-15232580D01*
X12024132Y-15232580D02*
X12043179Y-15242104D01*
X12043179Y-15242104D02*
X12062227Y-15242104D01*
X12119370Y-15232580D02*
X12138417Y-15242104D01*
X12138417Y-15242104D02*
X12176513Y-15242104D01*
X12176513Y-15242104D02*
X12195560Y-15232580D01*
X12195560Y-15232580D02*
X12205084Y-15213532D01*
X12205084Y-15213532D02*
X12205084Y-15204008D01*
X12205084Y-15204008D02*
X12195560Y-15184961D01*
X12195560Y-15184961D02*
X12176513Y-15175437D01*
X12176513Y-15175437D02*
X12147941Y-15175437D01*
X12147941Y-15175437D02*
X12128894Y-15165913D01*
X12128894Y-15165913D02*
X12119370Y-15146866D01*
X12119370Y-15146866D02*
X12119370Y-15137342D01*
X12119370Y-15137342D02*
X12128894Y-15118294D01*
X12128894Y-15118294D02*
X12147941Y-15108770D01*
X12147941Y-15108770D02*
X12176513Y-15108770D01*
X12176513Y-15108770D02*
X12195560Y-15118294D01*
X12271751Y-15318294D02*
X12281275Y-15308770D01*
X12281275Y-15308770D02*
X12300322Y-15280199D01*
X12300322Y-15280199D02*
X12309846Y-15261151D01*
X12309846Y-15261151D02*
X12319370Y-15232580D01*
X12319370Y-15232580D02*
X12328894Y-15184961D01*
X12328894Y-15184961D02*
X12328894Y-15146866D01*
X12328894Y-15146866D02*
X12319370Y-15099247D01*
X12319370Y-15099247D02*
X12309846Y-15070675D01*
X12309846Y-15070675D02*
X12300322Y-15051628D01*
X12300322Y-15051628D02*
X12281275Y-15023056D01*
X12281275Y-15023056D02*
X12271751Y-15013532D01*
D10*
X5865924Y-15442904D02*
X5865924Y-15386335D01*
X5809355Y-15386335D01*
X5809355Y-15442904D01*
X5865924Y-15442904D01*
D11*
X6176512Y-15306104D02*
X6195560Y-15306104D01*
X6195560Y-15306104D02*
X6214607Y-15315628D01*
X6214607Y-15315628D02*
X6224131Y-15325151D01*
X6224131Y-15325151D02*
X6233655Y-15344199D01*
X6233655Y-15344199D02*
X6243179Y-15382294D01*
X6243179Y-15382294D02*
X6243179Y-15429913D01*
X6243179Y-15429913D02*
X6233655Y-15468008D01*
X6233655Y-15468008D02*
X6224131Y-15487056D01*
X6224131Y-15487056D02*
X6214607Y-15496580D01*
X6214607Y-15496580D02*
X6195560Y-15506104D01*
X6195560Y-15506104D02*
X6176512Y-15506104D01*
X6176512Y-15506104D02*
X6157464Y-15496580D01*
X6157464Y-15496580D02*
X6147941Y-15487056D01*
X6147941Y-15487056D02*
X6138417Y-15468008D01*
X6138417Y-15468008D02*
X6128893Y-15429913D01*
X6128893Y-15429913D02*
X6128893Y-15382294D01*
X6128893Y-15382294D02*
X6138417Y-15344199D01*
X6138417Y-15344199D02*
X6147941Y-15325151D01*
X6147941Y-15325151D02*
X6157464Y-15315628D01*
X6157464Y-15315628D02*
X6176512Y-15306104D01*
X6328893Y-15487056D02*
X6338417Y-15496580D01*
X6338417Y-15496580D02*
X6328893Y-15506104D01*
X6328893Y-15506104D02*
X6319369Y-15496580D01*
X6319369Y-15496580D02*
X6328893Y-15487056D01*
X6328893Y-15487056D02*
X6328893Y-15506104D01*
X6452702Y-15391818D02*
X6433655Y-15382294D01*
X6433655Y-15382294D02*
X6424131Y-15372770D01*
X6424131Y-15372770D02*
X6414607Y-15353723D01*
X6414607Y-15353723D02*
X6414607Y-15344199D01*
X6414607Y-15344199D02*
X6424131Y-15325151D01*
X6424131Y-15325151D02*
X6433655Y-15315628D01*
X6433655Y-15315628D02*
X6452702Y-15306104D01*
X6452702Y-15306104D02*
X6490798Y-15306104D01*
X6490798Y-15306104D02*
X6509845Y-15315628D01*
X6509845Y-15315628D02*
X6519369Y-15325151D01*
X6519369Y-15325151D02*
X6528893Y-15344199D01*
X6528893Y-15344199D02*
X6528893Y-15353723D01*
X6528893Y-15353723D02*
X6519369Y-15372770D01*
X6519369Y-15372770D02*
X6509845Y-15382294D01*
X6509845Y-15382294D02*
X6490798Y-15391818D01*
X6490798Y-15391818D02*
X6452702Y-15391818D01*
X6452702Y-15391818D02*
X6433655Y-15401342D01*
X6433655Y-15401342D02*
X6424131Y-15410866D01*
X6424131Y-15410866D02*
X6414607Y-15429913D01*
X6414607Y-15429913D02*
X6414607Y-15468008D01*
X6414607Y-15468008D02*
X6424131Y-15487056D01*
X6424131Y-15487056D02*
X6433655Y-15496580D01*
X6433655Y-15496580D02*
X6452702Y-15506104D01*
X6452702Y-15506104D02*
X6490798Y-15506104D01*
X6490798Y-15506104D02*
X6509845Y-15496580D01*
X6509845Y-15496580D02*
X6519369Y-15487056D01*
X6519369Y-15487056D02*
X6528893Y-15468008D01*
X6528893Y-15468008D02*
X6528893Y-15429913D01*
X6528893Y-15429913D02*
X6519369Y-15410866D01*
X6519369Y-15410866D02*
X6509845Y-15401342D01*
X6509845Y-15401342D02*
X6490798Y-15391818D01*
X6652702Y-15306104D02*
X6671750Y-15306104D01*
X6671750Y-15306104D02*
X6690798Y-15315628D01*
X6690798Y-15315628D02*
X6700322Y-15325151D01*
X6700322Y-15325151D02*
X6709845Y-15344199D01*
X6709845Y-15344199D02*
X6719369Y-15382294D01*
X6719369Y-15382294D02*
X6719369Y-15429913D01*
X6719369Y-15429913D02*
X6709845Y-15468008D01*
X6709845Y-15468008D02*
X6700322Y-15487056D01*
X6700322Y-15487056D02*
X6690798Y-15496580D01*
X6690798Y-15496580D02*
X6671750Y-15506104D01*
X6671750Y-15506104D02*
X6652702Y-15506104D01*
X6652702Y-15506104D02*
X6633655Y-15496580D01*
X6633655Y-15496580D02*
X6624131Y-15487056D01*
X6624131Y-15487056D02*
X6614607Y-15468008D01*
X6614607Y-15468008D02*
X6605083Y-15429913D01*
X6605083Y-15429913D02*
X6605083Y-15382294D01*
X6605083Y-15382294D02*
X6614607Y-15344199D01*
X6614607Y-15344199D02*
X6624131Y-15325151D01*
X6624131Y-15325151D02*
X6633655Y-15315628D01*
X6633655Y-15315628D02*
X6652702Y-15306104D01*
X6843179Y-15306104D02*
X6862226Y-15306104D01*
X6862226Y-15306104D02*
X6881274Y-15315628D01*
X6881274Y-15315628D02*
X6890798Y-15325151D01*
X6890798Y-15325151D02*
X6900322Y-15344199D01*
X6900322Y-15344199D02*
X6909845Y-15382294D01*
X6909845Y-15382294D02*
X6909845Y-15429913D01*
X6909845Y-15429913D02*
X6900322Y-15468008D01*
X6900322Y-15468008D02*
X6890798Y-15487056D01*
X6890798Y-15487056D02*
X6881274Y-15496580D01*
X6881274Y-15496580D02*
X6862226Y-15506104D01*
X6862226Y-15506104D02*
X6843179Y-15506104D01*
X6843179Y-15506104D02*
X6824131Y-15496580D01*
X6824131Y-15496580D02*
X6814607Y-15487056D01*
X6814607Y-15487056D02*
X6805083Y-15468008D01*
X6805083Y-15468008D02*
X6795560Y-15429913D01*
X6795560Y-15429913D02*
X6795560Y-15382294D01*
X6795560Y-15382294D02*
X6805083Y-15344199D01*
X6805083Y-15344199D02*
X6814607Y-15325151D01*
X6814607Y-15325151D02*
X6824131Y-15315628D01*
X6824131Y-15315628D02*
X6843179Y-15306104D01*
X6995560Y-15506104D02*
X6995560Y-15372770D01*
X6995560Y-15391818D02*
X7005083Y-15382294D01*
X7005083Y-15382294D02*
X7024131Y-15372770D01*
X7024131Y-15372770D02*
X7052703Y-15372770D01*
X7052703Y-15372770D02*
X7071750Y-15382294D01*
X7071750Y-15382294D02*
X7081274Y-15401342D01*
X7081274Y-15401342D02*
X7081274Y-15506104D01*
X7081274Y-15401342D02*
X7090798Y-15382294D01*
X7090798Y-15382294D02*
X7109845Y-15372770D01*
X7109845Y-15372770D02*
X7138417Y-15372770D01*
X7138417Y-15372770D02*
X7157464Y-15382294D01*
X7157464Y-15382294D02*
X7166988Y-15401342D01*
X7166988Y-15401342D02*
X7166988Y-15506104D01*
X7262226Y-15506104D02*
X7262226Y-15372770D01*
X7262226Y-15391818D02*
X7271750Y-15382294D01*
X7271750Y-15382294D02*
X7290798Y-15372770D01*
X7290798Y-15372770D02*
X7319369Y-15372770D01*
X7319369Y-15372770D02*
X7338417Y-15382294D01*
X7338417Y-15382294D02*
X7347941Y-15401342D01*
X7347941Y-15401342D02*
X7347941Y-15506104D01*
X7347941Y-15401342D02*
X7357464Y-15382294D01*
X7357464Y-15382294D02*
X7376512Y-15372770D01*
X7376512Y-15372770D02*
X7405083Y-15372770D01*
X7405083Y-15372770D02*
X7424131Y-15382294D01*
X7424131Y-15382294D02*
X7433655Y-15401342D01*
X7433655Y-15401342D02*
X7433655Y-15506104D01*
X7824131Y-15296580D02*
X7652703Y-15553723D01*
X8081274Y-15306104D02*
X8100322Y-15306104D01*
X8100322Y-15306104D02*
X8119369Y-15315628D01*
X8119369Y-15315628D02*
X8128893Y-15325151D01*
X8128893Y-15325151D02*
X8138417Y-15344199D01*
X8138417Y-15344199D02*
X8147941Y-15382294D01*
X8147941Y-15382294D02*
X8147941Y-15429913D01*
X8147941Y-15429913D02*
X8138417Y-15468008D01*
X8138417Y-15468008D02*
X8128893Y-15487056D01*
X8128893Y-15487056D02*
X8119369Y-15496580D01*
X8119369Y-15496580D02*
X8100322Y-15506104D01*
X8100322Y-15506104D02*
X8081274Y-15506104D01*
X8081274Y-15506104D02*
X8062226Y-15496580D01*
X8062226Y-15496580D02*
X8052703Y-15487056D01*
X8052703Y-15487056D02*
X8043179Y-15468008D01*
X8043179Y-15468008D02*
X8033655Y-15429913D01*
X8033655Y-15429913D02*
X8033655Y-15382294D01*
X8033655Y-15382294D02*
X8043179Y-15344199D01*
X8043179Y-15344199D02*
X8052703Y-15325151D01*
X8052703Y-15325151D02*
X8062226Y-15315628D01*
X8062226Y-15315628D02*
X8081274Y-15306104D01*
X8233655Y-15487056D02*
X8243179Y-15496580D01*
X8243179Y-15496580D02*
X8233655Y-15506104D01*
X8233655Y-15506104D02*
X8224131Y-15496580D01*
X8224131Y-15496580D02*
X8233655Y-15487056D01*
X8233655Y-15487056D02*
X8233655Y-15506104D01*
X8366988Y-15306104D02*
X8386036Y-15306104D01*
X8386036Y-15306104D02*
X8405084Y-15315628D01*
X8405084Y-15315628D02*
X8414608Y-15325151D01*
X8414608Y-15325151D02*
X8424131Y-15344199D01*
X8424131Y-15344199D02*
X8433655Y-15382294D01*
X8433655Y-15382294D02*
X8433655Y-15429913D01*
X8433655Y-15429913D02*
X8424131Y-15468008D01*
X8424131Y-15468008D02*
X8414608Y-15487056D01*
X8414608Y-15487056D02*
X8405084Y-15496580D01*
X8405084Y-15496580D02*
X8386036Y-15506104D01*
X8386036Y-15506104D02*
X8366988Y-15506104D01*
X8366988Y-15506104D02*
X8347941Y-15496580D01*
X8347941Y-15496580D02*
X8338417Y-15487056D01*
X8338417Y-15487056D02*
X8328893Y-15468008D01*
X8328893Y-15468008D02*
X8319369Y-15429913D01*
X8319369Y-15429913D02*
X8319369Y-15382294D01*
X8319369Y-15382294D02*
X8328893Y-15344199D01*
X8328893Y-15344199D02*
X8338417Y-15325151D01*
X8338417Y-15325151D02*
X8347941Y-15315628D01*
X8347941Y-15315628D02*
X8366988Y-15306104D01*
X8500322Y-15306104D02*
X8624131Y-15306104D01*
X8624131Y-15306104D02*
X8557465Y-15382294D01*
X8557465Y-15382294D02*
X8586036Y-15382294D01*
X8586036Y-15382294D02*
X8605084Y-15391818D01*
X8605084Y-15391818D02*
X8614608Y-15401342D01*
X8614608Y-15401342D02*
X8624131Y-15420389D01*
X8624131Y-15420389D02*
X8624131Y-15468008D01*
X8624131Y-15468008D02*
X8614608Y-15487056D01*
X8614608Y-15487056D02*
X8605084Y-15496580D01*
X8605084Y-15496580D02*
X8586036Y-15506104D01*
X8586036Y-15506104D02*
X8528893Y-15506104D01*
X8528893Y-15506104D02*
X8509846Y-15496580D01*
X8509846Y-15496580D02*
X8500322Y-15487056D01*
X8814608Y-15506104D02*
X8700322Y-15506104D01*
X8757465Y-15506104D02*
X8757465Y-15306104D01*
X8757465Y-15306104D02*
X8738417Y-15334675D01*
X8738417Y-15334675D02*
X8719369Y-15353723D01*
X8719369Y-15353723D02*
X8700322Y-15363247D01*
X8995560Y-15306104D02*
X8900322Y-15306104D01*
X8900322Y-15306104D02*
X8890798Y-15401342D01*
X8890798Y-15401342D02*
X8900322Y-15391818D01*
X8900322Y-15391818D02*
X8919369Y-15382294D01*
X8919369Y-15382294D02*
X8966989Y-15382294D01*
X8966989Y-15382294D02*
X8986036Y-15391818D01*
X8986036Y-15391818D02*
X8995560Y-15401342D01*
X8995560Y-15401342D02*
X9005084Y-15420389D01*
X9005084Y-15420389D02*
X9005084Y-15468008D01*
X9005084Y-15468008D02*
X8995560Y-15487056D01*
X8995560Y-15487056D02*
X8986036Y-15496580D01*
X8986036Y-15496580D02*
X8966989Y-15506104D01*
X8966989Y-15506104D02*
X8919369Y-15506104D01*
X8919369Y-15506104D02*
X8900322Y-15496580D01*
X8900322Y-15496580D02*
X8890798Y-15487056D01*
X9081274Y-15306104D02*
X9081274Y-15344199D01*
X9157465Y-15306104D02*
X9157465Y-15344199D01*
X9452703Y-15582294D02*
X9443179Y-15572770D01*
X9443179Y-15572770D02*
X9424131Y-15544199D01*
X9424131Y-15544199D02*
X9414608Y-15525151D01*
X9414608Y-15525151D02*
X9405084Y-15496580D01*
X9405084Y-15496580D02*
X9395560Y-15448961D01*
X9395560Y-15448961D02*
X9395560Y-15410866D01*
X9395560Y-15410866D02*
X9405084Y-15363247D01*
X9405084Y-15363247D02*
X9414608Y-15334675D01*
X9414608Y-15334675D02*
X9424131Y-15315628D01*
X9424131Y-15315628D02*
X9443179Y-15287056D01*
X9443179Y-15287056D02*
X9452703Y-15277532D01*
X9519370Y-15325151D02*
X9528893Y-15315628D01*
X9528893Y-15315628D02*
X9547941Y-15306104D01*
X9547941Y-15306104D02*
X9595560Y-15306104D01*
X9595560Y-15306104D02*
X9614608Y-15315628D01*
X9614608Y-15315628D02*
X9624131Y-15325151D01*
X9624131Y-15325151D02*
X9633655Y-15344199D01*
X9633655Y-15344199D02*
X9633655Y-15363247D01*
X9633655Y-15363247D02*
X9624131Y-15391818D01*
X9624131Y-15391818D02*
X9509846Y-15506104D01*
X9509846Y-15506104D02*
X9633655Y-15506104D01*
X9709846Y-15325151D02*
X9719370Y-15315628D01*
X9719370Y-15315628D02*
X9738417Y-15306104D01*
X9738417Y-15306104D02*
X9786036Y-15306104D01*
X9786036Y-15306104D02*
X9805084Y-15315628D01*
X9805084Y-15315628D02*
X9814608Y-15325151D01*
X9814608Y-15325151D02*
X9824131Y-15344199D01*
X9824131Y-15344199D02*
X9824131Y-15363247D01*
X9824131Y-15363247D02*
X9814608Y-15391818D01*
X9814608Y-15391818D02*
X9700322Y-15506104D01*
X9700322Y-15506104D02*
X9824131Y-15506104D01*
X9995560Y-15372770D02*
X9995560Y-15506104D01*
X9947941Y-15296580D02*
X9900322Y-15439437D01*
X9900322Y-15439437D02*
X10024131Y-15439437D01*
X10252703Y-15506104D02*
X10252703Y-15306104D01*
X10338417Y-15506104D02*
X10338417Y-15401342D01*
X10338417Y-15401342D02*
X10328893Y-15382294D01*
X10328893Y-15382294D02*
X10309846Y-15372770D01*
X10309846Y-15372770D02*
X10281274Y-15372770D01*
X10281274Y-15372770D02*
X10262227Y-15382294D01*
X10262227Y-15382294D02*
X10252703Y-15391818D01*
X10462227Y-15506104D02*
X10443179Y-15496580D01*
X10443179Y-15496580D02*
X10433655Y-15487056D01*
X10433655Y-15487056D02*
X10424132Y-15468008D01*
X10424132Y-15468008D02*
X10424132Y-15410866D01*
X10424132Y-15410866D02*
X10433655Y-15391818D01*
X10433655Y-15391818D02*
X10443179Y-15382294D01*
X10443179Y-15382294D02*
X10462227Y-15372770D01*
X10462227Y-15372770D02*
X10490798Y-15372770D01*
X10490798Y-15372770D02*
X10509846Y-15382294D01*
X10509846Y-15382294D02*
X10519370Y-15391818D01*
X10519370Y-15391818D02*
X10528893Y-15410866D01*
X10528893Y-15410866D02*
X10528893Y-15468008D01*
X10528893Y-15468008D02*
X10519370Y-15487056D01*
X10519370Y-15487056D02*
X10509846Y-15496580D01*
X10509846Y-15496580D02*
X10490798Y-15506104D01*
X10490798Y-15506104D02*
X10462227Y-15506104D01*
X10643179Y-15506104D02*
X10624132Y-15496580D01*
X10624132Y-15496580D02*
X10614608Y-15477532D01*
X10614608Y-15477532D02*
X10614608Y-15306104D01*
X10795560Y-15496580D02*
X10776513Y-15506104D01*
X10776513Y-15506104D02*
X10738417Y-15506104D01*
X10738417Y-15506104D02*
X10719370Y-15496580D01*
X10719370Y-15496580D02*
X10709846Y-15477532D01*
X10709846Y-15477532D02*
X10709846Y-15401342D01*
X10709846Y-15401342D02*
X10719370Y-15382294D01*
X10719370Y-15382294D02*
X10738417Y-15372770D01*
X10738417Y-15372770D02*
X10776513Y-15372770D01*
X10776513Y-15372770D02*
X10795560Y-15382294D01*
X10795560Y-15382294D02*
X10805084Y-15401342D01*
X10805084Y-15401342D02*
X10805084Y-15420389D01*
X10805084Y-15420389D02*
X10709846Y-15439437D01*
X10881274Y-15496580D02*
X10900322Y-15506104D01*
X10900322Y-15506104D02*
X10938417Y-15506104D01*
X10938417Y-15506104D02*
X10957465Y-15496580D01*
X10957465Y-15496580D02*
X10966989Y-15477532D01*
X10966989Y-15477532D02*
X10966989Y-15468008D01*
X10966989Y-15468008D02*
X10957465Y-15448961D01*
X10957465Y-15448961D02*
X10938417Y-15439437D01*
X10938417Y-15439437D02*
X10909846Y-15439437D01*
X10909846Y-15439437D02*
X10890798Y-15429913D01*
X10890798Y-15429913D02*
X10881274Y-15410866D01*
X10881274Y-15410866D02*
X10881274Y-15401342D01*
X10881274Y-15401342D02*
X10890798Y-15382294D01*
X10890798Y-15382294D02*
X10909846Y-15372770D01*
X10909846Y-15372770D02*
X10938417Y-15372770D01*
X10938417Y-15372770D02*
X10957465Y-15382294D01*
X11033655Y-15582294D02*
X11043179Y-15572770D01*
X11043179Y-15572770D02*
X11062227Y-15544199D01*
X11062227Y-15544199D02*
X11071751Y-15525151D01*
X11071751Y-15525151D02*
X11081274Y-15496580D01*
X11081274Y-15496580D02*
X11090798Y-15448961D01*
X11090798Y-15448961D02*
X11090798Y-15410866D01*
X11090798Y-15410866D02*
X11081274Y-15363247D01*
X11081274Y-15363247D02*
X11071751Y-15334675D01*
X11071751Y-15334675D02*
X11062227Y-15315628D01*
X11062227Y-15315628D02*
X11043179Y-15287056D01*
X11043179Y-15287056D02*
X11033655Y-15277532D01*
D10*
X5833140Y-15723120D02*
X5877640Y-15678620D01*
X5833140Y-15634120D01*
X5788640Y-15678620D01*
X5833140Y-15723120D01*
D11*
X6176512Y-15570104D02*
X6195560Y-15570104D01*
X6195560Y-15570104D02*
X6214607Y-15579628D01*
X6214607Y-15579628D02*
X6224131Y-15589151D01*
X6224131Y-15589151D02*
X6233655Y-15608199D01*
X6233655Y-15608199D02*
X6243179Y-15646294D01*
X6243179Y-15646294D02*
X6243179Y-15693913D01*
X6243179Y-15693913D02*
X6233655Y-15732008D01*
X6233655Y-15732008D02*
X6224131Y-15751056D01*
X6224131Y-15751056D02*
X6214607Y-15760580D01*
X6214607Y-15760580D02*
X6195560Y-15770104D01*
X6195560Y-15770104D02*
X6176512Y-15770104D01*
X6176512Y-15770104D02*
X6157464Y-15760580D01*
X6157464Y-15760580D02*
X6147941Y-15751056D01*
X6147941Y-15751056D02*
X6138417Y-15732008D01*
X6138417Y-15732008D02*
X6128893Y-15693913D01*
X6128893Y-15693913D02*
X6128893Y-15646294D01*
X6128893Y-15646294D02*
X6138417Y-15608199D01*
X6138417Y-15608199D02*
X6147941Y-15589151D01*
X6147941Y-15589151D02*
X6157464Y-15579628D01*
X6157464Y-15579628D02*
X6176512Y-15570104D01*
X6328893Y-15751056D02*
X6338417Y-15760580D01*
X6338417Y-15760580D02*
X6328893Y-15770104D01*
X6328893Y-15770104D02*
X6319369Y-15760580D01*
X6319369Y-15760580D02*
X6328893Y-15751056D01*
X6328893Y-15751056D02*
X6328893Y-15770104D01*
X6452702Y-15655818D02*
X6433655Y-15646294D01*
X6433655Y-15646294D02*
X6424131Y-15636770D01*
X6424131Y-15636770D02*
X6414607Y-15617723D01*
X6414607Y-15617723D02*
X6414607Y-15608199D01*
X6414607Y-15608199D02*
X6424131Y-15589151D01*
X6424131Y-15589151D02*
X6433655Y-15579628D01*
X6433655Y-15579628D02*
X6452702Y-15570104D01*
X6452702Y-15570104D02*
X6490798Y-15570104D01*
X6490798Y-15570104D02*
X6509845Y-15579628D01*
X6509845Y-15579628D02*
X6519369Y-15589151D01*
X6519369Y-15589151D02*
X6528893Y-15608199D01*
X6528893Y-15608199D02*
X6528893Y-15617723D01*
X6528893Y-15617723D02*
X6519369Y-15636770D01*
X6519369Y-15636770D02*
X6509845Y-15646294D01*
X6509845Y-15646294D02*
X6490798Y-15655818D01*
X6490798Y-15655818D02*
X6452702Y-15655818D01*
X6452702Y-15655818D02*
X6433655Y-15665342D01*
X6433655Y-15665342D02*
X6424131Y-15674866D01*
X6424131Y-15674866D02*
X6414607Y-15693913D01*
X6414607Y-15693913D02*
X6414607Y-15732008D01*
X6414607Y-15732008D02*
X6424131Y-15751056D01*
X6424131Y-15751056D02*
X6433655Y-15760580D01*
X6433655Y-15760580D02*
X6452702Y-15770104D01*
X6452702Y-15770104D02*
X6490798Y-15770104D01*
X6490798Y-15770104D02*
X6509845Y-15760580D01*
X6509845Y-15760580D02*
X6519369Y-15751056D01*
X6519369Y-15751056D02*
X6528893Y-15732008D01*
X6528893Y-15732008D02*
X6528893Y-15693913D01*
X6528893Y-15693913D02*
X6519369Y-15674866D01*
X6519369Y-15674866D02*
X6509845Y-15665342D01*
X6509845Y-15665342D02*
X6490798Y-15655818D01*
X6624131Y-15770104D02*
X6662226Y-15770104D01*
X6662226Y-15770104D02*
X6681274Y-15760580D01*
X6681274Y-15760580D02*
X6690798Y-15751056D01*
X6690798Y-15751056D02*
X6709845Y-15722485D01*
X6709845Y-15722485D02*
X6719369Y-15684389D01*
X6719369Y-15684389D02*
X6719369Y-15608199D01*
X6719369Y-15608199D02*
X6709845Y-15589151D01*
X6709845Y-15589151D02*
X6700322Y-15579628D01*
X6700322Y-15579628D02*
X6681274Y-15570104D01*
X6681274Y-15570104D02*
X6643179Y-15570104D01*
X6643179Y-15570104D02*
X6624131Y-15579628D01*
X6624131Y-15579628D02*
X6614607Y-15589151D01*
X6614607Y-15589151D02*
X6605083Y-15608199D01*
X6605083Y-15608199D02*
X6605083Y-15655818D01*
X6605083Y-15655818D02*
X6614607Y-15674866D01*
X6614607Y-15674866D02*
X6624131Y-15684389D01*
X6624131Y-15684389D02*
X6643179Y-15693913D01*
X6643179Y-15693913D02*
X6681274Y-15693913D01*
X6681274Y-15693913D02*
X6700322Y-15684389D01*
X6700322Y-15684389D02*
X6709845Y-15674866D01*
X6709845Y-15674866D02*
X6719369Y-15655818D01*
X6843179Y-15570104D02*
X6862226Y-15570104D01*
X6862226Y-15570104D02*
X6881274Y-15579628D01*
X6881274Y-15579628D02*
X6890798Y-15589151D01*
X6890798Y-15589151D02*
X6900322Y-15608199D01*
X6900322Y-15608199D02*
X6909845Y-15646294D01*
X6909845Y-15646294D02*
X6909845Y-15693913D01*
X6909845Y-15693913D02*
X6900322Y-15732008D01*
X6900322Y-15732008D02*
X6890798Y-15751056D01*
X6890798Y-15751056D02*
X6881274Y-15760580D01*
X6881274Y-15760580D02*
X6862226Y-15770104D01*
X6862226Y-15770104D02*
X6843179Y-15770104D01*
X6843179Y-15770104D02*
X6824131Y-15760580D01*
X6824131Y-15760580D02*
X6814607Y-15751056D01*
X6814607Y-15751056D02*
X6805083Y-15732008D01*
X6805083Y-15732008D02*
X6795560Y-15693913D01*
X6795560Y-15693913D02*
X6795560Y-15646294D01*
X6795560Y-15646294D02*
X6805083Y-15608199D01*
X6805083Y-15608199D02*
X6814607Y-15589151D01*
X6814607Y-15589151D02*
X6824131Y-15579628D01*
X6824131Y-15579628D02*
X6843179Y-15570104D01*
X6995560Y-15770104D02*
X6995560Y-15636770D01*
X6995560Y-15655818D02*
X7005083Y-15646294D01*
X7005083Y-15646294D02*
X7024131Y-15636770D01*
X7024131Y-15636770D02*
X7052703Y-15636770D01*
X7052703Y-15636770D02*
X7071750Y-15646294D01*
X7071750Y-15646294D02*
X7081274Y-15665342D01*
X7081274Y-15665342D02*
X7081274Y-15770104D01*
X7081274Y-15665342D02*
X7090798Y-15646294D01*
X7090798Y-15646294D02*
X7109845Y-15636770D01*
X7109845Y-15636770D02*
X7138417Y-15636770D01*
X7138417Y-15636770D02*
X7157464Y-15646294D01*
X7157464Y-15646294D02*
X7166988Y-15665342D01*
X7166988Y-15665342D02*
X7166988Y-15770104D01*
X7262226Y-15770104D02*
X7262226Y-15636770D01*
X7262226Y-15655818D02*
X7271750Y-15646294D01*
X7271750Y-15646294D02*
X7290798Y-15636770D01*
X7290798Y-15636770D02*
X7319369Y-15636770D01*
X7319369Y-15636770D02*
X7338417Y-15646294D01*
X7338417Y-15646294D02*
X7347941Y-15665342D01*
X7347941Y-15665342D02*
X7347941Y-15770104D01*
X7347941Y-15665342D02*
X7357464Y-15646294D01*
X7357464Y-15646294D02*
X7376512Y-15636770D01*
X7376512Y-15636770D02*
X7405083Y-15636770D01*
X7405083Y-15636770D02*
X7424131Y-15646294D01*
X7424131Y-15646294D02*
X7433655Y-15665342D01*
X7433655Y-15665342D02*
X7433655Y-15770104D01*
X7824131Y-15560580D02*
X7652703Y-15817723D01*
X8081274Y-15570104D02*
X8100322Y-15570104D01*
X8100322Y-15570104D02*
X8119369Y-15579628D01*
X8119369Y-15579628D02*
X8128893Y-15589151D01*
X8128893Y-15589151D02*
X8138417Y-15608199D01*
X8138417Y-15608199D02*
X8147941Y-15646294D01*
X8147941Y-15646294D02*
X8147941Y-15693913D01*
X8147941Y-15693913D02*
X8138417Y-15732008D01*
X8138417Y-15732008D02*
X8128893Y-15751056D01*
X8128893Y-15751056D02*
X8119369Y-15760580D01*
X8119369Y-15760580D02*
X8100322Y-15770104D01*
X8100322Y-15770104D02*
X8081274Y-15770104D01*
X8081274Y-15770104D02*
X8062226Y-15760580D01*
X8062226Y-15760580D02*
X8052703Y-15751056D01*
X8052703Y-15751056D02*
X8043179Y-15732008D01*
X8043179Y-15732008D02*
X8033655Y-15693913D01*
X8033655Y-15693913D02*
X8033655Y-15646294D01*
X8033655Y-15646294D02*
X8043179Y-15608199D01*
X8043179Y-15608199D02*
X8052703Y-15589151D01*
X8052703Y-15589151D02*
X8062226Y-15579628D01*
X8062226Y-15579628D02*
X8081274Y-15570104D01*
X8233655Y-15751056D02*
X8243179Y-15760580D01*
X8243179Y-15760580D02*
X8233655Y-15770104D01*
X8233655Y-15770104D02*
X8224131Y-15760580D01*
X8224131Y-15760580D02*
X8233655Y-15751056D01*
X8233655Y-15751056D02*
X8233655Y-15770104D01*
X8366988Y-15570104D02*
X8386036Y-15570104D01*
X8386036Y-15570104D02*
X8405084Y-15579628D01*
X8405084Y-15579628D02*
X8414608Y-15589151D01*
X8414608Y-15589151D02*
X8424131Y-15608199D01*
X8424131Y-15608199D02*
X8433655Y-15646294D01*
X8433655Y-15646294D02*
X8433655Y-15693913D01*
X8433655Y-15693913D02*
X8424131Y-15732008D01*
X8424131Y-15732008D02*
X8414608Y-15751056D01*
X8414608Y-15751056D02*
X8405084Y-15760580D01*
X8405084Y-15760580D02*
X8386036Y-15770104D01*
X8386036Y-15770104D02*
X8366988Y-15770104D01*
X8366988Y-15770104D02*
X8347941Y-15760580D01*
X8347941Y-15760580D02*
X8338417Y-15751056D01*
X8338417Y-15751056D02*
X8328893Y-15732008D01*
X8328893Y-15732008D02*
X8319369Y-15693913D01*
X8319369Y-15693913D02*
X8319369Y-15646294D01*
X8319369Y-15646294D02*
X8328893Y-15608199D01*
X8328893Y-15608199D02*
X8338417Y-15589151D01*
X8338417Y-15589151D02*
X8347941Y-15579628D01*
X8347941Y-15579628D02*
X8366988Y-15570104D01*
X8500322Y-15570104D02*
X8624131Y-15570104D01*
X8624131Y-15570104D02*
X8557465Y-15646294D01*
X8557465Y-15646294D02*
X8586036Y-15646294D01*
X8586036Y-15646294D02*
X8605084Y-15655818D01*
X8605084Y-15655818D02*
X8614608Y-15665342D01*
X8614608Y-15665342D02*
X8624131Y-15684389D01*
X8624131Y-15684389D02*
X8624131Y-15732008D01*
X8624131Y-15732008D02*
X8614608Y-15751056D01*
X8614608Y-15751056D02*
X8605084Y-15760580D01*
X8605084Y-15760580D02*
X8586036Y-15770104D01*
X8586036Y-15770104D02*
X8528893Y-15770104D01*
X8528893Y-15770104D02*
X8509846Y-15760580D01*
X8509846Y-15760580D02*
X8500322Y-15751056D01*
X8805084Y-15570104D02*
X8709846Y-15570104D01*
X8709846Y-15570104D02*
X8700322Y-15665342D01*
X8700322Y-15665342D02*
X8709846Y-15655818D01*
X8709846Y-15655818D02*
X8728893Y-15646294D01*
X8728893Y-15646294D02*
X8776512Y-15646294D01*
X8776512Y-15646294D02*
X8795560Y-15655818D01*
X8795560Y-15655818D02*
X8805084Y-15665342D01*
X8805084Y-15665342D02*
X8814608Y-15684389D01*
X8814608Y-15684389D02*
X8814608Y-15732008D01*
X8814608Y-15732008D02*
X8805084Y-15751056D01*
X8805084Y-15751056D02*
X8795560Y-15760580D01*
X8795560Y-15760580D02*
X8776512Y-15770104D01*
X8776512Y-15770104D02*
X8728893Y-15770104D01*
X8728893Y-15770104D02*
X8709846Y-15760580D01*
X8709846Y-15760580D02*
X8700322Y-15751056D01*
X8938417Y-15570104D02*
X8957465Y-15570104D01*
X8957465Y-15570104D02*
X8976512Y-15579628D01*
X8976512Y-15579628D02*
X8986036Y-15589151D01*
X8986036Y-15589151D02*
X8995560Y-15608199D01*
X8995560Y-15608199D02*
X9005084Y-15646294D01*
X9005084Y-15646294D02*
X9005084Y-15693913D01*
X9005084Y-15693913D02*
X8995560Y-15732008D01*
X8995560Y-15732008D02*
X8986036Y-15751056D01*
X8986036Y-15751056D02*
X8976512Y-15760580D01*
X8976512Y-15760580D02*
X8957465Y-15770104D01*
X8957465Y-15770104D02*
X8938417Y-15770104D01*
X8938417Y-15770104D02*
X8919369Y-15760580D01*
X8919369Y-15760580D02*
X8909846Y-15751056D01*
X8909846Y-15751056D02*
X8900322Y-15732008D01*
X8900322Y-15732008D02*
X8890798Y-15693913D01*
X8890798Y-15693913D02*
X8890798Y-15646294D01*
X8890798Y-15646294D02*
X8900322Y-15608199D01*
X8900322Y-15608199D02*
X8909846Y-15589151D01*
X8909846Y-15589151D02*
X8919369Y-15579628D01*
X8919369Y-15579628D02*
X8938417Y-15570104D01*
X9081274Y-15570104D02*
X9081274Y-15608199D01*
X9157465Y-15570104D02*
X9157465Y-15608199D01*
X9452703Y-15846294D02*
X9443179Y-15836770D01*
X9443179Y-15836770D02*
X9424131Y-15808199D01*
X9424131Y-15808199D02*
X9414608Y-15789151D01*
X9414608Y-15789151D02*
X9405084Y-15760580D01*
X9405084Y-15760580D02*
X9395560Y-15712961D01*
X9395560Y-15712961D02*
X9395560Y-15674866D01*
X9395560Y-15674866D02*
X9405084Y-15627247D01*
X9405084Y-15627247D02*
X9414608Y-15598675D01*
X9414608Y-15598675D02*
X9424131Y-15579628D01*
X9424131Y-15579628D02*
X9443179Y-15551056D01*
X9443179Y-15551056D02*
X9452703Y-15541532D01*
X9614608Y-15636770D02*
X9614608Y-15770104D01*
X9566989Y-15560580D02*
X9519370Y-15703437D01*
X9519370Y-15703437D02*
X9643179Y-15703437D01*
X9871751Y-15770104D02*
X9871751Y-15570104D01*
X9957465Y-15770104D02*
X9957465Y-15665342D01*
X9957465Y-15665342D02*
X9947941Y-15646294D01*
X9947941Y-15646294D02*
X9928893Y-15636770D01*
X9928893Y-15636770D02*
X9900322Y-15636770D01*
X9900322Y-15636770D02*
X9881274Y-15646294D01*
X9881274Y-15646294D02*
X9871751Y-15655818D01*
X10081274Y-15770104D02*
X10062227Y-15760580D01*
X10062227Y-15760580D02*
X10052703Y-15751056D01*
X10052703Y-15751056D02*
X10043179Y-15732008D01*
X10043179Y-15732008D02*
X10043179Y-15674866D01*
X10043179Y-15674866D02*
X10052703Y-15655818D01*
X10052703Y-15655818D02*
X10062227Y-15646294D01*
X10062227Y-15646294D02*
X10081274Y-15636770D01*
X10081274Y-15636770D02*
X10109846Y-15636770D01*
X10109846Y-15636770D02*
X10128893Y-15646294D01*
X10128893Y-15646294D02*
X10138417Y-15655818D01*
X10138417Y-15655818D02*
X10147941Y-15674866D01*
X10147941Y-15674866D02*
X10147941Y-15732008D01*
X10147941Y-15732008D02*
X10138417Y-15751056D01*
X10138417Y-15751056D02*
X10128893Y-15760580D01*
X10128893Y-15760580D02*
X10109846Y-15770104D01*
X10109846Y-15770104D02*
X10081274Y-15770104D01*
X10262227Y-15770104D02*
X10243179Y-15760580D01*
X10243179Y-15760580D02*
X10233655Y-15741532D01*
X10233655Y-15741532D02*
X10233655Y-15570104D01*
X10414608Y-15760580D02*
X10395560Y-15770104D01*
X10395560Y-15770104D02*
X10357465Y-15770104D01*
X10357465Y-15770104D02*
X10338417Y-15760580D01*
X10338417Y-15760580D02*
X10328893Y-15741532D01*
X10328893Y-15741532D02*
X10328893Y-15665342D01*
X10328893Y-15665342D02*
X10338417Y-15646294D01*
X10338417Y-15646294D02*
X10357465Y-15636770D01*
X10357465Y-15636770D02*
X10395560Y-15636770D01*
X10395560Y-15636770D02*
X10414608Y-15646294D01*
X10414608Y-15646294D02*
X10424132Y-15665342D01*
X10424132Y-15665342D02*
X10424132Y-15684389D01*
X10424132Y-15684389D02*
X10328893Y-15703437D01*
X10500322Y-15760580D02*
X10519370Y-15770104D01*
X10519370Y-15770104D02*
X10557465Y-15770104D01*
X10557465Y-15770104D02*
X10576513Y-15760580D01*
X10576513Y-15760580D02*
X10586036Y-15741532D01*
X10586036Y-15741532D02*
X10586036Y-15732008D01*
X10586036Y-15732008D02*
X10576513Y-15712961D01*
X10576513Y-15712961D02*
X10557465Y-15703437D01*
X10557465Y-15703437D02*
X10528893Y-15703437D01*
X10528893Y-15703437D02*
X10509846Y-15693913D01*
X10509846Y-15693913D02*
X10500322Y-15674866D01*
X10500322Y-15674866D02*
X10500322Y-15665342D01*
X10500322Y-15665342D02*
X10509846Y-15646294D01*
X10509846Y-15646294D02*
X10528893Y-15636770D01*
X10528893Y-15636770D02*
X10557465Y-15636770D01*
X10557465Y-15636770D02*
X10576513Y-15646294D01*
X10652703Y-15846294D02*
X10662227Y-15836770D01*
X10662227Y-15836770D02*
X10681274Y-15808199D01*
X10681274Y-15808199D02*
X10690798Y-15789151D01*
X10690798Y-15789151D02*
X10700322Y-15760580D01*
X10700322Y-15760580D02*
X10709846Y-15712961D01*
X10709846Y-15712961D02*
X10709846Y-15674866D01*
X10709846Y-15674866D02*
X10700322Y-15627247D01*
X10700322Y-15627247D02*
X10690798Y-15598675D01*
X10690798Y-15598675D02*
X10681274Y-15579628D01*
X10681274Y-15579628D02*
X10662227Y-15551056D01*
X10662227Y-15551056D02*
X10652703Y-15541532D01*
D10*
X5787640Y-15897620D02*
X5877640Y-15987620D01*
X5877640Y-15897620D02*
X5787640Y-15987620D01*
X5877640Y-15942620D02*
G75*
G02*
X5787640Y-15942620I-45000J0D01*
G01*
X5787640Y-15942620D02*
G75*
G02*
X5877640Y-15942620I45000J0D01*
G01*
D11*
X6176512Y-15834104D02*
X6195560Y-15834104D01*
X6195560Y-15834104D02*
X6214607Y-15843628D01*
X6214607Y-15843628D02*
X6224131Y-15853151D01*
X6224131Y-15853151D02*
X6233655Y-15872199D01*
X6233655Y-15872199D02*
X6243179Y-15910294D01*
X6243179Y-15910294D02*
X6243179Y-15957913D01*
X6243179Y-15957913D02*
X6233655Y-15996008D01*
X6233655Y-15996008D02*
X6224131Y-16015056D01*
X6224131Y-16015056D02*
X6214607Y-16024580D01*
X6214607Y-16024580D02*
X6195560Y-16034104D01*
X6195560Y-16034104D02*
X6176512Y-16034104D01*
X6176512Y-16034104D02*
X6157464Y-16024580D01*
X6157464Y-16024580D02*
X6147941Y-16015056D01*
X6147941Y-16015056D02*
X6138417Y-15996008D01*
X6138417Y-15996008D02*
X6128893Y-15957913D01*
X6128893Y-15957913D02*
X6128893Y-15910294D01*
X6128893Y-15910294D02*
X6138417Y-15872199D01*
X6138417Y-15872199D02*
X6147941Y-15853151D01*
X6147941Y-15853151D02*
X6157464Y-15843628D01*
X6157464Y-15843628D02*
X6176512Y-15834104D01*
X6328893Y-16015056D02*
X6338417Y-16024580D01*
X6338417Y-16024580D02*
X6328893Y-16034104D01*
X6328893Y-16034104D02*
X6319369Y-16024580D01*
X6319369Y-16024580D02*
X6328893Y-16015056D01*
X6328893Y-16015056D02*
X6328893Y-16034104D01*
X6433655Y-16034104D02*
X6471750Y-16034104D01*
X6471750Y-16034104D02*
X6490798Y-16024580D01*
X6490798Y-16024580D02*
X6500322Y-16015056D01*
X6500322Y-16015056D02*
X6519369Y-15986485D01*
X6519369Y-15986485D02*
X6528893Y-15948389D01*
X6528893Y-15948389D02*
X6528893Y-15872199D01*
X6528893Y-15872199D02*
X6519369Y-15853151D01*
X6519369Y-15853151D02*
X6509845Y-15843628D01*
X6509845Y-15843628D02*
X6490798Y-15834104D01*
X6490798Y-15834104D02*
X6452702Y-15834104D01*
X6452702Y-15834104D02*
X6433655Y-15843628D01*
X6433655Y-15843628D02*
X6424131Y-15853151D01*
X6424131Y-15853151D02*
X6414607Y-15872199D01*
X6414607Y-15872199D02*
X6414607Y-15919818D01*
X6414607Y-15919818D02*
X6424131Y-15938866D01*
X6424131Y-15938866D02*
X6433655Y-15948389D01*
X6433655Y-15948389D02*
X6452702Y-15957913D01*
X6452702Y-15957913D02*
X6490798Y-15957913D01*
X6490798Y-15957913D02*
X6509845Y-15948389D01*
X6509845Y-15948389D02*
X6519369Y-15938866D01*
X6519369Y-15938866D02*
X6528893Y-15919818D01*
X6652702Y-15834104D02*
X6671750Y-15834104D01*
X6671750Y-15834104D02*
X6690798Y-15843628D01*
X6690798Y-15843628D02*
X6700322Y-15853151D01*
X6700322Y-15853151D02*
X6709845Y-15872199D01*
X6709845Y-15872199D02*
X6719369Y-15910294D01*
X6719369Y-15910294D02*
X6719369Y-15957913D01*
X6719369Y-15957913D02*
X6709845Y-15996008D01*
X6709845Y-15996008D02*
X6700322Y-16015056D01*
X6700322Y-16015056D02*
X6690798Y-16024580D01*
X6690798Y-16024580D02*
X6671750Y-16034104D01*
X6671750Y-16034104D02*
X6652702Y-16034104D01*
X6652702Y-16034104D02*
X6633655Y-16024580D01*
X6633655Y-16024580D02*
X6624131Y-16015056D01*
X6624131Y-16015056D02*
X6614607Y-15996008D01*
X6614607Y-15996008D02*
X6605083Y-15957913D01*
X6605083Y-15957913D02*
X6605083Y-15910294D01*
X6605083Y-15910294D02*
X6614607Y-15872199D01*
X6614607Y-15872199D02*
X6624131Y-15853151D01*
X6624131Y-15853151D02*
X6633655Y-15843628D01*
X6633655Y-15843628D02*
X6652702Y-15834104D01*
X6843179Y-15834104D02*
X6862226Y-15834104D01*
X6862226Y-15834104D02*
X6881274Y-15843628D01*
X6881274Y-15843628D02*
X6890798Y-15853151D01*
X6890798Y-15853151D02*
X6900322Y-15872199D01*
X6900322Y-15872199D02*
X6909845Y-15910294D01*
X6909845Y-15910294D02*
X6909845Y-15957913D01*
X6909845Y-15957913D02*
X6900322Y-15996008D01*
X6900322Y-15996008D02*
X6890798Y-16015056D01*
X6890798Y-16015056D02*
X6881274Y-16024580D01*
X6881274Y-16024580D02*
X6862226Y-16034104D01*
X6862226Y-16034104D02*
X6843179Y-16034104D01*
X6843179Y-16034104D02*
X6824131Y-16024580D01*
X6824131Y-16024580D02*
X6814607Y-16015056D01*
X6814607Y-16015056D02*
X6805083Y-15996008D01*
X6805083Y-15996008D02*
X6795560Y-15957913D01*
X6795560Y-15957913D02*
X6795560Y-15910294D01*
X6795560Y-15910294D02*
X6805083Y-15872199D01*
X6805083Y-15872199D02*
X6814607Y-15853151D01*
X6814607Y-15853151D02*
X6824131Y-15843628D01*
X6824131Y-15843628D02*
X6843179Y-15834104D01*
X6995560Y-16034104D02*
X6995560Y-15900770D01*
X6995560Y-15919818D02*
X7005083Y-15910294D01*
X7005083Y-15910294D02*
X7024131Y-15900770D01*
X7024131Y-15900770D02*
X7052703Y-15900770D01*
X7052703Y-15900770D02*
X7071750Y-15910294D01*
X7071750Y-15910294D02*
X7081274Y-15929342D01*
X7081274Y-15929342D02*
X7081274Y-16034104D01*
X7081274Y-15929342D02*
X7090798Y-15910294D01*
X7090798Y-15910294D02*
X7109845Y-15900770D01*
X7109845Y-15900770D02*
X7138417Y-15900770D01*
X7138417Y-15900770D02*
X7157464Y-15910294D01*
X7157464Y-15910294D02*
X7166988Y-15929342D01*
X7166988Y-15929342D02*
X7166988Y-16034104D01*
X7262226Y-16034104D02*
X7262226Y-15900770D01*
X7262226Y-15919818D02*
X7271750Y-15910294D01*
X7271750Y-15910294D02*
X7290798Y-15900770D01*
X7290798Y-15900770D02*
X7319369Y-15900770D01*
X7319369Y-15900770D02*
X7338417Y-15910294D01*
X7338417Y-15910294D02*
X7347941Y-15929342D01*
X7347941Y-15929342D02*
X7347941Y-16034104D01*
X7347941Y-15929342D02*
X7357464Y-15910294D01*
X7357464Y-15910294D02*
X7376512Y-15900770D01*
X7376512Y-15900770D02*
X7405083Y-15900770D01*
X7405083Y-15900770D02*
X7424131Y-15910294D01*
X7424131Y-15910294D02*
X7433655Y-15929342D01*
X7433655Y-15929342D02*
X7433655Y-16034104D01*
X7824131Y-15824580D02*
X7652703Y-16081723D01*
X8081274Y-15834104D02*
X8100322Y-15834104D01*
X8100322Y-15834104D02*
X8119369Y-15843628D01*
X8119369Y-15843628D02*
X8128893Y-15853151D01*
X8128893Y-15853151D02*
X8138417Y-15872199D01*
X8138417Y-15872199D02*
X8147941Y-15910294D01*
X8147941Y-15910294D02*
X8147941Y-15957913D01*
X8147941Y-15957913D02*
X8138417Y-15996008D01*
X8138417Y-15996008D02*
X8128893Y-16015056D01*
X8128893Y-16015056D02*
X8119369Y-16024580D01*
X8119369Y-16024580D02*
X8100322Y-16034104D01*
X8100322Y-16034104D02*
X8081274Y-16034104D01*
X8081274Y-16034104D02*
X8062226Y-16024580D01*
X8062226Y-16024580D02*
X8052703Y-16015056D01*
X8052703Y-16015056D02*
X8043179Y-15996008D01*
X8043179Y-15996008D02*
X8033655Y-15957913D01*
X8033655Y-15957913D02*
X8033655Y-15910294D01*
X8033655Y-15910294D02*
X8043179Y-15872199D01*
X8043179Y-15872199D02*
X8052703Y-15853151D01*
X8052703Y-15853151D02*
X8062226Y-15843628D01*
X8062226Y-15843628D02*
X8081274Y-15834104D01*
X8233655Y-16015056D02*
X8243179Y-16024580D01*
X8243179Y-16024580D02*
X8233655Y-16034104D01*
X8233655Y-16034104D02*
X8224131Y-16024580D01*
X8224131Y-16024580D02*
X8233655Y-16015056D01*
X8233655Y-16015056D02*
X8233655Y-16034104D01*
X8366988Y-15834104D02*
X8386036Y-15834104D01*
X8386036Y-15834104D02*
X8405084Y-15843628D01*
X8405084Y-15843628D02*
X8414608Y-15853151D01*
X8414608Y-15853151D02*
X8424131Y-15872199D01*
X8424131Y-15872199D02*
X8433655Y-15910294D01*
X8433655Y-15910294D02*
X8433655Y-15957913D01*
X8433655Y-15957913D02*
X8424131Y-15996008D01*
X8424131Y-15996008D02*
X8414608Y-16015056D01*
X8414608Y-16015056D02*
X8405084Y-16024580D01*
X8405084Y-16024580D02*
X8386036Y-16034104D01*
X8386036Y-16034104D02*
X8366988Y-16034104D01*
X8366988Y-16034104D02*
X8347941Y-16024580D01*
X8347941Y-16024580D02*
X8338417Y-16015056D01*
X8338417Y-16015056D02*
X8328893Y-15996008D01*
X8328893Y-15996008D02*
X8319369Y-15957913D01*
X8319369Y-15957913D02*
X8319369Y-15910294D01*
X8319369Y-15910294D02*
X8328893Y-15872199D01*
X8328893Y-15872199D02*
X8338417Y-15853151D01*
X8338417Y-15853151D02*
X8347941Y-15843628D01*
X8347941Y-15843628D02*
X8366988Y-15834104D01*
X8500322Y-15834104D02*
X8624131Y-15834104D01*
X8624131Y-15834104D02*
X8557465Y-15910294D01*
X8557465Y-15910294D02*
X8586036Y-15910294D01*
X8586036Y-15910294D02*
X8605084Y-15919818D01*
X8605084Y-15919818D02*
X8614608Y-15929342D01*
X8614608Y-15929342D02*
X8624131Y-15948389D01*
X8624131Y-15948389D02*
X8624131Y-15996008D01*
X8624131Y-15996008D02*
X8614608Y-16015056D01*
X8614608Y-16015056D02*
X8605084Y-16024580D01*
X8605084Y-16024580D02*
X8586036Y-16034104D01*
X8586036Y-16034104D02*
X8528893Y-16034104D01*
X8528893Y-16034104D02*
X8509846Y-16024580D01*
X8509846Y-16024580D02*
X8500322Y-16015056D01*
X8805084Y-15834104D02*
X8709846Y-15834104D01*
X8709846Y-15834104D02*
X8700322Y-15929342D01*
X8700322Y-15929342D02*
X8709846Y-15919818D01*
X8709846Y-15919818D02*
X8728893Y-15910294D01*
X8728893Y-15910294D02*
X8776512Y-15910294D01*
X8776512Y-15910294D02*
X8795560Y-15919818D01*
X8795560Y-15919818D02*
X8805084Y-15929342D01*
X8805084Y-15929342D02*
X8814608Y-15948389D01*
X8814608Y-15948389D02*
X8814608Y-15996008D01*
X8814608Y-15996008D02*
X8805084Y-16015056D01*
X8805084Y-16015056D02*
X8795560Y-16024580D01*
X8795560Y-16024580D02*
X8776512Y-16034104D01*
X8776512Y-16034104D02*
X8728893Y-16034104D01*
X8728893Y-16034104D02*
X8709846Y-16024580D01*
X8709846Y-16024580D02*
X8700322Y-16015056D01*
X8986036Y-15900770D02*
X8986036Y-16034104D01*
X8938417Y-15824580D02*
X8890798Y-15967437D01*
X8890798Y-15967437D02*
X9014608Y-15967437D01*
X9081274Y-15834104D02*
X9081274Y-15872199D01*
X9157465Y-15834104D02*
X9157465Y-15872199D01*
X9452703Y-16110294D02*
X9443179Y-16100770D01*
X9443179Y-16100770D02*
X9424131Y-16072199D01*
X9424131Y-16072199D02*
X9414608Y-16053151D01*
X9414608Y-16053151D02*
X9405084Y-16024580D01*
X9405084Y-16024580D02*
X9395560Y-15976961D01*
X9395560Y-15976961D02*
X9395560Y-15938866D01*
X9395560Y-15938866D02*
X9405084Y-15891247D01*
X9405084Y-15891247D02*
X9414608Y-15862675D01*
X9414608Y-15862675D02*
X9424131Y-15843628D01*
X9424131Y-15843628D02*
X9443179Y-15815056D01*
X9443179Y-15815056D02*
X9452703Y-15805532D01*
X9557465Y-15919818D02*
X9538417Y-15910294D01*
X9538417Y-15910294D02*
X9528893Y-15900770D01*
X9528893Y-15900770D02*
X9519370Y-15881723D01*
X9519370Y-15881723D02*
X9519370Y-15872199D01*
X9519370Y-15872199D02*
X9528893Y-15853151D01*
X9528893Y-15853151D02*
X9538417Y-15843628D01*
X9538417Y-15843628D02*
X9557465Y-15834104D01*
X9557465Y-15834104D02*
X9595560Y-15834104D01*
X9595560Y-15834104D02*
X9614608Y-15843628D01*
X9614608Y-15843628D02*
X9624131Y-15853151D01*
X9624131Y-15853151D02*
X9633655Y-15872199D01*
X9633655Y-15872199D02*
X9633655Y-15881723D01*
X9633655Y-15881723D02*
X9624131Y-15900770D01*
X9624131Y-15900770D02*
X9614608Y-15910294D01*
X9614608Y-15910294D02*
X9595560Y-15919818D01*
X9595560Y-15919818D02*
X9557465Y-15919818D01*
X9557465Y-15919818D02*
X9538417Y-15929342D01*
X9538417Y-15929342D02*
X9528893Y-15938866D01*
X9528893Y-15938866D02*
X9519370Y-15957913D01*
X9519370Y-15957913D02*
X9519370Y-15996008D01*
X9519370Y-15996008D02*
X9528893Y-16015056D01*
X9528893Y-16015056D02*
X9538417Y-16024580D01*
X9538417Y-16024580D02*
X9557465Y-16034104D01*
X9557465Y-16034104D02*
X9595560Y-16034104D01*
X9595560Y-16034104D02*
X9614608Y-16024580D01*
X9614608Y-16024580D02*
X9624131Y-16015056D01*
X9624131Y-16015056D02*
X9633655Y-15996008D01*
X9633655Y-15996008D02*
X9633655Y-15957913D01*
X9633655Y-15957913D02*
X9624131Y-15938866D01*
X9624131Y-15938866D02*
X9614608Y-15929342D01*
X9614608Y-15929342D02*
X9595560Y-15919818D01*
X9871751Y-16034104D02*
X9871751Y-15834104D01*
X9957465Y-16034104D02*
X9957465Y-15929342D01*
X9957465Y-15929342D02*
X9947941Y-15910294D01*
X9947941Y-15910294D02*
X9928893Y-15900770D01*
X9928893Y-15900770D02*
X9900322Y-15900770D01*
X9900322Y-15900770D02*
X9881274Y-15910294D01*
X9881274Y-15910294D02*
X9871751Y-15919818D01*
X10081274Y-16034104D02*
X10062227Y-16024580D01*
X10062227Y-16024580D02*
X10052703Y-16015056D01*
X10052703Y-16015056D02*
X10043179Y-15996008D01*
X10043179Y-15996008D02*
X10043179Y-15938866D01*
X10043179Y-15938866D02*
X10052703Y-15919818D01*
X10052703Y-15919818D02*
X10062227Y-15910294D01*
X10062227Y-15910294D02*
X10081274Y-15900770D01*
X10081274Y-15900770D02*
X10109846Y-15900770D01*
X10109846Y-15900770D02*
X10128893Y-15910294D01*
X10128893Y-15910294D02*
X10138417Y-15919818D01*
X10138417Y-15919818D02*
X10147941Y-15938866D01*
X10147941Y-15938866D02*
X10147941Y-15996008D01*
X10147941Y-15996008D02*
X10138417Y-16015056D01*
X10138417Y-16015056D02*
X10128893Y-16024580D01*
X10128893Y-16024580D02*
X10109846Y-16034104D01*
X10109846Y-16034104D02*
X10081274Y-16034104D01*
X10262227Y-16034104D02*
X10243179Y-16024580D01*
X10243179Y-16024580D02*
X10233655Y-16005532D01*
X10233655Y-16005532D02*
X10233655Y-15834104D01*
X10414608Y-16024580D02*
X10395560Y-16034104D01*
X10395560Y-16034104D02*
X10357465Y-16034104D01*
X10357465Y-16034104D02*
X10338417Y-16024580D01*
X10338417Y-16024580D02*
X10328893Y-16005532D01*
X10328893Y-16005532D02*
X10328893Y-15929342D01*
X10328893Y-15929342D02*
X10338417Y-15910294D01*
X10338417Y-15910294D02*
X10357465Y-15900770D01*
X10357465Y-15900770D02*
X10395560Y-15900770D01*
X10395560Y-15900770D02*
X10414608Y-15910294D01*
X10414608Y-15910294D02*
X10424132Y-15929342D01*
X10424132Y-15929342D02*
X10424132Y-15948389D01*
X10424132Y-15948389D02*
X10328893Y-15967437D01*
X10500322Y-16024580D02*
X10519370Y-16034104D01*
X10519370Y-16034104D02*
X10557465Y-16034104D01*
X10557465Y-16034104D02*
X10576513Y-16024580D01*
X10576513Y-16024580D02*
X10586036Y-16005532D01*
X10586036Y-16005532D02*
X10586036Y-15996008D01*
X10586036Y-15996008D02*
X10576513Y-15976961D01*
X10576513Y-15976961D02*
X10557465Y-15967437D01*
X10557465Y-15967437D02*
X10528893Y-15967437D01*
X10528893Y-15967437D02*
X10509846Y-15957913D01*
X10509846Y-15957913D02*
X10500322Y-15938866D01*
X10500322Y-15938866D02*
X10500322Y-15929342D01*
X10500322Y-15929342D02*
X10509846Y-15910294D01*
X10509846Y-15910294D02*
X10528893Y-15900770D01*
X10528893Y-15900770D02*
X10557465Y-15900770D01*
X10557465Y-15900770D02*
X10576513Y-15910294D01*
X10652703Y-16110294D02*
X10662227Y-16100770D01*
X10662227Y-16100770D02*
X10681274Y-16072199D01*
X10681274Y-16072199D02*
X10690798Y-16053151D01*
X10690798Y-16053151D02*
X10700322Y-16024580D01*
X10700322Y-16024580D02*
X10709846Y-15976961D01*
X10709846Y-15976961D02*
X10709846Y-15938866D01*
X10709846Y-15938866D02*
X10700322Y-15891247D01*
X10700322Y-15891247D02*
X10690798Y-15862675D01*
X10690798Y-15862675D02*
X10681274Y-15843628D01*
X10681274Y-15843628D02*
X10662227Y-15815056D01*
X10662227Y-15815056D02*
X10652703Y-15805532D01*
D10*
X5777640Y-16156620D02*
X5877640Y-16256620D01*
X5877640Y-16156620D02*
X5777640Y-16256620D01*
X5827640Y-16156620D02*
X5827640Y-16256620D01*
X5777640Y-16206620D02*
X5877640Y-16206620D01*
D11*
X6243179Y-16298104D02*
X6128893Y-16298104D01*
X6186036Y-16298104D02*
X6186036Y-16098104D01*
X6186036Y-16098104D02*
X6166988Y-16126675D01*
X6166988Y-16126675D02*
X6147941Y-16145723D01*
X6147941Y-16145723D02*
X6128893Y-16155247D01*
X6328893Y-16279056D02*
X6338417Y-16288580D01*
X6338417Y-16288580D02*
X6328893Y-16298104D01*
X6328893Y-16298104D02*
X6319369Y-16288580D01*
X6319369Y-16288580D02*
X6328893Y-16279056D01*
X6328893Y-16279056D02*
X6328893Y-16298104D01*
X6462226Y-16098104D02*
X6481274Y-16098104D01*
X6481274Y-16098104D02*
X6500322Y-16107628D01*
X6500322Y-16107628D02*
X6509845Y-16117151D01*
X6509845Y-16117151D02*
X6519369Y-16136199D01*
X6519369Y-16136199D02*
X6528893Y-16174294D01*
X6528893Y-16174294D02*
X6528893Y-16221913D01*
X6528893Y-16221913D02*
X6519369Y-16260008D01*
X6519369Y-16260008D02*
X6509845Y-16279056D01*
X6509845Y-16279056D02*
X6500322Y-16288580D01*
X6500322Y-16288580D02*
X6481274Y-16298104D01*
X6481274Y-16298104D02*
X6462226Y-16298104D01*
X6462226Y-16298104D02*
X6443179Y-16288580D01*
X6443179Y-16288580D02*
X6433655Y-16279056D01*
X6433655Y-16279056D02*
X6424131Y-16260008D01*
X6424131Y-16260008D02*
X6414607Y-16221913D01*
X6414607Y-16221913D02*
X6414607Y-16174294D01*
X6414607Y-16174294D02*
X6424131Y-16136199D01*
X6424131Y-16136199D02*
X6433655Y-16117151D01*
X6433655Y-16117151D02*
X6443179Y-16107628D01*
X6443179Y-16107628D02*
X6462226Y-16098104D01*
X6652702Y-16098104D02*
X6671750Y-16098104D01*
X6671750Y-16098104D02*
X6690798Y-16107628D01*
X6690798Y-16107628D02*
X6700322Y-16117151D01*
X6700322Y-16117151D02*
X6709845Y-16136199D01*
X6709845Y-16136199D02*
X6719369Y-16174294D01*
X6719369Y-16174294D02*
X6719369Y-16221913D01*
X6719369Y-16221913D02*
X6709845Y-16260008D01*
X6709845Y-16260008D02*
X6700322Y-16279056D01*
X6700322Y-16279056D02*
X6690798Y-16288580D01*
X6690798Y-16288580D02*
X6671750Y-16298104D01*
X6671750Y-16298104D02*
X6652702Y-16298104D01*
X6652702Y-16298104D02*
X6633655Y-16288580D01*
X6633655Y-16288580D02*
X6624131Y-16279056D01*
X6624131Y-16279056D02*
X6614607Y-16260008D01*
X6614607Y-16260008D02*
X6605083Y-16221913D01*
X6605083Y-16221913D02*
X6605083Y-16174294D01*
X6605083Y-16174294D02*
X6614607Y-16136199D01*
X6614607Y-16136199D02*
X6624131Y-16117151D01*
X6624131Y-16117151D02*
X6633655Y-16107628D01*
X6633655Y-16107628D02*
X6652702Y-16098104D01*
X6843179Y-16098104D02*
X6862226Y-16098104D01*
X6862226Y-16098104D02*
X6881274Y-16107628D01*
X6881274Y-16107628D02*
X6890798Y-16117151D01*
X6890798Y-16117151D02*
X6900322Y-16136199D01*
X6900322Y-16136199D02*
X6909845Y-16174294D01*
X6909845Y-16174294D02*
X6909845Y-16221913D01*
X6909845Y-16221913D02*
X6900322Y-16260008D01*
X6900322Y-16260008D02*
X6890798Y-16279056D01*
X6890798Y-16279056D02*
X6881274Y-16288580D01*
X6881274Y-16288580D02*
X6862226Y-16298104D01*
X6862226Y-16298104D02*
X6843179Y-16298104D01*
X6843179Y-16298104D02*
X6824131Y-16288580D01*
X6824131Y-16288580D02*
X6814607Y-16279056D01*
X6814607Y-16279056D02*
X6805083Y-16260008D01*
X6805083Y-16260008D02*
X6795560Y-16221913D01*
X6795560Y-16221913D02*
X6795560Y-16174294D01*
X6795560Y-16174294D02*
X6805083Y-16136199D01*
X6805083Y-16136199D02*
X6814607Y-16117151D01*
X6814607Y-16117151D02*
X6824131Y-16107628D01*
X6824131Y-16107628D02*
X6843179Y-16098104D01*
X6995560Y-16298104D02*
X6995560Y-16164770D01*
X6995560Y-16183818D02*
X7005083Y-16174294D01*
X7005083Y-16174294D02*
X7024131Y-16164770D01*
X7024131Y-16164770D02*
X7052703Y-16164770D01*
X7052703Y-16164770D02*
X7071750Y-16174294D01*
X7071750Y-16174294D02*
X7081274Y-16193342D01*
X7081274Y-16193342D02*
X7081274Y-16298104D01*
X7081274Y-16193342D02*
X7090798Y-16174294D01*
X7090798Y-16174294D02*
X7109845Y-16164770D01*
X7109845Y-16164770D02*
X7138417Y-16164770D01*
X7138417Y-16164770D02*
X7157464Y-16174294D01*
X7157464Y-16174294D02*
X7166988Y-16193342D01*
X7166988Y-16193342D02*
X7166988Y-16298104D01*
X7262226Y-16298104D02*
X7262226Y-16164770D01*
X7262226Y-16183818D02*
X7271750Y-16174294D01*
X7271750Y-16174294D02*
X7290798Y-16164770D01*
X7290798Y-16164770D02*
X7319369Y-16164770D01*
X7319369Y-16164770D02*
X7338417Y-16174294D01*
X7338417Y-16174294D02*
X7347941Y-16193342D01*
X7347941Y-16193342D02*
X7347941Y-16298104D01*
X7347941Y-16193342D02*
X7357464Y-16174294D01*
X7357464Y-16174294D02*
X7376512Y-16164770D01*
X7376512Y-16164770D02*
X7405083Y-16164770D01*
X7405083Y-16164770D02*
X7424131Y-16174294D01*
X7424131Y-16174294D02*
X7433655Y-16193342D01*
X7433655Y-16193342D02*
X7433655Y-16298104D01*
X7824131Y-16088580D02*
X7652703Y-16345723D01*
X8081274Y-16098104D02*
X8100322Y-16098104D01*
X8100322Y-16098104D02*
X8119369Y-16107628D01*
X8119369Y-16107628D02*
X8128893Y-16117151D01*
X8128893Y-16117151D02*
X8138417Y-16136199D01*
X8138417Y-16136199D02*
X8147941Y-16174294D01*
X8147941Y-16174294D02*
X8147941Y-16221913D01*
X8147941Y-16221913D02*
X8138417Y-16260008D01*
X8138417Y-16260008D02*
X8128893Y-16279056D01*
X8128893Y-16279056D02*
X8119369Y-16288580D01*
X8119369Y-16288580D02*
X8100322Y-16298104D01*
X8100322Y-16298104D02*
X8081274Y-16298104D01*
X8081274Y-16298104D02*
X8062226Y-16288580D01*
X8062226Y-16288580D02*
X8052703Y-16279056D01*
X8052703Y-16279056D02*
X8043179Y-16260008D01*
X8043179Y-16260008D02*
X8033655Y-16221913D01*
X8033655Y-16221913D02*
X8033655Y-16174294D01*
X8033655Y-16174294D02*
X8043179Y-16136199D01*
X8043179Y-16136199D02*
X8052703Y-16117151D01*
X8052703Y-16117151D02*
X8062226Y-16107628D01*
X8062226Y-16107628D02*
X8081274Y-16098104D01*
X8233655Y-16279056D02*
X8243179Y-16288580D01*
X8243179Y-16288580D02*
X8233655Y-16298104D01*
X8233655Y-16298104D02*
X8224131Y-16288580D01*
X8224131Y-16288580D02*
X8233655Y-16279056D01*
X8233655Y-16279056D02*
X8233655Y-16298104D01*
X8366988Y-16098104D02*
X8386036Y-16098104D01*
X8386036Y-16098104D02*
X8405084Y-16107628D01*
X8405084Y-16107628D02*
X8414608Y-16117151D01*
X8414608Y-16117151D02*
X8424131Y-16136199D01*
X8424131Y-16136199D02*
X8433655Y-16174294D01*
X8433655Y-16174294D02*
X8433655Y-16221913D01*
X8433655Y-16221913D02*
X8424131Y-16260008D01*
X8424131Y-16260008D02*
X8414608Y-16279056D01*
X8414608Y-16279056D02*
X8405084Y-16288580D01*
X8405084Y-16288580D02*
X8386036Y-16298104D01*
X8386036Y-16298104D02*
X8366988Y-16298104D01*
X8366988Y-16298104D02*
X8347941Y-16288580D01*
X8347941Y-16288580D02*
X8338417Y-16279056D01*
X8338417Y-16279056D02*
X8328893Y-16260008D01*
X8328893Y-16260008D02*
X8319369Y-16221913D01*
X8319369Y-16221913D02*
X8319369Y-16174294D01*
X8319369Y-16174294D02*
X8328893Y-16136199D01*
X8328893Y-16136199D02*
X8338417Y-16117151D01*
X8338417Y-16117151D02*
X8347941Y-16107628D01*
X8347941Y-16107628D02*
X8366988Y-16098104D01*
X8500322Y-16098104D02*
X8624131Y-16098104D01*
X8624131Y-16098104D02*
X8557465Y-16174294D01*
X8557465Y-16174294D02*
X8586036Y-16174294D01*
X8586036Y-16174294D02*
X8605084Y-16183818D01*
X8605084Y-16183818D02*
X8614608Y-16193342D01*
X8614608Y-16193342D02*
X8624131Y-16212389D01*
X8624131Y-16212389D02*
X8624131Y-16260008D01*
X8624131Y-16260008D02*
X8614608Y-16279056D01*
X8614608Y-16279056D02*
X8605084Y-16288580D01*
X8605084Y-16288580D02*
X8586036Y-16298104D01*
X8586036Y-16298104D02*
X8528893Y-16298104D01*
X8528893Y-16298104D02*
X8509846Y-16288580D01*
X8509846Y-16288580D02*
X8500322Y-16279056D01*
X8719369Y-16298104D02*
X8757465Y-16298104D01*
X8757465Y-16298104D02*
X8776512Y-16288580D01*
X8776512Y-16288580D02*
X8786036Y-16279056D01*
X8786036Y-16279056D02*
X8805084Y-16250485D01*
X8805084Y-16250485D02*
X8814608Y-16212389D01*
X8814608Y-16212389D02*
X8814608Y-16136199D01*
X8814608Y-16136199D02*
X8805084Y-16117151D01*
X8805084Y-16117151D02*
X8795560Y-16107628D01*
X8795560Y-16107628D02*
X8776512Y-16098104D01*
X8776512Y-16098104D02*
X8738417Y-16098104D01*
X8738417Y-16098104D02*
X8719369Y-16107628D01*
X8719369Y-16107628D02*
X8709846Y-16117151D01*
X8709846Y-16117151D02*
X8700322Y-16136199D01*
X8700322Y-16136199D02*
X8700322Y-16183818D01*
X8700322Y-16183818D02*
X8709846Y-16202866D01*
X8709846Y-16202866D02*
X8719369Y-16212389D01*
X8719369Y-16212389D02*
X8738417Y-16221913D01*
X8738417Y-16221913D02*
X8776512Y-16221913D01*
X8776512Y-16221913D02*
X8795560Y-16212389D01*
X8795560Y-16212389D02*
X8805084Y-16202866D01*
X8805084Y-16202866D02*
X8814608Y-16183818D01*
X8986036Y-16164770D02*
X8986036Y-16298104D01*
X8938417Y-16088580D02*
X8890798Y-16231437D01*
X8890798Y-16231437D02*
X9014608Y-16231437D01*
X9081274Y-16098104D02*
X9081274Y-16136199D01*
X9157465Y-16098104D02*
X9157465Y-16136199D01*
X9452703Y-16374294D02*
X9443179Y-16364770D01*
X9443179Y-16364770D02*
X9424131Y-16336199D01*
X9424131Y-16336199D02*
X9414608Y-16317151D01*
X9414608Y-16317151D02*
X9405084Y-16288580D01*
X9405084Y-16288580D02*
X9395560Y-16240961D01*
X9395560Y-16240961D02*
X9395560Y-16202866D01*
X9395560Y-16202866D02*
X9405084Y-16155247D01*
X9405084Y-16155247D02*
X9414608Y-16126675D01*
X9414608Y-16126675D02*
X9424131Y-16107628D01*
X9424131Y-16107628D02*
X9443179Y-16079056D01*
X9443179Y-16079056D02*
X9452703Y-16069532D01*
X9624131Y-16098104D02*
X9528893Y-16098104D01*
X9528893Y-16098104D02*
X9519370Y-16193342D01*
X9519370Y-16193342D02*
X9528893Y-16183818D01*
X9528893Y-16183818D02*
X9547941Y-16174294D01*
X9547941Y-16174294D02*
X9595560Y-16174294D01*
X9595560Y-16174294D02*
X9614608Y-16183818D01*
X9614608Y-16183818D02*
X9624131Y-16193342D01*
X9624131Y-16193342D02*
X9633655Y-16212389D01*
X9633655Y-16212389D02*
X9633655Y-16260008D01*
X9633655Y-16260008D02*
X9624131Y-16279056D01*
X9624131Y-16279056D02*
X9614608Y-16288580D01*
X9614608Y-16288580D02*
X9595560Y-16298104D01*
X9595560Y-16298104D02*
X9547941Y-16298104D01*
X9547941Y-16298104D02*
X9528893Y-16288580D01*
X9528893Y-16288580D02*
X9519370Y-16279056D01*
X9871751Y-16298104D02*
X9871751Y-16098104D01*
X9957465Y-16298104D02*
X9957465Y-16193342D01*
X9957465Y-16193342D02*
X9947941Y-16174294D01*
X9947941Y-16174294D02*
X9928893Y-16164770D01*
X9928893Y-16164770D02*
X9900322Y-16164770D01*
X9900322Y-16164770D02*
X9881274Y-16174294D01*
X9881274Y-16174294D02*
X9871751Y-16183818D01*
X10081274Y-16298104D02*
X10062227Y-16288580D01*
X10062227Y-16288580D02*
X10052703Y-16279056D01*
X10052703Y-16279056D02*
X10043179Y-16260008D01*
X10043179Y-16260008D02*
X10043179Y-16202866D01*
X10043179Y-16202866D02*
X10052703Y-16183818D01*
X10052703Y-16183818D02*
X10062227Y-16174294D01*
X10062227Y-16174294D02*
X10081274Y-16164770D01*
X10081274Y-16164770D02*
X10109846Y-16164770D01*
X10109846Y-16164770D02*
X10128893Y-16174294D01*
X10128893Y-16174294D02*
X10138417Y-16183818D01*
X10138417Y-16183818D02*
X10147941Y-16202866D01*
X10147941Y-16202866D02*
X10147941Y-16260008D01*
X10147941Y-16260008D02*
X10138417Y-16279056D01*
X10138417Y-16279056D02*
X10128893Y-16288580D01*
X10128893Y-16288580D02*
X10109846Y-16298104D01*
X10109846Y-16298104D02*
X10081274Y-16298104D01*
X10262227Y-16298104D02*
X10243179Y-16288580D01*
X10243179Y-16288580D02*
X10233655Y-16269532D01*
X10233655Y-16269532D02*
X10233655Y-16098104D01*
X10414608Y-16288580D02*
X10395560Y-16298104D01*
X10395560Y-16298104D02*
X10357465Y-16298104D01*
X10357465Y-16298104D02*
X10338417Y-16288580D01*
X10338417Y-16288580D02*
X10328893Y-16269532D01*
X10328893Y-16269532D02*
X10328893Y-16193342D01*
X10328893Y-16193342D02*
X10338417Y-16174294D01*
X10338417Y-16174294D02*
X10357465Y-16164770D01*
X10357465Y-16164770D02*
X10395560Y-16164770D01*
X10395560Y-16164770D02*
X10414608Y-16174294D01*
X10414608Y-16174294D02*
X10424132Y-16193342D01*
X10424132Y-16193342D02*
X10424132Y-16212389D01*
X10424132Y-16212389D02*
X10328893Y-16231437D01*
X10500322Y-16288580D02*
X10519370Y-16298104D01*
X10519370Y-16298104D02*
X10557465Y-16298104D01*
X10557465Y-16298104D02*
X10576513Y-16288580D01*
X10576513Y-16288580D02*
X10586036Y-16269532D01*
X10586036Y-16269532D02*
X10586036Y-16260008D01*
X10586036Y-16260008D02*
X10576513Y-16240961D01*
X10576513Y-16240961D02*
X10557465Y-16231437D01*
X10557465Y-16231437D02*
X10528893Y-16231437D01*
X10528893Y-16231437D02*
X10509846Y-16221913D01*
X10509846Y-16221913D02*
X10500322Y-16202866D01*
X10500322Y-16202866D02*
X10500322Y-16193342D01*
X10500322Y-16193342D02*
X10509846Y-16174294D01*
X10509846Y-16174294D02*
X10528893Y-16164770D01*
X10528893Y-16164770D02*
X10557465Y-16164770D01*
X10557465Y-16164770D02*
X10576513Y-16174294D01*
X10652703Y-16374294D02*
X10662227Y-16364770D01*
X10662227Y-16364770D02*
X10681274Y-16336199D01*
X10681274Y-16336199D02*
X10690798Y-16317151D01*
X10690798Y-16317151D02*
X10700322Y-16288580D01*
X10700322Y-16288580D02*
X10709846Y-16240961D01*
X10709846Y-16240961D02*
X10709846Y-16202866D01*
X10709846Y-16202866D02*
X10700322Y-16155247D01*
X10700322Y-16155247D02*
X10690798Y-16126675D01*
X10690798Y-16126675D02*
X10681274Y-16107628D01*
X10681274Y-16107628D02*
X10662227Y-16079056D01*
X10662227Y-16079056D02*
X10652703Y-16069532D01*
D12*
X5717640Y-16390620D02*
X5877640Y-16550620D01*
X5877640Y-16390620D02*
X5717640Y-16550620D01*
X5854209Y-16527189D02*
X5854209Y-16414051D01*
X5741071Y-16414051D01*
X5741071Y-16527189D01*
X5854209Y-16527189D01*
D11*
X6243179Y-16562104D02*
X6128893Y-16562104D01*
X6186036Y-16562104D02*
X6186036Y-16362104D01*
X6186036Y-16362104D02*
X6166988Y-16390675D01*
X6166988Y-16390675D02*
X6147941Y-16409723D01*
X6147941Y-16409723D02*
X6128893Y-16419247D01*
X6328893Y-16543056D02*
X6338417Y-16552580D01*
X6338417Y-16552580D02*
X6328893Y-16562104D01*
X6328893Y-16562104D02*
X6319369Y-16552580D01*
X6319369Y-16552580D02*
X6328893Y-16543056D01*
X6328893Y-16543056D02*
X6328893Y-16562104D01*
X6509845Y-16362104D02*
X6471750Y-16362104D01*
X6471750Y-16362104D02*
X6452702Y-16371628D01*
X6452702Y-16371628D02*
X6443179Y-16381151D01*
X6443179Y-16381151D02*
X6424131Y-16409723D01*
X6424131Y-16409723D02*
X6414607Y-16447818D01*
X6414607Y-16447818D02*
X6414607Y-16524008D01*
X6414607Y-16524008D02*
X6424131Y-16543056D01*
X6424131Y-16543056D02*
X6433655Y-16552580D01*
X6433655Y-16552580D02*
X6452702Y-16562104D01*
X6452702Y-16562104D02*
X6490798Y-16562104D01*
X6490798Y-16562104D02*
X6509845Y-16552580D01*
X6509845Y-16552580D02*
X6519369Y-16543056D01*
X6519369Y-16543056D02*
X6528893Y-16524008D01*
X6528893Y-16524008D02*
X6528893Y-16476389D01*
X6528893Y-16476389D02*
X6519369Y-16457342D01*
X6519369Y-16457342D02*
X6509845Y-16447818D01*
X6509845Y-16447818D02*
X6490798Y-16438294D01*
X6490798Y-16438294D02*
X6452702Y-16438294D01*
X6452702Y-16438294D02*
X6433655Y-16447818D01*
X6433655Y-16447818D02*
X6424131Y-16457342D01*
X6424131Y-16457342D02*
X6414607Y-16476389D01*
X6652702Y-16362104D02*
X6671750Y-16362104D01*
X6671750Y-16362104D02*
X6690798Y-16371628D01*
X6690798Y-16371628D02*
X6700322Y-16381151D01*
X6700322Y-16381151D02*
X6709845Y-16400199D01*
X6709845Y-16400199D02*
X6719369Y-16438294D01*
X6719369Y-16438294D02*
X6719369Y-16485913D01*
X6719369Y-16485913D02*
X6709845Y-16524008D01*
X6709845Y-16524008D02*
X6700322Y-16543056D01*
X6700322Y-16543056D02*
X6690798Y-16552580D01*
X6690798Y-16552580D02*
X6671750Y-16562104D01*
X6671750Y-16562104D02*
X6652702Y-16562104D01*
X6652702Y-16562104D02*
X6633655Y-16552580D01*
X6633655Y-16552580D02*
X6624131Y-16543056D01*
X6624131Y-16543056D02*
X6614607Y-16524008D01*
X6614607Y-16524008D02*
X6605083Y-16485913D01*
X6605083Y-16485913D02*
X6605083Y-16438294D01*
X6605083Y-16438294D02*
X6614607Y-16400199D01*
X6614607Y-16400199D02*
X6624131Y-16381151D01*
X6624131Y-16381151D02*
X6633655Y-16371628D01*
X6633655Y-16371628D02*
X6652702Y-16362104D01*
X6843179Y-16362104D02*
X6862226Y-16362104D01*
X6862226Y-16362104D02*
X6881274Y-16371628D01*
X6881274Y-16371628D02*
X6890798Y-16381151D01*
X6890798Y-16381151D02*
X6900322Y-16400199D01*
X6900322Y-16400199D02*
X6909845Y-16438294D01*
X6909845Y-16438294D02*
X6909845Y-16485913D01*
X6909845Y-16485913D02*
X6900322Y-16524008D01*
X6900322Y-16524008D02*
X6890798Y-16543056D01*
X6890798Y-16543056D02*
X6881274Y-16552580D01*
X6881274Y-16552580D02*
X6862226Y-16562104D01*
X6862226Y-16562104D02*
X6843179Y-16562104D01*
X6843179Y-16562104D02*
X6824131Y-16552580D01*
X6824131Y-16552580D02*
X6814607Y-16543056D01*
X6814607Y-16543056D02*
X6805083Y-16524008D01*
X6805083Y-16524008D02*
X6795560Y-16485913D01*
X6795560Y-16485913D02*
X6795560Y-16438294D01*
X6795560Y-16438294D02*
X6805083Y-16400199D01*
X6805083Y-16400199D02*
X6814607Y-16381151D01*
X6814607Y-16381151D02*
X6824131Y-16371628D01*
X6824131Y-16371628D02*
X6843179Y-16362104D01*
X6995560Y-16562104D02*
X6995560Y-16428770D01*
X6995560Y-16447818D02*
X7005083Y-16438294D01*
X7005083Y-16438294D02*
X7024131Y-16428770D01*
X7024131Y-16428770D02*
X7052703Y-16428770D01*
X7052703Y-16428770D02*
X7071750Y-16438294D01*
X7071750Y-16438294D02*
X7081274Y-16457342D01*
X7081274Y-16457342D02*
X7081274Y-16562104D01*
X7081274Y-16457342D02*
X7090798Y-16438294D01*
X7090798Y-16438294D02*
X7109845Y-16428770D01*
X7109845Y-16428770D02*
X7138417Y-16428770D01*
X7138417Y-16428770D02*
X7157464Y-16438294D01*
X7157464Y-16438294D02*
X7166988Y-16457342D01*
X7166988Y-16457342D02*
X7166988Y-16562104D01*
X7262226Y-16562104D02*
X7262226Y-16428770D01*
X7262226Y-16447818D02*
X7271750Y-16438294D01*
X7271750Y-16438294D02*
X7290798Y-16428770D01*
X7290798Y-16428770D02*
X7319369Y-16428770D01*
X7319369Y-16428770D02*
X7338417Y-16438294D01*
X7338417Y-16438294D02*
X7347941Y-16457342D01*
X7347941Y-16457342D02*
X7347941Y-16562104D01*
X7347941Y-16457342D02*
X7357464Y-16438294D01*
X7357464Y-16438294D02*
X7376512Y-16428770D01*
X7376512Y-16428770D02*
X7405083Y-16428770D01*
X7405083Y-16428770D02*
X7424131Y-16438294D01*
X7424131Y-16438294D02*
X7433655Y-16457342D01*
X7433655Y-16457342D02*
X7433655Y-16562104D01*
X7824131Y-16352580D02*
X7652703Y-16609723D01*
X8081274Y-16362104D02*
X8100322Y-16362104D01*
X8100322Y-16362104D02*
X8119369Y-16371628D01*
X8119369Y-16371628D02*
X8128893Y-16381151D01*
X8128893Y-16381151D02*
X8138417Y-16400199D01*
X8138417Y-16400199D02*
X8147941Y-16438294D01*
X8147941Y-16438294D02*
X8147941Y-16485913D01*
X8147941Y-16485913D02*
X8138417Y-16524008D01*
X8138417Y-16524008D02*
X8128893Y-16543056D01*
X8128893Y-16543056D02*
X8119369Y-16552580D01*
X8119369Y-16552580D02*
X8100322Y-16562104D01*
X8100322Y-16562104D02*
X8081274Y-16562104D01*
X8081274Y-16562104D02*
X8062226Y-16552580D01*
X8062226Y-16552580D02*
X8052703Y-16543056D01*
X8052703Y-16543056D02*
X8043179Y-16524008D01*
X8043179Y-16524008D02*
X8033655Y-16485913D01*
X8033655Y-16485913D02*
X8033655Y-16438294D01*
X8033655Y-16438294D02*
X8043179Y-16400199D01*
X8043179Y-16400199D02*
X8052703Y-16381151D01*
X8052703Y-16381151D02*
X8062226Y-16371628D01*
X8062226Y-16371628D02*
X8081274Y-16362104D01*
X8233655Y-16543056D02*
X8243179Y-16552580D01*
X8243179Y-16552580D02*
X8233655Y-16562104D01*
X8233655Y-16562104D02*
X8224131Y-16552580D01*
X8224131Y-16552580D02*
X8233655Y-16543056D01*
X8233655Y-16543056D02*
X8233655Y-16562104D01*
X8366988Y-16362104D02*
X8386036Y-16362104D01*
X8386036Y-16362104D02*
X8405084Y-16371628D01*
X8405084Y-16371628D02*
X8414608Y-16381151D01*
X8414608Y-16381151D02*
X8424131Y-16400199D01*
X8424131Y-16400199D02*
X8433655Y-16438294D01*
X8433655Y-16438294D02*
X8433655Y-16485913D01*
X8433655Y-16485913D02*
X8424131Y-16524008D01*
X8424131Y-16524008D02*
X8414608Y-16543056D01*
X8414608Y-16543056D02*
X8405084Y-16552580D01*
X8405084Y-16552580D02*
X8386036Y-16562104D01*
X8386036Y-16562104D02*
X8366988Y-16562104D01*
X8366988Y-16562104D02*
X8347941Y-16552580D01*
X8347941Y-16552580D02*
X8338417Y-16543056D01*
X8338417Y-16543056D02*
X8328893Y-16524008D01*
X8328893Y-16524008D02*
X8319369Y-16485913D01*
X8319369Y-16485913D02*
X8319369Y-16438294D01*
X8319369Y-16438294D02*
X8328893Y-16400199D01*
X8328893Y-16400199D02*
X8338417Y-16381151D01*
X8338417Y-16381151D02*
X8347941Y-16371628D01*
X8347941Y-16371628D02*
X8366988Y-16362104D01*
X8605084Y-16362104D02*
X8566988Y-16362104D01*
X8566988Y-16362104D02*
X8547941Y-16371628D01*
X8547941Y-16371628D02*
X8538417Y-16381151D01*
X8538417Y-16381151D02*
X8519369Y-16409723D01*
X8519369Y-16409723D02*
X8509846Y-16447818D01*
X8509846Y-16447818D02*
X8509846Y-16524008D01*
X8509846Y-16524008D02*
X8519369Y-16543056D01*
X8519369Y-16543056D02*
X8528893Y-16552580D01*
X8528893Y-16552580D02*
X8547941Y-16562104D01*
X8547941Y-16562104D02*
X8586036Y-16562104D01*
X8586036Y-16562104D02*
X8605084Y-16552580D01*
X8605084Y-16552580D02*
X8614608Y-16543056D01*
X8614608Y-16543056D02*
X8624131Y-16524008D01*
X8624131Y-16524008D02*
X8624131Y-16476389D01*
X8624131Y-16476389D02*
X8614608Y-16457342D01*
X8614608Y-16457342D02*
X8605084Y-16447818D01*
X8605084Y-16447818D02*
X8586036Y-16438294D01*
X8586036Y-16438294D02*
X8547941Y-16438294D01*
X8547941Y-16438294D02*
X8528893Y-16447818D01*
X8528893Y-16447818D02*
X8519369Y-16457342D01*
X8519369Y-16457342D02*
X8509846Y-16476389D01*
X8690798Y-16362104D02*
X8814608Y-16362104D01*
X8814608Y-16362104D02*
X8747941Y-16438294D01*
X8747941Y-16438294D02*
X8776512Y-16438294D01*
X8776512Y-16438294D02*
X8795560Y-16447818D01*
X8795560Y-16447818D02*
X8805084Y-16457342D01*
X8805084Y-16457342D02*
X8814608Y-16476389D01*
X8814608Y-16476389D02*
X8814608Y-16524008D01*
X8814608Y-16524008D02*
X8805084Y-16543056D01*
X8805084Y-16543056D02*
X8795560Y-16552580D01*
X8795560Y-16552580D02*
X8776512Y-16562104D01*
X8776512Y-16562104D02*
X8719369Y-16562104D01*
X8719369Y-16562104D02*
X8700322Y-16552580D01*
X8700322Y-16552580D02*
X8690798Y-16543056D01*
X8938417Y-16362104D02*
X8957465Y-16362104D01*
X8957465Y-16362104D02*
X8976512Y-16371628D01*
X8976512Y-16371628D02*
X8986036Y-16381151D01*
X8986036Y-16381151D02*
X8995560Y-16400199D01*
X8995560Y-16400199D02*
X9005084Y-16438294D01*
X9005084Y-16438294D02*
X9005084Y-16485913D01*
X9005084Y-16485913D02*
X8995560Y-16524008D01*
X8995560Y-16524008D02*
X8986036Y-16543056D01*
X8986036Y-16543056D02*
X8976512Y-16552580D01*
X8976512Y-16552580D02*
X8957465Y-16562104D01*
X8957465Y-16562104D02*
X8938417Y-16562104D01*
X8938417Y-16562104D02*
X8919369Y-16552580D01*
X8919369Y-16552580D02*
X8909846Y-16543056D01*
X8909846Y-16543056D02*
X8900322Y-16524008D01*
X8900322Y-16524008D02*
X8890798Y-16485913D01*
X8890798Y-16485913D02*
X8890798Y-16438294D01*
X8890798Y-16438294D02*
X8900322Y-16400199D01*
X8900322Y-16400199D02*
X8909846Y-16381151D01*
X8909846Y-16381151D02*
X8919369Y-16371628D01*
X8919369Y-16371628D02*
X8938417Y-16362104D01*
X9081274Y-16362104D02*
X9081274Y-16400199D01*
X9157465Y-16362104D02*
X9157465Y-16400199D01*
X9452703Y-16638294D02*
X9443179Y-16628770D01*
X9443179Y-16628770D02*
X9424131Y-16600199D01*
X9424131Y-16600199D02*
X9414608Y-16581151D01*
X9414608Y-16581151D02*
X9405084Y-16552580D01*
X9405084Y-16552580D02*
X9395560Y-16504961D01*
X9395560Y-16504961D02*
X9395560Y-16466866D01*
X9395560Y-16466866D02*
X9405084Y-16419247D01*
X9405084Y-16419247D02*
X9414608Y-16390675D01*
X9414608Y-16390675D02*
X9424131Y-16371628D01*
X9424131Y-16371628D02*
X9443179Y-16343056D01*
X9443179Y-16343056D02*
X9452703Y-16333532D01*
X9519370Y-16381151D02*
X9528893Y-16371628D01*
X9528893Y-16371628D02*
X9547941Y-16362104D01*
X9547941Y-16362104D02*
X9595560Y-16362104D01*
X9595560Y-16362104D02*
X9614608Y-16371628D01*
X9614608Y-16371628D02*
X9624131Y-16381151D01*
X9624131Y-16381151D02*
X9633655Y-16400199D01*
X9633655Y-16400199D02*
X9633655Y-16419247D01*
X9633655Y-16419247D02*
X9624131Y-16447818D01*
X9624131Y-16447818D02*
X9509846Y-16562104D01*
X9509846Y-16562104D02*
X9633655Y-16562104D01*
X9871751Y-16562104D02*
X9871751Y-16362104D01*
X9957465Y-16562104D02*
X9957465Y-16457342D01*
X9957465Y-16457342D02*
X9947941Y-16438294D01*
X9947941Y-16438294D02*
X9928893Y-16428770D01*
X9928893Y-16428770D02*
X9900322Y-16428770D01*
X9900322Y-16428770D02*
X9881274Y-16438294D01*
X9881274Y-16438294D02*
X9871751Y-16447818D01*
X10081274Y-16562104D02*
X10062227Y-16552580D01*
X10062227Y-16552580D02*
X10052703Y-16543056D01*
X10052703Y-16543056D02*
X10043179Y-16524008D01*
X10043179Y-16524008D02*
X10043179Y-16466866D01*
X10043179Y-16466866D02*
X10052703Y-16447818D01*
X10052703Y-16447818D02*
X10062227Y-16438294D01*
X10062227Y-16438294D02*
X10081274Y-16428770D01*
X10081274Y-16428770D02*
X10109846Y-16428770D01*
X10109846Y-16428770D02*
X10128893Y-16438294D01*
X10128893Y-16438294D02*
X10138417Y-16447818D01*
X10138417Y-16447818D02*
X10147941Y-16466866D01*
X10147941Y-16466866D02*
X10147941Y-16524008D01*
X10147941Y-16524008D02*
X10138417Y-16543056D01*
X10138417Y-16543056D02*
X10128893Y-16552580D01*
X10128893Y-16552580D02*
X10109846Y-16562104D01*
X10109846Y-16562104D02*
X10081274Y-16562104D01*
X10262227Y-16562104D02*
X10243179Y-16552580D01*
X10243179Y-16552580D02*
X10233655Y-16533532D01*
X10233655Y-16533532D02*
X10233655Y-16362104D01*
X10414608Y-16552580D02*
X10395560Y-16562104D01*
X10395560Y-16562104D02*
X10357465Y-16562104D01*
X10357465Y-16562104D02*
X10338417Y-16552580D01*
X10338417Y-16552580D02*
X10328893Y-16533532D01*
X10328893Y-16533532D02*
X10328893Y-16457342D01*
X10328893Y-16457342D02*
X10338417Y-16438294D01*
X10338417Y-16438294D02*
X10357465Y-16428770D01*
X10357465Y-16428770D02*
X10395560Y-16428770D01*
X10395560Y-16428770D02*
X10414608Y-16438294D01*
X10414608Y-16438294D02*
X10424132Y-16457342D01*
X10424132Y-16457342D02*
X10424132Y-16476389D01*
X10424132Y-16476389D02*
X10328893Y-16495437D01*
X10500322Y-16552580D02*
X10519370Y-16562104D01*
X10519370Y-16562104D02*
X10557465Y-16562104D01*
X10557465Y-16562104D02*
X10576513Y-16552580D01*
X10576513Y-16552580D02*
X10586036Y-16533532D01*
X10586036Y-16533532D02*
X10586036Y-16524008D01*
X10586036Y-16524008D02*
X10576513Y-16504961D01*
X10576513Y-16504961D02*
X10557465Y-16495437D01*
X10557465Y-16495437D02*
X10528893Y-16495437D01*
X10528893Y-16495437D02*
X10509846Y-16485913D01*
X10509846Y-16485913D02*
X10500322Y-16466866D01*
X10500322Y-16466866D02*
X10500322Y-16457342D01*
X10500322Y-16457342D02*
X10509846Y-16438294D01*
X10509846Y-16438294D02*
X10528893Y-16428770D01*
X10528893Y-16428770D02*
X10557465Y-16428770D01*
X10557465Y-16428770D02*
X10576513Y-16438294D01*
X10652703Y-16638294D02*
X10662227Y-16628770D01*
X10662227Y-16628770D02*
X10681274Y-16600199D01*
X10681274Y-16600199D02*
X10690798Y-16581151D01*
X10690798Y-16581151D02*
X10700322Y-16552580D01*
X10700322Y-16552580D02*
X10709846Y-16504961D01*
X10709846Y-16504961D02*
X10709846Y-16466866D01*
X10709846Y-16466866D02*
X10700322Y-16419247D01*
X10700322Y-16419247D02*
X10690798Y-16390675D01*
X10690798Y-16390675D02*
X10681274Y-16371628D01*
X10681274Y-16371628D02*
X10662227Y-16343056D01*
X10662227Y-16343056D02*
X10652703Y-16333532D01*
M02*
