%TF.GenerationSoftware,KiCad,Pcbnew,8.0.4*%
%TF.CreationDate,2024-08-18T20:31:07-07:00*%
%TF.ProjectId,ns32k,6e733332-6b2e-46b6-9963-61645f706362,5*%
%TF.SameCoordinates,Original*%
%TF.FileFunction,Drillmap*%
%TF.FilePolarity,Positive*%
%FSLAX45Y45*%
G04 Gerber Fmt 4.5, Leading zero omitted, Abs format (unit mm)*
G04 Created by KiCad (PCBNEW 8.0.4) date 2024-08-18 20:31:07*
%MOMM*%
%LPD*%
G01*
G04 APERTURE LIST*
%ADD10C,0.100000*%
%ADD11C,0.200000*%
%ADD12C,0.325000*%
G04 APERTURE END LIST*
D10*
X5882640Y-5021580D02*
X20436840Y-5021580D01*
X20436840Y-13977620D01*
X5882640Y-13977620D01*
X5882640Y-5021580D01*
D11*
D10*
X19831420Y-9071420D02*
X19896420Y-9136420D01*
X19896420Y-9071420D02*
X19831420Y-9136420D01*
X19831420Y-9649420D02*
X19896420Y-9714420D01*
X19896420Y-9649420D02*
X19831420Y-9714420D01*
D12*
X19613360Y-5534660D02*
G75*
G02*
X19288360Y-5534660I-162500J0D01*
G01*
X19288360Y-5534660D02*
G75*
G02*
X19613360Y-5534660I162500J0D01*
G01*
X19613360Y-6677660D02*
G75*
G02*
X19288360Y-6677660I-162500J0D01*
G01*
X19288360Y-6677660D02*
G75*
G02*
X19613360Y-6677660I162500J0D01*
G01*
D11*
X6138417Y-14294104D02*
X6138417Y-14094104D01*
X6138417Y-14094104D02*
X6186036Y-14094104D01*
X6186036Y-14094104D02*
X6214607Y-14103628D01*
X6214607Y-14103628D02*
X6233655Y-14122675D01*
X6233655Y-14122675D02*
X6243179Y-14141723D01*
X6243179Y-14141723D02*
X6252702Y-14179818D01*
X6252702Y-14179818D02*
X6252702Y-14208389D01*
X6252702Y-14208389D02*
X6243179Y-14246485D01*
X6243179Y-14246485D02*
X6233655Y-14265532D01*
X6233655Y-14265532D02*
X6214607Y-14284580D01*
X6214607Y-14284580D02*
X6186036Y-14294104D01*
X6186036Y-14294104D02*
X6138417Y-14294104D01*
X6338417Y-14294104D02*
X6338417Y-14160770D01*
X6338417Y-14198866D02*
X6347941Y-14179818D01*
X6347941Y-14179818D02*
X6357464Y-14170294D01*
X6357464Y-14170294D02*
X6376512Y-14160770D01*
X6376512Y-14160770D02*
X6395560Y-14160770D01*
X6462226Y-14294104D02*
X6462226Y-14160770D01*
X6462226Y-14094104D02*
X6452702Y-14103628D01*
X6452702Y-14103628D02*
X6462226Y-14113151D01*
X6462226Y-14113151D02*
X6471750Y-14103628D01*
X6471750Y-14103628D02*
X6462226Y-14094104D01*
X6462226Y-14094104D02*
X6462226Y-14113151D01*
X6586036Y-14294104D02*
X6566988Y-14284580D01*
X6566988Y-14284580D02*
X6557464Y-14265532D01*
X6557464Y-14265532D02*
X6557464Y-14094104D01*
X6690798Y-14294104D02*
X6671750Y-14284580D01*
X6671750Y-14284580D02*
X6662226Y-14265532D01*
X6662226Y-14265532D02*
X6662226Y-14094104D01*
X6919369Y-14294104D02*
X6919369Y-14094104D01*
X6919369Y-14094104D02*
X6986036Y-14236961D01*
X6986036Y-14236961D02*
X7052702Y-14094104D01*
X7052702Y-14094104D02*
X7052702Y-14294104D01*
X7233655Y-14294104D02*
X7233655Y-14189342D01*
X7233655Y-14189342D02*
X7224131Y-14170294D01*
X7224131Y-14170294D02*
X7205083Y-14160770D01*
X7205083Y-14160770D02*
X7166988Y-14160770D01*
X7166988Y-14160770D02*
X7147941Y-14170294D01*
X7233655Y-14284580D02*
X7214607Y-14294104D01*
X7214607Y-14294104D02*
X7166988Y-14294104D01*
X7166988Y-14294104D02*
X7147941Y-14284580D01*
X7147941Y-14284580D02*
X7138417Y-14265532D01*
X7138417Y-14265532D02*
X7138417Y-14246485D01*
X7138417Y-14246485D02*
X7147941Y-14227437D01*
X7147941Y-14227437D02*
X7166988Y-14217913D01*
X7166988Y-14217913D02*
X7214607Y-14217913D01*
X7214607Y-14217913D02*
X7233655Y-14208389D01*
X7328893Y-14160770D02*
X7328893Y-14360770D01*
X7328893Y-14170294D02*
X7347941Y-14160770D01*
X7347941Y-14160770D02*
X7386036Y-14160770D01*
X7386036Y-14160770D02*
X7405083Y-14170294D01*
X7405083Y-14170294D02*
X7414607Y-14179818D01*
X7414607Y-14179818D02*
X7424131Y-14198866D01*
X7424131Y-14198866D02*
X7424131Y-14256008D01*
X7424131Y-14256008D02*
X7414607Y-14275056D01*
X7414607Y-14275056D02*
X7405083Y-14284580D01*
X7405083Y-14284580D02*
X7386036Y-14294104D01*
X7386036Y-14294104D02*
X7347941Y-14294104D01*
X7347941Y-14294104D02*
X7328893Y-14284580D01*
X7509845Y-14275056D02*
X7519369Y-14284580D01*
X7519369Y-14284580D02*
X7509845Y-14294104D01*
X7509845Y-14294104D02*
X7500322Y-14284580D01*
X7500322Y-14284580D02*
X7509845Y-14275056D01*
X7509845Y-14275056D02*
X7509845Y-14294104D01*
X7509845Y-14170294D02*
X7519369Y-14179818D01*
X7519369Y-14179818D02*
X7509845Y-14189342D01*
X7509845Y-14189342D02*
X7500322Y-14179818D01*
X7500322Y-14179818D02*
X7509845Y-14170294D01*
X7509845Y-14170294D02*
X7509845Y-14189342D01*
D10*
X5812640Y-14590120D02*
X5877640Y-14655120D01*
X5877640Y-14590120D02*
X5812640Y-14655120D01*
D11*
X6176512Y-14514104D02*
X6195560Y-14514104D01*
X6195560Y-14514104D02*
X6214607Y-14523628D01*
X6214607Y-14523628D02*
X6224131Y-14533151D01*
X6224131Y-14533151D02*
X6233655Y-14552199D01*
X6233655Y-14552199D02*
X6243179Y-14590294D01*
X6243179Y-14590294D02*
X6243179Y-14637913D01*
X6243179Y-14637913D02*
X6233655Y-14676008D01*
X6233655Y-14676008D02*
X6224131Y-14695056D01*
X6224131Y-14695056D02*
X6214607Y-14704580D01*
X6214607Y-14704580D02*
X6195560Y-14714104D01*
X6195560Y-14714104D02*
X6176512Y-14714104D01*
X6176512Y-14714104D02*
X6157464Y-14704580D01*
X6157464Y-14704580D02*
X6147941Y-14695056D01*
X6147941Y-14695056D02*
X6138417Y-14676008D01*
X6138417Y-14676008D02*
X6128893Y-14637913D01*
X6128893Y-14637913D02*
X6128893Y-14590294D01*
X6128893Y-14590294D02*
X6138417Y-14552199D01*
X6138417Y-14552199D02*
X6147941Y-14533151D01*
X6147941Y-14533151D02*
X6157464Y-14523628D01*
X6157464Y-14523628D02*
X6176512Y-14514104D01*
X6328893Y-14695056D02*
X6338417Y-14704580D01*
X6338417Y-14704580D02*
X6328893Y-14714104D01*
X6328893Y-14714104D02*
X6319369Y-14704580D01*
X6319369Y-14704580D02*
X6328893Y-14695056D01*
X6328893Y-14695056D02*
X6328893Y-14714104D01*
X6509845Y-14514104D02*
X6471750Y-14514104D01*
X6471750Y-14514104D02*
X6452702Y-14523628D01*
X6452702Y-14523628D02*
X6443179Y-14533151D01*
X6443179Y-14533151D02*
X6424131Y-14561723D01*
X6424131Y-14561723D02*
X6414607Y-14599818D01*
X6414607Y-14599818D02*
X6414607Y-14676008D01*
X6414607Y-14676008D02*
X6424131Y-14695056D01*
X6424131Y-14695056D02*
X6433655Y-14704580D01*
X6433655Y-14704580D02*
X6452702Y-14714104D01*
X6452702Y-14714104D02*
X6490798Y-14714104D01*
X6490798Y-14714104D02*
X6509845Y-14704580D01*
X6509845Y-14704580D02*
X6519369Y-14695056D01*
X6519369Y-14695056D02*
X6528893Y-14676008D01*
X6528893Y-14676008D02*
X6528893Y-14628389D01*
X6528893Y-14628389D02*
X6519369Y-14609342D01*
X6519369Y-14609342D02*
X6509845Y-14599818D01*
X6509845Y-14599818D02*
X6490798Y-14590294D01*
X6490798Y-14590294D02*
X6452702Y-14590294D01*
X6452702Y-14590294D02*
X6433655Y-14599818D01*
X6433655Y-14599818D02*
X6424131Y-14609342D01*
X6424131Y-14609342D02*
X6414607Y-14628389D01*
X6709845Y-14514104D02*
X6614607Y-14514104D01*
X6614607Y-14514104D02*
X6605083Y-14609342D01*
X6605083Y-14609342D02*
X6614607Y-14599818D01*
X6614607Y-14599818D02*
X6633655Y-14590294D01*
X6633655Y-14590294D02*
X6681274Y-14590294D01*
X6681274Y-14590294D02*
X6700322Y-14599818D01*
X6700322Y-14599818D02*
X6709845Y-14609342D01*
X6709845Y-14609342D02*
X6719369Y-14628389D01*
X6719369Y-14628389D02*
X6719369Y-14676008D01*
X6719369Y-14676008D02*
X6709845Y-14695056D01*
X6709845Y-14695056D02*
X6700322Y-14704580D01*
X6700322Y-14704580D02*
X6681274Y-14714104D01*
X6681274Y-14714104D02*
X6633655Y-14714104D01*
X6633655Y-14714104D02*
X6614607Y-14704580D01*
X6614607Y-14704580D02*
X6605083Y-14695056D01*
X6843179Y-14514104D02*
X6862226Y-14514104D01*
X6862226Y-14514104D02*
X6881274Y-14523628D01*
X6881274Y-14523628D02*
X6890798Y-14533151D01*
X6890798Y-14533151D02*
X6900322Y-14552199D01*
X6900322Y-14552199D02*
X6909845Y-14590294D01*
X6909845Y-14590294D02*
X6909845Y-14637913D01*
X6909845Y-14637913D02*
X6900322Y-14676008D01*
X6900322Y-14676008D02*
X6890798Y-14695056D01*
X6890798Y-14695056D02*
X6881274Y-14704580D01*
X6881274Y-14704580D02*
X6862226Y-14714104D01*
X6862226Y-14714104D02*
X6843179Y-14714104D01*
X6843179Y-14714104D02*
X6824131Y-14704580D01*
X6824131Y-14704580D02*
X6814607Y-14695056D01*
X6814607Y-14695056D02*
X6805083Y-14676008D01*
X6805083Y-14676008D02*
X6795560Y-14637913D01*
X6795560Y-14637913D02*
X6795560Y-14590294D01*
X6795560Y-14590294D02*
X6805083Y-14552199D01*
X6805083Y-14552199D02*
X6814607Y-14533151D01*
X6814607Y-14533151D02*
X6824131Y-14523628D01*
X6824131Y-14523628D02*
X6843179Y-14514104D01*
X6995560Y-14714104D02*
X6995560Y-14580770D01*
X6995560Y-14599818D02*
X7005083Y-14590294D01*
X7005083Y-14590294D02*
X7024131Y-14580770D01*
X7024131Y-14580770D02*
X7052703Y-14580770D01*
X7052703Y-14580770D02*
X7071750Y-14590294D01*
X7071750Y-14590294D02*
X7081274Y-14609342D01*
X7081274Y-14609342D02*
X7081274Y-14714104D01*
X7081274Y-14609342D02*
X7090798Y-14590294D01*
X7090798Y-14590294D02*
X7109845Y-14580770D01*
X7109845Y-14580770D02*
X7138417Y-14580770D01*
X7138417Y-14580770D02*
X7157464Y-14590294D01*
X7157464Y-14590294D02*
X7166988Y-14609342D01*
X7166988Y-14609342D02*
X7166988Y-14714104D01*
X7262226Y-14714104D02*
X7262226Y-14580770D01*
X7262226Y-14599818D02*
X7271750Y-14590294D01*
X7271750Y-14590294D02*
X7290798Y-14580770D01*
X7290798Y-14580770D02*
X7319369Y-14580770D01*
X7319369Y-14580770D02*
X7338417Y-14590294D01*
X7338417Y-14590294D02*
X7347941Y-14609342D01*
X7347941Y-14609342D02*
X7347941Y-14714104D01*
X7347941Y-14609342D02*
X7357464Y-14590294D01*
X7357464Y-14590294D02*
X7376512Y-14580770D01*
X7376512Y-14580770D02*
X7405083Y-14580770D01*
X7405083Y-14580770D02*
X7424131Y-14590294D01*
X7424131Y-14590294D02*
X7433655Y-14609342D01*
X7433655Y-14609342D02*
X7433655Y-14714104D01*
X7824131Y-14504580D02*
X7652703Y-14761723D01*
X8081274Y-14514104D02*
X8100322Y-14514104D01*
X8100322Y-14514104D02*
X8119369Y-14523628D01*
X8119369Y-14523628D02*
X8128893Y-14533151D01*
X8128893Y-14533151D02*
X8138417Y-14552199D01*
X8138417Y-14552199D02*
X8147941Y-14590294D01*
X8147941Y-14590294D02*
X8147941Y-14637913D01*
X8147941Y-14637913D02*
X8138417Y-14676008D01*
X8138417Y-14676008D02*
X8128893Y-14695056D01*
X8128893Y-14695056D02*
X8119369Y-14704580D01*
X8119369Y-14704580D02*
X8100322Y-14714104D01*
X8100322Y-14714104D02*
X8081274Y-14714104D01*
X8081274Y-14714104D02*
X8062226Y-14704580D01*
X8062226Y-14704580D02*
X8052703Y-14695056D01*
X8052703Y-14695056D02*
X8043179Y-14676008D01*
X8043179Y-14676008D02*
X8033655Y-14637913D01*
X8033655Y-14637913D02*
X8033655Y-14590294D01*
X8033655Y-14590294D02*
X8043179Y-14552199D01*
X8043179Y-14552199D02*
X8052703Y-14533151D01*
X8052703Y-14533151D02*
X8062226Y-14523628D01*
X8062226Y-14523628D02*
X8081274Y-14514104D01*
X8233655Y-14695056D02*
X8243179Y-14704580D01*
X8243179Y-14704580D02*
X8233655Y-14714104D01*
X8233655Y-14714104D02*
X8224131Y-14704580D01*
X8224131Y-14704580D02*
X8233655Y-14695056D01*
X8233655Y-14695056D02*
X8233655Y-14714104D01*
X8366988Y-14514104D02*
X8386036Y-14514104D01*
X8386036Y-14514104D02*
X8405084Y-14523628D01*
X8405084Y-14523628D02*
X8414608Y-14533151D01*
X8414608Y-14533151D02*
X8424131Y-14552199D01*
X8424131Y-14552199D02*
X8433655Y-14590294D01*
X8433655Y-14590294D02*
X8433655Y-14637913D01*
X8433655Y-14637913D02*
X8424131Y-14676008D01*
X8424131Y-14676008D02*
X8414608Y-14695056D01*
X8414608Y-14695056D02*
X8405084Y-14704580D01*
X8405084Y-14704580D02*
X8386036Y-14714104D01*
X8386036Y-14714104D02*
X8366988Y-14714104D01*
X8366988Y-14714104D02*
X8347941Y-14704580D01*
X8347941Y-14704580D02*
X8338417Y-14695056D01*
X8338417Y-14695056D02*
X8328893Y-14676008D01*
X8328893Y-14676008D02*
X8319369Y-14637913D01*
X8319369Y-14637913D02*
X8319369Y-14590294D01*
X8319369Y-14590294D02*
X8328893Y-14552199D01*
X8328893Y-14552199D02*
X8338417Y-14533151D01*
X8338417Y-14533151D02*
X8347941Y-14523628D01*
X8347941Y-14523628D02*
X8366988Y-14514104D01*
X8509846Y-14533151D02*
X8519369Y-14523628D01*
X8519369Y-14523628D02*
X8538417Y-14514104D01*
X8538417Y-14514104D02*
X8586036Y-14514104D01*
X8586036Y-14514104D02*
X8605084Y-14523628D01*
X8605084Y-14523628D02*
X8614608Y-14533151D01*
X8614608Y-14533151D02*
X8624131Y-14552199D01*
X8624131Y-14552199D02*
X8624131Y-14571247D01*
X8624131Y-14571247D02*
X8614608Y-14599818D01*
X8614608Y-14599818D02*
X8500322Y-14714104D01*
X8500322Y-14714104D02*
X8624131Y-14714104D01*
X8805084Y-14514104D02*
X8709846Y-14514104D01*
X8709846Y-14514104D02*
X8700322Y-14609342D01*
X8700322Y-14609342D02*
X8709846Y-14599818D01*
X8709846Y-14599818D02*
X8728893Y-14590294D01*
X8728893Y-14590294D02*
X8776512Y-14590294D01*
X8776512Y-14590294D02*
X8795560Y-14599818D01*
X8795560Y-14599818D02*
X8805084Y-14609342D01*
X8805084Y-14609342D02*
X8814608Y-14628389D01*
X8814608Y-14628389D02*
X8814608Y-14676008D01*
X8814608Y-14676008D02*
X8805084Y-14695056D01*
X8805084Y-14695056D02*
X8795560Y-14704580D01*
X8795560Y-14704580D02*
X8776512Y-14714104D01*
X8776512Y-14714104D02*
X8728893Y-14714104D01*
X8728893Y-14714104D02*
X8709846Y-14704580D01*
X8709846Y-14704580D02*
X8700322Y-14695056D01*
X8986036Y-14514104D02*
X8947941Y-14514104D01*
X8947941Y-14514104D02*
X8928893Y-14523628D01*
X8928893Y-14523628D02*
X8919369Y-14533151D01*
X8919369Y-14533151D02*
X8900322Y-14561723D01*
X8900322Y-14561723D02*
X8890798Y-14599818D01*
X8890798Y-14599818D02*
X8890798Y-14676008D01*
X8890798Y-14676008D02*
X8900322Y-14695056D01*
X8900322Y-14695056D02*
X8909846Y-14704580D01*
X8909846Y-14704580D02*
X8928893Y-14714104D01*
X8928893Y-14714104D02*
X8966989Y-14714104D01*
X8966989Y-14714104D02*
X8986036Y-14704580D01*
X8986036Y-14704580D02*
X8995560Y-14695056D01*
X8995560Y-14695056D02*
X9005084Y-14676008D01*
X9005084Y-14676008D02*
X9005084Y-14628389D01*
X9005084Y-14628389D02*
X8995560Y-14609342D01*
X8995560Y-14609342D02*
X8986036Y-14599818D01*
X8986036Y-14599818D02*
X8966989Y-14590294D01*
X8966989Y-14590294D02*
X8928893Y-14590294D01*
X8928893Y-14590294D02*
X8909846Y-14599818D01*
X8909846Y-14599818D02*
X8900322Y-14609342D01*
X8900322Y-14609342D02*
X8890798Y-14628389D01*
X9081274Y-14514104D02*
X9081274Y-14552199D01*
X9157465Y-14514104D02*
X9157465Y-14552199D01*
X9452703Y-14790294D02*
X9443179Y-14780770D01*
X9443179Y-14780770D02*
X9424131Y-14752199D01*
X9424131Y-14752199D02*
X9414608Y-14733151D01*
X9414608Y-14733151D02*
X9405084Y-14704580D01*
X9405084Y-14704580D02*
X9395560Y-14656961D01*
X9395560Y-14656961D02*
X9395560Y-14618866D01*
X9395560Y-14618866D02*
X9405084Y-14571247D01*
X9405084Y-14571247D02*
X9414608Y-14542675D01*
X9414608Y-14542675D02*
X9424131Y-14523628D01*
X9424131Y-14523628D02*
X9443179Y-14495056D01*
X9443179Y-14495056D02*
X9452703Y-14485532D01*
X9519370Y-14533151D02*
X9528893Y-14523628D01*
X9528893Y-14523628D02*
X9547941Y-14514104D01*
X9547941Y-14514104D02*
X9595560Y-14514104D01*
X9595560Y-14514104D02*
X9614608Y-14523628D01*
X9614608Y-14523628D02*
X9624131Y-14533151D01*
X9624131Y-14533151D02*
X9633655Y-14552199D01*
X9633655Y-14552199D02*
X9633655Y-14571247D01*
X9633655Y-14571247D02*
X9624131Y-14599818D01*
X9624131Y-14599818D02*
X9509846Y-14714104D01*
X9509846Y-14714104D02*
X9633655Y-14714104D01*
X9871751Y-14714104D02*
X9871751Y-14514104D01*
X9957465Y-14714104D02*
X9957465Y-14609342D01*
X9957465Y-14609342D02*
X9947941Y-14590294D01*
X9947941Y-14590294D02*
X9928893Y-14580770D01*
X9928893Y-14580770D02*
X9900322Y-14580770D01*
X9900322Y-14580770D02*
X9881274Y-14590294D01*
X9881274Y-14590294D02*
X9871751Y-14599818D01*
X10081274Y-14714104D02*
X10062227Y-14704580D01*
X10062227Y-14704580D02*
X10052703Y-14695056D01*
X10052703Y-14695056D02*
X10043179Y-14676008D01*
X10043179Y-14676008D02*
X10043179Y-14618866D01*
X10043179Y-14618866D02*
X10052703Y-14599818D01*
X10052703Y-14599818D02*
X10062227Y-14590294D01*
X10062227Y-14590294D02*
X10081274Y-14580770D01*
X10081274Y-14580770D02*
X10109846Y-14580770D01*
X10109846Y-14580770D02*
X10128893Y-14590294D01*
X10128893Y-14590294D02*
X10138417Y-14599818D01*
X10138417Y-14599818D02*
X10147941Y-14618866D01*
X10147941Y-14618866D02*
X10147941Y-14676008D01*
X10147941Y-14676008D02*
X10138417Y-14695056D01*
X10138417Y-14695056D02*
X10128893Y-14704580D01*
X10128893Y-14704580D02*
X10109846Y-14714104D01*
X10109846Y-14714104D02*
X10081274Y-14714104D01*
X10262227Y-14714104D02*
X10243179Y-14704580D01*
X10243179Y-14704580D02*
X10233655Y-14685532D01*
X10233655Y-14685532D02*
X10233655Y-14514104D01*
X10414608Y-14704580D02*
X10395560Y-14714104D01*
X10395560Y-14714104D02*
X10357465Y-14714104D01*
X10357465Y-14714104D02*
X10338417Y-14704580D01*
X10338417Y-14704580D02*
X10328893Y-14685532D01*
X10328893Y-14685532D02*
X10328893Y-14609342D01*
X10328893Y-14609342D02*
X10338417Y-14590294D01*
X10338417Y-14590294D02*
X10357465Y-14580770D01*
X10357465Y-14580770D02*
X10395560Y-14580770D01*
X10395560Y-14580770D02*
X10414608Y-14590294D01*
X10414608Y-14590294D02*
X10424132Y-14609342D01*
X10424132Y-14609342D02*
X10424132Y-14628389D01*
X10424132Y-14628389D02*
X10328893Y-14647437D01*
X10500322Y-14704580D02*
X10519370Y-14714104D01*
X10519370Y-14714104D02*
X10557465Y-14714104D01*
X10557465Y-14714104D02*
X10576513Y-14704580D01*
X10576513Y-14704580D02*
X10586036Y-14685532D01*
X10586036Y-14685532D02*
X10586036Y-14676008D01*
X10586036Y-14676008D02*
X10576513Y-14656961D01*
X10576513Y-14656961D02*
X10557465Y-14647437D01*
X10557465Y-14647437D02*
X10528893Y-14647437D01*
X10528893Y-14647437D02*
X10509846Y-14637913D01*
X10509846Y-14637913D02*
X10500322Y-14618866D01*
X10500322Y-14618866D02*
X10500322Y-14609342D01*
X10500322Y-14609342D02*
X10509846Y-14590294D01*
X10509846Y-14590294D02*
X10528893Y-14580770D01*
X10528893Y-14580770D02*
X10557465Y-14580770D01*
X10557465Y-14580770D02*
X10576513Y-14590294D01*
X10652703Y-14790294D02*
X10662227Y-14780770D01*
X10662227Y-14780770D02*
X10681274Y-14752199D01*
X10681274Y-14752199D02*
X10690798Y-14733151D01*
X10690798Y-14733151D02*
X10700322Y-14704580D01*
X10700322Y-14704580D02*
X10709846Y-14656961D01*
X10709846Y-14656961D02*
X10709846Y-14618866D01*
X10709846Y-14618866D02*
X10700322Y-14571247D01*
X10700322Y-14571247D02*
X10690798Y-14542675D01*
X10690798Y-14542675D02*
X10681274Y-14523628D01*
X10681274Y-14523628D02*
X10662227Y-14495056D01*
X10662227Y-14495056D02*
X10652703Y-14485532D01*
X11014608Y-14790294D02*
X11005084Y-14780770D01*
X11005084Y-14780770D02*
X10986036Y-14752199D01*
X10986036Y-14752199D02*
X10976513Y-14733151D01*
X10976513Y-14733151D02*
X10966989Y-14704580D01*
X10966989Y-14704580D02*
X10957465Y-14656961D01*
X10957465Y-14656961D02*
X10957465Y-14618866D01*
X10957465Y-14618866D02*
X10966989Y-14571247D01*
X10966989Y-14571247D02*
X10976513Y-14542675D01*
X10976513Y-14542675D02*
X10986036Y-14523628D01*
X10986036Y-14523628D02*
X11005084Y-14495056D01*
X11005084Y-14495056D02*
X11014608Y-14485532D01*
X11090798Y-14580770D02*
X11090798Y-14714104D01*
X11090798Y-14599818D02*
X11100322Y-14590294D01*
X11100322Y-14590294D02*
X11119370Y-14580770D01*
X11119370Y-14580770D02*
X11147941Y-14580770D01*
X11147941Y-14580770D02*
X11166989Y-14590294D01*
X11166989Y-14590294D02*
X11176513Y-14609342D01*
X11176513Y-14609342D02*
X11176513Y-14714104D01*
X11300322Y-14714104D02*
X11281274Y-14704580D01*
X11281274Y-14704580D02*
X11271751Y-14695056D01*
X11271751Y-14695056D02*
X11262227Y-14676008D01*
X11262227Y-14676008D02*
X11262227Y-14618866D01*
X11262227Y-14618866D02*
X11271751Y-14599818D01*
X11271751Y-14599818D02*
X11281274Y-14590294D01*
X11281274Y-14590294D02*
X11300322Y-14580770D01*
X11300322Y-14580770D02*
X11328893Y-14580770D01*
X11328893Y-14580770D02*
X11347941Y-14590294D01*
X11347941Y-14590294D02*
X11357465Y-14599818D01*
X11357465Y-14599818D02*
X11366989Y-14618866D01*
X11366989Y-14618866D02*
X11366989Y-14676008D01*
X11366989Y-14676008D02*
X11357465Y-14695056D01*
X11357465Y-14695056D02*
X11347941Y-14704580D01*
X11347941Y-14704580D02*
X11328893Y-14714104D01*
X11328893Y-14714104D02*
X11300322Y-14714104D01*
X11424132Y-14580770D02*
X11500322Y-14580770D01*
X11452703Y-14514104D02*
X11452703Y-14685532D01*
X11452703Y-14685532D02*
X11462227Y-14704580D01*
X11462227Y-14704580D02*
X11481274Y-14714104D01*
X11481274Y-14714104D02*
X11500322Y-14714104D01*
X11719370Y-14580770D02*
X11719370Y-14780770D01*
X11719370Y-14590294D02*
X11738417Y-14580770D01*
X11738417Y-14580770D02*
X11776513Y-14580770D01*
X11776513Y-14580770D02*
X11795560Y-14590294D01*
X11795560Y-14590294D02*
X11805084Y-14599818D01*
X11805084Y-14599818D02*
X11814608Y-14618866D01*
X11814608Y-14618866D02*
X11814608Y-14676008D01*
X11814608Y-14676008D02*
X11805084Y-14695056D01*
X11805084Y-14695056D02*
X11795560Y-14704580D01*
X11795560Y-14704580D02*
X11776513Y-14714104D01*
X11776513Y-14714104D02*
X11738417Y-14714104D01*
X11738417Y-14714104D02*
X11719370Y-14704580D01*
X11928893Y-14714104D02*
X11909846Y-14704580D01*
X11909846Y-14704580D02*
X11900322Y-14685532D01*
X11900322Y-14685532D02*
X11900322Y-14514104D01*
X12090798Y-14714104D02*
X12090798Y-14609342D01*
X12090798Y-14609342D02*
X12081274Y-14590294D01*
X12081274Y-14590294D02*
X12062227Y-14580770D01*
X12062227Y-14580770D02*
X12024132Y-14580770D01*
X12024132Y-14580770D02*
X12005084Y-14590294D01*
X12090798Y-14704580D02*
X12071751Y-14714104D01*
X12071751Y-14714104D02*
X12024132Y-14714104D01*
X12024132Y-14714104D02*
X12005084Y-14704580D01*
X12005084Y-14704580D02*
X11995560Y-14685532D01*
X11995560Y-14685532D02*
X11995560Y-14666485D01*
X11995560Y-14666485D02*
X12005084Y-14647437D01*
X12005084Y-14647437D02*
X12024132Y-14637913D01*
X12024132Y-14637913D02*
X12071751Y-14637913D01*
X12071751Y-14637913D02*
X12090798Y-14628389D01*
X12157465Y-14580770D02*
X12233655Y-14580770D01*
X12186036Y-14514104D02*
X12186036Y-14685532D01*
X12186036Y-14685532D02*
X12195560Y-14704580D01*
X12195560Y-14704580D02*
X12214608Y-14714104D01*
X12214608Y-14714104D02*
X12233655Y-14714104D01*
X12376513Y-14704580D02*
X12357465Y-14714104D01*
X12357465Y-14714104D02*
X12319370Y-14714104D01*
X12319370Y-14714104D02*
X12300322Y-14704580D01*
X12300322Y-14704580D02*
X12290798Y-14685532D01*
X12290798Y-14685532D02*
X12290798Y-14609342D01*
X12290798Y-14609342D02*
X12300322Y-14590294D01*
X12300322Y-14590294D02*
X12319370Y-14580770D01*
X12319370Y-14580770D02*
X12357465Y-14580770D01*
X12357465Y-14580770D02*
X12376513Y-14590294D01*
X12376513Y-14590294D02*
X12386036Y-14609342D01*
X12386036Y-14609342D02*
X12386036Y-14628389D01*
X12386036Y-14628389D02*
X12290798Y-14647437D01*
X12557465Y-14714104D02*
X12557465Y-14514104D01*
X12557465Y-14704580D02*
X12538417Y-14714104D01*
X12538417Y-14714104D02*
X12500322Y-14714104D01*
X12500322Y-14714104D02*
X12481274Y-14704580D01*
X12481274Y-14704580D02*
X12471751Y-14695056D01*
X12471751Y-14695056D02*
X12462227Y-14676008D01*
X12462227Y-14676008D02*
X12462227Y-14618866D01*
X12462227Y-14618866D02*
X12471751Y-14599818D01*
X12471751Y-14599818D02*
X12481274Y-14590294D01*
X12481274Y-14590294D02*
X12500322Y-14580770D01*
X12500322Y-14580770D02*
X12538417Y-14580770D01*
X12538417Y-14580770D02*
X12557465Y-14590294D01*
X12633655Y-14790294D02*
X12643179Y-14780770D01*
X12643179Y-14780770D02*
X12662227Y-14752199D01*
X12662227Y-14752199D02*
X12671751Y-14733151D01*
X12671751Y-14733151D02*
X12681274Y-14704580D01*
X12681274Y-14704580D02*
X12690798Y-14656961D01*
X12690798Y-14656961D02*
X12690798Y-14618866D01*
X12690798Y-14618866D02*
X12681274Y-14571247D01*
X12681274Y-14571247D02*
X12671751Y-14542675D01*
X12671751Y-14542675D02*
X12662227Y-14523628D01*
X12662227Y-14523628D02*
X12643179Y-14495056D01*
X12643179Y-14495056D02*
X12633655Y-14485532D01*
X5877640Y-14886620D02*
G75*
G02*
X5677640Y-14886620I-100000J0D01*
G01*
X5677640Y-14886620D02*
G75*
G02*
X5877640Y-14886620I100000J0D01*
G01*
X6119369Y-14778104D02*
X6243179Y-14778104D01*
X6243179Y-14778104D02*
X6176512Y-14854294D01*
X6176512Y-14854294D02*
X6205083Y-14854294D01*
X6205083Y-14854294D02*
X6224131Y-14863818D01*
X6224131Y-14863818D02*
X6233655Y-14873342D01*
X6233655Y-14873342D02*
X6243179Y-14892389D01*
X6243179Y-14892389D02*
X6243179Y-14940008D01*
X6243179Y-14940008D02*
X6233655Y-14959056D01*
X6233655Y-14959056D02*
X6224131Y-14968580D01*
X6224131Y-14968580D02*
X6205083Y-14978104D01*
X6205083Y-14978104D02*
X6147941Y-14978104D01*
X6147941Y-14978104D02*
X6128893Y-14968580D01*
X6128893Y-14968580D02*
X6119369Y-14959056D01*
X6328893Y-14959056D02*
X6338417Y-14968580D01*
X6338417Y-14968580D02*
X6328893Y-14978104D01*
X6328893Y-14978104D02*
X6319369Y-14968580D01*
X6319369Y-14968580D02*
X6328893Y-14959056D01*
X6328893Y-14959056D02*
X6328893Y-14978104D01*
X6414607Y-14797151D02*
X6424131Y-14787628D01*
X6424131Y-14787628D02*
X6443179Y-14778104D01*
X6443179Y-14778104D02*
X6490798Y-14778104D01*
X6490798Y-14778104D02*
X6509845Y-14787628D01*
X6509845Y-14787628D02*
X6519369Y-14797151D01*
X6519369Y-14797151D02*
X6528893Y-14816199D01*
X6528893Y-14816199D02*
X6528893Y-14835247D01*
X6528893Y-14835247D02*
X6519369Y-14863818D01*
X6519369Y-14863818D02*
X6405083Y-14978104D01*
X6405083Y-14978104D02*
X6528893Y-14978104D01*
X6709845Y-14778104D02*
X6614607Y-14778104D01*
X6614607Y-14778104D02*
X6605083Y-14873342D01*
X6605083Y-14873342D02*
X6614607Y-14863818D01*
X6614607Y-14863818D02*
X6633655Y-14854294D01*
X6633655Y-14854294D02*
X6681274Y-14854294D01*
X6681274Y-14854294D02*
X6700322Y-14863818D01*
X6700322Y-14863818D02*
X6709845Y-14873342D01*
X6709845Y-14873342D02*
X6719369Y-14892389D01*
X6719369Y-14892389D02*
X6719369Y-14940008D01*
X6719369Y-14940008D02*
X6709845Y-14959056D01*
X6709845Y-14959056D02*
X6700322Y-14968580D01*
X6700322Y-14968580D02*
X6681274Y-14978104D01*
X6681274Y-14978104D02*
X6633655Y-14978104D01*
X6633655Y-14978104D02*
X6614607Y-14968580D01*
X6614607Y-14968580D02*
X6605083Y-14959056D01*
X6843179Y-14778104D02*
X6862226Y-14778104D01*
X6862226Y-14778104D02*
X6881274Y-14787628D01*
X6881274Y-14787628D02*
X6890798Y-14797151D01*
X6890798Y-14797151D02*
X6900322Y-14816199D01*
X6900322Y-14816199D02*
X6909845Y-14854294D01*
X6909845Y-14854294D02*
X6909845Y-14901913D01*
X6909845Y-14901913D02*
X6900322Y-14940008D01*
X6900322Y-14940008D02*
X6890798Y-14959056D01*
X6890798Y-14959056D02*
X6881274Y-14968580D01*
X6881274Y-14968580D02*
X6862226Y-14978104D01*
X6862226Y-14978104D02*
X6843179Y-14978104D01*
X6843179Y-14978104D02*
X6824131Y-14968580D01*
X6824131Y-14968580D02*
X6814607Y-14959056D01*
X6814607Y-14959056D02*
X6805083Y-14940008D01*
X6805083Y-14940008D02*
X6795560Y-14901913D01*
X6795560Y-14901913D02*
X6795560Y-14854294D01*
X6795560Y-14854294D02*
X6805083Y-14816199D01*
X6805083Y-14816199D02*
X6814607Y-14797151D01*
X6814607Y-14797151D02*
X6824131Y-14787628D01*
X6824131Y-14787628D02*
X6843179Y-14778104D01*
X6995560Y-14978104D02*
X6995560Y-14844770D01*
X6995560Y-14863818D02*
X7005083Y-14854294D01*
X7005083Y-14854294D02*
X7024131Y-14844770D01*
X7024131Y-14844770D02*
X7052703Y-14844770D01*
X7052703Y-14844770D02*
X7071750Y-14854294D01*
X7071750Y-14854294D02*
X7081274Y-14873342D01*
X7081274Y-14873342D02*
X7081274Y-14978104D01*
X7081274Y-14873342D02*
X7090798Y-14854294D01*
X7090798Y-14854294D02*
X7109845Y-14844770D01*
X7109845Y-14844770D02*
X7138417Y-14844770D01*
X7138417Y-14844770D02*
X7157464Y-14854294D01*
X7157464Y-14854294D02*
X7166988Y-14873342D01*
X7166988Y-14873342D02*
X7166988Y-14978104D01*
X7262226Y-14978104D02*
X7262226Y-14844770D01*
X7262226Y-14863818D02*
X7271750Y-14854294D01*
X7271750Y-14854294D02*
X7290798Y-14844770D01*
X7290798Y-14844770D02*
X7319369Y-14844770D01*
X7319369Y-14844770D02*
X7338417Y-14854294D01*
X7338417Y-14854294D02*
X7347941Y-14873342D01*
X7347941Y-14873342D02*
X7347941Y-14978104D01*
X7347941Y-14873342D02*
X7357464Y-14854294D01*
X7357464Y-14854294D02*
X7376512Y-14844770D01*
X7376512Y-14844770D02*
X7405083Y-14844770D01*
X7405083Y-14844770D02*
X7424131Y-14854294D01*
X7424131Y-14854294D02*
X7433655Y-14873342D01*
X7433655Y-14873342D02*
X7433655Y-14978104D01*
X7824131Y-14768580D02*
X7652703Y-15025723D01*
X8081274Y-14778104D02*
X8100322Y-14778104D01*
X8100322Y-14778104D02*
X8119369Y-14787628D01*
X8119369Y-14787628D02*
X8128893Y-14797151D01*
X8128893Y-14797151D02*
X8138417Y-14816199D01*
X8138417Y-14816199D02*
X8147941Y-14854294D01*
X8147941Y-14854294D02*
X8147941Y-14901913D01*
X8147941Y-14901913D02*
X8138417Y-14940008D01*
X8138417Y-14940008D02*
X8128893Y-14959056D01*
X8128893Y-14959056D02*
X8119369Y-14968580D01*
X8119369Y-14968580D02*
X8100322Y-14978104D01*
X8100322Y-14978104D02*
X8081274Y-14978104D01*
X8081274Y-14978104D02*
X8062226Y-14968580D01*
X8062226Y-14968580D02*
X8052703Y-14959056D01*
X8052703Y-14959056D02*
X8043179Y-14940008D01*
X8043179Y-14940008D02*
X8033655Y-14901913D01*
X8033655Y-14901913D02*
X8033655Y-14854294D01*
X8033655Y-14854294D02*
X8043179Y-14816199D01*
X8043179Y-14816199D02*
X8052703Y-14797151D01*
X8052703Y-14797151D02*
X8062226Y-14787628D01*
X8062226Y-14787628D02*
X8081274Y-14778104D01*
X8233655Y-14959056D02*
X8243179Y-14968580D01*
X8243179Y-14968580D02*
X8233655Y-14978104D01*
X8233655Y-14978104D02*
X8224131Y-14968580D01*
X8224131Y-14968580D02*
X8233655Y-14959056D01*
X8233655Y-14959056D02*
X8233655Y-14978104D01*
X8433655Y-14978104D02*
X8319369Y-14978104D01*
X8376512Y-14978104D02*
X8376512Y-14778104D01*
X8376512Y-14778104D02*
X8357465Y-14806675D01*
X8357465Y-14806675D02*
X8338417Y-14825723D01*
X8338417Y-14825723D02*
X8319369Y-14835247D01*
X8509846Y-14797151D02*
X8519369Y-14787628D01*
X8519369Y-14787628D02*
X8538417Y-14778104D01*
X8538417Y-14778104D02*
X8586036Y-14778104D01*
X8586036Y-14778104D02*
X8605084Y-14787628D01*
X8605084Y-14787628D02*
X8614608Y-14797151D01*
X8614608Y-14797151D02*
X8624131Y-14816199D01*
X8624131Y-14816199D02*
X8624131Y-14835247D01*
X8624131Y-14835247D02*
X8614608Y-14863818D01*
X8614608Y-14863818D02*
X8500322Y-14978104D01*
X8500322Y-14978104D02*
X8624131Y-14978104D01*
X8738417Y-14863818D02*
X8719369Y-14854294D01*
X8719369Y-14854294D02*
X8709846Y-14844770D01*
X8709846Y-14844770D02*
X8700322Y-14825723D01*
X8700322Y-14825723D02*
X8700322Y-14816199D01*
X8700322Y-14816199D02*
X8709846Y-14797151D01*
X8709846Y-14797151D02*
X8719369Y-14787628D01*
X8719369Y-14787628D02*
X8738417Y-14778104D01*
X8738417Y-14778104D02*
X8776512Y-14778104D01*
X8776512Y-14778104D02*
X8795560Y-14787628D01*
X8795560Y-14787628D02*
X8805084Y-14797151D01*
X8805084Y-14797151D02*
X8814608Y-14816199D01*
X8814608Y-14816199D02*
X8814608Y-14825723D01*
X8814608Y-14825723D02*
X8805084Y-14844770D01*
X8805084Y-14844770D02*
X8795560Y-14854294D01*
X8795560Y-14854294D02*
X8776512Y-14863818D01*
X8776512Y-14863818D02*
X8738417Y-14863818D01*
X8738417Y-14863818D02*
X8719369Y-14873342D01*
X8719369Y-14873342D02*
X8709846Y-14882866D01*
X8709846Y-14882866D02*
X8700322Y-14901913D01*
X8700322Y-14901913D02*
X8700322Y-14940008D01*
X8700322Y-14940008D02*
X8709846Y-14959056D01*
X8709846Y-14959056D02*
X8719369Y-14968580D01*
X8719369Y-14968580D02*
X8738417Y-14978104D01*
X8738417Y-14978104D02*
X8776512Y-14978104D01*
X8776512Y-14978104D02*
X8795560Y-14968580D01*
X8795560Y-14968580D02*
X8805084Y-14959056D01*
X8805084Y-14959056D02*
X8814608Y-14940008D01*
X8814608Y-14940008D02*
X8814608Y-14901913D01*
X8814608Y-14901913D02*
X8805084Y-14882866D01*
X8805084Y-14882866D02*
X8795560Y-14873342D01*
X8795560Y-14873342D02*
X8776512Y-14863818D01*
X8938417Y-14778104D02*
X8957465Y-14778104D01*
X8957465Y-14778104D02*
X8976512Y-14787628D01*
X8976512Y-14787628D02*
X8986036Y-14797151D01*
X8986036Y-14797151D02*
X8995560Y-14816199D01*
X8995560Y-14816199D02*
X9005084Y-14854294D01*
X9005084Y-14854294D02*
X9005084Y-14901913D01*
X9005084Y-14901913D02*
X8995560Y-14940008D01*
X8995560Y-14940008D02*
X8986036Y-14959056D01*
X8986036Y-14959056D02*
X8976512Y-14968580D01*
X8976512Y-14968580D02*
X8957465Y-14978104D01*
X8957465Y-14978104D02*
X8938417Y-14978104D01*
X8938417Y-14978104D02*
X8919369Y-14968580D01*
X8919369Y-14968580D02*
X8909846Y-14959056D01*
X8909846Y-14959056D02*
X8900322Y-14940008D01*
X8900322Y-14940008D02*
X8890798Y-14901913D01*
X8890798Y-14901913D02*
X8890798Y-14854294D01*
X8890798Y-14854294D02*
X8900322Y-14816199D01*
X8900322Y-14816199D02*
X8909846Y-14797151D01*
X8909846Y-14797151D02*
X8919369Y-14787628D01*
X8919369Y-14787628D02*
X8938417Y-14778104D01*
X9081274Y-14778104D02*
X9081274Y-14816199D01*
X9157465Y-14778104D02*
X9157465Y-14816199D01*
X9452703Y-15054294D02*
X9443179Y-15044770D01*
X9443179Y-15044770D02*
X9424131Y-15016199D01*
X9424131Y-15016199D02*
X9414608Y-14997151D01*
X9414608Y-14997151D02*
X9405084Y-14968580D01*
X9405084Y-14968580D02*
X9395560Y-14920961D01*
X9395560Y-14920961D02*
X9395560Y-14882866D01*
X9395560Y-14882866D02*
X9405084Y-14835247D01*
X9405084Y-14835247D02*
X9414608Y-14806675D01*
X9414608Y-14806675D02*
X9424131Y-14787628D01*
X9424131Y-14787628D02*
X9443179Y-14759056D01*
X9443179Y-14759056D02*
X9452703Y-14749532D01*
X9519370Y-14797151D02*
X9528893Y-14787628D01*
X9528893Y-14787628D02*
X9547941Y-14778104D01*
X9547941Y-14778104D02*
X9595560Y-14778104D01*
X9595560Y-14778104D02*
X9614608Y-14787628D01*
X9614608Y-14787628D02*
X9624131Y-14797151D01*
X9624131Y-14797151D02*
X9633655Y-14816199D01*
X9633655Y-14816199D02*
X9633655Y-14835247D01*
X9633655Y-14835247D02*
X9624131Y-14863818D01*
X9624131Y-14863818D02*
X9509846Y-14978104D01*
X9509846Y-14978104D02*
X9633655Y-14978104D01*
X9871751Y-14978104D02*
X9871751Y-14778104D01*
X9957465Y-14978104D02*
X9957465Y-14873342D01*
X9957465Y-14873342D02*
X9947941Y-14854294D01*
X9947941Y-14854294D02*
X9928893Y-14844770D01*
X9928893Y-14844770D02*
X9900322Y-14844770D01*
X9900322Y-14844770D02*
X9881274Y-14854294D01*
X9881274Y-14854294D02*
X9871751Y-14863818D01*
X10081274Y-14978104D02*
X10062227Y-14968580D01*
X10062227Y-14968580D02*
X10052703Y-14959056D01*
X10052703Y-14959056D02*
X10043179Y-14940008D01*
X10043179Y-14940008D02*
X10043179Y-14882866D01*
X10043179Y-14882866D02*
X10052703Y-14863818D01*
X10052703Y-14863818D02*
X10062227Y-14854294D01*
X10062227Y-14854294D02*
X10081274Y-14844770D01*
X10081274Y-14844770D02*
X10109846Y-14844770D01*
X10109846Y-14844770D02*
X10128893Y-14854294D01*
X10128893Y-14854294D02*
X10138417Y-14863818D01*
X10138417Y-14863818D02*
X10147941Y-14882866D01*
X10147941Y-14882866D02*
X10147941Y-14940008D01*
X10147941Y-14940008D02*
X10138417Y-14959056D01*
X10138417Y-14959056D02*
X10128893Y-14968580D01*
X10128893Y-14968580D02*
X10109846Y-14978104D01*
X10109846Y-14978104D02*
X10081274Y-14978104D01*
X10262227Y-14978104D02*
X10243179Y-14968580D01*
X10243179Y-14968580D02*
X10233655Y-14949532D01*
X10233655Y-14949532D02*
X10233655Y-14778104D01*
X10414608Y-14968580D02*
X10395560Y-14978104D01*
X10395560Y-14978104D02*
X10357465Y-14978104D01*
X10357465Y-14978104D02*
X10338417Y-14968580D01*
X10338417Y-14968580D02*
X10328893Y-14949532D01*
X10328893Y-14949532D02*
X10328893Y-14873342D01*
X10328893Y-14873342D02*
X10338417Y-14854294D01*
X10338417Y-14854294D02*
X10357465Y-14844770D01*
X10357465Y-14844770D02*
X10395560Y-14844770D01*
X10395560Y-14844770D02*
X10414608Y-14854294D01*
X10414608Y-14854294D02*
X10424132Y-14873342D01*
X10424132Y-14873342D02*
X10424132Y-14892389D01*
X10424132Y-14892389D02*
X10328893Y-14911437D01*
X10500322Y-14968580D02*
X10519370Y-14978104D01*
X10519370Y-14978104D02*
X10557465Y-14978104D01*
X10557465Y-14978104D02*
X10576513Y-14968580D01*
X10576513Y-14968580D02*
X10586036Y-14949532D01*
X10586036Y-14949532D02*
X10586036Y-14940008D01*
X10586036Y-14940008D02*
X10576513Y-14920961D01*
X10576513Y-14920961D02*
X10557465Y-14911437D01*
X10557465Y-14911437D02*
X10528893Y-14911437D01*
X10528893Y-14911437D02*
X10509846Y-14901913D01*
X10509846Y-14901913D02*
X10500322Y-14882866D01*
X10500322Y-14882866D02*
X10500322Y-14873342D01*
X10500322Y-14873342D02*
X10509846Y-14854294D01*
X10509846Y-14854294D02*
X10528893Y-14844770D01*
X10528893Y-14844770D02*
X10557465Y-14844770D01*
X10557465Y-14844770D02*
X10576513Y-14854294D01*
X10652703Y-15054294D02*
X10662227Y-15044770D01*
X10662227Y-15044770D02*
X10681274Y-15016199D01*
X10681274Y-15016199D02*
X10690798Y-14997151D01*
X10690798Y-14997151D02*
X10700322Y-14968580D01*
X10700322Y-14968580D02*
X10709846Y-14920961D01*
X10709846Y-14920961D02*
X10709846Y-14882866D01*
X10709846Y-14882866D02*
X10700322Y-14835247D01*
X10700322Y-14835247D02*
X10690798Y-14806675D01*
X10690798Y-14806675D02*
X10681274Y-14787628D01*
X10681274Y-14787628D02*
X10662227Y-14759056D01*
X10662227Y-14759056D02*
X10652703Y-14749532D01*
X11014608Y-15054294D02*
X11005084Y-15044770D01*
X11005084Y-15044770D02*
X10986036Y-15016199D01*
X10986036Y-15016199D02*
X10976513Y-14997151D01*
X10976513Y-14997151D02*
X10966989Y-14968580D01*
X10966989Y-14968580D02*
X10957465Y-14920961D01*
X10957465Y-14920961D02*
X10957465Y-14882866D01*
X10957465Y-14882866D02*
X10966989Y-14835247D01*
X10966989Y-14835247D02*
X10976513Y-14806675D01*
X10976513Y-14806675D02*
X10986036Y-14787628D01*
X10986036Y-14787628D02*
X11005084Y-14759056D01*
X11005084Y-14759056D02*
X11014608Y-14749532D01*
X11090798Y-14844770D02*
X11090798Y-14978104D01*
X11090798Y-14863818D02*
X11100322Y-14854294D01*
X11100322Y-14854294D02*
X11119370Y-14844770D01*
X11119370Y-14844770D02*
X11147941Y-14844770D01*
X11147941Y-14844770D02*
X11166989Y-14854294D01*
X11166989Y-14854294D02*
X11176513Y-14873342D01*
X11176513Y-14873342D02*
X11176513Y-14978104D01*
X11300322Y-14978104D02*
X11281274Y-14968580D01*
X11281274Y-14968580D02*
X11271751Y-14959056D01*
X11271751Y-14959056D02*
X11262227Y-14940008D01*
X11262227Y-14940008D02*
X11262227Y-14882866D01*
X11262227Y-14882866D02*
X11271751Y-14863818D01*
X11271751Y-14863818D02*
X11281274Y-14854294D01*
X11281274Y-14854294D02*
X11300322Y-14844770D01*
X11300322Y-14844770D02*
X11328893Y-14844770D01*
X11328893Y-14844770D02*
X11347941Y-14854294D01*
X11347941Y-14854294D02*
X11357465Y-14863818D01*
X11357465Y-14863818D02*
X11366989Y-14882866D01*
X11366989Y-14882866D02*
X11366989Y-14940008D01*
X11366989Y-14940008D02*
X11357465Y-14959056D01*
X11357465Y-14959056D02*
X11347941Y-14968580D01*
X11347941Y-14968580D02*
X11328893Y-14978104D01*
X11328893Y-14978104D02*
X11300322Y-14978104D01*
X11424132Y-14844770D02*
X11500322Y-14844770D01*
X11452703Y-14778104D02*
X11452703Y-14949532D01*
X11452703Y-14949532D02*
X11462227Y-14968580D01*
X11462227Y-14968580D02*
X11481274Y-14978104D01*
X11481274Y-14978104D02*
X11500322Y-14978104D01*
X11719370Y-14844770D02*
X11719370Y-15044770D01*
X11719370Y-14854294D02*
X11738417Y-14844770D01*
X11738417Y-14844770D02*
X11776513Y-14844770D01*
X11776513Y-14844770D02*
X11795560Y-14854294D01*
X11795560Y-14854294D02*
X11805084Y-14863818D01*
X11805084Y-14863818D02*
X11814608Y-14882866D01*
X11814608Y-14882866D02*
X11814608Y-14940008D01*
X11814608Y-14940008D02*
X11805084Y-14959056D01*
X11805084Y-14959056D02*
X11795560Y-14968580D01*
X11795560Y-14968580D02*
X11776513Y-14978104D01*
X11776513Y-14978104D02*
X11738417Y-14978104D01*
X11738417Y-14978104D02*
X11719370Y-14968580D01*
X11928893Y-14978104D02*
X11909846Y-14968580D01*
X11909846Y-14968580D02*
X11900322Y-14949532D01*
X11900322Y-14949532D02*
X11900322Y-14778104D01*
X12090798Y-14978104D02*
X12090798Y-14873342D01*
X12090798Y-14873342D02*
X12081274Y-14854294D01*
X12081274Y-14854294D02*
X12062227Y-14844770D01*
X12062227Y-14844770D02*
X12024132Y-14844770D01*
X12024132Y-14844770D02*
X12005084Y-14854294D01*
X12090798Y-14968580D02*
X12071751Y-14978104D01*
X12071751Y-14978104D02*
X12024132Y-14978104D01*
X12024132Y-14978104D02*
X12005084Y-14968580D01*
X12005084Y-14968580D02*
X11995560Y-14949532D01*
X11995560Y-14949532D02*
X11995560Y-14930485D01*
X11995560Y-14930485D02*
X12005084Y-14911437D01*
X12005084Y-14911437D02*
X12024132Y-14901913D01*
X12024132Y-14901913D02*
X12071751Y-14901913D01*
X12071751Y-14901913D02*
X12090798Y-14892389D01*
X12157465Y-14844770D02*
X12233655Y-14844770D01*
X12186036Y-14778104D02*
X12186036Y-14949532D01*
X12186036Y-14949532D02*
X12195560Y-14968580D01*
X12195560Y-14968580D02*
X12214608Y-14978104D01*
X12214608Y-14978104D02*
X12233655Y-14978104D01*
X12376513Y-14968580D02*
X12357465Y-14978104D01*
X12357465Y-14978104D02*
X12319370Y-14978104D01*
X12319370Y-14978104D02*
X12300322Y-14968580D01*
X12300322Y-14968580D02*
X12290798Y-14949532D01*
X12290798Y-14949532D02*
X12290798Y-14873342D01*
X12290798Y-14873342D02*
X12300322Y-14854294D01*
X12300322Y-14854294D02*
X12319370Y-14844770D01*
X12319370Y-14844770D02*
X12357465Y-14844770D01*
X12357465Y-14844770D02*
X12376513Y-14854294D01*
X12376513Y-14854294D02*
X12386036Y-14873342D01*
X12386036Y-14873342D02*
X12386036Y-14892389D01*
X12386036Y-14892389D02*
X12290798Y-14911437D01*
X12557465Y-14978104D02*
X12557465Y-14778104D01*
X12557465Y-14968580D02*
X12538417Y-14978104D01*
X12538417Y-14978104D02*
X12500322Y-14978104D01*
X12500322Y-14978104D02*
X12481274Y-14968580D01*
X12481274Y-14968580D02*
X12471751Y-14959056D01*
X12471751Y-14959056D02*
X12462227Y-14940008D01*
X12462227Y-14940008D02*
X12462227Y-14882866D01*
X12462227Y-14882866D02*
X12471751Y-14863818D01*
X12471751Y-14863818D02*
X12481274Y-14854294D01*
X12481274Y-14854294D02*
X12500322Y-14844770D01*
X12500322Y-14844770D02*
X12538417Y-14844770D01*
X12538417Y-14844770D02*
X12557465Y-14854294D01*
X12633655Y-15054294D02*
X12643179Y-15044770D01*
X12643179Y-15044770D02*
X12662227Y-15016199D01*
X12662227Y-15016199D02*
X12671751Y-14997151D01*
X12671751Y-14997151D02*
X12681274Y-14968580D01*
X12681274Y-14968580D02*
X12690798Y-14920961D01*
X12690798Y-14920961D02*
X12690798Y-14882866D01*
X12690798Y-14882866D02*
X12681274Y-14835247D01*
X12681274Y-14835247D02*
X12671751Y-14806675D01*
X12671751Y-14806675D02*
X12662227Y-14787628D01*
X12662227Y-14787628D02*
X12643179Y-14759056D01*
X12643179Y-14759056D02*
X12633655Y-14749532D01*
M02*
