M48
; DRILL file {KiCad 8.0.4} date 2024-07-27T19:15:31-0700
; FORMAT={-:-/ absolute / metric / decimal}
; #@! TF.CreationDate,2024-07-27T19:15:31-07:00
; #@! TF.GenerationSoftware,Kicad,Pcbnew,8.0.4
; #@! TF.FileFunction,Plated,1,4,PTH
FMAT,2
METRIC
; #@! TA.AperFunction,Plated,PTH,ViaDrill
T1C0.300
; #@! TA.AperFunction,Plated,PTH,ViaDrill
T2C0.400
; #@! TA.AperFunction,Plated,PTH,ComponentDrill
T3C0.600
; #@! TA.AperFunction,Plated,PTH,ComponentDrill
T4C0.800
; #@! TA.AperFunction,Plated,PTH,ComponentDrill
T5C0.890
; #@! TA.AperFunction,Plated,PTH,ComponentDrill
T6C0.900
; #@! TA.AperFunction,Plated,PTH,ComponentDrill
T7C1.000
; #@! TA.AperFunction,Plated,PTH,ComponentDrill
T8C1.600
%
G90
G05
T1
X60.224Y-132.909
X61.747Y-56.794
X62.789Y-116.857
X63.424Y-136.872
X63.577Y-130.014
X63.754Y-58.395
X63.856Y-59.36
X64.106Y-60.532
X66.192Y-63.195
X67.056Y-86.36
X68.834Y-115.383
X69.047Y-65.473
X69.748Y-59.21
X69.825Y-57.76
X70.155Y-62.001
X70.339Y-58.436
X70.442Y-66.004
X70.714Y-116.907
X72.339Y-116.653
X72.492Y-100.601
X73.279Y-64.618
X74.625Y-116.298
X76.657Y-64.618
X76.86Y-95.927
X76.911Y-115.333
X77.114Y-65.659
X77.114Y-93.641
X78.03Y-58.934
X78.257Y-57.929
X79.299Y-93.336
X79.502Y-64.084
X79.669Y-102.785
X80.162Y-135.907
X80.366Y-115.333
X80.797Y-55.753
X81.483Y-70.781
X82.194Y-106.087
X83.871Y-135.907
X84.734Y-94.047
X85.242Y-115.333
X88.519Y-116.67
X88.544Y-71.238
X89.002Y-77.233
X89.078Y-88.011
X89.553Y-136.556
X89.713Y-81.855
X89.814Y-73.524
X91.128Y-71.841
X92.075Y-65.888
X92.253Y-82.348
X93.624Y-73.321
X94.488Y-82.751
X94.513Y-54.915
X95.047Y-72.61
X95.199Y-58.242
X95.631Y-136.296
X96.037Y-57.268
X96.368Y-132.073
X96.469Y-122.699
X97.638Y-83.117
X97.993Y-64.059
X98.552Y-120.413
X98.552Y-128.185
X98.704Y-66.539
X99.822Y-133.14
X100.99Y-132.808
X101.498Y-65.888
X101.879Y-131.792
X103.429Y-126.051
X103.581Y-121.581
X104.496Y-120.463
X104.572Y-70.832
X104.75Y-126.051
X104.8Y-127.88
X105.308Y-132.757
X107.523Y-126.051
X107.798Y-88.409
X108.001Y-70.222
X108.001Y-122.953
X108.204Y-132.833
X108.255Y-65.424
X108.864Y-128.083
X108.879Y-120.486
X108.966Y-92.269
X109.322Y-123.969
X110.452Y-54.877
X111.404Y-70.121
X111.912Y-124.079
X112.624Y-124.485
X112.801Y-125.4
X113.208Y-92.685
X113.386Y-66.624
X113.513Y-51.384
X115.062Y-88.773
X115.824Y-124.892
X116.196Y-64.863
X116.256Y-130.353
X117.119Y-124.409
X117.577Y-128.295
X118.212Y-92.685
X119.634Y-73.11
X119.682Y-120.475
X119.939Y-56.642
X120.04Y-105.486
X120.04Y-109.643
X120.142Y-62.45
X120.142Y-65.142
X120.65Y-128.067
X120.955Y-92.685
X121.47Y-68.35
X121.514Y-129.489
X122.199Y-77.749
X122.479Y-115.129
X122.784Y-66.26
X124.104Y-133.35
X124.869Y-60.726
X125.07Y-67.225
X125.25Y-66.413
X125.578Y-57.268
X125.654Y-62.323
X125.691Y-65.687
X125.755Y-59.696
X125.781Y-78.791
X126.041Y-60.954
X126.213Y-122.885
X126.289Y-103.852
X126.687Y-103.09
X126.695Y-74.185
X126.74Y-58.138
X126.797Y-65.599
X127.508Y-73.372
X127.61Y-103.395
X127.965Y-55.998
X128.016Y-102.633
X128.085Y-69.372
X128.352Y-72.786
X128.425Y-116.858
X128.88Y-102.582
X129.083Y-118.127
X129.134Y-111.065
X129.176Y-100.465
X129.176Y-99.615
X129.308Y-101.859
X129.388Y-87.139
X129.438Y-129.607
X129.464Y-71.695
X129.489Y-59.249
X129.647Y-56.715
X129.692Y-106.189
X129.794Y-78.156
X129.958Y-66.853
X130.115Y-73.677
X130.192Y-92.879
X130.505Y-84.903
X130.861Y-107.645
X130.869Y-99.201
X130.962Y-71.695
X131.101Y-94.967
X131.14Y-97.615
X131.318Y-80.382
X132.232Y-118.279
X132.334Y-112.539
X132.461Y-67.352
X132.477Y-116.054
X132.528Y-94.644
X132.613Y-82.059
X132.69Y-113.351
X132.893Y-117.619
X133.054Y-95.266
X133.147Y-85.869
X133.248Y-114.164
X133.401Y-85.005
X133.604Y-75.201
X133.709Y-115.479
X133.764Y-82.019
X133.909Y-76.013
X134.061Y-116.806
X134.214Y-82.973
X134.264Y-66.463
X134.811Y-94.189
X134.925Y-75.048
X134.976Y-56.049
X134.997Y-85.778
X135.077Y-99.178
X135.077Y-109.474
X135.382Y-98.146
X135.484Y-84.252
X135.636Y-75.556
X135.636Y-81.297
X135.636Y-94.759
X135.739Y-65.906
X135.763Y-67.047
X135.796Y-85.709
X135.835Y-53.636
X135.89Y-71.238
X136.195Y-123.054
X136.365Y-110.033
X136.449Y-98.12
X136.754Y-75.709
X136.906Y-80.789
X137.16Y-70.883
X137.213Y-83.6
X137.312Y-93.997
X137.668Y-111.573
X137.82Y-87.24
X138.02Y-83.932
X138.074Y-96.841
X138.227Y-124.07
X138.244Y-67.547
X138.379Y-98.975
X138.43Y-53.636
X138.43Y-55.415
X138.786Y-114.418
X138.87Y-78.909
X138.923Y-91.556
X139.036Y-74.595
X139.141Y-101.972
X139.15Y-113.25
X139.192Y-123.664
X139.243Y-115.129
X139.294Y-129.506
X139.344Y-101.109
X139.344Y-102.887
X139.465Y-118.92
X139.573Y-92.481
X139.617Y-97.432
X139.751Y-117.974
X139.802Y-115.79
X139.903Y-59.91
X139.954Y-88.053
X139.954Y-103.598
X140.005Y-117.212
X140.056Y-98.721
X140.056Y-90.999
X140.208Y-93.294
X140.411Y-113.047
X140.537Y-116.474
X140.574Y-104.273
X140.614Y-97.553
X140.675Y-61.852
X140.819Y-91.775
X140.894Y-93.98
X141.072Y-96.892
X141.072Y-131.521
X141.275Y-107.052
X141.454Y-104.966
X141.58Y-80.535
X141.639Y-95.47
X141.71Y-110.274
X141.783Y-113.707
X142.088Y-105.63
X142.392Y-130.522
X142.545Y-107.704
X142.56Y-110.302
X142.617Y-71.92
X142.83Y-106.287
X143.045Y-69.742
X143.053Y-113.504
X143.053Y-123.664
X143.103Y-79.577
X143.586Y-96.867
X143.942Y-54.407
X143.964Y-71.496
X144.12Y-80.382
X144.323Y-111.065
X144.572Y-132.406
X144.78Y-79.722
X145.179Y-78.205
X145.231Y-110.805
X145.593Y-66.006
X145.593Y-79.722
X145.593Y-134.84
X145.948Y-95.778
X145.999Y-124.223
X145.999Y-125.188
X146.075Y-70.248
X146.099Y-122.292
X146.304Y-123.461
X146.329Y-59.284
X146.456Y-131.639
X146.558Y-78.706
X146.66Y-76.115
X146.693Y-77.758
X146.761Y-130.776
X146.812Y-115.739
X147.422Y-68.698
X147.425Y-66.213
X147.574Y-75.302
X147.574Y-116.535
X147.828Y-77.436
X148.033Y-129.896
X148.334Y-74.871
X148.65Y-117.559
X148.844Y-74.235
X148.996Y-111.98
X149.075Y-129.082
X149.174Y-55.245
X149.327Y-135.094
X149.42Y-73.545
X149.479Y-95.479
X149.911Y-115.587
X150.114Y-56.1
X150.165Y-111.523
X150.266Y-128.388
X151.181Y-116.196
X151.232Y-73.321
X151.553Y-125.137
X151.609Y-103.569
X151.616Y-58.923
X152.095Y-135.119
X152.197Y-123.207
X152.318Y-119.285
X152.552Y-103.496
X152.681Y-126.083
X153.365Y-108.932
X153.588Y-109.745
X153.669Y-127.159
X153.67Y-107.916
X154.33Y-75.607
X154.592Y-109.203
X154.618Y-135.069
X154.782Y-127.951
X154.893Y-110.129
X154.94Y-97.959
X155.542Y-95.325
X155.88Y-56.312
X156.413Y-105.173
X156.718Y-91.237
X157.099Y-105.715
X157.124Y-82.567
X157.328Y-133.452
X157.428Y-108.779
X158.081Y-110.151
X158.242Y-132.198
X158.293Y-96.283
X158.547Y-120.463
X158.642Y-93.096
X158.732Y-109.521
X158.902Y-98.06
X159.309Y-121.022
X159.36Y-130.725
X159.639Y-85.268
X159.978Y-129.879
X160.325Y-77.893
X160.506Y-120.797
X160.745Y-112.4
X160.761Y-129.254
X161.29Y-121.08
X161.477Y-128.607
X161.535Y-95.715
X162.052Y-125.137
X162.112Y-120.828
X162.204Y-112.335
X162.348Y-107.662
X162.382Y-115.333
X162.611Y-74.489
X162.763Y-56.701
X162.829Y-121.284
X163.271Y-75.099
X163.373Y-123.816
X163.373Y-126.038
X163.576Y-57.167
X164.042Y-127.169
X164.186Y-103.903
X164.338Y-97.959
X164.795Y-127.87
X164.979Y-124.393
X164.998Y-123.461
X165.024Y-98.704
X165.049Y-57.624
X165.71Y-89.374
X165.862Y-88.409
X166.573Y-134.535
X167.234Y-100.042
X167.588Y-52.662
X168.046Y-130.776
X168.097Y-98.467
X168.115Y-91.914
X168.554Y-130.115
X168.859Y-103.953
X168.859Y-115.281
X169.062Y-129.455
X169.164Y-135.018
X169.215Y-116.857
X169.231Y-88.646
X169.24Y-83.617
X169.615Y-115.671
X169.621Y-106.544
X169.672Y-55.677
X169.672Y-128.795
X169.85Y-108.398
X169.901Y-76.022
X170.332Y-103.496
X170.459Y-89.459
X170.485Y-80.823
X170.51Y-69.748
X170.695Y-108.449
X171.196Y-115.282
X171.247Y-77.572
X171.323Y-86.258
X171.856Y-96.892
X171.901Y-134.484
X171.958Y-135.292
X172.212Y-55.982
X172.212Y-129.15
X172.237Y-74.625
X172.458Y-92.032
X172.568Y-96.232
X172.593Y-70.409
X172.745Y-68.961
X173.025Y-106.502
X173.076Y-111.218
X173.566Y-112.031
X173.676Y-98.722
X173.685Y-105.477
X173.685Y-107.357
X173.761Y-100.813
X173.867Y-94.91
X174.117Y-77.495
X174.155Y-92.443
X174.193Y-125.197
X174.368Y-99.216
X174.65Y-61.189
X174.682Y-107.611
X174.828Y-94.971
X174.955Y-126.06
X175.158Y-108.491
X175.184Y-83.744
X175.26Y-86.411
X175.328Y-109.352
X175.387Y-88.671
X175.539Y-127.127
X175.692Y-110.896
X175.901Y-109.98
X176.149Y-65.938
X176.191Y-127.889
X176.2Y-79.629
X176.225Y-82.042
X176.327Y-51.918
X176.632Y-70.358
X176.886Y-90.729
X176.911Y-94.934
X176.934Y-88.882
X176.936Y-98.4
X176.939Y-96.469
X176.954Y-89.713
X177.724Y-74.549
X178.053Y-134.534
X178.075Y-83.628
X178.156Y-70.256
X178.75Y-76.971
X178.791Y-108.458
X179.299Y-80.416
X179.349Y-70.282
X179.705Y-77.673
X179.743Y-109.637
X179.857Y-85.319
X179.926Y-108.244
X179.943Y-81.696
X180.416Y-70.307
X181.127Y-66.091
X181.559Y-60.503
X181.991Y-56.439
X181.991Y-76.479
X182.321Y-77.775
X182.327Y-87.809
X182.459Y-86.495
X182.569Y-85.14
X182.677Y-66.345
X182.829Y-69.19
X182.905Y-79.807
X183.032Y-89.535
X183.034Y-93.978
X183.159Y-87.122
X183.226Y-86.185
X183.341Y-85.361
X183.744Y-70.155
X183.791Y-82.12
X184.404Y-77.546
X184.429Y-86.893
X184.497Y-79.86
X184.606Y-81.163
X184.619Y-82.147
X184.836Y-96.977
X185.014Y-90.805
X185.217Y-74.752
X185.82Y-97.149
X185.864Y-90.815
X186.309Y-71.526
X186.334Y-74.422
X187.173Y-79.451
X187.63Y-81.788
X188.726Y-93.57
X188.773Y-72.746
X188.976Y-80.442
X189.027Y-83.464
X189.052Y-73.533
X189.105Y-86.333
X190.273Y-88.619
X191.34Y-95.477
X191.4Y-91.231
X192.763Y-99.845
X192.915Y-93.038
X193.144Y-95.731
X193.462Y-81.299
X193.741Y-79.47
X194.147Y-76.651
X194.208Y-73.558
X194.287Y-93.191
X194.845Y-88.72
X194.869Y-89.916
X195.506Y-94.029
X195.506Y-94.918
X196.055Y-96.62
X196.093Y-97.989
X196.157Y-90.133
X198.247Y-100.99
X198.249Y-86.968
T2
X119.151Y-64.033
X123.876Y-79.781
X123.901Y-85.42
T4
X61.849Y-53.103
X61.849Y-68.343
X61.889Y-75.328
X61.889Y-90.568
X61.889Y-97.68
X61.889Y-112.92
X64.389Y-53.103
X64.389Y-68.343
X64.429Y-75.328
X64.429Y-90.568
X64.429Y-97.68
X64.429Y-112.92
X65.811Y-118.736
X65.811Y-133.976
X66.929Y-53.103
X66.929Y-68.343
X66.969Y-75.328
X66.969Y-90.568
X66.969Y-97.68
X66.969Y-112.92
X68.351Y-118.736
X68.351Y-133.976
X69.469Y-53.103
X69.469Y-68.343
X69.509Y-75.328
X69.509Y-90.568
X69.509Y-97.68
X69.509Y-112.92
X70.891Y-118.736
X70.891Y-133.976
X72.009Y-53.103
X72.009Y-68.343
X72.049Y-75.328
X72.049Y-90.568
X72.049Y-97.68
X72.049Y-112.92
X73.431Y-118.736
X73.431Y-133.976
X74.549Y-53.103
X74.549Y-68.343
X74.589Y-75.328
X74.589Y-90.568
X74.589Y-97.68
X74.589Y-112.92
X75.971Y-118.736
X75.971Y-133.976
X77.089Y-53.103
X77.089Y-68.343
X77.129Y-75.328
X77.129Y-90.568
X77.129Y-97.68
X77.129Y-112.92
X78.511Y-118.736
X78.511Y-133.976
X79.629Y-53.103
X79.629Y-68.343
X79.669Y-75.328
X79.669Y-90.568
X79.669Y-97.68
X79.669Y-112.92
X81.051Y-118.736
X81.051Y-133.976
X82.169Y-53.103
X82.169Y-68.343
X82.209Y-75.328
X82.209Y-90.568
X82.209Y-97.68
X82.209Y-112.92
X83.591Y-118.736
X83.591Y-133.976
X84.709Y-53.103
X84.709Y-68.343
X84.749Y-75.328
X84.749Y-90.568
X84.749Y-97.68
X84.749Y-112.92
X86.131Y-118.736
X86.131Y-133.976
X87.249Y-53.103
X87.249Y-68.343
X87.289Y-75.328
X87.289Y-90.568
X87.289Y-97.68
X87.289Y-112.92
X88.671Y-118.736
X88.671Y-133.976
X89.789Y-53.103
X89.789Y-68.343
X89.829Y-75.328
X89.829Y-90.568
X89.829Y-97.68
X89.829Y-112.92
X91.211Y-118.736
X91.211Y-133.976
X92.329Y-53.103
X92.329Y-68.343
X92.369Y-75.328
X92.369Y-90.568
X92.369Y-97.68
X92.369Y-112.92
X93.751Y-118.736
X93.751Y-133.976
X94.869Y-53.103
X94.869Y-68.343
X94.909Y-75.328
X94.909Y-90.568
X94.909Y-97.68
X94.909Y-112.92
X97.409Y-53.103
X97.409Y-68.343
X97.449Y-75.328
X97.449Y-90.568
X97.449Y-97.68
X97.449Y-112.92
X99.949Y-53.103
X99.949Y-68.343
X99.989Y-75.328
X99.989Y-90.568
X99.989Y-97.68
X99.989Y-112.92
X102.489Y-53.103
X102.489Y-68.343
X102.529Y-75.328
X102.529Y-90.568
X102.529Y-97.68
X102.529Y-112.92
X105.029Y-53.103
X105.029Y-68.343
X105.069Y-75.328
X105.069Y-90.568
X105.069Y-97.68
X105.069Y-112.92
X107.569Y-53.103
X107.569Y-68.343
X107.609Y-75.328
X107.609Y-90.568
X107.609Y-97.68
X107.609Y-112.92
X110.109Y-53.103
X110.109Y-68.343
X110.149Y-75.328
X110.149Y-90.568
X110.149Y-97.68
X110.149Y-112.92
X112.689Y-75.328
X112.689Y-90.568
X112.689Y-97.68
X112.689Y-112.92
X115.229Y-75.328
X115.229Y-90.568
X115.229Y-97.68
X115.229Y-112.92
X117.769Y-75.328
X117.769Y-90.568
X117.769Y-97.68
X117.769Y-112.92
X120.309Y-75.328
X120.309Y-90.568
X120.309Y-97.68
X120.309Y-112.92
X150.495Y-60.977
X150.495Y-63.517
X150.495Y-66.057
X150.495Y-68.597
X150.495Y-71.137
X150.495Y-89.171
X150.495Y-91.711
X150.495Y-94.251
X150.495Y-96.791
X150.495Y-99.331
X153.035Y-58.437
X153.035Y-60.977
X153.035Y-63.517
X153.035Y-66.057
X153.035Y-68.597
X153.035Y-71.137
X153.035Y-73.677
X153.035Y-86.631
X153.035Y-89.171
X153.035Y-91.711
X153.035Y-94.251
X153.035Y-96.791
X153.035Y-99.331
X153.035Y-101.871
X155.575Y-58.437
X155.575Y-60.977
X155.575Y-71.137
X155.575Y-73.677
X155.575Y-86.631
X155.575Y-89.171
X155.575Y-99.331
X155.575Y-101.871
X158.115Y-58.437
X158.115Y-60.977
X158.115Y-71.137
X158.115Y-73.677
X158.115Y-86.631
X158.115Y-89.171
X158.115Y-99.331
X158.115Y-101.871
X160.655Y-58.437
X160.655Y-60.977
X160.655Y-63.517
X160.655Y-66.057
X160.655Y-68.597
X160.655Y-71.137
X160.655Y-73.677
X160.655Y-86.631
X160.655Y-89.171
X160.655Y-91.711
X160.655Y-94.251
X160.655Y-96.791
X160.655Y-99.331
X160.655Y-101.871
X163.195Y-60.977
X163.195Y-63.517
X163.195Y-66.057
X163.195Y-68.597
X163.195Y-71.137
X163.195Y-89.171
X163.195Y-91.711
X163.195Y-94.251
X163.195Y-96.791
X163.195Y-99.331
T5
X197.889Y-54.737
X197.889Y-64.847
X199.409Y-57.277
X199.409Y-67.387
T6
X185.629Y-56.617
X185.629Y-59.157
X185.629Y-61.697
X185.629Y-64.237
X188.169Y-57.887
X188.169Y-60.427
X188.169Y-62.967
X188.169Y-65.507
T7
X114.6Y-54.677
X117.14Y-54.677
X199.466Y-105.105
X199.466Y-107.645
X199.466Y-110.185
T8
X191.459Y-53.287
X191.459Y-68.837
T3
X198.689Y-89.609G85X197.589Y-89.609
G05
X198.689Y-98.249G85X197.589Y-98.249
G05
X202.619Y-89.609G85X202.019Y-89.609
G05
X202.619Y-98.249G85X202.019Y-98.249
G05
M30
