M48
; DRILL file {KiCad 8.0.4} date 2024-07-23T15:46:27-0700
; FORMAT={-:-/ absolute / metric / decimal}
; #@! TF.CreationDate,2024-07-23T15:46:27-07:00
; #@! TF.GenerationSoftware,Kicad,Pcbnew,8.0.4
; #@! TF.FileFunction,Plated,1,4,PTH
FMAT,2
METRIC
; #@! TA.AperFunction,Plated,PTH,ViaDrill
T1C0.300
; #@! TA.AperFunction,Plated,PTH,ComponentDrill
T2C0.600
; #@! TA.AperFunction,Plated,PTH,ComponentDrill
T3C0.800
; #@! TA.AperFunction,Plated,PTH,ComponentDrill
T4C1.000
%
G90
G05
T1
X53.188Y-115.621
X55.423Y-96.52
X56.083Y-118.974
X59.208Y-58.194
X60.046Y-115.773
X61.214Y-96.52
X61.773Y-58.572
X63.348Y-96.571
X64.414Y-59.03
X65.126Y-80.264
X67.005Y-59.385
X67.259Y-95.961
X69.494Y-75.59
X69.545Y-94.996
X69.748Y-73.304
X69.799Y-59.842
X71.933Y-73.0
X72.187Y-60.198
X72.303Y-82.448
X72.796Y-115.57
X73.0Y-94.996
X74.117Y-50.444
X74.828Y-85.75
X74.879Y-60.643
X76.505Y-115.57
X77.368Y-73.711
X77.876Y-94.996
X79.451Y-61.05
X81.178Y-50.902
X81.636Y-56.896
X81.686Y-62.84
X82.347Y-61.519
X82.448Y-53.188
X83.762Y-51.504
X84.684Y-109.474
X84.734Y-115.57
X84.887Y-62.012
X85.401Y-39.326
X86.258Y-52.984
X87.122Y-62.415
X87.681Y-52.273
X87.732Y-37.795
X88.138Y-110.541
X89.103Y-102.362
X90.272Y-62.781
X91.186Y-100.076
X91.186Y-107.848
X93.624Y-112.471
X94.945Y-117.704
X96.063Y-105.715
X96.215Y-101.244
X97.13Y-100.127
X97.384Y-105.715
X97.434Y-107.544
X97.942Y-112.42
X99.212Y-117.653
X100.432Y-68.072
X100.635Y-49.886
X100.635Y-102.616
X100.635Y-104.8
X101.498Y-107.747
X101.549Y-100.076
X101.6Y-71.933
X101.956Y-103.632
X103.429Y-90.576
X104.038Y-49.784
X105.816Y-72.644
X107.696Y-68.58
X110.846Y-72.492
X111.506Y-100.178
X111.963Y-44.552
X112.471Y-56.448
X112.674Y-89.306
X112.776Y-42.113
X113.284Y-82.956
X113.589Y-72.796
X114.148Y-48.057
X115.062Y-69.393
X115.086Y-56.349
X115.104Y-62.078
X115.104Y-63.043
X115.104Y-64.262
X115.113Y-94.793
X115.418Y-45.923
X115.418Y-102.616
X115.519Y-61.265
X115.621Y-51.867
X116.06Y-60.452
X116.064Y-79.621
X116.281Y-80.467
X116.891Y-59.639
X117.246Y-80.569
X117.399Y-58.725
X117.503Y-40.389
X117.907Y-100.787
X117.958Y-46.228
X118.008Y-81.382
X118.059Y-58.064
X118.262Y-45.466
X118.288Y-41.986
X118.389Y-39.359
X118.669Y-46.888
X118.675Y-40.618
X118.821Y-100.127
X118.872Y-102.616
X118.923Y-57.099
X118.923Y-83.515
X119.321Y-82.753
X119.329Y-53.848
X119.374Y-37.802
X119.431Y-45.263
X119.583Y-99.517
X120.142Y-53.035
X120.244Y-83.058
X120.345Y-98.857
X120.599Y-35.662
X120.65Y-82.296
X120.719Y-49.035
X120.986Y-52.45
X121.006Y-96.571
X121.514Y-82.245
X121.717Y-97.79
X121.768Y-90.729
X121.81Y-79.278
X121.81Y-80.129
X121.942Y-81.522
X122.022Y-66.802
X122.072Y-109.271
X122.123Y-38.913
X122.174Y-57.099
X122.243Y-46.634
X122.276Y-51.181
X122.281Y-36.378
X122.326Y-85.852
X122.682Y-53.34
X122.826Y-72.542
X123.139Y-64.567
X123.393Y-79.146
X123.596Y-51.359
X123.8Y-74.625
X123.817Y-77.47
X123.952Y-60.046
X124.663Y-113.436
X124.866Y-97.942
X124.968Y-92.202
X125.095Y-47.015
X125.111Y-95.717
X125.12Y-74.32
X125.247Y-61.722
X125.324Y-93.015
X125.527Y-97.282
X125.766Y-74.929
X125.781Y-65.532
X125.882Y-93.828
X126.035Y-64.668
X126.238Y-54.864
X126.343Y-95.142
X126.398Y-61.683
X126.543Y-55.677
X126.695Y-96.469
X126.848Y-62.636
X126.898Y-46.126
X127.305Y-99.67
X127.445Y-73.852
X127.559Y-54.712
X127.61Y-35.712
X127.631Y-65.441
X127.711Y-78.842
X127.762Y-89.256
X128.118Y-63.915
X128.27Y-55.22
X128.27Y-60.96
X128.27Y-74.422
X128.372Y-32.614
X128.373Y-45.569
X128.397Y-46.711
X128.524Y-50.902
X128.524Y-65.278
X128.829Y-102.718
X128.999Y-89.696
X129.388Y-55.372
X129.54Y-60.452
X129.794Y-50.546
X129.847Y-63.264
X129.946Y-73.66
X130.302Y-91.237
X130.454Y-66.904
X130.654Y-63.595
X130.658Y-79.4
X130.708Y-76.505
X130.861Y-103.734
X130.878Y-47.21
X131.013Y-78.638
X131.064Y-32.512
X131.064Y-35.078
X131.42Y-94.082
X131.504Y-58.572
X131.67Y-54.258
X131.775Y-81.636
X131.784Y-92.913
X131.826Y-103.327
X131.877Y-94.793
X131.928Y-109.169
X131.978Y-80.772
X131.978Y-82.55
X132.029Y-71.577
X132.099Y-98.584
X132.251Y-77.095
X132.385Y-97.638
X132.436Y-95.453
X132.537Y-39.573
X132.588Y-67.716
X132.588Y-83.261
X132.613Y-72.441
X132.639Y-96.876
X132.69Y-78.384
X132.69Y-70.663
X133.045Y-92.71
X133.062Y-73.162
X133.171Y-96.138
X133.208Y-83.936
X133.248Y-77.216
X133.35Y-41.707
X133.453Y-71.439
X133.487Y-73.899
X133.706Y-76.556
X133.706Y-111.303
X133.909Y-86.716
X134.088Y-84.629
X134.214Y-60.198
X134.273Y-75.133
X134.344Y-89.938
X134.417Y-93.37
X134.722Y-85.293
X135.026Y-110.185
X135.179Y-87.367
X135.194Y-89.965
X135.251Y-51.584
X135.464Y-85.951
X135.534Y-49.174
X135.687Y-93.167
X135.687Y-103.327
X135.737Y-59.241
X135.788Y-32.614
X136.22Y-76.53
X136.598Y-51.159
X136.754Y-60.046
X136.957Y-90.729
X137.013Y-42.463
X137.109Y-112.166
X137.414Y-59.385
X137.813Y-57.868
X137.865Y-90.468
X138.227Y-59.385
X138.227Y-114.503
X138.633Y-75.441
X138.633Y-103.886
X138.633Y-104.851
X138.709Y-49.911
X138.733Y-101.956
X138.938Y-103.124
X139.09Y-111.303
X139.141Y-38.862
X139.192Y-58.369
X139.294Y-55.778
X139.327Y-57.422
X139.395Y-110.439
X139.446Y-95.402
X140.005Y-45.822
X140.056Y-48.362
X140.208Y-54.966
X140.208Y-96.063
X140.411Y-109.22
X140.462Y-57.099
X140.968Y-54.535
X141.284Y-97.222
X141.478Y-53.899
X141.63Y-91.643
X141.681Y-109.017
X142.054Y-53.209
X142.545Y-95.25
X142.799Y-91.186
X142.799Y-115.519
X142.9Y-108.052
X143.713Y-117.246
X143.815Y-95.86
X143.866Y-52.984
X144.069Y-38.405
X144.187Y-104.8
X144.243Y-83.232
X144.831Y-102.87
X144.952Y-98.949
X145.186Y-83.16
X145.315Y-105.746
X145.999Y-88.595
X146.222Y-89.408
X146.303Y-106.823
X146.304Y-87.579
X146.964Y-55.27
X147.226Y-88.867
X147.416Y-107.615
X147.422Y-114.91
X147.527Y-89.792
X147.574Y-77.622
X148.176Y-74.989
X149.047Y-84.836
X149.606Y-70.815
X149.606Y-115.214
X149.708Y-35.763
X149.758Y-62.23
X150.062Y-88.443
X150.063Y-84.887
X150.715Y-89.814
X150.876Y-111.862
X150.927Y-75.946
X151.181Y-100.127
X151.276Y-72.759
X151.366Y-89.184
X151.536Y-77.723
X151.943Y-100.686
X151.994Y-110.388
X152.612Y-109.542
X152.959Y-57.556
X153.14Y-100.461
X153.395Y-108.918
X153.416Y-92.1
X153.518Y-34.29
X153.924Y-100.744
X154.111Y-108.271
X154.169Y-75.378
X154.432Y-60.249
X154.686Y-104.8
X154.746Y-100.492
X154.788Y-63.094
X154.838Y-91.999
X154.889Y-87.325
X155.143Y-94.996
X155.245Y-54.153
X155.397Y-36.365
X155.463Y-100.948
X155.905Y-54.762
X156.007Y-103.48
X156.007Y-105.702
X156.21Y-36.83
X156.676Y-106.832
X156.82Y-83.566
X156.972Y-77.622
X157.429Y-107.533
X157.613Y-104.056
X157.632Y-103.124
X157.683Y-37.287
X157.785Y-78.384
X158.344Y-69.037
X158.496Y-68.072
X159.207Y-114.198
X159.868Y-79.705
X160.68Y-110.439
X160.731Y-78.13
X160.749Y-71.577
X161.188Y-109.779
X161.493Y-83.617
X161.551Y-94.957
X161.696Y-109.118
X161.747Y-45.72
X161.849Y-96.52
X162.255Y-86.208
X162.282Y-95.39
X162.306Y-108.458
X162.484Y-88.062
X162.814Y-114.656
X162.966Y-83.16
X163.329Y-88.112
X163.474Y-50.495
X163.728Y-116.535
X163.83Y-94.945
X164.033Y-44.552
X164.084Y-52.019
X164.135Y-34.29
X164.135Y-39.98
X164.49Y-76.556
X164.694Y-49.53
X164.744Y-67.361
X164.744Y-114.148
X164.846Y-108.814
X165.202Y-75.895
X165.319Y-40.072
X165.354Y-50.698
X165.456Y-38.76
X165.71Y-90.881
X166.014Y-78.537
X166.014Y-104.8
X166.116Y-50.038
X166.2Y-91.694
X166.319Y-85.141
X166.319Y-87.02
X166.624Y-43.282
X166.827Y-105.715
X166.878Y-78.791
X167.132Y-80.366
X167.316Y-87.274
X167.335Y-75.489
X167.437Y-74.524
X167.538Y-106.832
X167.792Y-88.155
X167.962Y-89.016
X168.3Y-107.696
X168.453Y-41.91
X168.535Y-89.643
X168.605Y-40.538
X168.605Y-44.348
X168.859Y-75.895
X168.984Y-46.099
X169.393Y-51.791
X169.573Y-76.352
X169.816Y-77.409
X169.824Y-89.865
X170.18Y-67.31
X170.231Y-42.418
X170.687Y-114.197
X170.688Y-91.084
X170.891Y-89.764
X171.094Y-38.964
X171.247Y-41.961
X173.025Y-44.348
X173.533Y-38.862
X173.685Y-42.977
X174.549Y-34.29
X174.65Y-38.71
X174.981Y-42.723
T3
X54.483Y-32.766
X54.483Y-48.006
X54.503Y-98.425
X54.503Y-113.665
X54.523Y-54.991
X54.523Y-70.231
X54.523Y-77.343
X54.523Y-92.583
X57.023Y-32.766
X57.023Y-48.006
X57.043Y-98.425
X57.043Y-113.665
X57.063Y-54.991
X57.063Y-70.231
X57.063Y-77.343
X57.063Y-92.583
X59.563Y-32.766
X59.563Y-48.006
X59.583Y-98.425
X59.583Y-113.665
X59.603Y-54.991
X59.603Y-70.231
X59.603Y-77.343
X59.603Y-92.583
X62.103Y-32.766
X62.103Y-48.006
X62.123Y-98.425
X62.123Y-113.665
X62.143Y-54.991
X62.143Y-70.231
X62.143Y-77.343
X62.143Y-92.583
X64.643Y-32.766
X64.643Y-48.006
X64.663Y-98.425
X64.663Y-113.665
X64.683Y-54.991
X64.683Y-70.231
X64.683Y-77.343
X64.683Y-92.583
X67.183Y-32.766
X67.183Y-48.006
X67.203Y-98.425
X67.203Y-113.665
X67.223Y-54.991
X67.223Y-70.231
X67.223Y-77.343
X67.223Y-92.583
X69.723Y-32.766
X69.723Y-48.006
X69.743Y-98.425
X69.743Y-113.665
X69.763Y-54.991
X69.763Y-70.231
X69.763Y-77.343
X69.763Y-92.583
X72.263Y-32.766
X72.263Y-48.006
X72.283Y-98.425
X72.283Y-113.665
X72.303Y-54.991
X72.303Y-70.231
X72.303Y-77.343
X72.303Y-92.583
X74.803Y-32.766
X74.803Y-48.006
X74.823Y-98.425
X74.823Y-113.665
X74.843Y-54.991
X74.843Y-70.231
X74.843Y-77.343
X74.843Y-92.583
X77.343Y-32.766
X77.343Y-48.006
X77.363Y-98.425
X77.363Y-113.665
X77.383Y-54.991
X77.383Y-70.231
X77.383Y-77.343
X77.383Y-92.583
X79.883Y-32.766
X79.883Y-48.006
X79.903Y-98.425
X79.903Y-113.665
X79.923Y-54.991
X79.923Y-70.231
X79.923Y-77.343
X79.923Y-92.583
X82.423Y-32.766
X82.423Y-48.006
X82.443Y-98.425
X82.443Y-113.665
X82.463Y-54.991
X82.463Y-70.231
X82.463Y-77.343
X82.463Y-92.583
X84.963Y-32.766
X84.963Y-48.006
X85.003Y-54.991
X85.003Y-70.231
X85.003Y-77.343
X85.003Y-92.583
X87.503Y-32.766
X87.503Y-48.006
X87.543Y-54.991
X87.543Y-70.231
X87.543Y-77.343
X87.543Y-92.583
X90.043Y-32.766
X90.043Y-48.006
X90.083Y-54.991
X90.083Y-70.231
X90.083Y-77.343
X90.083Y-92.583
X92.583Y-32.766
X92.583Y-48.006
X92.623Y-54.991
X92.623Y-70.231
X92.623Y-77.343
X92.623Y-92.583
X95.123Y-32.766
X95.123Y-48.006
X95.163Y-54.991
X95.163Y-70.231
X95.163Y-77.343
X95.163Y-92.583
X97.663Y-32.766
X97.663Y-48.006
X97.703Y-54.991
X97.703Y-70.231
X97.703Y-77.343
X97.703Y-92.583
X100.203Y-32.766
X100.203Y-48.006
X100.243Y-54.991
X100.243Y-70.231
X100.243Y-77.343
X100.243Y-92.583
X102.743Y-32.766
X102.743Y-48.006
X102.783Y-54.991
X102.783Y-70.231
X102.783Y-77.343
X102.783Y-92.583
X105.323Y-54.991
X105.323Y-70.231
X105.323Y-77.343
X105.323Y-92.583
X107.863Y-54.991
X107.863Y-70.231
X107.863Y-77.343
X107.863Y-92.583
X110.403Y-54.991
X110.403Y-70.231
X110.403Y-77.343
X110.403Y-92.583
X112.943Y-54.991
X112.943Y-70.231
X112.943Y-77.343
X112.943Y-92.583
X143.129Y-40.64
X143.129Y-43.18
X143.129Y-45.72
X143.129Y-48.26
X143.129Y-50.8
X143.129Y-68.834
X143.129Y-71.374
X143.129Y-73.914
X143.129Y-76.454
X143.129Y-78.994
X145.669Y-38.1
X145.669Y-40.64
X145.669Y-43.18
X145.669Y-45.72
X145.669Y-48.26
X145.669Y-50.8
X145.669Y-53.34
X145.669Y-66.294
X145.669Y-68.834
X145.669Y-71.374
X145.669Y-73.914
X145.669Y-76.454
X145.669Y-78.994
X145.669Y-81.534
X148.209Y-38.1
X148.209Y-40.64
X148.209Y-50.8
X148.209Y-53.34
X148.209Y-66.294
X148.209Y-68.834
X148.209Y-78.994
X148.209Y-81.534
X150.749Y-38.1
X150.749Y-40.64
X150.749Y-50.8
X150.749Y-53.34
X150.749Y-66.294
X150.749Y-68.834
X150.749Y-78.994
X150.749Y-81.534
X153.289Y-38.1
X153.289Y-40.64
X153.289Y-43.18
X153.289Y-45.72
X153.289Y-48.26
X153.289Y-50.8
X153.289Y-53.34
X153.289Y-66.294
X153.289Y-68.834
X153.289Y-71.374
X153.289Y-73.914
X153.289Y-76.454
X153.289Y-78.994
X153.289Y-81.534
X155.829Y-40.64
X155.829Y-43.18
X155.829Y-45.72
X155.829Y-48.26
X155.829Y-50.8
X155.829Y-68.834
X155.829Y-71.374
X155.829Y-73.914
X155.829Y-76.454
X155.829Y-78.994
T4
X107.234Y-34.341
X109.774Y-34.341
X171.501Y-59.541
X171.501Y-62.081
X171.501Y-64.621
T2
X165.042Y-33.198G85X165.042Y-32.598
G05
X165.042Y-37.628G85X165.042Y-36.528
G05
X173.682Y-33.198G85X173.682Y-32.598
G05
X173.682Y-37.628G85X173.682Y-36.528
G05
M30
