%TF.GenerationSoftware,KiCad,Pcbnew,8.0.4*%
%TF.CreationDate,2024-07-23T15:46:56-07:00*%
%TF.ProjectId,ns32k,6e733332-6b2e-46b6-9963-61645f706362,rev?*%
%TF.SameCoordinates,Original*%
%TF.FileFunction,Drillmap*%
%TF.FilePolarity,Positive*%
%FSLAX45Y45*%
G04 Gerber Fmt 4.5, Leading zero omitted, Abs format (unit mm)*
G04 Created by KiCad (PCBNEW 8.0.4) date 2024-07-23 15:46:56*
%MOMM*%
%LPD*%
G01*
G04 APERTURE LIST*
%ADD10C,0.100000*%
%ADD11C,0.200000*%
G04 APERTURE END LIST*
D10*
X17703800Y-3022600D02*
X17683480Y-12059920D01*
X5166360Y-3022600D02*
X17703800Y-3022600D01*
X5166360Y-12075160D02*
X5166360Y-3022600D01*
X17683480Y-12059920D02*
X5166360Y-12075160D01*
D11*
D10*
X5303760Y-11547080D02*
X5333760Y-11577080D01*
X5333760Y-11547080D02*
X5303760Y-11577080D01*
X5527280Y-9637000D02*
X5557280Y-9667000D01*
X5557280Y-9637000D02*
X5527280Y-9667000D01*
X5593320Y-11882360D02*
X5623320Y-11912360D01*
X5623320Y-11882360D02*
X5593320Y-11912360D01*
X5905788Y-5804378D02*
X5935788Y-5834378D01*
X5935788Y-5804378D02*
X5905788Y-5834378D01*
X5989560Y-11562320D02*
X6019560Y-11592320D01*
X6019560Y-11562320D02*
X5989560Y-11592320D01*
X6106400Y-9637000D02*
X6136400Y-9667000D01*
X6136400Y-9637000D02*
X6106400Y-9667000D01*
X6162280Y-5842240D02*
X6192280Y-5872240D01*
X6192280Y-5842240D02*
X6162280Y-5872240D01*
X6319760Y-9642080D02*
X6349760Y-9672080D01*
X6349760Y-9642080D02*
X6319760Y-9672080D01*
X6426440Y-5887960D02*
X6456440Y-5917960D01*
X6456440Y-5887960D02*
X6426440Y-5917960D01*
X6497560Y-8011400D02*
X6527560Y-8041400D01*
X6527560Y-8011400D02*
X6497560Y-8041400D01*
X6685520Y-5923520D02*
X6715520Y-5953520D01*
X6715520Y-5923520D02*
X6685520Y-5953520D01*
X6710920Y-9581120D02*
X6740920Y-9611120D01*
X6740920Y-9581120D02*
X6710920Y-9611120D01*
X6934440Y-7544040D02*
X6964440Y-7574040D01*
X6964440Y-7544040D02*
X6934440Y-7574040D01*
X6939520Y-9484600D02*
X6969520Y-9514600D01*
X6969520Y-9484600D02*
X6939520Y-9514600D01*
X6959840Y-7315440D02*
X6989840Y-7345440D01*
X6989840Y-7315440D02*
X6959840Y-7345440D01*
X6964920Y-5969240D02*
X6994920Y-5999240D01*
X6994920Y-5969240D02*
X6964920Y-5999240D01*
X7178280Y-7284960D02*
X7208280Y-7314960D01*
X7208280Y-7284960D02*
X7178280Y-7314960D01*
X7203680Y-6004800D02*
X7233680Y-6034800D01*
X7233680Y-6004800D02*
X7203680Y-6034800D01*
X7215300Y-8229840D02*
X7245300Y-8259840D01*
X7245300Y-8229840D02*
X7215300Y-8259840D01*
X7264640Y-11542000D02*
X7294640Y-11572000D01*
X7294640Y-11542000D02*
X7264640Y-11572000D01*
X7284960Y-9484600D02*
X7314960Y-9514600D01*
X7314960Y-9484600D02*
X7284960Y-9514600D01*
X7396720Y-5029440D02*
X7426720Y-5059440D01*
X7426720Y-5029440D02*
X7396720Y-5059440D01*
X7467840Y-8560014D02*
X7497840Y-8590014D01*
X7497840Y-8560014D02*
X7467840Y-8590014D01*
X7472920Y-6049320D02*
X7502920Y-6079320D01*
X7502920Y-6049320D02*
X7472920Y-6079320D01*
X7635480Y-11542000D02*
X7665480Y-11572000D01*
X7665480Y-11542000D02*
X7635480Y-11572000D01*
X7721840Y-7356080D02*
X7751840Y-7386080D01*
X7751840Y-7356080D02*
X7721840Y-7386080D01*
X7772640Y-9484600D02*
X7802640Y-9514600D01*
X7802640Y-9484600D02*
X7772640Y-9514600D01*
X7930120Y-6090040D02*
X7960120Y-6120040D01*
X7960120Y-6090040D02*
X7930120Y-6120040D01*
X8102840Y-5075160D02*
X8132840Y-5105160D01*
X8132840Y-5075160D02*
X8102840Y-5105160D01*
X8148560Y-5674600D02*
X8178560Y-5704600D01*
X8178560Y-5674600D02*
X8148560Y-5704600D01*
X8153640Y-6268960D02*
X8183640Y-6298960D01*
X8183640Y-6268960D02*
X8153640Y-6298960D01*
X8219680Y-6136880D02*
X8249680Y-6166880D01*
X8249680Y-6136880D02*
X8219680Y-6166880D01*
X8229840Y-5303760D02*
X8259840Y-5333760D01*
X8259840Y-5303760D02*
X8229840Y-5333760D01*
X8361190Y-5135390D02*
X8391190Y-5165390D01*
X8391190Y-5135390D02*
X8361190Y-5165390D01*
X8453360Y-10932400D02*
X8483360Y-10962400D01*
X8483360Y-10932400D02*
X8453360Y-10962400D01*
X8458440Y-11542000D02*
X8488440Y-11572000D01*
X8488440Y-11542000D02*
X8458440Y-11572000D01*
X8473680Y-6186160D02*
X8503680Y-6216160D01*
X8503680Y-6186160D02*
X8473680Y-6216160D01*
X8525140Y-3917580D02*
X8555140Y-3947580D01*
X8555140Y-3917580D02*
X8525140Y-3947580D01*
X8610840Y-5283440D02*
X8640840Y-5313440D01*
X8640840Y-5283440D02*
X8610840Y-5313440D01*
X8697200Y-6226481D02*
X8727200Y-6256481D01*
X8727200Y-6226481D02*
X8697200Y-6256481D01*
X8753080Y-5212320D02*
X8783080Y-5242320D01*
X8783080Y-5212320D02*
X8753080Y-5242320D01*
X8758160Y-3764520D02*
X8788160Y-3794520D01*
X8788160Y-3764520D02*
X8758160Y-3794520D01*
X8798800Y-11039080D02*
X8828800Y-11069080D01*
X8828800Y-11039080D02*
X8798800Y-11069080D01*
X8895320Y-10221200D02*
X8925320Y-10251200D01*
X8925320Y-10221200D02*
X8895320Y-10251200D01*
X9012160Y-6263080D02*
X9042160Y-6293080D01*
X9042160Y-6263080D02*
X9012160Y-6293080D01*
X9103600Y-9992600D02*
X9133600Y-10022600D01*
X9133600Y-9992600D02*
X9103600Y-10022600D01*
X9103600Y-10769840D02*
X9133600Y-10799840D01*
X9133600Y-10769840D02*
X9103600Y-10799840D01*
X9347440Y-11232120D02*
X9377440Y-11262120D01*
X9377440Y-11232120D02*
X9347440Y-11262120D01*
X9479520Y-11755360D02*
X9509520Y-11785360D01*
X9509520Y-11755360D02*
X9479520Y-11785360D01*
X9591280Y-10556480D02*
X9621280Y-10586480D01*
X9621280Y-10556480D02*
X9591280Y-10586480D01*
X9606520Y-10109440D02*
X9636520Y-10139440D01*
X9636520Y-10109440D02*
X9606520Y-10139440D01*
X9697960Y-9997680D02*
X9727960Y-10027680D01*
X9727960Y-9997680D02*
X9697960Y-10027680D01*
X9723360Y-10556480D02*
X9753360Y-10586480D01*
X9753360Y-10556480D02*
X9723360Y-10586480D01*
X9728440Y-10739360D02*
X9758440Y-10769360D01*
X9758440Y-10739360D02*
X9728440Y-10769360D01*
X9779240Y-11227040D02*
X9809240Y-11257040D01*
X9809240Y-11227040D02*
X9779240Y-11257040D01*
X9906240Y-11750280D02*
X9936240Y-11780280D01*
X9936240Y-11750280D02*
X9906240Y-11780280D01*
X10028160Y-6792200D02*
X10058160Y-6822200D01*
X10058160Y-6792200D02*
X10028160Y-6822200D01*
X10048480Y-4973560D02*
X10078480Y-5003560D01*
X10078480Y-4973560D02*
X10048480Y-5003560D01*
X10048480Y-10246600D02*
X10078480Y-10276600D01*
X10078480Y-10246600D02*
X10048480Y-10276600D01*
X10048480Y-10465040D02*
X10078480Y-10495040D01*
X10078480Y-10465040D02*
X10048480Y-10495040D01*
X10134840Y-10759680D02*
X10164840Y-10789680D01*
X10164840Y-10759680D02*
X10134840Y-10789680D01*
X10139920Y-9992600D02*
X10169920Y-10022600D01*
X10169920Y-9992600D02*
X10139920Y-10022600D01*
X10145000Y-7178280D02*
X10175000Y-7208280D01*
X10175000Y-7178280D02*
X10145000Y-7208280D01*
X10180560Y-10348200D02*
X10210560Y-10378200D01*
X10210560Y-10348200D02*
X10180560Y-10378200D01*
X10327880Y-9042640D02*
X10357880Y-9072640D01*
X10357880Y-9042640D02*
X10327880Y-9072640D01*
X10388840Y-4963400D02*
X10418840Y-4993400D01*
X10418840Y-4963400D02*
X10388840Y-4993400D01*
X10566640Y-7249400D02*
X10596640Y-7279400D01*
X10596640Y-7249400D02*
X10566640Y-7279400D01*
X10754600Y-6843000D02*
X10784600Y-6873000D01*
X10784600Y-6843000D02*
X10754600Y-6873000D01*
X11069560Y-7234160D02*
X11099560Y-7264160D01*
X11099560Y-7234160D02*
X11069560Y-7264160D01*
X11135600Y-10002760D02*
X11165600Y-10032760D01*
X11165600Y-10002760D02*
X11135600Y-10032760D01*
X11181320Y-4440160D02*
X11211320Y-4470160D01*
X11211320Y-4440160D02*
X11181320Y-4470160D01*
X11232120Y-5629760D02*
X11262120Y-5659760D01*
X11262120Y-5629760D02*
X11232120Y-5659760D01*
X11252440Y-8915640D02*
X11282440Y-8945640D01*
X11282440Y-8915640D02*
X11252440Y-8945640D01*
X11262600Y-4196320D02*
X11292600Y-4226320D01*
X11292600Y-4196320D02*
X11262600Y-4226320D01*
X11313400Y-8280640D02*
X11343400Y-8310640D01*
X11343400Y-8280640D02*
X11313400Y-8310640D01*
X11343878Y-7264642D02*
X11373878Y-7294642D01*
X11373878Y-7264642D02*
X11343878Y-7294642D01*
X11399760Y-4790680D02*
X11429760Y-4820680D01*
X11429760Y-4790680D02*
X11399760Y-4820680D01*
X11491200Y-6924280D02*
X11521200Y-6954280D01*
X11521200Y-6924280D02*
X11491200Y-6954280D01*
X11493617Y-5619900D02*
X11523617Y-5649900D01*
X11523617Y-5619900D02*
X11493617Y-5649900D01*
X11495400Y-6192760D02*
X11525400Y-6222760D01*
X11525400Y-6192760D02*
X11495400Y-6222760D01*
X11495400Y-6289280D02*
X11525400Y-6319280D01*
X11525400Y-6289280D02*
X11495400Y-6319280D01*
X11495400Y-6411200D02*
X11525400Y-6441200D01*
X11525400Y-6411200D02*
X11495400Y-6441200D01*
X11496280Y-9464280D02*
X11526280Y-9494280D01*
X11526280Y-9464280D02*
X11496280Y-9494280D01*
X11526760Y-4577320D02*
X11556760Y-4607320D01*
X11556760Y-4577320D02*
X11526760Y-4607320D01*
X11526760Y-10246600D02*
X11556760Y-10276600D01*
X11556760Y-10246600D02*
X11526760Y-10276600D01*
X11536920Y-6111480D02*
X11566920Y-6141480D01*
X11566920Y-6111480D02*
X11536920Y-6141480D01*
X11547080Y-5171680D02*
X11577080Y-5201680D01*
X11577080Y-5171680D02*
X11547080Y-5201680D01*
X11591020Y-6030200D02*
X11621020Y-6060200D01*
X11621020Y-6030200D02*
X11591020Y-6060200D01*
X11591378Y-7947080D02*
X11621378Y-7977080D01*
X11621378Y-7947080D02*
X11591378Y-7977080D01*
X11613120Y-8031720D02*
X11643120Y-8061720D01*
X11643120Y-8031720D02*
X11613120Y-8061720D01*
X11674080Y-5948920D02*
X11704080Y-5978920D01*
X11704080Y-5948920D02*
X11674080Y-5978920D01*
X11709640Y-8041880D02*
X11739640Y-8071880D01*
X11739640Y-8041880D02*
X11709640Y-8071880D01*
X11724880Y-5857480D02*
X11754880Y-5887480D01*
X11754880Y-5857480D02*
X11724880Y-5887480D01*
X11735345Y-4023905D02*
X11765345Y-4053905D01*
X11765345Y-4023905D02*
X11735345Y-4053905D01*
X11775680Y-10063720D02*
X11805680Y-10093720D01*
X11805680Y-10063720D02*
X11775680Y-10093720D01*
X11780760Y-4607800D02*
X11810760Y-4637800D01*
X11810760Y-4607800D02*
X11780760Y-4637800D01*
X11785840Y-8123160D02*
X11815840Y-8153160D01*
X11815840Y-8123160D02*
X11785840Y-8153160D01*
X11790920Y-5791440D02*
X11820920Y-5821440D01*
X11820920Y-5791440D02*
X11790920Y-5821440D01*
X11811240Y-4531600D02*
X11841240Y-4561600D01*
X11841240Y-4531600D02*
X11811240Y-4561600D01*
X11813780Y-4183620D02*
X11843780Y-4213620D01*
X11843780Y-4183620D02*
X11813780Y-4213620D01*
X11823932Y-3920940D02*
X11853932Y-3950940D01*
X11853932Y-3920940D02*
X11823932Y-3950940D01*
X11851880Y-4673840D02*
X11881880Y-4703840D01*
X11881880Y-4673840D02*
X11851880Y-4703840D01*
X11852510Y-4046761D02*
X11882510Y-4076761D01*
X11882510Y-4046761D02*
X11852510Y-4076761D01*
X11867120Y-9997680D02*
X11897120Y-10027680D01*
X11897120Y-9997680D02*
X11867120Y-10027680D01*
X11872201Y-10246600D02*
X11902201Y-10276600D01*
X11902201Y-10246600D02*
X11872201Y-10276600D01*
X11877280Y-5694920D02*
X11907280Y-5724920D01*
X11907280Y-5694920D02*
X11877280Y-5724920D01*
X11877280Y-8336520D02*
X11907280Y-8366520D01*
X11907280Y-8336520D02*
X11877280Y-8366520D01*
X11917120Y-8260320D02*
X11947120Y-8290320D01*
X11947120Y-8260320D02*
X11917120Y-8290320D01*
X11917919Y-5369800D02*
X11947919Y-5399800D01*
X11947919Y-5369800D02*
X11917919Y-5399800D01*
X11922364Y-3765154D02*
X11952364Y-3795154D01*
X11952364Y-3765154D02*
X11922364Y-3795154D01*
X11928080Y-4511280D02*
X11958080Y-4541280D01*
X11958080Y-4511280D02*
X11928080Y-4541280D01*
X11943320Y-9936720D02*
X11973320Y-9966720D01*
X11973320Y-9936720D02*
X11943320Y-9966720D01*
X11999200Y-5288520D02*
X12029200Y-5318520D01*
X12029200Y-5288520D02*
X11999200Y-5318520D01*
X12009360Y-8290800D02*
X12039360Y-8320800D01*
X12039360Y-8290800D02*
X12009360Y-8320800D01*
X12019520Y-9870680D02*
X12049520Y-9900680D01*
X12049520Y-9870680D02*
X12019520Y-9900680D01*
X12044920Y-3551160D02*
X12074920Y-3581160D01*
X12074920Y-3551160D02*
X12044920Y-3581160D01*
X12050000Y-8214600D02*
X12080000Y-8244600D01*
X12080000Y-8214600D02*
X12050000Y-8244600D01*
X12056860Y-4888514D02*
X12086860Y-4918514D01*
X12086860Y-4888514D02*
X12056860Y-4918514D01*
X12083580Y-5229976D02*
X12113580Y-5259976D01*
X12113580Y-5229976D02*
X12083580Y-5259976D01*
X12085560Y-9642080D02*
X12115560Y-9672080D01*
X12115560Y-9642080D02*
X12085560Y-9672080D01*
X12136360Y-8209520D02*
X12166360Y-8239520D01*
X12166360Y-8209520D02*
X12136360Y-8239520D01*
X12156680Y-9764000D02*
X12186680Y-9794000D01*
X12186680Y-9764000D02*
X12156680Y-9794000D01*
X12161760Y-9057880D02*
X12191760Y-9087880D01*
X12191760Y-9057880D02*
X12161760Y-9087880D01*
X12166040Y-7912799D02*
X12196040Y-7942799D01*
X12196040Y-7912799D02*
X12166040Y-7942799D01*
X12166040Y-7997878D02*
X12196040Y-8027878D01*
X12196040Y-7997878D02*
X12166040Y-8027878D01*
X12179172Y-8137197D02*
X12209172Y-8167197D01*
X12209172Y-8137197D02*
X12179172Y-8167197D01*
X12187160Y-6665200D02*
X12217160Y-6695200D01*
X12217160Y-6665200D02*
X12187160Y-6695200D01*
X12192240Y-10912080D02*
X12222240Y-10942080D01*
X12222240Y-10912080D02*
X12192240Y-10942080D01*
X12197320Y-3876280D02*
X12227320Y-3906280D01*
X12227320Y-3876280D02*
X12197320Y-3906280D01*
X12202400Y-5694920D02*
X12232400Y-5724920D01*
X12232400Y-5694920D02*
X12202400Y-5724920D01*
X12209340Y-4648440D02*
X12239340Y-4678440D01*
X12239340Y-4648440D02*
X12209340Y-4678440D01*
X12212560Y-5103070D02*
X12242560Y-5133070D01*
X12242560Y-5103070D02*
X12212560Y-5133070D01*
X12213080Y-3622800D02*
X12243080Y-3652800D01*
X12243080Y-3622800D02*
X12213080Y-3652800D01*
X12217640Y-8570200D02*
X12247640Y-8600200D01*
X12247640Y-8570200D02*
X12217640Y-8600200D01*
X12253200Y-5319000D02*
X12283200Y-5349000D01*
X12283200Y-5319000D02*
X12253200Y-5349000D01*
X12267640Y-7239240D02*
X12297640Y-7269240D01*
X12297640Y-7239240D02*
X12267640Y-7269240D01*
X12298920Y-6441680D02*
X12328920Y-6471680D01*
X12328920Y-6441680D02*
X12298920Y-6471680D01*
X12324320Y-7899640D02*
X12354320Y-7929640D01*
X12354320Y-7899640D02*
X12324320Y-7929640D01*
X12344640Y-5120880D02*
X12374640Y-5150880D01*
X12374640Y-5120880D02*
X12344640Y-5150880D01*
X12364960Y-7447520D02*
X12394960Y-7477520D01*
X12394960Y-7447520D02*
X12364960Y-7477520D01*
X12366720Y-7732000D02*
X12396720Y-7762000D01*
X12396720Y-7732000D02*
X12366720Y-7762000D01*
X12380200Y-5989560D02*
X12410200Y-6019560D01*
X12410200Y-5989560D02*
X12380200Y-6019560D01*
X12451320Y-11328640D02*
X12481320Y-11358640D01*
X12481320Y-11328640D02*
X12451320Y-11358640D01*
X12471640Y-9779240D02*
X12501640Y-9809240D01*
X12501640Y-9779240D02*
X12471640Y-9809240D01*
X12481800Y-9205200D02*
X12511800Y-9235200D01*
X12511800Y-9205200D02*
X12481800Y-9235200D01*
X12494500Y-4686540D02*
X12524500Y-4716540D01*
X12524500Y-4686540D02*
X12494500Y-4716540D01*
X12496061Y-9556699D02*
X12526061Y-9586699D01*
X12526061Y-9556699D02*
X12496061Y-9586699D01*
X12497040Y-7417040D02*
X12527040Y-7447040D01*
X12527040Y-7417040D02*
X12497040Y-7447040D01*
X12509740Y-6157200D02*
X12539740Y-6187200D01*
X12539740Y-6157200D02*
X12509740Y-6187200D01*
X12517360Y-9286480D02*
X12547360Y-9316480D01*
X12547360Y-9286480D02*
X12517360Y-9316480D01*
X12537680Y-9713200D02*
X12567680Y-9743200D01*
X12567680Y-9713200D02*
X12537680Y-9743200D01*
X12561560Y-7477923D02*
X12591560Y-7507923D01*
X12591560Y-7477923D02*
X12561560Y-7507923D01*
X12563080Y-6538200D02*
X12593080Y-6568200D01*
X12593080Y-6538200D02*
X12563080Y-6568200D01*
X12573240Y-9367760D02*
X12603240Y-9397760D01*
X12603240Y-9367760D02*
X12573240Y-9397760D01*
X12588480Y-6451840D02*
X12618480Y-6481840D01*
X12618480Y-6451840D02*
X12588480Y-6481840D01*
X12608800Y-5471400D02*
X12638800Y-5501400D01*
X12638800Y-5471400D02*
X12608800Y-5501400D01*
X12619340Y-9499196D02*
X12649340Y-9529196D01*
X12649340Y-9499196D02*
X12619340Y-9529196D01*
X12624803Y-6153258D02*
X12654803Y-6183258D01*
X12654803Y-6153258D02*
X12624803Y-6183258D01*
X12639280Y-5552680D02*
X12669280Y-5582680D01*
X12669280Y-5552680D02*
X12639280Y-5582680D01*
X12654520Y-9631920D02*
X12684520Y-9661920D01*
X12684520Y-9631920D02*
X12654520Y-9661920D01*
X12669760Y-6248640D02*
X12699760Y-6278640D01*
X12699760Y-6248640D02*
X12669760Y-6278640D01*
X12674840Y-4597640D02*
X12704840Y-4627640D01*
X12704840Y-4597640D02*
X12674840Y-4627640D01*
X12715480Y-9951960D02*
X12745480Y-9981960D01*
X12745480Y-9951960D02*
X12715480Y-9981960D01*
X12729462Y-7370201D02*
X12759462Y-7400201D01*
X12759462Y-7370201D02*
X12729462Y-7400201D01*
X12740880Y-5456160D02*
X12770880Y-5486160D01*
X12770880Y-5456160D02*
X12740880Y-5486160D01*
X12745960Y-3556240D02*
X12775960Y-3586240D01*
X12775960Y-3556240D02*
X12745960Y-3586240D01*
X12748065Y-6529114D02*
X12778065Y-6559114D01*
X12778065Y-6529114D02*
X12748065Y-6559114D01*
X12756120Y-7869160D02*
X12786120Y-7899160D01*
X12786120Y-7869160D02*
X12756120Y-7899160D01*
X12761200Y-8910560D02*
X12791200Y-8940560D01*
X12791200Y-8910560D02*
X12761200Y-8940560D01*
X12796760Y-6376520D02*
X12826760Y-6406520D01*
X12826760Y-6376520D02*
X12796760Y-6406520D01*
X12812000Y-5506960D02*
X12842000Y-5536960D01*
X12842000Y-5506960D02*
X12812000Y-5536960D01*
X12812000Y-6081000D02*
X12842000Y-6111000D01*
X12842000Y-6081000D02*
X12812000Y-6111000D01*
X12812000Y-7427200D02*
X12842000Y-7457200D01*
X12842000Y-7427200D02*
X12812000Y-7457200D01*
X12822160Y-3246360D02*
X12852160Y-3276360D01*
X12852160Y-3246360D02*
X12822160Y-3276360D01*
X12822292Y-4541892D02*
X12852292Y-4571892D01*
X12852292Y-4541892D02*
X12822292Y-4571892D01*
X12824700Y-4656060D02*
X12854700Y-4686060D01*
X12854700Y-4656060D02*
X12824700Y-4686060D01*
X12837400Y-5075160D02*
X12867400Y-5105160D01*
X12867400Y-5075160D02*
X12837400Y-5105160D01*
X12837400Y-6512800D02*
X12867400Y-6542800D01*
X12867400Y-6512800D02*
X12837400Y-6542800D01*
X12867880Y-10256760D02*
X12897880Y-10286760D01*
X12897880Y-10256760D02*
X12867880Y-10286760D01*
X12884896Y-8954636D02*
X12914896Y-8984636D01*
X12914896Y-8954636D02*
X12884896Y-8984636D01*
X12923760Y-5522200D02*
X12953760Y-5552200D01*
X12953760Y-5522200D02*
X12923760Y-5552200D01*
X12939000Y-6030200D02*
X12969000Y-6060200D01*
X12969000Y-6030200D02*
X12939000Y-6060200D01*
X12964400Y-5039600D02*
X12994400Y-5069600D01*
X12994400Y-5039600D02*
X12964400Y-5069600D01*
X12969732Y-6311360D02*
X12999732Y-6341360D01*
X12999732Y-6311360D02*
X12969732Y-6341360D01*
X12979640Y-7351000D02*
X13009640Y-7381000D01*
X13009640Y-7351000D02*
X12979640Y-7381000D01*
X13015200Y-9108680D02*
X13045200Y-9138680D01*
X13045200Y-9108680D02*
X13015200Y-9138680D01*
X13030440Y-6675360D02*
X13060440Y-6705360D01*
X13060440Y-6675360D02*
X13030440Y-6705360D01*
X13050375Y-6344533D02*
X13080375Y-6374533D01*
X13080375Y-6344533D02*
X13050375Y-6374533D01*
X13050760Y-7925040D02*
X13080760Y-7955040D01*
X13080760Y-7925040D02*
X13050760Y-7955040D01*
X13055840Y-7635480D02*
X13085840Y-7665480D01*
X13085840Y-7635480D02*
X13055840Y-7665480D01*
X13071080Y-10358360D02*
X13101080Y-10388360D01*
X13101080Y-10358360D02*
X13071080Y-10388360D01*
X13072755Y-4705995D02*
X13102755Y-4735995D01*
X13102755Y-4705995D02*
X13072755Y-4735995D01*
X13086320Y-7848840D02*
X13116320Y-7878840D01*
X13116320Y-7848840D02*
X13086320Y-7878840D01*
X13091400Y-3236200D02*
X13121400Y-3266200D01*
X13121400Y-3236200D02*
X13091400Y-3266200D01*
X13091400Y-3492800D02*
X13121400Y-3522800D01*
X13121400Y-3492800D02*
X13091400Y-3522800D01*
X13126960Y-9393160D02*
X13156960Y-9423160D01*
X13156960Y-9393160D02*
X13126960Y-9423160D01*
X13135437Y-5842240D02*
X13165437Y-5872240D01*
X13165437Y-5842240D02*
X13135437Y-5872240D01*
X13152005Y-5410795D02*
X13182005Y-5440795D01*
X13182005Y-5410795D02*
X13152005Y-5440795D01*
X13162520Y-8148560D02*
X13192520Y-8178560D01*
X13192520Y-8148560D02*
X13162520Y-8178560D01*
X13163400Y-9276320D02*
X13193400Y-9306320D01*
X13193400Y-9276320D02*
X13163400Y-9306320D01*
X13167600Y-10317720D02*
X13197600Y-10347720D01*
X13197600Y-10317720D02*
X13167600Y-10347720D01*
X13172680Y-9464280D02*
X13202680Y-9494280D01*
X13202680Y-9464280D02*
X13172680Y-9494280D01*
X13177760Y-10901920D02*
X13207760Y-10931920D01*
X13207760Y-10901920D02*
X13177760Y-10931920D01*
X13182840Y-8062200D02*
X13212840Y-8092200D01*
X13212840Y-8062200D02*
X13182840Y-8092200D01*
X13182840Y-8240000D02*
X13212840Y-8270000D01*
X13212840Y-8240000D02*
X13182840Y-8270000D01*
X13187920Y-7142720D02*
X13217920Y-7172720D01*
X13217920Y-7142720D02*
X13187920Y-7172720D01*
X13194900Y-9843380D02*
X13224900Y-9873380D01*
X13224900Y-9843380D02*
X13194900Y-9873380D01*
X13210139Y-7694540D02*
X13240139Y-7724540D01*
X13240139Y-7694540D02*
X13210139Y-7724540D01*
X13223480Y-9748760D02*
X13253480Y-9778760D01*
X13253480Y-9748760D02*
X13223480Y-9778760D01*
X13228560Y-9530320D02*
X13258560Y-9560320D01*
X13258560Y-9530320D02*
X13228560Y-9560320D01*
X13238720Y-3942320D02*
X13268720Y-3972320D01*
X13268720Y-3942320D02*
X13238720Y-3972320D01*
X13243800Y-6756640D02*
X13273800Y-6786640D01*
X13273800Y-6756640D02*
X13243800Y-6786640D01*
X13243800Y-8311120D02*
X13273800Y-8341120D01*
X13273800Y-8311120D02*
X13243800Y-8341120D01*
X13246271Y-7229094D02*
X13276271Y-7259094D01*
X13276271Y-7229094D02*
X13246271Y-7259094D01*
X13248880Y-9672560D02*
X13278880Y-9702560D01*
X13278880Y-9672560D02*
X13248880Y-9702560D01*
X13253960Y-7823440D02*
X13283960Y-7853440D01*
X13283960Y-7823440D02*
X13253960Y-7853440D01*
X13253960Y-7051280D02*
X13283960Y-7081280D01*
X13283960Y-7051280D02*
X13253960Y-7081280D01*
X13289520Y-9256000D02*
X13319520Y-9286000D01*
X13319520Y-9256000D02*
X13289520Y-9286000D01*
X13291241Y-7301224D02*
X13321241Y-7331224D01*
X13321241Y-7301224D02*
X13291241Y-7331224D01*
X13302088Y-9598768D02*
X13332088Y-9628768D01*
X13332088Y-9598768D02*
X13302088Y-9628768D01*
X13305794Y-8378621D02*
X13335794Y-8408621D01*
X13335794Y-8378621D02*
X13305794Y-8408621D01*
X13309840Y-7706600D02*
X13339840Y-7736600D01*
X13339840Y-7706600D02*
X13309840Y-7736600D01*
X13320000Y-4155680D02*
X13350000Y-4185680D01*
X13350000Y-4155680D02*
X13320000Y-4185680D01*
X13330332Y-7128855D02*
X13360332Y-7158855D01*
X13360332Y-7128855D02*
X13330332Y-7158855D01*
X13333700Y-7374860D02*
X13363700Y-7404860D01*
X13363700Y-7374860D02*
X13333700Y-7404860D01*
X13355560Y-7640560D02*
X13385560Y-7670560D01*
X13385560Y-7640560D02*
X13355560Y-7670560D01*
X13355560Y-11115280D02*
X13385560Y-11145280D01*
X13385560Y-11115280D02*
X13355560Y-11145280D01*
X13375880Y-8656560D02*
X13405880Y-8686560D01*
X13405880Y-8656560D02*
X13375880Y-8686560D01*
X13393792Y-8447940D02*
X13423792Y-8477940D01*
X13423792Y-8447940D02*
X13393792Y-8477940D01*
X13406360Y-6004800D02*
X13436360Y-6034800D01*
X13436360Y-6004800D02*
X13406360Y-6034800D01*
X13412320Y-7498320D02*
X13442320Y-7528320D01*
X13442320Y-7498320D02*
X13412320Y-7528320D01*
X13419415Y-8978785D02*
X13449415Y-9008785D01*
X13449415Y-8978785D02*
X13419415Y-9008785D01*
X13426680Y-9322040D02*
X13456680Y-9352040D01*
X13456680Y-9322040D02*
X13426680Y-9352040D01*
X13457160Y-8514320D02*
X13487160Y-8544320D01*
X13487160Y-8514320D02*
X13457160Y-8544320D01*
X13487640Y-11003520D02*
X13517640Y-11033520D01*
X13517640Y-11003520D02*
X13487640Y-11033520D01*
X13502886Y-8721720D02*
X13532886Y-8751720D01*
X13532886Y-8721720D02*
X13502886Y-8751720D01*
X13504372Y-8981494D02*
X13534372Y-9011494D01*
X13534372Y-8981494D02*
X13504372Y-9011494D01*
X13510145Y-5143385D02*
X13540145Y-5173385D01*
X13540145Y-5143385D02*
X13510145Y-5173385D01*
X13531412Y-8580083D02*
X13561412Y-8610083D01*
X13561412Y-8580083D02*
X13531412Y-8610083D01*
X13538440Y-4902440D02*
X13568440Y-4932440D01*
X13568440Y-4902440D02*
X13538440Y-4932440D01*
X13553680Y-9301720D02*
X13583680Y-9331720D01*
X13583680Y-9301720D02*
X13553680Y-9331720D01*
X13553680Y-10317720D02*
X13583680Y-10347720D01*
X13583680Y-10317720D02*
X13553680Y-10347720D01*
X13558697Y-5909053D02*
X13588697Y-5939053D01*
X13588697Y-5909053D02*
X13558697Y-5939053D01*
X13563840Y-3246360D02*
X13593840Y-3276360D01*
X13593840Y-3246360D02*
X13563840Y-3276360D01*
X13607020Y-7638020D02*
X13637020Y-7668020D01*
X13637020Y-7638020D02*
X13607020Y-7668020D01*
X13644765Y-5100915D02*
X13674765Y-5130915D01*
X13674765Y-5100915D02*
X13644765Y-5130915D01*
X13660360Y-5989560D02*
X13690360Y-6019560D01*
X13690360Y-5989560D02*
X13660360Y-6019560D01*
X13680680Y-9057880D02*
X13710680Y-9087880D01*
X13710680Y-9057880D02*
X13680680Y-9087880D01*
X13686297Y-4231343D02*
X13716297Y-4261343D01*
X13716297Y-4231343D02*
X13686297Y-4261343D01*
X13695920Y-11201640D02*
X13725920Y-11231640D01*
X13725920Y-11201640D02*
X13695920Y-11231640D01*
X13726400Y-5923520D02*
X13756400Y-5953520D01*
X13756400Y-5923520D02*
X13726400Y-5953520D01*
X13766340Y-5771819D02*
X13796340Y-5801819D01*
X13796340Y-5771819D02*
X13766340Y-5801819D01*
X13771480Y-9031840D02*
X13801480Y-9061840D01*
X13801480Y-9031840D02*
X13771480Y-9061840D01*
X13807680Y-5923520D02*
X13837680Y-5953520D01*
X13837680Y-5923520D02*
X13807680Y-5953520D01*
X13807680Y-11435320D02*
X13837680Y-11465320D01*
X13837680Y-11435320D02*
X13807680Y-11465320D01*
X13848320Y-7529120D02*
X13878320Y-7559120D01*
X13878320Y-7529120D02*
X13848320Y-7559120D01*
X13848320Y-10373600D02*
X13878320Y-10403600D01*
X13878320Y-10373600D02*
X13848320Y-10403600D01*
X13848320Y-10470120D02*
X13878320Y-10500120D01*
X13878320Y-10470120D02*
X13848320Y-10500120D01*
X13855940Y-4976100D02*
X13885940Y-5006100D01*
X13885940Y-4976100D02*
X13855940Y-5006100D01*
X13858348Y-10180560D02*
X13888348Y-10210560D01*
X13888348Y-10180560D02*
X13858348Y-10210560D01*
X13878800Y-10297400D02*
X13908800Y-10327400D01*
X13908800Y-10297400D02*
X13878800Y-10327400D01*
X13894040Y-11115280D02*
X13924040Y-11145280D01*
X13924040Y-11115280D02*
X13894040Y-11145280D01*
X13899120Y-3871200D02*
X13929120Y-3901200D01*
X13929120Y-3871200D02*
X13899120Y-3901200D01*
X13904200Y-5821920D02*
X13934200Y-5851920D01*
X13934200Y-5821920D02*
X13904200Y-5851920D01*
X13914360Y-5562840D02*
X13944360Y-5592840D01*
X13944360Y-5562840D02*
X13914360Y-5592840D01*
X13917688Y-5727152D02*
X13947688Y-5757152D01*
X13947688Y-5727152D02*
X13917688Y-5757152D01*
X13924520Y-11028920D02*
X13954520Y-11058920D01*
X13954520Y-11028920D02*
X13924520Y-11058920D01*
X13929600Y-9525240D02*
X13959600Y-9555240D01*
X13959600Y-9525240D02*
X13929600Y-9555240D01*
X13985480Y-4567160D02*
X14015480Y-4597160D01*
X14015480Y-4567160D02*
X13985480Y-4597160D01*
X13990560Y-4821160D02*
X14020560Y-4851160D01*
X14020560Y-4821160D02*
X13990560Y-4851160D01*
X14005800Y-5481560D02*
X14035800Y-5511560D01*
X14035800Y-5481560D02*
X14005800Y-5511560D01*
X14005800Y-9591280D02*
X14035800Y-9621280D01*
X14035800Y-9591280D02*
X14005800Y-9621280D01*
X14026120Y-10907000D02*
X14056120Y-10937000D01*
X14056120Y-10907000D02*
X14026120Y-10937000D01*
X14031200Y-5694920D02*
X14061200Y-5724920D01*
X14061200Y-5694920D02*
X14031200Y-5724920D01*
X14081827Y-5438467D02*
X14111827Y-5468467D01*
X14111827Y-5438467D02*
X14081827Y-5468467D01*
X14113406Y-9707194D02*
X14143406Y-9737194D01*
X14143406Y-9707194D02*
X14113406Y-9737194D01*
X14132800Y-5374880D02*
X14162800Y-5404880D01*
X14162800Y-5374880D02*
X14132800Y-5404880D01*
X14148040Y-9149320D02*
X14178040Y-9179320D01*
X14178040Y-9149320D02*
X14148040Y-9179320D01*
X14153120Y-10886680D02*
X14183120Y-10916680D01*
X14183120Y-10886680D02*
X14153120Y-10916680D01*
X14190377Y-5305872D02*
X14220377Y-5335872D01*
X14220377Y-5305872D02*
X14190377Y-5335872D01*
X14239480Y-9510000D02*
X14269480Y-9540000D01*
X14269480Y-9510000D02*
X14239480Y-9540000D01*
X14264880Y-9103600D02*
X14294880Y-9133600D01*
X14294880Y-9103600D02*
X14264880Y-9133600D01*
X14264880Y-11536920D02*
X14294880Y-11566920D01*
X14294880Y-11536920D02*
X14264880Y-11566920D01*
X14275040Y-10790160D02*
X14305040Y-10820160D01*
X14305040Y-10790160D02*
X14275040Y-10820160D01*
X14356320Y-11709640D02*
X14386320Y-11739640D01*
X14386320Y-11709640D02*
X14356320Y-11739640D01*
X14366480Y-9570960D02*
X14396480Y-9600960D01*
X14396480Y-9570960D02*
X14366480Y-9600960D01*
X14371560Y-5283440D02*
X14401560Y-5313440D01*
X14401560Y-5283440D02*
X14371560Y-5313440D01*
X14391880Y-3825480D02*
X14421880Y-3855480D01*
X14421880Y-3825480D02*
X14391880Y-3855480D01*
X14403740Y-10465040D02*
X14433740Y-10495040D01*
X14433740Y-10465040D02*
X14403740Y-10495040D01*
X14409305Y-8308225D02*
X14439305Y-8338225D01*
X14439305Y-8308225D02*
X14409305Y-8338225D01*
X14468080Y-10272000D02*
X14498080Y-10302000D01*
X14498080Y-10272000D02*
X14468080Y-10302000D01*
X14480249Y-9879857D02*
X14510249Y-9909857D01*
X14510249Y-9879857D02*
X14480249Y-9909857D01*
X14503640Y-8300960D02*
X14533640Y-8330960D01*
X14533640Y-8300960D02*
X14503640Y-8330960D01*
X14516510Y-10559595D02*
X14546510Y-10589595D01*
X14546510Y-10559595D02*
X14516510Y-10589595D01*
X14584920Y-8844520D02*
X14614920Y-8874520D01*
X14614920Y-8844520D02*
X14584920Y-8874520D01*
X14607185Y-8925833D02*
X14637185Y-8955833D01*
X14637185Y-8925833D02*
X14607185Y-8955833D01*
X14615327Y-10667260D02*
X14645327Y-10697260D01*
X14645327Y-10667260D02*
X14615327Y-10697260D01*
X14615400Y-8742920D02*
X14645400Y-8772920D01*
X14645400Y-8742920D02*
X14615400Y-8772920D01*
X14681440Y-5512040D02*
X14711440Y-5542040D01*
X14711440Y-5512040D02*
X14681440Y-5542040D01*
X14707640Y-8871690D02*
X14737640Y-8901690D01*
X14737640Y-8871690D02*
X14707640Y-8901690D01*
X14726560Y-10746453D02*
X14756560Y-10776453D01*
X14756560Y-10746453D02*
X14726560Y-10776453D01*
X14727160Y-11475960D02*
X14757160Y-11505960D01*
X14757160Y-11475960D02*
X14727160Y-11505960D01*
X14737703Y-8964205D02*
X14767703Y-8994205D01*
X14767703Y-8964205D02*
X14737703Y-8994205D01*
X14742400Y-7747240D02*
X14772400Y-7777240D01*
X14772400Y-7747240D02*
X14742400Y-7777240D01*
X14802586Y-7483854D02*
X14832586Y-7513854D01*
X14832586Y-7483854D02*
X14802586Y-7513854D01*
X14889720Y-8468600D02*
X14919720Y-8498600D01*
X14919720Y-8468600D02*
X14889720Y-8498600D01*
X14945600Y-7066520D02*
X14975600Y-7096520D01*
X14975600Y-7066520D02*
X14945600Y-7096520D01*
X14945600Y-11506440D02*
X14975600Y-11536440D01*
X14975600Y-11506440D02*
X14945600Y-11536440D01*
X14955760Y-3561320D02*
X14985760Y-3591320D01*
X14985760Y-3561320D02*
X14955760Y-3591320D01*
X14960840Y-6208000D02*
X14990840Y-6238000D01*
X14990840Y-6208000D02*
X14960840Y-6238000D01*
X14991240Y-8829280D02*
X15021240Y-8859280D01*
X15021240Y-8829280D02*
X14991240Y-8859280D01*
X14991320Y-8473680D02*
X15021320Y-8503680D01*
X15021320Y-8473680D02*
X14991320Y-8503680D01*
X15056480Y-8966440D02*
X15086480Y-8996440D01*
X15086480Y-8966440D02*
X15056480Y-8996440D01*
X15072600Y-11171160D02*
X15102600Y-11201160D01*
X15102600Y-11171160D02*
X15072600Y-11201160D01*
X15077680Y-7579600D02*
X15107680Y-7609600D01*
X15107680Y-7579600D02*
X15077680Y-7609600D01*
X15103080Y-9997680D02*
X15133080Y-10027680D01*
X15133080Y-9997680D02*
X15103080Y-10027680D01*
X15112590Y-7260929D02*
X15142590Y-7290929D01*
X15142590Y-7260929D02*
X15112590Y-7290929D01*
X15121640Y-8903441D02*
X15151640Y-8933441D01*
X15151640Y-8903441D02*
X15121640Y-8933441D01*
X15138640Y-7757344D02*
X15168640Y-7787344D01*
X15168640Y-7757344D02*
X15138640Y-7787344D01*
X15179281Y-10053560D02*
X15209281Y-10083560D01*
X15209281Y-10053560D02*
X15179281Y-10083560D01*
X15184360Y-11023840D02*
X15214360Y-11053840D01*
X15214360Y-11023840D02*
X15184360Y-11053840D01*
X15246200Y-10939240D02*
X15276200Y-10969240D01*
X15276200Y-10939240D02*
X15246200Y-10969240D01*
X15280880Y-5740640D02*
X15310880Y-5770640D01*
X15310880Y-5740640D02*
X15280880Y-5770640D01*
X15299015Y-10031055D02*
X15329015Y-10061055D01*
X15329015Y-10031055D02*
X15299015Y-10061055D01*
X15324545Y-10876773D02*
X15354545Y-10906773D01*
X15354545Y-10876773D02*
X15324545Y-10906773D01*
X15326600Y-9195040D02*
X15356600Y-9225040D01*
X15356600Y-9195040D02*
X15326600Y-9225040D01*
X15336760Y-3414000D02*
X15366760Y-3444000D01*
X15366760Y-3414000D02*
X15336760Y-3444000D01*
X15377389Y-10059361D02*
X15407389Y-10089361D01*
X15407389Y-10059361D02*
X15377389Y-10089361D01*
X15396138Y-10812062D02*
X15426138Y-10842062D01*
X15426138Y-10812062D02*
X15396138Y-10842062D01*
X15401910Y-7522830D02*
X15431910Y-7552830D01*
X15431910Y-7522830D02*
X15401910Y-7552830D01*
X15428200Y-6009880D02*
X15458200Y-6039880D01*
X15458200Y-6009880D02*
X15428200Y-6039880D01*
X15453600Y-10465040D02*
X15483600Y-10495040D01*
X15483600Y-10465040D02*
X15453600Y-10495040D01*
X15459606Y-10034166D02*
X15489606Y-10064166D01*
X15489606Y-10034166D02*
X15459606Y-10064166D01*
X15463760Y-6294360D02*
X15493760Y-6324360D01*
X15493760Y-6294360D02*
X15463760Y-6324360D01*
X15468840Y-9184880D02*
X15498840Y-9214880D01*
X15498840Y-9184880D02*
X15468840Y-9214880D01*
X15473920Y-8717520D02*
X15503920Y-8747520D01*
X15503920Y-8717520D02*
X15473920Y-8747520D01*
X15499320Y-9484600D02*
X15529320Y-9514600D01*
X15529320Y-9484600D02*
X15499320Y-9514600D01*
X15509480Y-5400280D02*
X15539480Y-5430280D01*
X15539480Y-5400280D02*
X15509480Y-5430280D01*
X15524720Y-3621480D02*
X15554720Y-3651480D01*
X15554720Y-3621480D02*
X15524720Y-3651480D01*
X15531341Y-10079763D02*
X15561341Y-10109763D01*
X15561341Y-10079763D02*
X15531341Y-10109763D01*
X15575520Y-5461240D02*
X15605520Y-5491240D01*
X15605520Y-5461240D02*
X15575520Y-5491240D01*
X15585680Y-10332960D02*
X15615680Y-10362960D01*
X15615680Y-10332960D02*
X15585680Y-10362960D01*
X15585680Y-10555158D02*
X15615680Y-10585158D01*
X15615680Y-10555158D02*
X15585680Y-10585158D01*
X15606000Y-3668000D02*
X15636000Y-3698000D01*
X15636000Y-3668000D02*
X15606000Y-3698000D01*
X15652600Y-10668240D02*
X15682600Y-10698240D01*
X15682600Y-10668240D02*
X15652600Y-10698240D01*
X15666960Y-8341600D02*
X15696960Y-8371600D01*
X15696960Y-8341600D02*
X15666960Y-8371600D01*
X15682200Y-7747240D02*
X15712200Y-7777240D01*
X15712200Y-7747240D02*
X15682200Y-7777240D01*
X15727920Y-10738325D02*
X15757920Y-10768325D01*
X15757920Y-10738325D02*
X15727920Y-10768325D01*
X15746287Y-10390620D02*
X15776287Y-10420620D01*
X15776287Y-10390620D02*
X15746287Y-10420620D01*
X15748240Y-10297400D02*
X15778240Y-10327400D01*
X15778240Y-10297400D02*
X15748240Y-10327400D01*
X15753320Y-3713720D02*
X15783320Y-3743720D01*
X15783320Y-3713720D02*
X15753320Y-3743720D01*
X15763480Y-7823440D02*
X15793480Y-7853440D01*
X15793480Y-7823440D02*
X15763480Y-7853440D01*
X15819360Y-6888720D02*
X15849360Y-6918720D01*
X15849360Y-6888720D02*
X15819360Y-6918720D01*
X15834600Y-6792200D02*
X15864600Y-6822200D01*
X15864600Y-6792200D02*
X15834600Y-6822200D01*
X15905720Y-11404840D02*
X15935720Y-11434840D01*
X15935720Y-11404840D02*
X15905720Y-11434840D01*
X15971760Y-7955520D02*
X16001760Y-7985520D01*
X16001760Y-7955520D02*
X15971760Y-7985520D01*
X16053040Y-11028920D02*
X16083040Y-11058920D01*
X16083040Y-11028920D02*
X16053040Y-11058920D01*
X16058120Y-7798040D02*
X16088120Y-7828040D01*
X16088120Y-7798040D02*
X16058120Y-7828040D01*
X16059900Y-7142720D02*
X16089900Y-7172720D01*
X16089900Y-7142720D02*
X16059900Y-7172720D01*
X16103840Y-10962880D02*
X16133840Y-10992880D01*
X16133840Y-10962880D02*
X16103840Y-10992880D01*
X16134320Y-8346680D02*
X16164320Y-8376680D01*
X16164320Y-8346680D02*
X16134320Y-8376680D01*
X16140083Y-9480688D02*
X16170083Y-9510688D01*
X16170083Y-9480688D02*
X16140083Y-9510688D01*
X16154640Y-10896840D02*
X16184640Y-10926840D01*
X16184640Y-10896840D02*
X16154640Y-10926840D01*
X16159720Y-4557000D02*
X16189720Y-4587000D01*
X16189720Y-4557000D02*
X16159720Y-4587000D01*
X16169880Y-9637000D02*
X16199880Y-9667000D01*
X16199880Y-9637000D02*
X16169880Y-9667000D01*
X16210520Y-8605760D02*
X16240520Y-8635760D01*
X16240520Y-8605760D02*
X16210520Y-8635760D01*
X16213218Y-9524004D02*
X16243218Y-9554004D01*
X16243218Y-9524004D02*
X16213218Y-9554004D01*
X16215600Y-10830800D02*
X16245600Y-10860800D01*
X16245600Y-10830800D02*
X16215600Y-10860800D01*
X16233380Y-8791180D02*
X16263380Y-8821180D01*
X16263380Y-8791180D02*
X16233380Y-8821180D01*
X16266400Y-11450560D02*
X16296400Y-11480560D01*
X16296400Y-11450560D02*
X16266400Y-11480560D01*
X16281640Y-8300960D02*
X16311640Y-8330960D01*
X16311640Y-8300960D02*
X16281640Y-8330960D01*
X16317940Y-8796213D02*
X16347940Y-8826213D01*
X16347940Y-8796213D02*
X16317940Y-8826213D01*
X16332440Y-5034520D02*
X16362440Y-5064520D01*
X16362440Y-5034520D02*
X16332440Y-5064520D01*
X16357840Y-11638520D02*
X16387840Y-11668520D01*
X16387840Y-11638520D02*
X16357840Y-11668520D01*
X16368000Y-9479520D02*
X16398000Y-9509520D01*
X16398000Y-9479520D02*
X16368000Y-9509520D01*
X16388320Y-4440160D02*
X16418320Y-4470160D01*
X16418320Y-4440160D02*
X16388320Y-4470160D01*
X16393400Y-5186920D02*
X16423400Y-5216920D01*
X16423400Y-5186920D02*
X16393400Y-5216920D01*
X16398480Y-3414000D02*
X16428480Y-3444000D01*
X16428480Y-3414000D02*
X16398480Y-3444000D01*
X16398480Y-3982960D02*
X16428480Y-4012960D01*
X16428480Y-3982960D02*
X16398480Y-4012960D01*
X16434040Y-7640560D02*
X16464040Y-7670560D01*
X16464040Y-7640560D02*
X16434040Y-7670560D01*
X16454360Y-4938000D02*
X16484360Y-4968000D01*
X16484360Y-4938000D02*
X16454360Y-4968000D01*
X16459440Y-6721080D02*
X16489440Y-6751080D01*
X16489440Y-6721080D02*
X16459440Y-6751080D01*
X16459440Y-11399760D02*
X16489440Y-11429760D01*
X16489440Y-11399760D02*
X16459440Y-11429760D01*
X16469600Y-10866360D02*
X16499600Y-10896360D01*
X16499600Y-10866360D02*
X16469600Y-10896360D01*
X16505160Y-7574520D02*
X16535160Y-7604520D01*
X16535160Y-7574520D02*
X16505160Y-7604520D01*
X16516883Y-3992240D02*
X16546883Y-4022240D01*
X16546883Y-3992240D02*
X16516883Y-4022240D01*
X16520400Y-5054840D02*
X16550400Y-5084840D01*
X16550400Y-5054840D02*
X16520400Y-5084840D01*
X16530560Y-3861040D02*
X16560560Y-3891040D01*
X16560560Y-3861040D02*
X16530560Y-3891040D01*
X16555960Y-9073120D02*
X16585960Y-9103120D01*
X16585960Y-9073120D02*
X16555960Y-9103120D01*
X16586440Y-7838680D02*
X16616440Y-7868680D01*
X16616440Y-7838680D02*
X16586440Y-7868680D01*
X16586440Y-10465040D02*
X16616440Y-10495040D01*
X16616440Y-10465040D02*
X16586440Y-10495040D01*
X16596600Y-4988800D02*
X16626600Y-5018800D01*
X16626600Y-4988800D02*
X16596600Y-5018800D01*
X16604980Y-9154400D02*
X16634980Y-9184400D01*
X16634980Y-9154400D02*
X16604980Y-9184400D01*
X16616920Y-8499080D02*
X16646920Y-8529080D01*
X16646920Y-8499080D02*
X16616920Y-8529080D01*
X16616920Y-8687040D02*
X16646920Y-8717040D01*
X16646920Y-8687040D02*
X16616920Y-8717040D01*
X16647400Y-4313160D02*
X16677400Y-4343160D01*
X16677400Y-4313160D02*
X16647400Y-4343160D01*
X16667720Y-10556480D02*
X16697720Y-10586480D01*
X16697720Y-10556480D02*
X16667720Y-10586480D01*
X16672800Y-7864080D02*
X16702800Y-7894080D01*
X16702800Y-7864080D02*
X16672800Y-7894080D01*
X16698200Y-8021560D02*
X16728200Y-8051560D01*
X16728200Y-8021560D02*
X16698200Y-8051560D01*
X16716592Y-8712440D02*
X16746592Y-8742440D01*
X16746592Y-8712440D02*
X16716592Y-8742440D01*
X16718520Y-7533880D02*
X16748520Y-7563880D01*
X16748520Y-7533880D02*
X16718520Y-7563880D01*
X16728680Y-7437360D02*
X16758680Y-7467360D01*
X16758680Y-7437360D02*
X16728680Y-7467360D01*
X16738840Y-10668240D02*
X16768840Y-10698240D01*
X16768840Y-10668240D02*
X16738840Y-10698240D01*
X16764240Y-8800459D02*
X16794240Y-8830459D01*
X16794240Y-8800459D02*
X16764240Y-8830459D01*
X16781195Y-8886558D02*
X16811195Y-8916558D01*
X16811195Y-8886558D02*
X16781195Y-8916558D01*
X16815040Y-10754600D02*
X16845040Y-10784600D01*
X16845040Y-10754600D02*
X16815040Y-10784600D01*
X16830281Y-4176000D02*
X16860281Y-4206000D01*
X16860281Y-4176000D02*
X16830281Y-4206000D01*
X16838540Y-8949300D02*
X16868540Y-8979300D01*
X16868540Y-8949300D02*
X16838540Y-8979300D01*
X16845519Y-4038839D02*
X16875519Y-4068839D01*
X16875519Y-4038839D02*
X16845519Y-4068839D01*
X16845520Y-4419840D02*
X16875520Y-4449840D01*
X16875520Y-4419840D02*
X16845520Y-4449840D01*
X16870920Y-7574520D02*
X16900920Y-7604520D01*
X16900920Y-7574520D02*
X16870920Y-7604520D01*
X16883421Y-4594901D02*
X16913421Y-4624901D01*
X16913421Y-4594901D02*
X16883421Y-4624901D01*
X16924261Y-5164061D02*
X16954261Y-5194061D01*
X16954261Y-5164061D02*
X16924261Y-5194061D01*
X16942302Y-7620240D02*
X16972302Y-7650240D01*
X16972302Y-7620240D02*
X16942302Y-7650240D01*
X16966560Y-7725930D02*
X16996560Y-7755930D01*
X16996560Y-7725930D02*
X16966560Y-7755930D01*
X16967440Y-8971520D02*
X16997440Y-9001520D01*
X16997440Y-8971520D02*
X16967440Y-9001520D01*
X17003000Y-6716000D02*
X17033000Y-6746000D01*
X17033000Y-6716000D02*
X17003000Y-6746000D01*
X17008080Y-4226800D02*
X17038080Y-4256800D01*
X17038080Y-4226800D02*
X17008080Y-4256800D01*
X17053700Y-11404740D02*
X17083700Y-11434740D01*
X17083700Y-11404740D02*
X17053700Y-11434740D01*
X17053800Y-9093440D02*
X17083800Y-9123440D01*
X17083800Y-9093440D02*
X17053800Y-9123440D01*
X17074120Y-8961360D02*
X17104120Y-8991360D01*
X17104120Y-8961360D02*
X17074120Y-8991360D01*
X17094440Y-3881360D02*
X17124440Y-3911360D01*
X17124440Y-3881360D02*
X17094440Y-3911360D01*
X17109680Y-4181080D02*
X17139680Y-4211080D01*
X17139680Y-4181080D02*
X17109680Y-4211080D01*
X17287480Y-4419840D02*
X17317480Y-4449840D01*
X17317480Y-4419840D02*
X17287480Y-4449840D01*
X17338280Y-3871200D02*
X17368280Y-3901200D01*
X17368280Y-3871200D02*
X17338280Y-3901200D01*
X17353520Y-4282680D02*
X17383520Y-4312680D01*
X17383520Y-4282680D02*
X17353520Y-4312680D01*
X17439880Y-3414000D02*
X17469880Y-3444000D01*
X17469880Y-3414000D02*
X17439880Y-3444000D01*
X17450040Y-3855960D02*
X17480040Y-3885960D01*
X17480040Y-3855960D02*
X17450040Y-3885960D01*
X17483060Y-4257280D02*
X17513060Y-4287280D01*
X17513060Y-4257280D02*
X17483060Y-4287280D01*
X16534160Y-3289800D02*
G75*
G02*
X16474160Y-3289800I-30000J0D01*
G01*
X16474160Y-3289800D02*
G75*
G02*
X16534160Y-3289800I30000J0D01*
G01*
X16534160Y-3319800D02*
X16534160Y-3259800D01*
X16474160Y-3259800D02*
G75*
G02*
X16534160Y-3259800I30000J0D01*
G01*
X16474160Y-3259800D02*
X16474160Y-3319800D01*
X16474160Y-3319800D02*
G75*
G03*
X16534160Y-3319800I30000J0D01*
G01*
X16534160Y-3707800D02*
G75*
G02*
X16474160Y-3707800I-30000J0D01*
G01*
X16474160Y-3707800D02*
G75*
G02*
X16534160Y-3707800I30000J0D01*
G01*
X16534160Y-3762800D02*
X16534160Y-3652800D01*
X16474160Y-3652800D02*
G75*
G02*
X16534160Y-3652800I30000J0D01*
G01*
X16474160Y-3652800D02*
X16474160Y-3762800D01*
X16474160Y-3762800D02*
G75*
G03*
X16534160Y-3762800I30000J0D01*
G01*
X17398160Y-3289800D02*
G75*
G02*
X17338160Y-3289800I-30000J0D01*
G01*
X17338160Y-3289800D02*
G75*
G02*
X17398160Y-3289800I30000J0D01*
G01*
X17398160Y-3319800D02*
X17398160Y-3259800D01*
X17338160Y-3259800D02*
G75*
G02*
X17398160Y-3259800I30000J0D01*
G01*
X17338160Y-3259800D02*
X17338160Y-3319800D01*
X17338160Y-3319800D02*
G75*
G03*
X17398160Y-3319800I30000J0D01*
G01*
X17398160Y-3707800D02*
G75*
G02*
X17338160Y-3707800I-30000J0D01*
G01*
X17338160Y-3707800D02*
G75*
G02*
X17398160Y-3707800I30000J0D01*
G01*
X17398160Y-3762800D02*
X17398160Y-3652800D01*
X17338160Y-3652800D02*
G75*
G02*
X17398160Y-3652800I30000J0D01*
G01*
X17338160Y-3652800D02*
X17338160Y-3762800D01*
X17338160Y-3762800D02*
G75*
G03*
X17398160Y-3762800I30000J0D01*
G01*
X5448300Y-3236600D02*
X5448300Y-3316600D01*
X5408300Y-3276600D02*
X5488300Y-3276600D01*
X5448300Y-4760600D02*
X5448300Y-4840600D01*
X5408300Y-4800600D02*
X5488300Y-4800600D01*
X5450300Y-9802500D02*
X5450300Y-9882500D01*
X5410300Y-9842500D02*
X5490300Y-9842500D01*
X5450300Y-11326500D02*
X5450300Y-11406500D01*
X5410300Y-11366500D02*
X5490300Y-11366500D01*
X5452300Y-5459100D02*
X5452300Y-5539100D01*
X5412300Y-5499100D02*
X5492300Y-5499100D01*
X5452300Y-6983100D02*
X5452300Y-7063100D01*
X5412300Y-7023100D02*
X5492300Y-7023100D01*
X5452300Y-7694300D02*
X5452300Y-7774300D01*
X5412300Y-7734300D02*
X5492300Y-7734300D01*
X5452300Y-9218300D02*
X5452300Y-9298300D01*
X5412300Y-9258300D02*
X5492300Y-9258300D01*
X5702300Y-3236600D02*
X5702300Y-3316600D01*
X5662300Y-3276600D02*
X5742300Y-3276600D01*
X5702300Y-4760600D02*
X5702300Y-4840600D01*
X5662300Y-4800600D02*
X5742300Y-4800600D01*
X5704300Y-9802500D02*
X5704300Y-9882500D01*
X5664300Y-9842500D02*
X5744300Y-9842500D01*
X5704300Y-11326500D02*
X5704300Y-11406500D01*
X5664300Y-11366500D02*
X5744300Y-11366500D01*
X5706300Y-5459100D02*
X5706300Y-5539100D01*
X5666300Y-5499100D02*
X5746300Y-5499100D01*
X5706300Y-6983100D02*
X5706300Y-7063100D01*
X5666300Y-7023100D02*
X5746300Y-7023100D01*
X5706300Y-7694300D02*
X5706300Y-7774300D01*
X5666300Y-7734300D02*
X5746300Y-7734300D01*
X5706300Y-9218300D02*
X5706300Y-9298300D01*
X5666300Y-9258300D02*
X5746300Y-9258300D01*
X5956300Y-3236600D02*
X5956300Y-3316600D01*
X5916300Y-3276600D02*
X5996300Y-3276600D01*
X5956300Y-4760600D02*
X5956300Y-4840600D01*
X5916300Y-4800600D02*
X5996300Y-4800600D01*
X5958300Y-9802500D02*
X5958300Y-9882500D01*
X5918300Y-9842500D02*
X5998300Y-9842500D01*
X5958300Y-11326500D02*
X5958300Y-11406500D01*
X5918300Y-11366500D02*
X5998300Y-11366500D01*
X5960300Y-5459100D02*
X5960300Y-5539100D01*
X5920300Y-5499100D02*
X6000300Y-5499100D01*
X5960300Y-6983100D02*
X5960300Y-7063100D01*
X5920300Y-7023100D02*
X6000300Y-7023100D01*
X5960300Y-7694300D02*
X5960300Y-7774300D01*
X5920300Y-7734300D02*
X6000300Y-7734300D01*
X5960300Y-9218300D02*
X5960300Y-9298300D01*
X5920300Y-9258300D02*
X6000300Y-9258300D01*
X6210300Y-3236600D02*
X6210300Y-3316600D01*
X6170300Y-3276600D02*
X6250300Y-3276600D01*
X6210300Y-4760600D02*
X6210300Y-4840600D01*
X6170300Y-4800600D02*
X6250300Y-4800600D01*
X6212300Y-9802500D02*
X6212300Y-9882500D01*
X6172300Y-9842500D02*
X6252300Y-9842500D01*
X6212300Y-11326500D02*
X6212300Y-11406500D01*
X6172300Y-11366500D02*
X6252300Y-11366500D01*
X6214300Y-5459100D02*
X6214300Y-5539100D01*
X6174300Y-5499100D02*
X6254300Y-5499100D01*
X6214300Y-6983100D02*
X6214300Y-7063100D01*
X6174300Y-7023100D02*
X6254300Y-7023100D01*
X6214300Y-7694300D02*
X6214300Y-7774300D01*
X6174300Y-7734300D02*
X6254300Y-7734300D01*
X6214300Y-9218300D02*
X6214300Y-9298300D01*
X6174300Y-9258300D02*
X6254300Y-9258300D01*
X6464300Y-3236600D02*
X6464300Y-3316600D01*
X6424300Y-3276600D02*
X6504300Y-3276600D01*
X6464300Y-4760600D02*
X6464300Y-4840600D01*
X6424300Y-4800600D02*
X6504300Y-4800600D01*
X6466300Y-9802500D02*
X6466300Y-9882500D01*
X6426300Y-9842500D02*
X6506300Y-9842500D01*
X6466300Y-11326500D02*
X6466300Y-11406500D01*
X6426300Y-11366500D02*
X6506300Y-11366500D01*
X6468300Y-5459100D02*
X6468300Y-5539100D01*
X6428300Y-5499100D02*
X6508300Y-5499100D01*
X6468300Y-6983100D02*
X6468300Y-7063100D01*
X6428300Y-7023100D02*
X6508300Y-7023100D01*
X6468300Y-7694300D02*
X6468300Y-7774300D01*
X6428300Y-7734300D02*
X6508300Y-7734300D01*
X6468300Y-9218300D02*
X6468300Y-9298300D01*
X6428300Y-9258300D02*
X6508300Y-9258300D01*
X6718300Y-3236600D02*
X6718300Y-3316600D01*
X6678300Y-3276600D02*
X6758300Y-3276600D01*
X6718300Y-4760600D02*
X6718300Y-4840600D01*
X6678300Y-4800600D02*
X6758300Y-4800600D01*
X6720300Y-9802500D02*
X6720300Y-9882500D01*
X6680300Y-9842500D02*
X6760300Y-9842500D01*
X6720300Y-11326500D02*
X6720300Y-11406500D01*
X6680300Y-11366500D02*
X6760300Y-11366500D01*
X6722300Y-5459100D02*
X6722300Y-5539100D01*
X6682300Y-5499100D02*
X6762300Y-5499100D01*
X6722300Y-6983100D02*
X6722300Y-7063100D01*
X6682300Y-7023100D02*
X6762300Y-7023100D01*
X6722300Y-7694300D02*
X6722300Y-7774300D01*
X6682300Y-7734300D02*
X6762300Y-7734300D01*
X6722300Y-9218300D02*
X6722300Y-9298300D01*
X6682300Y-9258300D02*
X6762300Y-9258300D01*
X6972300Y-3236600D02*
X6972300Y-3316600D01*
X6932300Y-3276600D02*
X7012300Y-3276600D01*
X6972300Y-4760600D02*
X6972300Y-4840600D01*
X6932300Y-4800600D02*
X7012300Y-4800600D01*
X6974300Y-9802500D02*
X6974300Y-9882500D01*
X6934300Y-9842500D02*
X7014300Y-9842500D01*
X6974300Y-11326500D02*
X6974300Y-11406500D01*
X6934300Y-11366500D02*
X7014300Y-11366500D01*
X6976300Y-5459100D02*
X6976300Y-5539100D01*
X6936300Y-5499100D02*
X7016300Y-5499100D01*
X6976300Y-6983100D02*
X6976300Y-7063100D01*
X6936300Y-7023100D02*
X7016300Y-7023100D01*
X6976300Y-7694300D02*
X6976300Y-7774300D01*
X6936300Y-7734300D02*
X7016300Y-7734300D01*
X6976300Y-9218300D02*
X6976300Y-9298300D01*
X6936300Y-9258300D02*
X7016300Y-9258300D01*
X7226300Y-3236600D02*
X7226300Y-3316600D01*
X7186300Y-3276600D02*
X7266300Y-3276600D01*
X7226300Y-4760600D02*
X7226300Y-4840600D01*
X7186300Y-4800600D02*
X7266300Y-4800600D01*
X7228300Y-9802500D02*
X7228300Y-9882500D01*
X7188300Y-9842500D02*
X7268300Y-9842500D01*
X7228300Y-11326500D02*
X7228300Y-11406500D01*
X7188300Y-11366500D02*
X7268300Y-11366500D01*
X7230300Y-5459100D02*
X7230300Y-5539100D01*
X7190300Y-5499100D02*
X7270300Y-5499100D01*
X7230300Y-6983100D02*
X7230300Y-7063100D01*
X7190300Y-7023100D02*
X7270300Y-7023100D01*
X7230300Y-7694300D02*
X7230300Y-7774300D01*
X7190300Y-7734300D02*
X7270300Y-7734300D01*
X7230300Y-9218300D02*
X7230300Y-9298300D01*
X7190300Y-9258300D02*
X7270300Y-9258300D01*
X7480300Y-3236600D02*
X7480300Y-3316600D01*
X7440300Y-3276600D02*
X7520300Y-3276600D01*
X7480300Y-4760600D02*
X7480300Y-4840600D01*
X7440300Y-4800600D02*
X7520300Y-4800600D01*
X7482300Y-9802500D02*
X7482300Y-9882500D01*
X7442300Y-9842500D02*
X7522300Y-9842500D01*
X7482300Y-11326500D02*
X7482300Y-11406500D01*
X7442300Y-11366500D02*
X7522300Y-11366500D01*
X7484300Y-5459100D02*
X7484300Y-5539100D01*
X7444300Y-5499100D02*
X7524300Y-5499100D01*
X7484300Y-6983100D02*
X7484300Y-7063100D01*
X7444300Y-7023100D02*
X7524300Y-7023100D01*
X7484300Y-7694300D02*
X7484300Y-7774300D01*
X7444300Y-7734300D02*
X7524300Y-7734300D01*
X7484300Y-9218300D02*
X7484300Y-9298300D01*
X7444300Y-9258300D02*
X7524300Y-9258300D01*
X7734300Y-3236600D02*
X7734300Y-3316600D01*
X7694300Y-3276600D02*
X7774300Y-3276600D01*
X7734300Y-4760600D02*
X7734300Y-4840600D01*
X7694300Y-4800600D02*
X7774300Y-4800600D01*
X7736300Y-9802500D02*
X7736300Y-9882500D01*
X7696300Y-9842500D02*
X7776300Y-9842500D01*
X7736300Y-11326500D02*
X7736300Y-11406500D01*
X7696300Y-11366500D02*
X7776300Y-11366500D01*
X7738300Y-5459100D02*
X7738300Y-5539100D01*
X7698300Y-5499100D02*
X7778300Y-5499100D01*
X7738300Y-6983100D02*
X7738300Y-7063100D01*
X7698300Y-7023100D02*
X7778300Y-7023100D01*
X7738300Y-7694300D02*
X7738300Y-7774300D01*
X7698300Y-7734300D02*
X7778300Y-7734300D01*
X7738300Y-9218300D02*
X7738300Y-9298300D01*
X7698300Y-9258300D02*
X7778300Y-9258300D01*
X7988300Y-3236600D02*
X7988300Y-3316600D01*
X7948300Y-3276600D02*
X8028300Y-3276600D01*
X7988300Y-4760600D02*
X7988300Y-4840600D01*
X7948300Y-4800600D02*
X8028300Y-4800600D01*
X7990300Y-9802500D02*
X7990300Y-9882500D01*
X7950300Y-9842500D02*
X8030300Y-9842500D01*
X7990300Y-11326500D02*
X7990300Y-11406500D01*
X7950300Y-11366500D02*
X8030300Y-11366500D01*
X7992300Y-5459100D02*
X7992300Y-5539100D01*
X7952300Y-5499100D02*
X8032300Y-5499100D01*
X7992300Y-6983100D02*
X7992300Y-7063100D01*
X7952300Y-7023100D02*
X8032300Y-7023100D01*
X7992300Y-7694300D02*
X7992300Y-7774300D01*
X7952300Y-7734300D02*
X8032300Y-7734300D01*
X7992300Y-9218300D02*
X7992300Y-9298300D01*
X7952300Y-9258300D02*
X8032300Y-9258300D01*
X8242300Y-3236600D02*
X8242300Y-3316600D01*
X8202300Y-3276600D02*
X8282300Y-3276600D01*
X8242300Y-4760600D02*
X8242300Y-4840600D01*
X8202300Y-4800600D02*
X8282300Y-4800600D01*
X8244300Y-9802500D02*
X8244300Y-9882500D01*
X8204300Y-9842500D02*
X8284300Y-9842500D01*
X8244300Y-11326500D02*
X8244300Y-11406500D01*
X8204300Y-11366500D02*
X8284300Y-11366500D01*
X8246300Y-5459100D02*
X8246300Y-5539100D01*
X8206300Y-5499100D02*
X8286300Y-5499100D01*
X8246300Y-6983100D02*
X8246300Y-7063100D01*
X8206300Y-7023100D02*
X8286300Y-7023100D01*
X8246300Y-7694300D02*
X8246300Y-7774300D01*
X8206300Y-7734300D02*
X8286300Y-7734300D01*
X8246300Y-9218300D02*
X8246300Y-9298300D01*
X8206300Y-9258300D02*
X8286300Y-9258300D01*
X8496300Y-3236600D02*
X8496300Y-3316600D01*
X8456300Y-3276600D02*
X8536300Y-3276600D01*
X8496300Y-4760600D02*
X8496300Y-4840600D01*
X8456300Y-4800600D02*
X8536300Y-4800600D01*
X8500300Y-5459100D02*
X8500300Y-5539100D01*
X8460300Y-5499100D02*
X8540300Y-5499100D01*
X8500300Y-6983100D02*
X8500300Y-7063100D01*
X8460300Y-7023100D02*
X8540300Y-7023100D01*
X8500300Y-7694300D02*
X8500300Y-7774300D01*
X8460300Y-7734300D02*
X8540300Y-7734300D01*
X8500300Y-9218300D02*
X8500300Y-9298300D01*
X8460300Y-9258300D02*
X8540300Y-9258300D01*
X8750300Y-3236600D02*
X8750300Y-3316600D01*
X8710300Y-3276600D02*
X8790300Y-3276600D01*
X8750300Y-4760600D02*
X8750300Y-4840600D01*
X8710300Y-4800600D02*
X8790300Y-4800600D01*
X8754300Y-5459100D02*
X8754300Y-5539100D01*
X8714300Y-5499100D02*
X8794300Y-5499100D01*
X8754300Y-6983100D02*
X8754300Y-7063100D01*
X8714300Y-7023100D02*
X8794300Y-7023100D01*
X8754300Y-7694300D02*
X8754300Y-7774300D01*
X8714300Y-7734300D02*
X8794300Y-7734300D01*
X8754300Y-9218300D02*
X8754300Y-9298300D01*
X8714300Y-9258300D02*
X8794300Y-9258300D01*
X9004300Y-3236600D02*
X9004300Y-3316600D01*
X8964300Y-3276600D02*
X9044300Y-3276600D01*
X9004300Y-4760600D02*
X9004300Y-4840600D01*
X8964300Y-4800600D02*
X9044300Y-4800600D01*
X9008300Y-5459100D02*
X9008300Y-5539100D01*
X8968300Y-5499100D02*
X9048300Y-5499100D01*
X9008300Y-6983100D02*
X9008300Y-7063100D01*
X8968300Y-7023100D02*
X9048300Y-7023100D01*
X9008300Y-7694300D02*
X9008300Y-7774300D01*
X8968300Y-7734300D02*
X9048300Y-7734300D01*
X9008300Y-9218300D02*
X9008300Y-9298300D01*
X8968300Y-9258300D02*
X9048300Y-9258300D01*
X9258300Y-3236600D02*
X9258300Y-3316600D01*
X9218300Y-3276600D02*
X9298300Y-3276600D01*
X9258300Y-4760600D02*
X9258300Y-4840600D01*
X9218300Y-4800600D02*
X9298300Y-4800600D01*
X9262300Y-5459100D02*
X9262300Y-5539100D01*
X9222300Y-5499100D02*
X9302300Y-5499100D01*
X9262300Y-6983100D02*
X9262300Y-7063100D01*
X9222300Y-7023100D02*
X9302300Y-7023100D01*
X9262300Y-7694300D02*
X9262300Y-7774300D01*
X9222300Y-7734300D02*
X9302300Y-7734300D01*
X9262300Y-9218300D02*
X9262300Y-9298300D01*
X9222300Y-9258300D02*
X9302300Y-9258300D01*
X9512300Y-3236600D02*
X9512300Y-3316600D01*
X9472300Y-3276600D02*
X9552300Y-3276600D01*
X9512300Y-4760600D02*
X9512300Y-4840600D01*
X9472300Y-4800600D02*
X9552300Y-4800600D01*
X9516300Y-5459100D02*
X9516300Y-5539100D01*
X9476300Y-5499100D02*
X9556300Y-5499100D01*
X9516300Y-6983100D02*
X9516300Y-7063100D01*
X9476300Y-7023100D02*
X9556300Y-7023100D01*
X9516300Y-7694300D02*
X9516300Y-7774300D01*
X9476300Y-7734300D02*
X9556300Y-7734300D01*
X9516300Y-9218300D02*
X9516300Y-9298300D01*
X9476300Y-9258300D02*
X9556300Y-9258300D01*
X9766300Y-3236600D02*
X9766300Y-3316600D01*
X9726300Y-3276600D02*
X9806300Y-3276600D01*
X9766300Y-4760600D02*
X9766300Y-4840600D01*
X9726300Y-4800600D02*
X9806300Y-4800600D01*
X9770300Y-5459100D02*
X9770300Y-5539100D01*
X9730300Y-5499100D02*
X9810300Y-5499100D01*
X9770300Y-6983100D02*
X9770300Y-7063100D01*
X9730300Y-7023100D02*
X9810300Y-7023100D01*
X9770300Y-7694300D02*
X9770300Y-7774300D01*
X9730300Y-7734300D02*
X9810300Y-7734300D01*
X9770300Y-9218300D02*
X9770300Y-9298300D01*
X9730300Y-9258300D02*
X9810300Y-9258300D01*
X10020300Y-3236600D02*
X10020300Y-3316600D01*
X9980300Y-3276600D02*
X10060300Y-3276600D01*
X10020300Y-4760600D02*
X10020300Y-4840600D01*
X9980300Y-4800600D02*
X10060300Y-4800600D01*
X10024300Y-5459100D02*
X10024300Y-5539100D01*
X9984300Y-5499100D02*
X10064300Y-5499100D01*
X10024300Y-6983100D02*
X10024300Y-7063100D01*
X9984300Y-7023100D02*
X10064300Y-7023100D01*
X10024300Y-7694300D02*
X10024300Y-7774300D01*
X9984300Y-7734300D02*
X10064300Y-7734300D01*
X10024300Y-9218300D02*
X10024300Y-9298300D01*
X9984300Y-9258300D02*
X10064300Y-9258300D01*
X10274300Y-3236600D02*
X10274300Y-3316600D01*
X10234300Y-3276600D02*
X10314300Y-3276600D01*
X10274300Y-4760600D02*
X10274300Y-4840600D01*
X10234300Y-4800600D02*
X10314300Y-4800600D01*
X10278300Y-5459100D02*
X10278300Y-5539100D01*
X10238300Y-5499100D02*
X10318300Y-5499100D01*
X10278300Y-6983100D02*
X10278300Y-7063100D01*
X10238300Y-7023100D02*
X10318300Y-7023100D01*
X10278300Y-7694300D02*
X10278300Y-7774300D01*
X10238300Y-7734300D02*
X10318300Y-7734300D01*
X10278300Y-9218300D02*
X10278300Y-9298300D01*
X10238300Y-9258300D02*
X10318300Y-9258300D01*
X10532300Y-5459100D02*
X10532300Y-5539100D01*
X10492300Y-5499100D02*
X10572300Y-5499100D01*
X10532300Y-6983100D02*
X10532300Y-7063100D01*
X10492300Y-7023100D02*
X10572300Y-7023100D01*
X10532300Y-7694300D02*
X10532300Y-7774300D01*
X10492300Y-7734300D02*
X10572300Y-7734300D01*
X10532300Y-9218300D02*
X10532300Y-9298300D01*
X10492300Y-9258300D02*
X10572300Y-9258300D01*
X10786300Y-5459100D02*
X10786300Y-5539100D01*
X10746300Y-5499100D02*
X10826300Y-5499100D01*
X10786300Y-6983100D02*
X10786300Y-7063100D01*
X10746300Y-7023100D02*
X10826300Y-7023100D01*
X10786300Y-7694300D02*
X10786300Y-7774300D01*
X10746300Y-7734300D02*
X10826300Y-7734300D01*
X10786300Y-9218300D02*
X10786300Y-9298300D01*
X10746300Y-9258300D02*
X10826300Y-9258300D01*
X11040300Y-5459100D02*
X11040300Y-5539100D01*
X11000300Y-5499100D02*
X11080300Y-5499100D01*
X11040300Y-6983100D02*
X11040300Y-7063100D01*
X11000300Y-7023100D02*
X11080300Y-7023100D01*
X11040300Y-7694300D02*
X11040300Y-7774300D01*
X11000300Y-7734300D02*
X11080300Y-7734300D01*
X11040300Y-9218300D02*
X11040300Y-9298300D01*
X11000300Y-9258300D02*
X11080300Y-9258300D01*
X11294300Y-5459100D02*
X11294300Y-5539100D01*
X11254300Y-5499100D02*
X11334300Y-5499100D01*
X11294300Y-6983100D02*
X11294300Y-7063100D01*
X11254300Y-7023100D02*
X11334300Y-7023100D01*
X11294300Y-7694300D02*
X11294300Y-7774300D01*
X11254300Y-7734300D02*
X11334300Y-7734300D01*
X11294300Y-9218300D02*
X11294300Y-9298300D01*
X11254300Y-9258300D02*
X11334300Y-9258300D01*
X14312900Y-4024000D02*
X14312900Y-4104000D01*
X14272900Y-4064000D02*
X14352900Y-4064000D01*
X14312900Y-4278000D02*
X14312900Y-4358000D01*
X14272900Y-4318000D02*
X14352900Y-4318000D01*
X14312900Y-4532000D02*
X14312900Y-4612000D01*
X14272900Y-4572000D02*
X14352900Y-4572000D01*
X14312900Y-4786000D02*
X14312900Y-4866000D01*
X14272900Y-4826000D02*
X14352900Y-4826000D01*
X14312900Y-5040000D02*
X14312900Y-5120000D01*
X14272900Y-5080000D02*
X14352900Y-5080000D01*
X14312900Y-6843400D02*
X14312900Y-6923400D01*
X14272900Y-6883400D02*
X14352900Y-6883400D01*
X14312900Y-7097400D02*
X14312900Y-7177400D01*
X14272900Y-7137400D02*
X14352900Y-7137400D01*
X14312900Y-7351400D02*
X14312900Y-7431400D01*
X14272900Y-7391400D02*
X14352900Y-7391400D01*
X14312900Y-7605400D02*
X14312900Y-7685400D01*
X14272900Y-7645400D02*
X14352900Y-7645400D01*
X14312900Y-7859400D02*
X14312900Y-7939400D01*
X14272900Y-7899400D02*
X14352900Y-7899400D01*
X14566900Y-3770000D02*
X14566900Y-3850000D01*
X14526900Y-3810000D02*
X14606900Y-3810000D01*
X14566900Y-4024000D02*
X14566900Y-4104000D01*
X14526900Y-4064000D02*
X14606900Y-4064000D01*
X14566900Y-4278000D02*
X14566900Y-4358000D01*
X14526900Y-4318000D02*
X14606900Y-4318000D01*
X14566900Y-4532000D02*
X14566900Y-4612000D01*
X14526900Y-4572000D02*
X14606900Y-4572000D01*
X14566900Y-4786000D02*
X14566900Y-4866000D01*
X14526900Y-4826000D02*
X14606900Y-4826000D01*
X14566900Y-5040000D02*
X14566900Y-5120000D01*
X14526900Y-5080000D02*
X14606900Y-5080000D01*
X14566900Y-5294000D02*
X14566900Y-5374000D01*
X14526900Y-5334000D02*
X14606900Y-5334000D01*
X14566900Y-6589400D02*
X14566900Y-6669400D01*
X14526900Y-6629400D02*
X14606900Y-6629400D01*
X14566900Y-6843400D02*
X14566900Y-6923400D01*
X14526900Y-6883400D02*
X14606900Y-6883400D01*
X14566900Y-7097400D02*
X14566900Y-7177400D01*
X14526900Y-7137400D02*
X14606900Y-7137400D01*
X14566900Y-7351400D02*
X14566900Y-7431400D01*
X14526900Y-7391400D02*
X14606900Y-7391400D01*
X14566900Y-7605400D02*
X14566900Y-7685400D01*
X14526900Y-7645400D02*
X14606900Y-7645400D01*
X14566900Y-7859400D02*
X14566900Y-7939400D01*
X14526900Y-7899400D02*
X14606900Y-7899400D01*
X14566900Y-8113400D02*
X14566900Y-8193400D01*
X14526900Y-8153400D02*
X14606900Y-8153400D01*
X14820900Y-3770000D02*
X14820900Y-3850000D01*
X14780900Y-3810000D02*
X14860900Y-3810000D01*
X14820900Y-4024000D02*
X14820900Y-4104000D01*
X14780900Y-4064000D02*
X14860900Y-4064000D01*
X14820900Y-5040000D02*
X14820900Y-5120000D01*
X14780900Y-5080000D02*
X14860900Y-5080000D01*
X14820900Y-5294000D02*
X14820900Y-5374000D01*
X14780900Y-5334000D02*
X14860900Y-5334000D01*
X14820900Y-6589400D02*
X14820900Y-6669400D01*
X14780900Y-6629400D02*
X14860900Y-6629400D01*
X14820900Y-6843400D02*
X14820900Y-6923400D01*
X14780900Y-6883400D02*
X14860900Y-6883400D01*
X14820900Y-7859400D02*
X14820900Y-7939400D01*
X14780900Y-7899400D02*
X14860900Y-7899400D01*
X14820900Y-8113400D02*
X14820900Y-8193400D01*
X14780900Y-8153400D02*
X14860900Y-8153400D01*
X15074900Y-3770000D02*
X15074900Y-3850000D01*
X15034900Y-3810000D02*
X15114900Y-3810000D01*
X15074900Y-4024000D02*
X15074900Y-4104000D01*
X15034900Y-4064000D02*
X15114900Y-4064000D01*
X15074900Y-5040000D02*
X15074900Y-5120000D01*
X15034900Y-5080000D02*
X15114900Y-5080000D01*
X15074900Y-5294000D02*
X15074900Y-5374000D01*
X15034900Y-5334000D02*
X15114900Y-5334000D01*
X15074900Y-6589400D02*
X15074900Y-6669400D01*
X15034900Y-6629400D02*
X15114900Y-6629400D01*
X15074900Y-6843400D02*
X15074900Y-6923400D01*
X15034900Y-6883400D02*
X15114900Y-6883400D01*
X15074900Y-7859400D02*
X15074900Y-7939400D01*
X15034900Y-7899400D02*
X15114900Y-7899400D01*
X15074900Y-8113400D02*
X15074900Y-8193400D01*
X15034900Y-8153400D02*
X15114900Y-8153400D01*
X15328900Y-3770000D02*
X15328900Y-3850000D01*
X15288900Y-3810000D02*
X15368900Y-3810000D01*
X15328900Y-4024000D02*
X15328900Y-4104000D01*
X15288900Y-4064000D02*
X15368900Y-4064000D01*
X15328900Y-4278000D02*
X15328900Y-4358000D01*
X15288900Y-4318000D02*
X15368900Y-4318000D01*
X15328900Y-4532000D02*
X15328900Y-4612000D01*
X15288900Y-4572000D02*
X15368900Y-4572000D01*
X15328900Y-4786000D02*
X15328900Y-4866000D01*
X15288900Y-4826000D02*
X15368900Y-4826000D01*
X15328900Y-5040000D02*
X15328900Y-5120000D01*
X15288900Y-5080000D02*
X15368900Y-5080000D01*
X15328900Y-5294000D02*
X15328900Y-5374000D01*
X15288900Y-5334000D02*
X15368900Y-5334000D01*
X15328900Y-6589400D02*
X15328900Y-6669400D01*
X15288900Y-6629400D02*
X15368900Y-6629400D01*
X15328900Y-6843400D02*
X15328900Y-6923400D01*
X15288900Y-6883400D02*
X15368900Y-6883400D01*
X15328900Y-7097400D02*
X15328900Y-7177400D01*
X15288900Y-7137400D02*
X15368900Y-7137400D01*
X15328900Y-7351400D02*
X15328900Y-7431400D01*
X15288900Y-7391400D02*
X15368900Y-7391400D01*
X15328900Y-7605400D02*
X15328900Y-7685400D01*
X15288900Y-7645400D02*
X15368900Y-7645400D01*
X15328900Y-7859400D02*
X15328900Y-7939400D01*
X15288900Y-7899400D02*
X15368900Y-7899400D01*
X15328900Y-8113400D02*
X15328900Y-8193400D01*
X15288900Y-8153400D02*
X15368900Y-8153400D01*
X15582900Y-4024000D02*
X15582900Y-4104000D01*
X15542900Y-4064000D02*
X15622900Y-4064000D01*
X15582900Y-4278000D02*
X15582900Y-4358000D01*
X15542900Y-4318000D02*
X15622900Y-4318000D01*
X15582900Y-4532000D02*
X15582900Y-4612000D01*
X15542900Y-4572000D02*
X15622900Y-4572000D01*
X15582900Y-4786000D02*
X15582900Y-4866000D01*
X15542900Y-4826000D02*
X15622900Y-4826000D01*
X15582900Y-5040000D02*
X15582900Y-5120000D01*
X15542900Y-5080000D02*
X15622900Y-5080000D01*
X15582900Y-6843400D02*
X15582900Y-6923400D01*
X15542900Y-6883400D02*
X15622900Y-6883400D01*
X15582900Y-7097400D02*
X15582900Y-7177400D01*
X15542900Y-7137400D02*
X15622900Y-7137400D01*
X15582900Y-7351400D02*
X15582900Y-7431400D01*
X15542900Y-7391400D02*
X15622900Y-7391400D01*
X15582900Y-7605400D02*
X15582900Y-7685400D01*
X15542900Y-7645400D02*
X15622900Y-7645400D01*
X15582900Y-7859400D02*
X15582900Y-7939400D01*
X15542900Y-7899400D02*
X15622900Y-7899400D01*
X10758736Y-3469436D02*
X10758736Y-3398724D01*
X10688024Y-3398724D01*
X10688024Y-3469436D01*
X10758736Y-3469436D01*
X11012736Y-3469436D02*
X11012736Y-3398724D01*
X10942024Y-3398724D01*
X10942024Y-3469436D01*
X11012736Y-3469436D01*
X17185436Y-5989456D02*
X17185436Y-5918744D01*
X17114724Y-5918744D01*
X17114724Y-5989456D01*
X17185436Y-5989456D01*
X17185436Y-6243456D02*
X17185436Y-6172744D01*
X17114724Y-6172744D01*
X17114724Y-6243456D01*
X17185436Y-6243456D01*
X17185436Y-6497456D02*
X17185436Y-6426744D01*
X17114724Y-6426744D01*
X17114724Y-6497456D01*
X17185436Y-6497456D01*
D11*
X5422137Y-12391644D02*
X5422137Y-12191644D01*
X5422137Y-12191644D02*
X5469756Y-12191644D01*
X5469756Y-12191644D02*
X5498327Y-12201168D01*
X5498327Y-12201168D02*
X5517375Y-12220215D01*
X5517375Y-12220215D02*
X5526899Y-12239263D01*
X5526899Y-12239263D02*
X5536423Y-12277358D01*
X5536423Y-12277358D02*
X5536423Y-12305929D01*
X5536423Y-12305929D02*
X5526899Y-12344025D01*
X5526899Y-12344025D02*
X5517375Y-12363072D01*
X5517375Y-12363072D02*
X5498327Y-12382120D01*
X5498327Y-12382120D02*
X5469756Y-12391644D01*
X5469756Y-12391644D02*
X5422137Y-12391644D01*
X5622137Y-12391644D02*
X5622137Y-12258310D01*
X5622137Y-12296406D02*
X5631661Y-12277358D01*
X5631661Y-12277358D02*
X5641184Y-12267834D01*
X5641184Y-12267834D02*
X5660232Y-12258310D01*
X5660232Y-12258310D02*
X5679280Y-12258310D01*
X5745946Y-12391644D02*
X5745946Y-12258310D01*
X5745946Y-12191644D02*
X5736422Y-12201168D01*
X5736422Y-12201168D02*
X5745946Y-12210691D01*
X5745946Y-12210691D02*
X5755470Y-12201168D01*
X5755470Y-12201168D02*
X5745946Y-12191644D01*
X5745946Y-12191644D02*
X5745946Y-12210691D01*
X5869756Y-12391644D02*
X5850708Y-12382120D01*
X5850708Y-12382120D02*
X5841184Y-12363072D01*
X5841184Y-12363072D02*
X5841184Y-12191644D01*
X5974518Y-12391644D02*
X5955470Y-12382120D01*
X5955470Y-12382120D02*
X5945946Y-12363072D01*
X5945946Y-12363072D02*
X5945946Y-12191644D01*
X6203089Y-12391644D02*
X6203089Y-12191644D01*
X6203089Y-12191644D02*
X6269756Y-12334501D01*
X6269756Y-12334501D02*
X6336422Y-12191644D01*
X6336422Y-12191644D02*
X6336422Y-12391644D01*
X6517375Y-12391644D02*
X6517375Y-12286882D01*
X6517375Y-12286882D02*
X6507851Y-12267834D01*
X6507851Y-12267834D02*
X6488803Y-12258310D01*
X6488803Y-12258310D02*
X6450708Y-12258310D01*
X6450708Y-12258310D02*
X6431661Y-12267834D01*
X6517375Y-12382120D02*
X6498327Y-12391644D01*
X6498327Y-12391644D02*
X6450708Y-12391644D01*
X6450708Y-12391644D02*
X6431661Y-12382120D01*
X6431661Y-12382120D02*
X6422137Y-12363072D01*
X6422137Y-12363072D02*
X6422137Y-12344025D01*
X6422137Y-12344025D02*
X6431661Y-12324977D01*
X6431661Y-12324977D02*
X6450708Y-12315453D01*
X6450708Y-12315453D02*
X6498327Y-12315453D01*
X6498327Y-12315453D02*
X6517375Y-12305929D01*
X6612613Y-12258310D02*
X6612613Y-12458310D01*
X6612613Y-12267834D02*
X6631661Y-12258310D01*
X6631661Y-12258310D02*
X6669756Y-12258310D01*
X6669756Y-12258310D02*
X6688803Y-12267834D01*
X6688803Y-12267834D02*
X6698327Y-12277358D01*
X6698327Y-12277358D02*
X6707851Y-12296406D01*
X6707851Y-12296406D02*
X6707851Y-12353548D01*
X6707851Y-12353548D02*
X6698327Y-12372596D01*
X6698327Y-12372596D02*
X6688803Y-12382120D01*
X6688803Y-12382120D02*
X6669756Y-12391644D01*
X6669756Y-12391644D02*
X6631661Y-12391644D01*
X6631661Y-12391644D02*
X6612613Y-12382120D01*
X6793565Y-12372596D02*
X6803089Y-12382120D01*
X6803089Y-12382120D02*
X6793565Y-12391644D01*
X6793565Y-12391644D02*
X6784042Y-12382120D01*
X6784042Y-12382120D02*
X6793565Y-12372596D01*
X6793565Y-12372596D02*
X6793565Y-12391644D01*
X6793565Y-12267834D02*
X6803089Y-12277358D01*
X6803089Y-12277358D02*
X6793565Y-12286882D01*
X6793565Y-12286882D02*
X6784042Y-12277358D01*
X6784042Y-12277358D02*
X6793565Y-12267834D01*
X6793565Y-12267834D02*
X6793565Y-12286882D01*
D10*
X5131360Y-12705160D02*
X5161360Y-12735160D01*
X5161360Y-12705160D02*
X5131360Y-12735160D01*
D11*
X5460232Y-12611644D02*
X5479280Y-12611644D01*
X5479280Y-12611644D02*
X5498327Y-12621168D01*
X5498327Y-12621168D02*
X5507851Y-12630691D01*
X5507851Y-12630691D02*
X5517375Y-12649739D01*
X5517375Y-12649739D02*
X5526899Y-12687834D01*
X5526899Y-12687834D02*
X5526899Y-12735453D01*
X5526899Y-12735453D02*
X5517375Y-12773548D01*
X5517375Y-12773548D02*
X5507851Y-12792596D01*
X5507851Y-12792596D02*
X5498327Y-12802120D01*
X5498327Y-12802120D02*
X5479280Y-12811644D01*
X5479280Y-12811644D02*
X5460232Y-12811644D01*
X5460232Y-12811644D02*
X5441184Y-12802120D01*
X5441184Y-12802120D02*
X5431661Y-12792596D01*
X5431661Y-12792596D02*
X5422137Y-12773548D01*
X5422137Y-12773548D02*
X5412613Y-12735453D01*
X5412613Y-12735453D02*
X5412613Y-12687834D01*
X5412613Y-12687834D02*
X5422137Y-12649739D01*
X5422137Y-12649739D02*
X5431661Y-12630691D01*
X5431661Y-12630691D02*
X5441184Y-12621168D01*
X5441184Y-12621168D02*
X5460232Y-12611644D01*
X5612613Y-12792596D02*
X5622137Y-12802120D01*
X5622137Y-12802120D02*
X5612613Y-12811644D01*
X5612613Y-12811644D02*
X5603089Y-12802120D01*
X5603089Y-12802120D02*
X5612613Y-12792596D01*
X5612613Y-12792596D02*
X5612613Y-12811644D01*
X5688803Y-12611644D02*
X5812613Y-12611644D01*
X5812613Y-12611644D02*
X5745946Y-12687834D01*
X5745946Y-12687834D02*
X5774518Y-12687834D01*
X5774518Y-12687834D02*
X5793565Y-12697358D01*
X5793565Y-12697358D02*
X5803089Y-12706882D01*
X5803089Y-12706882D02*
X5812613Y-12725929D01*
X5812613Y-12725929D02*
X5812613Y-12773548D01*
X5812613Y-12773548D02*
X5803089Y-12792596D01*
X5803089Y-12792596D02*
X5793565Y-12802120D01*
X5793565Y-12802120D02*
X5774518Y-12811644D01*
X5774518Y-12811644D02*
X5717375Y-12811644D01*
X5717375Y-12811644D02*
X5698327Y-12802120D01*
X5698327Y-12802120D02*
X5688803Y-12792596D01*
X5936422Y-12611644D02*
X5955470Y-12611644D01*
X5955470Y-12611644D02*
X5974518Y-12621168D01*
X5974518Y-12621168D02*
X5984042Y-12630691D01*
X5984042Y-12630691D02*
X5993565Y-12649739D01*
X5993565Y-12649739D02*
X6003089Y-12687834D01*
X6003089Y-12687834D02*
X6003089Y-12735453D01*
X6003089Y-12735453D02*
X5993565Y-12773548D01*
X5993565Y-12773548D02*
X5984042Y-12792596D01*
X5984042Y-12792596D02*
X5974518Y-12802120D01*
X5974518Y-12802120D02*
X5955470Y-12811644D01*
X5955470Y-12811644D02*
X5936422Y-12811644D01*
X5936422Y-12811644D02*
X5917375Y-12802120D01*
X5917375Y-12802120D02*
X5907851Y-12792596D01*
X5907851Y-12792596D02*
X5898327Y-12773548D01*
X5898327Y-12773548D02*
X5888803Y-12735453D01*
X5888803Y-12735453D02*
X5888803Y-12687834D01*
X5888803Y-12687834D02*
X5898327Y-12649739D01*
X5898327Y-12649739D02*
X5907851Y-12630691D01*
X5907851Y-12630691D02*
X5917375Y-12621168D01*
X5917375Y-12621168D02*
X5936422Y-12611644D01*
X6126899Y-12611644D02*
X6145946Y-12611644D01*
X6145946Y-12611644D02*
X6164994Y-12621168D01*
X6164994Y-12621168D02*
X6174518Y-12630691D01*
X6174518Y-12630691D02*
X6184042Y-12649739D01*
X6184042Y-12649739D02*
X6193565Y-12687834D01*
X6193565Y-12687834D02*
X6193565Y-12735453D01*
X6193565Y-12735453D02*
X6184042Y-12773548D01*
X6184042Y-12773548D02*
X6174518Y-12792596D01*
X6174518Y-12792596D02*
X6164994Y-12802120D01*
X6164994Y-12802120D02*
X6145946Y-12811644D01*
X6145946Y-12811644D02*
X6126899Y-12811644D01*
X6126899Y-12811644D02*
X6107851Y-12802120D01*
X6107851Y-12802120D02*
X6098327Y-12792596D01*
X6098327Y-12792596D02*
X6088803Y-12773548D01*
X6088803Y-12773548D02*
X6079280Y-12735453D01*
X6079280Y-12735453D02*
X6079280Y-12687834D01*
X6079280Y-12687834D02*
X6088803Y-12649739D01*
X6088803Y-12649739D02*
X6098327Y-12630691D01*
X6098327Y-12630691D02*
X6107851Y-12621168D01*
X6107851Y-12621168D02*
X6126899Y-12611644D01*
X6279280Y-12811644D02*
X6279280Y-12678310D01*
X6279280Y-12697358D02*
X6288803Y-12687834D01*
X6288803Y-12687834D02*
X6307851Y-12678310D01*
X6307851Y-12678310D02*
X6336423Y-12678310D01*
X6336423Y-12678310D02*
X6355470Y-12687834D01*
X6355470Y-12687834D02*
X6364994Y-12706882D01*
X6364994Y-12706882D02*
X6364994Y-12811644D01*
X6364994Y-12706882D02*
X6374518Y-12687834D01*
X6374518Y-12687834D02*
X6393565Y-12678310D01*
X6393565Y-12678310D02*
X6422137Y-12678310D01*
X6422137Y-12678310D02*
X6441184Y-12687834D01*
X6441184Y-12687834D02*
X6450708Y-12706882D01*
X6450708Y-12706882D02*
X6450708Y-12811644D01*
X6545946Y-12811644D02*
X6545946Y-12678310D01*
X6545946Y-12697358D02*
X6555470Y-12687834D01*
X6555470Y-12687834D02*
X6574518Y-12678310D01*
X6574518Y-12678310D02*
X6603089Y-12678310D01*
X6603089Y-12678310D02*
X6622137Y-12687834D01*
X6622137Y-12687834D02*
X6631661Y-12706882D01*
X6631661Y-12706882D02*
X6631661Y-12811644D01*
X6631661Y-12706882D02*
X6641184Y-12687834D01*
X6641184Y-12687834D02*
X6660232Y-12678310D01*
X6660232Y-12678310D02*
X6688803Y-12678310D01*
X6688803Y-12678310D02*
X6707851Y-12687834D01*
X6707851Y-12687834D02*
X6717375Y-12706882D01*
X6717375Y-12706882D02*
X6717375Y-12811644D01*
X7107851Y-12602120D02*
X6936423Y-12859263D01*
X7364994Y-12611644D02*
X7384042Y-12611644D01*
X7384042Y-12611644D02*
X7403089Y-12621168D01*
X7403089Y-12621168D02*
X7412613Y-12630691D01*
X7412613Y-12630691D02*
X7422137Y-12649739D01*
X7422137Y-12649739D02*
X7431661Y-12687834D01*
X7431661Y-12687834D02*
X7431661Y-12735453D01*
X7431661Y-12735453D02*
X7422137Y-12773548D01*
X7422137Y-12773548D02*
X7412613Y-12792596D01*
X7412613Y-12792596D02*
X7403089Y-12802120D01*
X7403089Y-12802120D02*
X7384042Y-12811644D01*
X7384042Y-12811644D02*
X7364994Y-12811644D01*
X7364994Y-12811644D02*
X7345946Y-12802120D01*
X7345946Y-12802120D02*
X7336423Y-12792596D01*
X7336423Y-12792596D02*
X7326899Y-12773548D01*
X7326899Y-12773548D02*
X7317375Y-12735453D01*
X7317375Y-12735453D02*
X7317375Y-12687834D01*
X7317375Y-12687834D02*
X7326899Y-12649739D01*
X7326899Y-12649739D02*
X7336423Y-12630691D01*
X7336423Y-12630691D02*
X7345946Y-12621168D01*
X7345946Y-12621168D02*
X7364994Y-12611644D01*
X7517375Y-12792596D02*
X7526899Y-12802120D01*
X7526899Y-12802120D02*
X7517375Y-12811644D01*
X7517375Y-12811644D02*
X7507851Y-12802120D01*
X7507851Y-12802120D02*
X7517375Y-12792596D01*
X7517375Y-12792596D02*
X7517375Y-12811644D01*
X7650708Y-12611644D02*
X7669756Y-12611644D01*
X7669756Y-12611644D02*
X7688804Y-12621168D01*
X7688804Y-12621168D02*
X7698327Y-12630691D01*
X7698327Y-12630691D02*
X7707851Y-12649739D01*
X7707851Y-12649739D02*
X7717375Y-12687834D01*
X7717375Y-12687834D02*
X7717375Y-12735453D01*
X7717375Y-12735453D02*
X7707851Y-12773548D01*
X7707851Y-12773548D02*
X7698327Y-12792596D01*
X7698327Y-12792596D02*
X7688804Y-12802120D01*
X7688804Y-12802120D02*
X7669756Y-12811644D01*
X7669756Y-12811644D02*
X7650708Y-12811644D01*
X7650708Y-12811644D02*
X7631661Y-12802120D01*
X7631661Y-12802120D02*
X7622137Y-12792596D01*
X7622137Y-12792596D02*
X7612613Y-12773548D01*
X7612613Y-12773548D02*
X7603089Y-12735453D01*
X7603089Y-12735453D02*
X7603089Y-12687834D01*
X7603089Y-12687834D02*
X7612613Y-12649739D01*
X7612613Y-12649739D02*
X7622137Y-12630691D01*
X7622137Y-12630691D02*
X7631661Y-12621168D01*
X7631661Y-12621168D02*
X7650708Y-12611644D01*
X7907851Y-12811644D02*
X7793566Y-12811644D01*
X7850708Y-12811644D02*
X7850708Y-12611644D01*
X7850708Y-12611644D02*
X7831661Y-12640215D01*
X7831661Y-12640215D02*
X7812613Y-12659263D01*
X7812613Y-12659263D02*
X7793566Y-12668787D01*
X8098327Y-12811644D02*
X7984042Y-12811644D01*
X8041185Y-12811644D02*
X8041185Y-12611644D01*
X8041185Y-12611644D02*
X8022137Y-12640215D01*
X8022137Y-12640215D02*
X8003089Y-12659263D01*
X8003089Y-12659263D02*
X7984042Y-12668787D01*
X8212613Y-12697358D02*
X8193566Y-12687834D01*
X8193566Y-12687834D02*
X8184042Y-12678310D01*
X8184042Y-12678310D02*
X8174518Y-12659263D01*
X8174518Y-12659263D02*
X8174518Y-12649739D01*
X8174518Y-12649739D02*
X8184042Y-12630691D01*
X8184042Y-12630691D02*
X8193566Y-12621168D01*
X8193566Y-12621168D02*
X8212613Y-12611644D01*
X8212613Y-12611644D02*
X8250708Y-12611644D01*
X8250708Y-12611644D02*
X8269756Y-12621168D01*
X8269756Y-12621168D02*
X8279280Y-12630691D01*
X8279280Y-12630691D02*
X8288804Y-12649739D01*
X8288804Y-12649739D02*
X8288804Y-12659263D01*
X8288804Y-12659263D02*
X8279280Y-12678310D01*
X8279280Y-12678310D02*
X8269756Y-12687834D01*
X8269756Y-12687834D02*
X8250708Y-12697358D01*
X8250708Y-12697358D02*
X8212613Y-12697358D01*
X8212613Y-12697358D02*
X8193566Y-12706882D01*
X8193566Y-12706882D02*
X8184042Y-12716406D01*
X8184042Y-12716406D02*
X8174518Y-12735453D01*
X8174518Y-12735453D02*
X8174518Y-12773548D01*
X8174518Y-12773548D02*
X8184042Y-12792596D01*
X8184042Y-12792596D02*
X8193566Y-12802120D01*
X8193566Y-12802120D02*
X8212613Y-12811644D01*
X8212613Y-12811644D02*
X8250708Y-12811644D01*
X8250708Y-12811644D02*
X8269756Y-12802120D01*
X8269756Y-12802120D02*
X8279280Y-12792596D01*
X8279280Y-12792596D02*
X8288804Y-12773548D01*
X8288804Y-12773548D02*
X8288804Y-12735453D01*
X8288804Y-12735453D02*
X8279280Y-12716406D01*
X8279280Y-12716406D02*
X8269756Y-12706882D01*
X8269756Y-12706882D02*
X8250708Y-12697358D01*
X8364994Y-12611644D02*
X8364994Y-12649739D01*
X8441185Y-12611644D02*
X8441185Y-12649739D01*
X8736423Y-12887834D02*
X8726899Y-12878310D01*
X8726899Y-12878310D02*
X8707851Y-12849739D01*
X8707851Y-12849739D02*
X8698328Y-12830691D01*
X8698328Y-12830691D02*
X8688804Y-12802120D01*
X8688804Y-12802120D02*
X8679280Y-12754501D01*
X8679280Y-12754501D02*
X8679280Y-12716406D01*
X8679280Y-12716406D02*
X8688804Y-12668787D01*
X8688804Y-12668787D02*
X8698328Y-12640215D01*
X8698328Y-12640215D02*
X8707851Y-12621168D01*
X8707851Y-12621168D02*
X8726899Y-12592596D01*
X8726899Y-12592596D02*
X8736423Y-12583072D01*
X8898328Y-12678310D02*
X8898328Y-12811644D01*
X8850709Y-12602120D02*
X8803090Y-12744977D01*
X8803090Y-12744977D02*
X8926899Y-12744977D01*
X8993566Y-12630691D02*
X9003090Y-12621168D01*
X9003090Y-12621168D02*
X9022137Y-12611644D01*
X9022137Y-12611644D02*
X9069756Y-12611644D01*
X9069756Y-12611644D02*
X9088804Y-12621168D01*
X9088804Y-12621168D02*
X9098328Y-12630691D01*
X9098328Y-12630691D02*
X9107851Y-12649739D01*
X9107851Y-12649739D02*
X9107851Y-12668787D01*
X9107851Y-12668787D02*
X9098328Y-12697358D01*
X9098328Y-12697358D02*
X8984042Y-12811644D01*
X8984042Y-12811644D02*
X9107851Y-12811644D01*
X9203090Y-12811644D02*
X9241185Y-12811644D01*
X9241185Y-12811644D02*
X9260232Y-12802120D01*
X9260232Y-12802120D02*
X9269756Y-12792596D01*
X9269756Y-12792596D02*
X9288804Y-12764025D01*
X9288804Y-12764025D02*
X9298328Y-12725929D01*
X9298328Y-12725929D02*
X9298328Y-12649739D01*
X9298328Y-12649739D02*
X9288804Y-12630691D01*
X9288804Y-12630691D02*
X9279280Y-12621168D01*
X9279280Y-12621168D02*
X9260232Y-12611644D01*
X9260232Y-12611644D02*
X9222137Y-12611644D01*
X9222137Y-12611644D02*
X9203090Y-12621168D01*
X9203090Y-12621168D02*
X9193566Y-12630691D01*
X9193566Y-12630691D02*
X9184042Y-12649739D01*
X9184042Y-12649739D02*
X9184042Y-12697358D01*
X9184042Y-12697358D02*
X9193566Y-12716406D01*
X9193566Y-12716406D02*
X9203090Y-12725929D01*
X9203090Y-12725929D02*
X9222137Y-12735453D01*
X9222137Y-12735453D02*
X9260232Y-12735453D01*
X9260232Y-12735453D02*
X9279280Y-12725929D01*
X9279280Y-12725929D02*
X9288804Y-12716406D01*
X9288804Y-12716406D02*
X9298328Y-12697358D01*
X9536423Y-12811644D02*
X9536423Y-12611644D01*
X9622137Y-12811644D02*
X9622137Y-12706882D01*
X9622137Y-12706882D02*
X9612613Y-12687834D01*
X9612613Y-12687834D02*
X9593566Y-12678310D01*
X9593566Y-12678310D02*
X9564994Y-12678310D01*
X9564994Y-12678310D02*
X9545947Y-12687834D01*
X9545947Y-12687834D02*
X9536423Y-12697358D01*
X9745947Y-12811644D02*
X9726899Y-12802120D01*
X9726899Y-12802120D02*
X9717375Y-12792596D01*
X9717375Y-12792596D02*
X9707852Y-12773548D01*
X9707852Y-12773548D02*
X9707852Y-12716406D01*
X9707852Y-12716406D02*
X9717375Y-12697358D01*
X9717375Y-12697358D02*
X9726899Y-12687834D01*
X9726899Y-12687834D02*
X9745947Y-12678310D01*
X9745947Y-12678310D02*
X9774518Y-12678310D01*
X9774518Y-12678310D02*
X9793566Y-12687834D01*
X9793566Y-12687834D02*
X9803090Y-12697358D01*
X9803090Y-12697358D02*
X9812613Y-12716406D01*
X9812613Y-12716406D02*
X9812613Y-12773548D01*
X9812613Y-12773548D02*
X9803090Y-12792596D01*
X9803090Y-12792596D02*
X9793566Y-12802120D01*
X9793566Y-12802120D02*
X9774518Y-12811644D01*
X9774518Y-12811644D02*
X9745947Y-12811644D01*
X9926899Y-12811644D02*
X9907852Y-12802120D01*
X9907852Y-12802120D02*
X9898328Y-12783072D01*
X9898328Y-12783072D02*
X9898328Y-12611644D01*
X10079280Y-12802120D02*
X10060233Y-12811644D01*
X10060233Y-12811644D02*
X10022137Y-12811644D01*
X10022137Y-12811644D02*
X10003090Y-12802120D01*
X10003090Y-12802120D02*
X9993566Y-12783072D01*
X9993566Y-12783072D02*
X9993566Y-12706882D01*
X9993566Y-12706882D02*
X10003090Y-12687834D01*
X10003090Y-12687834D02*
X10022137Y-12678310D01*
X10022137Y-12678310D02*
X10060233Y-12678310D01*
X10060233Y-12678310D02*
X10079280Y-12687834D01*
X10079280Y-12687834D02*
X10088804Y-12706882D01*
X10088804Y-12706882D02*
X10088804Y-12725929D01*
X10088804Y-12725929D02*
X9993566Y-12744977D01*
X10164994Y-12802120D02*
X10184042Y-12811644D01*
X10184042Y-12811644D02*
X10222137Y-12811644D01*
X10222137Y-12811644D02*
X10241185Y-12802120D01*
X10241185Y-12802120D02*
X10250709Y-12783072D01*
X10250709Y-12783072D02*
X10250709Y-12773548D01*
X10250709Y-12773548D02*
X10241185Y-12754501D01*
X10241185Y-12754501D02*
X10222137Y-12744977D01*
X10222137Y-12744977D02*
X10193566Y-12744977D01*
X10193566Y-12744977D02*
X10174518Y-12735453D01*
X10174518Y-12735453D02*
X10164994Y-12716406D01*
X10164994Y-12716406D02*
X10164994Y-12706882D01*
X10164994Y-12706882D02*
X10174518Y-12687834D01*
X10174518Y-12687834D02*
X10193566Y-12678310D01*
X10193566Y-12678310D02*
X10222137Y-12678310D01*
X10222137Y-12678310D02*
X10241185Y-12687834D01*
X10317375Y-12887834D02*
X10326899Y-12878310D01*
X10326899Y-12878310D02*
X10345947Y-12849739D01*
X10345947Y-12849739D02*
X10355471Y-12830691D01*
X10355471Y-12830691D02*
X10364994Y-12802120D01*
X10364994Y-12802120D02*
X10374518Y-12754501D01*
X10374518Y-12754501D02*
X10374518Y-12716406D01*
X10374518Y-12716406D02*
X10364994Y-12668787D01*
X10364994Y-12668787D02*
X10355471Y-12640215D01*
X10355471Y-12640215D02*
X10345947Y-12621168D01*
X10345947Y-12621168D02*
X10326899Y-12592596D01*
X10326899Y-12592596D02*
X10317375Y-12583072D01*
D10*
X5161360Y-12984160D02*
G75*
G02*
X5101360Y-12984160I-30000J0D01*
G01*
X5101360Y-12984160D02*
G75*
G02*
X5161360Y-12984160I30000J0D01*
G01*
D11*
X5460232Y-12875644D02*
X5479280Y-12875644D01*
X5479280Y-12875644D02*
X5498327Y-12885168D01*
X5498327Y-12885168D02*
X5507851Y-12894691D01*
X5507851Y-12894691D02*
X5517375Y-12913739D01*
X5517375Y-12913739D02*
X5526899Y-12951834D01*
X5526899Y-12951834D02*
X5526899Y-12999453D01*
X5526899Y-12999453D02*
X5517375Y-13037548D01*
X5517375Y-13037548D02*
X5507851Y-13056596D01*
X5507851Y-13056596D02*
X5498327Y-13066120D01*
X5498327Y-13066120D02*
X5479280Y-13075644D01*
X5479280Y-13075644D02*
X5460232Y-13075644D01*
X5460232Y-13075644D02*
X5441184Y-13066120D01*
X5441184Y-13066120D02*
X5431661Y-13056596D01*
X5431661Y-13056596D02*
X5422137Y-13037548D01*
X5422137Y-13037548D02*
X5412613Y-12999453D01*
X5412613Y-12999453D02*
X5412613Y-12951834D01*
X5412613Y-12951834D02*
X5422137Y-12913739D01*
X5422137Y-12913739D02*
X5431661Y-12894691D01*
X5431661Y-12894691D02*
X5441184Y-12885168D01*
X5441184Y-12885168D02*
X5460232Y-12875644D01*
X5612613Y-13056596D02*
X5622137Y-13066120D01*
X5622137Y-13066120D02*
X5612613Y-13075644D01*
X5612613Y-13075644D02*
X5603089Y-13066120D01*
X5603089Y-13066120D02*
X5612613Y-13056596D01*
X5612613Y-13056596D02*
X5612613Y-13075644D01*
X5793565Y-12875644D02*
X5755470Y-12875644D01*
X5755470Y-12875644D02*
X5736422Y-12885168D01*
X5736422Y-12885168D02*
X5726899Y-12894691D01*
X5726899Y-12894691D02*
X5707851Y-12923263D01*
X5707851Y-12923263D02*
X5698327Y-12961358D01*
X5698327Y-12961358D02*
X5698327Y-13037548D01*
X5698327Y-13037548D02*
X5707851Y-13056596D01*
X5707851Y-13056596D02*
X5717375Y-13066120D01*
X5717375Y-13066120D02*
X5736422Y-13075644D01*
X5736422Y-13075644D02*
X5774518Y-13075644D01*
X5774518Y-13075644D02*
X5793565Y-13066120D01*
X5793565Y-13066120D02*
X5803089Y-13056596D01*
X5803089Y-13056596D02*
X5812613Y-13037548D01*
X5812613Y-13037548D02*
X5812613Y-12989929D01*
X5812613Y-12989929D02*
X5803089Y-12970882D01*
X5803089Y-12970882D02*
X5793565Y-12961358D01*
X5793565Y-12961358D02*
X5774518Y-12951834D01*
X5774518Y-12951834D02*
X5736422Y-12951834D01*
X5736422Y-12951834D02*
X5717375Y-12961358D01*
X5717375Y-12961358D02*
X5707851Y-12970882D01*
X5707851Y-12970882D02*
X5698327Y-12989929D01*
X5936422Y-12875644D02*
X5955470Y-12875644D01*
X5955470Y-12875644D02*
X5974518Y-12885168D01*
X5974518Y-12885168D02*
X5984042Y-12894691D01*
X5984042Y-12894691D02*
X5993565Y-12913739D01*
X5993565Y-12913739D02*
X6003089Y-12951834D01*
X6003089Y-12951834D02*
X6003089Y-12999453D01*
X6003089Y-12999453D02*
X5993565Y-13037548D01*
X5993565Y-13037548D02*
X5984042Y-13056596D01*
X5984042Y-13056596D02*
X5974518Y-13066120D01*
X5974518Y-13066120D02*
X5955470Y-13075644D01*
X5955470Y-13075644D02*
X5936422Y-13075644D01*
X5936422Y-13075644D02*
X5917375Y-13066120D01*
X5917375Y-13066120D02*
X5907851Y-13056596D01*
X5907851Y-13056596D02*
X5898327Y-13037548D01*
X5898327Y-13037548D02*
X5888803Y-12999453D01*
X5888803Y-12999453D02*
X5888803Y-12951834D01*
X5888803Y-12951834D02*
X5898327Y-12913739D01*
X5898327Y-12913739D02*
X5907851Y-12894691D01*
X5907851Y-12894691D02*
X5917375Y-12885168D01*
X5917375Y-12885168D02*
X5936422Y-12875644D01*
X6126899Y-12875644D02*
X6145946Y-12875644D01*
X6145946Y-12875644D02*
X6164994Y-12885168D01*
X6164994Y-12885168D02*
X6174518Y-12894691D01*
X6174518Y-12894691D02*
X6184042Y-12913739D01*
X6184042Y-12913739D02*
X6193565Y-12951834D01*
X6193565Y-12951834D02*
X6193565Y-12999453D01*
X6193565Y-12999453D02*
X6184042Y-13037548D01*
X6184042Y-13037548D02*
X6174518Y-13056596D01*
X6174518Y-13056596D02*
X6164994Y-13066120D01*
X6164994Y-13066120D02*
X6145946Y-13075644D01*
X6145946Y-13075644D02*
X6126899Y-13075644D01*
X6126899Y-13075644D02*
X6107851Y-13066120D01*
X6107851Y-13066120D02*
X6098327Y-13056596D01*
X6098327Y-13056596D02*
X6088803Y-13037548D01*
X6088803Y-13037548D02*
X6079280Y-12999453D01*
X6079280Y-12999453D02*
X6079280Y-12951834D01*
X6079280Y-12951834D02*
X6088803Y-12913739D01*
X6088803Y-12913739D02*
X6098327Y-12894691D01*
X6098327Y-12894691D02*
X6107851Y-12885168D01*
X6107851Y-12885168D02*
X6126899Y-12875644D01*
X6279280Y-13075644D02*
X6279280Y-12942310D01*
X6279280Y-12961358D02*
X6288803Y-12951834D01*
X6288803Y-12951834D02*
X6307851Y-12942310D01*
X6307851Y-12942310D02*
X6336423Y-12942310D01*
X6336423Y-12942310D02*
X6355470Y-12951834D01*
X6355470Y-12951834D02*
X6364994Y-12970882D01*
X6364994Y-12970882D02*
X6364994Y-13075644D01*
X6364994Y-12970882D02*
X6374518Y-12951834D01*
X6374518Y-12951834D02*
X6393565Y-12942310D01*
X6393565Y-12942310D02*
X6422137Y-12942310D01*
X6422137Y-12942310D02*
X6441184Y-12951834D01*
X6441184Y-12951834D02*
X6450708Y-12970882D01*
X6450708Y-12970882D02*
X6450708Y-13075644D01*
X6545946Y-13075644D02*
X6545946Y-12942310D01*
X6545946Y-12961358D02*
X6555470Y-12951834D01*
X6555470Y-12951834D02*
X6574518Y-12942310D01*
X6574518Y-12942310D02*
X6603089Y-12942310D01*
X6603089Y-12942310D02*
X6622137Y-12951834D01*
X6622137Y-12951834D02*
X6631661Y-12970882D01*
X6631661Y-12970882D02*
X6631661Y-13075644D01*
X6631661Y-12970882D02*
X6641184Y-12951834D01*
X6641184Y-12951834D02*
X6660232Y-12942310D01*
X6660232Y-12942310D02*
X6688803Y-12942310D01*
X6688803Y-12942310D02*
X6707851Y-12951834D01*
X6707851Y-12951834D02*
X6717375Y-12970882D01*
X6717375Y-12970882D02*
X6717375Y-13075644D01*
X7107851Y-12866120D02*
X6936423Y-13123263D01*
X7364994Y-12875644D02*
X7384042Y-12875644D01*
X7384042Y-12875644D02*
X7403089Y-12885168D01*
X7403089Y-12885168D02*
X7412613Y-12894691D01*
X7412613Y-12894691D02*
X7422137Y-12913739D01*
X7422137Y-12913739D02*
X7431661Y-12951834D01*
X7431661Y-12951834D02*
X7431661Y-12999453D01*
X7431661Y-12999453D02*
X7422137Y-13037548D01*
X7422137Y-13037548D02*
X7412613Y-13056596D01*
X7412613Y-13056596D02*
X7403089Y-13066120D01*
X7403089Y-13066120D02*
X7384042Y-13075644D01*
X7384042Y-13075644D02*
X7364994Y-13075644D01*
X7364994Y-13075644D02*
X7345946Y-13066120D01*
X7345946Y-13066120D02*
X7336423Y-13056596D01*
X7336423Y-13056596D02*
X7326899Y-13037548D01*
X7326899Y-13037548D02*
X7317375Y-12999453D01*
X7317375Y-12999453D02*
X7317375Y-12951834D01*
X7317375Y-12951834D02*
X7326899Y-12913739D01*
X7326899Y-12913739D02*
X7336423Y-12894691D01*
X7336423Y-12894691D02*
X7345946Y-12885168D01*
X7345946Y-12885168D02*
X7364994Y-12875644D01*
X7517375Y-13056596D02*
X7526899Y-13066120D01*
X7526899Y-13066120D02*
X7517375Y-13075644D01*
X7517375Y-13075644D02*
X7507851Y-13066120D01*
X7507851Y-13066120D02*
X7517375Y-13056596D01*
X7517375Y-13056596D02*
X7517375Y-13075644D01*
X7650708Y-12875644D02*
X7669756Y-12875644D01*
X7669756Y-12875644D02*
X7688804Y-12885168D01*
X7688804Y-12885168D02*
X7698327Y-12894691D01*
X7698327Y-12894691D02*
X7707851Y-12913739D01*
X7707851Y-12913739D02*
X7717375Y-12951834D01*
X7717375Y-12951834D02*
X7717375Y-12999453D01*
X7717375Y-12999453D02*
X7707851Y-13037548D01*
X7707851Y-13037548D02*
X7698327Y-13056596D01*
X7698327Y-13056596D02*
X7688804Y-13066120D01*
X7688804Y-13066120D02*
X7669756Y-13075644D01*
X7669756Y-13075644D02*
X7650708Y-13075644D01*
X7650708Y-13075644D02*
X7631661Y-13066120D01*
X7631661Y-13066120D02*
X7622137Y-13056596D01*
X7622137Y-13056596D02*
X7612613Y-13037548D01*
X7612613Y-13037548D02*
X7603089Y-12999453D01*
X7603089Y-12999453D02*
X7603089Y-12951834D01*
X7603089Y-12951834D02*
X7612613Y-12913739D01*
X7612613Y-12913739D02*
X7622137Y-12894691D01*
X7622137Y-12894691D02*
X7631661Y-12885168D01*
X7631661Y-12885168D02*
X7650708Y-12875644D01*
X7793566Y-12894691D02*
X7803089Y-12885168D01*
X7803089Y-12885168D02*
X7822137Y-12875644D01*
X7822137Y-12875644D02*
X7869756Y-12875644D01*
X7869756Y-12875644D02*
X7888804Y-12885168D01*
X7888804Y-12885168D02*
X7898327Y-12894691D01*
X7898327Y-12894691D02*
X7907851Y-12913739D01*
X7907851Y-12913739D02*
X7907851Y-12932787D01*
X7907851Y-12932787D02*
X7898327Y-12961358D01*
X7898327Y-12961358D02*
X7784042Y-13075644D01*
X7784042Y-13075644D02*
X7907851Y-13075644D01*
X7974518Y-12875644D02*
X8098327Y-12875644D01*
X8098327Y-12875644D02*
X8031661Y-12951834D01*
X8031661Y-12951834D02*
X8060232Y-12951834D01*
X8060232Y-12951834D02*
X8079280Y-12961358D01*
X8079280Y-12961358D02*
X8088804Y-12970882D01*
X8088804Y-12970882D02*
X8098327Y-12989929D01*
X8098327Y-12989929D02*
X8098327Y-13037548D01*
X8098327Y-13037548D02*
X8088804Y-13056596D01*
X8088804Y-13056596D02*
X8079280Y-13066120D01*
X8079280Y-13066120D02*
X8060232Y-13075644D01*
X8060232Y-13075644D02*
X8003089Y-13075644D01*
X8003089Y-13075644D02*
X7984042Y-13066120D01*
X7984042Y-13066120D02*
X7974518Y-13056596D01*
X8269756Y-12875644D02*
X8231661Y-12875644D01*
X8231661Y-12875644D02*
X8212613Y-12885168D01*
X8212613Y-12885168D02*
X8203089Y-12894691D01*
X8203089Y-12894691D02*
X8184042Y-12923263D01*
X8184042Y-12923263D02*
X8174518Y-12961358D01*
X8174518Y-12961358D02*
X8174518Y-13037548D01*
X8174518Y-13037548D02*
X8184042Y-13056596D01*
X8184042Y-13056596D02*
X8193566Y-13066120D01*
X8193566Y-13066120D02*
X8212613Y-13075644D01*
X8212613Y-13075644D02*
X8250708Y-13075644D01*
X8250708Y-13075644D02*
X8269756Y-13066120D01*
X8269756Y-13066120D02*
X8279280Y-13056596D01*
X8279280Y-13056596D02*
X8288804Y-13037548D01*
X8288804Y-13037548D02*
X8288804Y-12989929D01*
X8288804Y-12989929D02*
X8279280Y-12970882D01*
X8279280Y-12970882D02*
X8269756Y-12961358D01*
X8269756Y-12961358D02*
X8250708Y-12951834D01*
X8250708Y-12951834D02*
X8212613Y-12951834D01*
X8212613Y-12951834D02*
X8193566Y-12961358D01*
X8193566Y-12961358D02*
X8184042Y-12970882D01*
X8184042Y-12970882D02*
X8174518Y-12989929D01*
X8364994Y-12875644D02*
X8364994Y-12913739D01*
X8441185Y-12875644D02*
X8441185Y-12913739D01*
X8736423Y-13151834D02*
X8726899Y-13142310D01*
X8726899Y-13142310D02*
X8707851Y-13113739D01*
X8707851Y-13113739D02*
X8698328Y-13094691D01*
X8698328Y-13094691D02*
X8688804Y-13066120D01*
X8688804Y-13066120D02*
X8679280Y-13018501D01*
X8679280Y-13018501D02*
X8679280Y-12980406D01*
X8679280Y-12980406D02*
X8688804Y-12932787D01*
X8688804Y-12932787D02*
X8698328Y-12904215D01*
X8698328Y-12904215D02*
X8707851Y-12885168D01*
X8707851Y-12885168D02*
X8726899Y-12856596D01*
X8726899Y-12856596D02*
X8736423Y-12847072D01*
X8850709Y-12875644D02*
X8869756Y-12875644D01*
X8869756Y-12875644D02*
X8888804Y-12885168D01*
X8888804Y-12885168D02*
X8898328Y-12894691D01*
X8898328Y-12894691D02*
X8907851Y-12913739D01*
X8907851Y-12913739D02*
X8917375Y-12951834D01*
X8917375Y-12951834D02*
X8917375Y-12999453D01*
X8917375Y-12999453D02*
X8907851Y-13037548D01*
X8907851Y-13037548D02*
X8898328Y-13056596D01*
X8898328Y-13056596D02*
X8888804Y-13066120D01*
X8888804Y-13066120D02*
X8869756Y-13075644D01*
X8869756Y-13075644D02*
X8850709Y-13075644D01*
X8850709Y-13075644D02*
X8831661Y-13066120D01*
X8831661Y-13066120D02*
X8822137Y-13056596D01*
X8822137Y-13056596D02*
X8812613Y-13037548D01*
X8812613Y-13037548D02*
X8803090Y-12999453D01*
X8803090Y-12999453D02*
X8803090Y-12951834D01*
X8803090Y-12951834D02*
X8812613Y-12913739D01*
X8812613Y-12913739D02*
X8822137Y-12894691D01*
X8822137Y-12894691D02*
X8831661Y-12885168D01*
X8831661Y-12885168D02*
X8850709Y-12875644D01*
X9155471Y-13075644D02*
X9155471Y-12875644D01*
X9241185Y-13075644D02*
X9241185Y-12970882D01*
X9241185Y-12970882D02*
X9231661Y-12951834D01*
X9231661Y-12951834D02*
X9212613Y-12942310D01*
X9212613Y-12942310D02*
X9184042Y-12942310D01*
X9184042Y-12942310D02*
X9164994Y-12951834D01*
X9164994Y-12951834D02*
X9155471Y-12961358D01*
X9364994Y-13075644D02*
X9345947Y-13066120D01*
X9345947Y-13066120D02*
X9336423Y-13056596D01*
X9336423Y-13056596D02*
X9326899Y-13037548D01*
X9326899Y-13037548D02*
X9326899Y-12980406D01*
X9326899Y-12980406D02*
X9336423Y-12961358D01*
X9336423Y-12961358D02*
X9345947Y-12951834D01*
X9345947Y-12951834D02*
X9364994Y-12942310D01*
X9364994Y-12942310D02*
X9393566Y-12942310D01*
X9393566Y-12942310D02*
X9412613Y-12951834D01*
X9412613Y-12951834D02*
X9422137Y-12961358D01*
X9422137Y-12961358D02*
X9431661Y-12980406D01*
X9431661Y-12980406D02*
X9431661Y-13037548D01*
X9431661Y-13037548D02*
X9422137Y-13056596D01*
X9422137Y-13056596D02*
X9412613Y-13066120D01*
X9412613Y-13066120D02*
X9393566Y-13075644D01*
X9393566Y-13075644D02*
X9364994Y-13075644D01*
X9545947Y-13075644D02*
X9526899Y-13066120D01*
X9526899Y-13066120D02*
X9517375Y-13047072D01*
X9517375Y-13047072D02*
X9517375Y-12875644D01*
X9698328Y-13066120D02*
X9679280Y-13075644D01*
X9679280Y-13075644D02*
X9641185Y-13075644D01*
X9641185Y-13075644D02*
X9622137Y-13066120D01*
X9622137Y-13066120D02*
X9612613Y-13047072D01*
X9612613Y-13047072D02*
X9612613Y-12970882D01*
X9612613Y-12970882D02*
X9622137Y-12951834D01*
X9622137Y-12951834D02*
X9641185Y-12942310D01*
X9641185Y-12942310D02*
X9679280Y-12942310D01*
X9679280Y-12942310D02*
X9698328Y-12951834D01*
X9698328Y-12951834D02*
X9707852Y-12970882D01*
X9707852Y-12970882D02*
X9707852Y-12989929D01*
X9707852Y-12989929D02*
X9612613Y-13008977D01*
X9784042Y-13066120D02*
X9803090Y-13075644D01*
X9803090Y-13075644D02*
X9841185Y-13075644D01*
X9841185Y-13075644D02*
X9860233Y-13066120D01*
X9860233Y-13066120D02*
X9869756Y-13047072D01*
X9869756Y-13047072D02*
X9869756Y-13037548D01*
X9869756Y-13037548D02*
X9860233Y-13018501D01*
X9860233Y-13018501D02*
X9841185Y-13008977D01*
X9841185Y-13008977D02*
X9812613Y-13008977D01*
X9812613Y-13008977D02*
X9793566Y-12999453D01*
X9793566Y-12999453D02*
X9784042Y-12980406D01*
X9784042Y-12980406D02*
X9784042Y-12970882D01*
X9784042Y-12970882D02*
X9793566Y-12951834D01*
X9793566Y-12951834D02*
X9812613Y-12942310D01*
X9812613Y-12942310D02*
X9841185Y-12942310D01*
X9841185Y-12942310D02*
X9860233Y-12951834D01*
X10107852Y-12999453D02*
X10260233Y-12999453D01*
X10184042Y-13075644D02*
X10184042Y-12923263D01*
X10593566Y-12942310D02*
X10593566Y-13075644D01*
X10545947Y-12866120D02*
X10498328Y-13008977D01*
X10498328Y-13008977D02*
X10622137Y-13008977D01*
X10841185Y-13066120D02*
X10860233Y-13075644D01*
X10860233Y-13075644D02*
X10898328Y-13075644D01*
X10898328Y-13075644D02*
X10917376Y-13066120D01*
X10917376Y-13066120D02*
X10926899Y-13047072D01*
X10926899Y-13047072D02*
X10926899Y-13037548D01*
X10926899Y-13037548D02*
X10917376Y-13018501D01*
X10917376Y-13018501D02*
X10898328Y-13008977D01*
X10898328Y-13008977D02*
X10869756Y-13008977D01*
X10869756Y-13008977D02*
X10850709Y-12999453D01*
X10850709Y-12999453D02*
X10841185Y-12980406D01*
X10841185Y-12980406D02*
X10841185Y-12970882D01*
X10841185Y-12970882D02*
X10850709Y-12951834D01*
X10850709Y-12951834D02*
X10869756Y-12942310D01*
X10869756Y-12942310D02*
X10898328Y-12942310D01*
X10898328Y-12942310D02*
X10917376Y-12951834D01*
X11041185Y-13075644D02*
X11022137Y-13066120D01*
X11022137Y-13066120D02*
X11012614Y-13047072D01*
X11012614Y-13047072D02*
X11012614Y-12875644D01*
X11145947Y-13075644D02*
X11126899Y-13066120D01*
X11126899Y-13066120D02*
X11117376Y-13056596D01*
X11117376Y-13056596D02*
X11107852Y-13037548D01*
X11107852Y-13037548D02*
X11107852Y-12980406D01*
X11107852Y-12980406D02*
X11117376Y-12961358D01*
X11117376Y-12961358D02*
X11126899Y-12951834D01*
X11126899Y-12951834D02*
X11145947Y-12942310D01*
X11145947Y-12942310D02*
X11174518Y-12942310D01*
X11174518Y-12942310D02*
X11193566Y-12951834D01*
X11193566Y-12951834D02*
X11203090Y-12961358D01*
X11203090Y-12961358D02*
X11212614Y-12980406D01*
X11212614Y-12980406D02*
X11212614Y-13037548D01*
X11212614Y-13037548D02*
X11203090Y-13056596D01*
X11203090Y-13056596D02*
X11193566Y-13066120D01*
X11193566Y-13066120D02*
X11174518Y-13075644D01*
X11174518Y-13075644D02*
X11145947Y-13075644D01*
X11269756Y-12942310D02*
X11345947Y-12942310D01*
X11298328Y-12875644D02*
X11298328Y-13047072D01*
X11298328Y-13047072D02*
X11307852Y-13066120D01*
X11307852Y-13066120D02*
X11326899Y-13075644D01*
X11326899Y-13075644D02*
X11345947Y-13075644D01*
X11403090Y-13066120D02*
X11422137Y-13075644D01*
X11422137Y-13075644D02*
X11460233Y-13075644D01*
X11460233Y-13075644D02*
X11479280Y-13066120D01*
X11479280Y-13066120D02*
X11488804Y-13047072D01*
X11488804Y-13047072D02*
X11488804Y-13037548D01*
X11488804Y-13037548D02*
X11479280Y-13018501D01*
X11479280Y-13018501D02*
X11460233Y-13008977D01*
X11460233Y-13008977D02*
X11431661Y-13008977D01*
X11431661Y-13008977D02*
X11412614Y-12999453D01*
X11412614Y-12999453D02*
X11403090Y-12980406D01*
X11403090Y-12980406D02*
X11403090Y-12970882D01*
X11403090Y-12970882D02*
X11412614Y-12951834D01*
X11412614Y-12951834D02*
X11431661Y-12942310D01*
X11431661Y-12942310D02*
X11460233Y-12942310D01*
X11460233Y-12942310D02*
X11479280Y-12951834D01*
X11555471Y-13151834D02*
X11564995Y-13142310D01*
X11564995Y-13142310D02*
X11584042Y-13113739D01*
X11584042Y-13113739D02*
X11593566Y-13094691D01*
X11593566Y-13094691D02*
X11603090Y-13066120D01*
X11603090Y-13066120D02*
X11612614Y-13018501D01*
X11612614Y-13018501D02*
X11612614Y-12980406D01*
X11612614Y-12980406D02*
X11603090Y-12932787D01*
X11603090Y-12932787D02*
X11593566Y-12904215D01*
X11593566Y-12904215D02*
X11584042Y-12885168D01*
X11584042Y-12885168D02*
X11564995Y-12856596D01*
X11564995Y-12856596D02*
X11555471Y-12847072D01*
D10*
X5121360Y-13208160D02*
X5121360Y-13288160D01*
X5081360Y-13248160D02*
X5161360Y-13248160D01*
D11*
X5460232Y-13139644D02*
X5479280Y-13139644D01*
X5479280Y-13139644D02*
X5498327Y-13149168D01*
X5498327Y-13149168D02*
X5507851Y-13158691D01*
X5507851Y-13158691D02*
X5517375Y-13177739D01*
X5517375Y-13177739D02*
X5526899Y-13215834D01*
X5526899Y-13215834D02*
X5526899Y-13263453D01*
X5526899Y-13263453D02*
X5517375Y-13301548D01*
X5517375Y-13301548D02*
X5507851Y-13320596D01*
X5507851Y-13320596D02*
X5498327Y-13330120D01*
X5498327Y-13330120D02*
X5479280Y-13339644D01*
X5479280Y-13339644D02*
X5460232Y-13339644D01*
X5460232Y-13339644D02*
X5441184Y-13330120D01*
X5441184Y-13330120D02*
X5431661Y-13320596D01*
X5431661Y-13320596D02*
X5422137Y-13301548D01*
X5422137Y-13301548D02*
X5412613Y-13263453D01*
X5412613Y-13263453D02*
X5412613Y-13215834D01*
X5412613Y-13215834D02*
X5422137Y-13177739D01*
X5422137Y-13177739D02*
X5431661Y-13158691D01*
X5431661Y-13158691D02*
X5441184Y-13149168D01*
X5441184Y-13149168D02*
X5460232Y-13139644D01*
X5612613Y-13320596D02*
X5622137Y-13330120D01*
X5622137Y-13330120D02*
X5612613Y-13339644D01*
X5612613Y-13339644D02*
X5603089Y-13330120D01*
X5603089Y-13330120D02*
X5612613Y-13320596D01*
X5612613Y-13320596D02*
X5612613Y-13339644D01*
X5736422Y-13225358D02*
X5717375Y-13215834D01*
X5717375Y-13215834D02*
X5707851Y-13206310D01*
X5707851Y-13206310D02*
X5698327Y-13187263D01*
X5698327Y-13187263D02*
X5698327Y-13177739D01*
X5698327Y-13177739D02*
X5707851Y-13158691D01*
X5707851Y-13158691D02*
X5717375Y-13149168D01*
X5717375Y-13149168D02*
X5736422Y-13139644D01*
X5736422Y-13139644D02*
X5774518Y-13139644D01*
X5774518Y-13139644D02*
X5793565Y-13149168D01*
X5793565Y-13149168D02*
X5803089Y-13158691D01*
X5803089Y-13158691D02*
X5812613Y-13177739D01*
X5812613Y-13177739D02*
X5812613Y-13187263D01*
X5812613Y-13187263D02*
X5803089Y-13206310D01*
X5803089Y-13206310D02*
X5793565Y-13215834D01*
X5793565Y-13215834D02*
X5774518Y-13225358D01*
X5774518Y-13225358D02*
X5736422Y-13225358D01*
X5736422Y-13225358D02*
X5717375Y-13234882D01*
X5717375Y-13234882D02*
X5707851Y-13244406D01*
X5707851Y-13244406D02*
X5698327Y-13263453D01*
X5698327Y-13263453D02*
X5698327Y-13301548D01*
X5698327Y-13301548D02*
X5707851Y-13320596D01*
X5707851Y-13320596D02*
X5717375Y-13330120D01*
X5717375Y-13330120D02*
X5736422Y-13339644D01*
X5736422Y-13339644D02*
X5774518Y-13339644D01*
X5774518Y-13339644D02*
X5793565Y-13330120D01*
X5793565Y-13330120D02*
X5803089Y-13320596D01*
X5803089Y-13320596D02*
X5812613Y-13301548D01*
X5812613Y-13301548D02*
X5812613Y-13263453D01*
X5812613Y-13263453D02*
X5803089Y-13244406D01*
X5803089Y-13244406D02*
X5793565Y-13234882D01*
X5793565Y-13234882D02*
X5774518Y-13225358D01*
X5936422Y-13139644D02*
X5955470Y-13139644D01*
X5955470Y-13139644D02*
X5974518Y-13149168D01*
X5974518Y-13149168D02*
X5984042Y-13158691D01*
X5984042Y-13158691D02*
X5993565Y-13177739D01*
X5993565Y-13177739D02*
X6003089Y-13215834D01*
X6003089Y-13215834D02*
X6003089Y-13263453D01*
X6003089Y-13263453D02*
X5993565Y-13301548D01*
X5993565Y-13301548D02*
X5984042Y-13320596D01*
X5984042Y-13320596D02*
X5974518Y-13330120D01*
X5974518Y-13330120D02*
X5955470Y-13339644D01*
X5955470Y-13339644D02*
X5936422Y-13339644D01*
X5936422Y-13339644D02*
X5917375Y-13330120D01*
X5917375Y-13330120D02*
X5907851Y-13320596D01*
X5907851Y-13320596D02*
X5898327Y-13301548D01*
X5898327Y-13301548D02*
X5888803Y-13263453D01*
X5888803Y-13263453D02*
X5888803Y-13215834D01*
X5888803Y-13215834D02*
X5898327Y-13177739D01*
X5898327Y-13177739D02*
X5907851Y-13158691D01*
X5907851Y-13158691D02*
X5917375Y-13149168D01*
X5917375Y-13149168D02*
X5936422Y-13139644D01*
X6126899Y-13139644D02*
X6145946Y-13139644D01*
X6145946Y-13139644D02*
X6164994Y-13149168D01*
X6164994Y-13149168D02*
X6174518Y-13158691D01*
X6174518Y-13158691D02*
X6184042Y-13177739D01*
X6184042Y-13177739D02*
X6193565Y-13215834D01*
X6193565Y-13215834D02*
X6193565Y-13263453D01*
X6193565Y-13263453D02*
X6184042Y-13301548D01*
X6184042Y-13301548D02*
X6174518Y-13320596D01*
X6174518Y-13320596D02*
X6164994Y-13330120D01*
X6164994Y-13330120D02*
X6145946Y-13339644D01*
X6145946Y-13339644D02*
X6126899Y-13339644D01*
X6126899Y-13339644D02*
X6107851Y-13330120D01*
X6107851Y-13330120D02*
X6098327Y-13320596D01*
X6098327Y-13320596D02*
X6088803Y-13301548D01*
X6088803Y-13301548D02*
X6079280Y-13263453D01*
X6079280Y-13263453D02*
X6079280Y-13215834D01*
X6079280Y-13215834D02*
X6088803Y-13177739D01*
X6088803Y-13177739D02*
X6098327Y-13158691D01*
X6098327Y-13158691D02*
X6107851Y-13149168D01*
X6107851Y-13149168D02*
X6126899Y-13139644D01*
X6279280Y-13339644D02*
X6279280Y-13206310D01*
X6279280Y-13225358D02*
X6288803Y-13215834D01*
X6288803Y-13215834D02*
X6307851Y-13206310D01*
X6307851Y-13206310D02*
X6336423Y-13206310D01*
X6336423Y-13206310D02*
X6355470Y-13215834D01*
X6355470Y-13215834D02*
X6364994Y-13234882D01*
X6364994Y-13234882D02*
X6364994Y-13339644D01*
X6364994Y-13234882D02*
X6374518Y-13215834D01*
X6374518Y-13215834D02*
X6393565Y-13206310D01*
X6393565Y-13206310D02*
X6422137Y-13206310D01*
X6422137Y-13206310D02*
X6441184Y-13215834D01*
X6441184Y-13215834D02*
X6450708Y-13234882D01*
X6450708Y-13234882D02*
X6450708Y-13339644D01*
X6545946Y-13339644D02*
X6545946Y-13206310D01*
X6545946Y-13225358D02*
X6555470Y-13215834D01*
X6555470Y-13215834D02*
X6574518Y-13206310D01*
X6574518Y-13206310D02*
X6603089Y-13206310D01*
X6603089Y-13206310D02*
X6622137Y-13215834D01*
X6622137Y-13215834D02*
X6631661Y-13234882D01*
X6631661Y-13234882D02*
X6631661Y-13339644D01*
X6631661Y-13234882D02*
X6641184Y-13215834D01*
X6641184Y-13215834D02*
X6660232Y-13206310D01*
X6660232Y-13206310D02*
X6688803Y-13206310D01*
X6688803Y-13206310D02*
X6707851Y-13215834D01*
X6707851Y-13215834D02*
X6717375Y-13234882D01*
X6717375Y-13234882D02*
X6717375Y-13339644D01*
X7107851Y-13130120D02*
X6936423Y-13387263D01*
X7364994Y-13139644D02*
X7384042Y-13139644D01*
X7384042Y-13139644D02*
X7403089Y-13149168D01*
X7403089Y-13149168D02*
X7412613Y-13158691D01*
X7412613Y-13158691D02*
X7422137Y-13177739D01*
X7422137Y-13177739D02*
X7431661Y-13215834D01*
X7431661Y-13215834D02*
X7431661Y-13263453D01*
X7431661Y-13263453D02*
X7422137Y-13301548D01*
X7422137Y-13301548D02*
X7412613Y-13320596D01*
X7412613Y-13320596D02*
X7403089Y-13330120D01*
X7403089Y-13330120D02*
X7384042Y-13339644D01*
X7384042Y-13339644D02*
X7364994Y-13339644D01*
X7364994Y-13339644D02*
X7345946Y-13330120D01*
X7345946Y-13330120D02*
X7336423Y-13320596D01*
X7336423Y-13320596D02*
X7326899Y-13301548D01*
X7326899Y-13301548D02*
X7317375Y-13263453D01*
X7317375Y-13263453D02*
X7317375Y-13215834D01*
X7317375Y-13215834D02*
X7326899Y-13177739D01*
X7326899Y-13177739D02*
X7336423Y-13158691D01*
X7336423Y-13158691D02*
X7345946Y-13149168D01*
X7345946Y-13149168D02*
X7364994Y-13139644D01*
X7517375Y-13320596D02*
X7526899Y-13330120D01*
X7526899Y-13330120D02*
X7517375Y-13339644D01*
X7517375Y-13339644D02*
X7507851Y-13330120D01*
X7507851Y-13330120D02*
X7517375Y-13320596D01*
X7517375Y-13320596D02*
X7517375Y-13339644D01*
X7650708Y-13139644D02*
X7669756Y-13139644D01*
X7669756Y-13139644D02*
X7688804Y-13149168D01*
X7688804Y-13149168D02*
X7698327Y-13158691D01*
X7698327Y-13158691D02*
X7707851Y-13177739D01*
X7707851Y-13177739D02*
X7717375Y-13215834D01*
X7717375Y-13215834D02*
X7717375Y-13263453D01*
X7717375Y-13263453D02*
X7707851Y-13301548D01*
X7707851Y-13301548D02*
X7698327Y-13320596D01*
X7698327Y-13320596D02*
X7688804Y-13330120D01*
X7688804Y-13330120D02*
X7669756Y-13339644D01*
X7669756Y-13339644D02*
X7650708Y-13339644D01*
X7650708Y-13339644D02*
X7631661Y-13330120D01*
X7631661Y-13330120D02*
X7622137Y-13320596D01*
X7622137Y-13320596D02*
X7612613Y-13301548D01*
X7612613Y-13301548D02*
X7603089Y-13263453D01*
X7603089Y-13263453D02*
X7603089Y-13215834D01*
X7603089Y-13215834D02*
X7612613Y-13177739D01*
X7612613Y-13177739D02*
X7622137Y-13158691D01*
X7622137Y-13158691D02*
X7631661Y-13149168D01*
X7631661Y-13149168D02*
X7650708Y-13139644D01*
X7784042Y-13139644D02*
X7907851Y-13139644D01*
X7907851Y-13139644D02*
X7841185Y-13215834D01*
X7841185Y-13215834D02*
X7869756Y-13215834D01*
X7869756Y-13215834D02*
X7888804Y-13225358D01*
X7888804Y-13225358D02*
X7898327Y-13234882D01*
X7898327Y-13234882D02*
X7907851Y-13253929D01*
X7907851Y-13253929D02*
X7907851Y-13301548D01*
X7907851Y-13301548D02*
X7898327Y-13320596D01*
X7898327Y-13320596D02*
X7888804Y-13330120D01*
X7888804Y-13330120D02*
X7869756Y-13339644D01*
X7869756Y-13339644D02*
X7812613Y-13339644D01*
X7812613Y-13339644D02*
X7793566Y-13330120D01*
X7793566Y-13330120D02*
X7784042Y-13320596D01*
X8098327Y-13339644D02*
X7984042Y-13339644D01*
X8041185Y-13339644D02*
X8041185Y-13139644D01*
X8041185Y-13139644D02*
X8022137Y-13168215D01*
X8022137Y-13168215D02*
X8003089Y-13187263D01*
X8003089Y-13187263D02*
X7984042Y-13196787D01*
X8279280Y-13139644D02*
X8184042Y-13139644D01*
X8184042Y-13139644D02*
X8174518Y-13234882D01*
X8174518Y-13234882D02*
X8184042Y-13225358D01*
X8184042Y-13225358D02*
X8203089Y-13215834D01*
X8203089Y-13215834D02*
X8250708Y-13215834D01*
X8250708Y-13215834D02*
X8269756Y-13225358D01*
X8269756Y-13225358D02*
X8279280Y-13234882D01*
X8279280Y-13234882D02*
X8288804Y-13253929D01*
X8288804Y-13253929D02*
X8288804Y-13301548D01*
X8288804Y-13301548D02*
X8279280Y-13320596D01*
X8279280Y-13320596D02*
X8269756Y-13330120D01*
X8269756Y-13330120D02*
X8250708Y-13339644D01*
X8250708Y-13339644D02*
X8203089Y-13339644D01*
X8203089Y-13339644D02*
X8184042Y-13330120D01*
X8184042Y-13330120D02*
X8174518Y-13320596D01*
X8364994Y-13139644D02*
X8364994Y-13177739D01*
X8441185Y-13139644D02*
X8441185Y-13177739D01*
X8736423Y-13415834D02*
X8726899Y-13406310D01*
X8726899Y-13406310D02*
X8707851Y-13377739D01*
X8707851Y-13377739D02*
X8698328Y-13358691D01*
X8698328Y-13358691D02*
X8688804Y-13330120D01*
X8688804Y-13330120D02*
X8679280Y-13282501D01*
X8679280Y-13282501D02*
X8679280Y-13244406D01*
X8679280Y-13244406D02*
X8688804Y-13196787D01*
X8688804Y-13196787D02*
X8698328Y-13168215D01*
X8698328Y-13168215D02*
X8707851Y-13149168D01*
X8707851Y-13149168D02*
X8726899Y-13120596D01*
X8726899Y-13120596D02*
X8736423Y-13111072D01*
X8803090Y-13158691D02*
X8812613Y-13149168D01*
X8812613Y-13149168D02*
X8831661Y-13139644D01*
X8831661Y-13139644D02*
X8879280Y-13139644D01*
X8879280Y-13139644D02*
X8898328Y-13149168D01*
X8898328Y-13149168D02*
X8907851Y-13158691D01*
X8907851Y-13158691D02*
X8917375Y-13177739D01*
X8917375Y-13177739D02*
X8917375Y-13196787D01*
X8917375Y-13196787D02*
X8907851Y-13225358D01*
X8907851Y-13225358D02*
X8793566Y-13339644D01*
X8793566Y-13339644D02*
X8917375Y-13339644D01*
X8993566Y-13158691D02*
X9003090Y-13149168D01*
X9003090Y-13149168D02*
X9022137Y-13139644D01*
X9022137Y-13139644D02*
X9069756Y-13139644D01*
X9069756Y-13139644D02*
X9088804Y-13149168D01*
X9088804Y-13149168D02*
X9098328Y-13158691D01*
X9098328Y-13158691D02*
X9107851Y-13177739D01*
X9107851Y-13177739D02*
X9107851Y-13196787D01*
X9107851Y-13196787D02*
X9098328Y-13225358D01*
X9098328Y-13225358D02*
X8984042Y-13339644D01*
X8984042Y-13339644D02*
X9107851Y-13339644D01*
X9279280Y-13206310D02*
X9279280Y-13339644D01*
X9231661Y-13130120D02*
X9184042Y-13272977D01*
X9184042Y-13272977D02*
X9307851Y-13272977D01*
X9536423Y-13339644D02*
X9536423Y-13139644D01*
X9622137Y-13339644D02*
X9622137Y-13234882D01*
X9622137Y-13234882D02*
X9612613Y-13215834D01*
X9612613Y-13215834D02*
X9593566Y-13206310D01*
X9593566Y-13206310D02*
X9564994Y-13206310D01*
X9564994Y-13206310D02*
X9545947Y-13215834D01*
X9545947Y-13215834D02*
X9536423Y-13225358D01*
X9745947Y-13339644D02*
X9726899Y-13330120D01*
X9726899Y-13330120D02*
X9717375Y-13320596D01*
X9717375Y-13320596D02*
X9707852Y-13301548D01*
X9707852Y-13301548D02*
X9707852Y-13244406D01*
X9707852Y-13244406D02*
X9717375Y-13225358D01*
X9717375Y-13225358D02*
X9726899Y-13215834D01*
X9726899Y-13215834D02*
X9745947Y-13206310D01*
X9745947Y-13206310D02*
X9774518Y-13206310D01*
X9774518Y-13206310D02*
X9793566Y-13215834D01*
X9793566Y-13215834D02*
X9803090Y-13225358D01*
X9803090Y-13225358D02*
X9812613Y-13244406D01*
X9812613Y-13244406D02*
X9812613Y-13301548D01*
X9812613Y-13301548D02*
X9803090Y-13320596D01*
X9803090Y-13320596D02*
X9793566Y-13330120D01*
X9793566Y-13330120D02*
X9774518Y-13339644D01*
X9774518Y-13339644D02*
X9745947Y-13339644D01*
X9926899Y-13339644D02*
X9907852Y-13330120D01*
X9907852Y-13330120D02*
X9898328Y-13311072D01*
X9898328Y-13311072D02*
X9898328Y-13139644D01*
X10079280Y-13330120D02*
X10060233Y-13339644D01*
X10060233Y-13339644D02*
X10022137Y-13339644D01*
X10022137Y-13339644D02*
X10003090Y-13330120D01*
X10003090Y-13330120D02*
X9993566Y-13311072D01*
X9993566Y-13311072D02*
X9993566Y-13234882D01*
X9993566Y-13234882D02*
X10003090Y-13215834D01*
X10003090Y-13215834D02*
X10022137Y-13206310D01*
X10022137Y-13206310D02*
X10060233Y-13206310D01*
X10060233Y-13206310D02*
X10079280Y-13215834D01*
X10079280Y-13215834D02*
X10088804Y-13234882D01*
X10088804Y-13234882D02*
X10088804Y-13253929D01*
X10088804Y-13253929D02*
X9993566Y-13272977D01*
X10164994Y-13330120D02*
X10184042Y-13339644D01*
X10184042Y-13339644D02*
X10222137Y-13339644D01*
X10222137Y-13339644D02*
X10241185Y-13330120D01*
X10241185Y-13330120D02*
X10250709Y-13311072D01*
X10250709Y-13311072D02*
X10250709Y-13301548D01*
X10250709Y-13301548D02*
X10241185Y-13282501D01*
X10241185Y-13282501D02*
X10222137Y-13272977D01*
X10222137Y-13272977D02*
X10193566Y-13272977D01*
X10193566Y-13272977D02*
X10174518Y-13263453D01*
X10174518Y-13263453D02*
X10164994Y-13244406D01*
X10164994Y-13244406D02*
X10164994Y-13234882D01*
X10164994Y-13234882D02*
X10174518Y-13215834D01*
X10174518Y-13215834D02*
X10193566Y-13206310D01*
X10193566Y-13206310D02*
X10222137Y-13206310D01*
X10222137Y-13206310D02*
X10241185Y-13215834D01*
X10317375Y-13415834D02*
X10326899Y-13406310D01*
X10326899Y-13406310D02*
X10345947Y-13377739D01*
X10345947Y-13377739D02*
X10355471Y-13358691D01*
X10355471Y-13358691D02*
X10364994Y-13330120D01*
X10364994Y-13330120D02*
X10374518Y-13282501D01*
X10374518Y-13282501D02*
X10374518Y-13244406D01*
X10374518Y-13244406D02*
X10364994Y-13196787D01*
X10364994Y-13196787D02*
X10355471Y-13168215D01*
X10355471Y-13168215D02*
X10345947Y-13149168D01*
X10345947Y-13149168D02*
X10326899Y-13120596D01*
X10326899Y-13120596D02*
X10317375Y-13111072D01*
D10*
X5146716Y-13547516D02*
X5146716Y-13476804D01*
X5076004Y-13476804D01*
X5076004Y-13547516D01*
X5146716Y-13547516D01*
D11*
X5526899Y-13603644D02*
X5412613Y-13603644D01*
X5469756Y-13603644D02*
X5469756Y-13403644D01*
X5469756Y-13403644D02*
X5450708Y-13432215D01*
X5450708Y-13432215D02*
X5431661Y-13451263D01*
X5431661Y-13451263D02*
X5412613Y-13460787D01*
X5612613Y-13584596D02*
X5622137Y-13594120D01*
X5622137Y-13594120D02*
X5612613Y-13603644D01*
X5612613Y-13603644D02*
X5603089Y-13594120D01*
X5603089Y-13594120D02*
X5612613Y-13584596D01*
X5612613Y-13584596D02*
X5612613Y-13603644D01*
X5745946Y-13403644D02*
X5764994Y-13403644D01*
X5764994Y-13403644D02*
X5784042Y-13413168D01*
X5784042Y-13413168D02*
X5793565Y-13422691D01*
X5793565Y-13422691D02*
X5803089Y-13441739D01*
X5803089Y-13441739D02*
X5812613Y-13479834D01*
X5812613Y-13479834D02*
X5812613Y-13527453D01*
X5812613Y-13527453D02*
X5803089Y-13565548D01*
X5803089Y-13565548D02*
X5793565Y-13584596D01*
X5793565Y-13584596D02*
X5784042Y-13594120D01*
X5784042Y-13594120D02*
X5764994Y-13603644D01*
X5764994Y-13603644D02*
X5745946Y-13603644D01*
X5745946Y-13603644D02*
X5726899Y-13594120D01*
X5726899Y-13594120D02*
X5717375Y-13584596D01*
X5717375Y-13584596D02*
X5707851Y-13565548D01*
X5707851Y-13565548D02*
X5698327Y-13527453D01*
X5698327Y-13527453D02*
X5698327Y-13479834D01*
X5698327Y-13479834D02*
X5707851Y-13441739D01*
X5707851Y-13441739D02*
X5717375Y-13422691D01*
X5717375Y-13422691D02*
X5726899Y-13413168D01*
X5726899Y-13413168D02*
X5745946Y-13403644D01*
X5936422Y-13403644D02*
X5955470Y-13403644D01*
X5955470Y-13403644D02*
X5974518Y-13413168D01*
X5974518Y-13413168D02*
X5984042Y-13422691D01*
X5984042Y-13422691D02*
X5993565Y-13441739D01*
X5993565Y-13441739D02*
X6003089Y-13479834D01*
X6003089Y-13479834D02*
X6003089Y-13527453D01*
X6003089Y-13527453D02*
X5993565Y-13565548D01*
X5993565Y-13565548D02*
X5984042Y-13584596D01*
X5984042Y-13584596D02*
X5974518Y-13594120D01*
X5974518Y-13594120D02*
X5955470Y-13603644D01*
X5955470Y-13603644D02*
X5936422Y-13603644D01*
X5936422Y-13603644D02*
X5917375Y-13594120D01*
X5917375Y-13594120D02*
X5907851Y-13584596D01*
X5907851Y-13584596D02*
X5898327Y-13565548D01*
X5898327Y-13565548D02*
X5888803Y-13527453D01*
X5888803Y-13527453D02*
X5888803Y-13479834D01*
X5888803Y-13479834D02*
X5898327Y-13441739D01*
X5898327Y-13441739D02*
X5907851Y-13422691D01*
X5907851Y-13422691D02*
X5917375Y-13413168D01*
X5917375Y-13413168D02*
X5936422Y-13403644D01*
X6126899Y-13403644D02*
X6145946Y-13403644D01*
X6145946Y-13403644D02*
X6164994Y-13413168D01*
X6164994Y-13413168D02*
X6174518Y-13422691D01*
X6174518Y-13422691D02*
X6184042Y-13441739D01*
X6184042Y-13441739D02*
X6193565Y-13479834D01*
X6193565Y-13479834D02*
X6193565Y-13527453D01*
X6193565Y-13527453D02*
X6184042Y-13565548D01*
X6184042Y-13565548D02*
X6174518Y-13584596D01*
X6174518Y-13584596D02*
X6164994Y-13594120D01*
X6164994Y-13594120D02*
X6145946Y-13603644D01*
X6145946Y-13603644D02*
X6126899Y-13603644D01*
X6126899Y-13603644D02*
X6107851Y-13594120D01*
X6107851Y-13594120D02*
X6098327Y-13584596D01*
X6098327Y-13584596D02*
X6088803Y-13565548D01*
X6088803Y-13565548D02*
X6079280Y-13527453D01*
X6079280Y-13527453D02*
X6079280Y-13479834D01*
X6079280Y-13479834D02*
X6088803Y-13441739D01*
X6088803Y-13441739D02*
X6098327Y-13422691D01*
X6098327Y-13422691D02*
X6107851Y-13413168D01*
X6107851Y-13413168D02*
X6126899Y-13403644D01*
X6279280Y-13603644D02*
X6279280Y-13470310D01*
X6279280Y-13489358D02*
X6288803Y-13479834D01*
X6288803Y-13479834D02*
X6307851Y-13470310D01*
X6307851Y-13470310D02*
X6336423Y-13470310D01*
X6336423Y-13470310D02*
X6355470Y-13479834D01*
X6355470Y-13479834D02*
X6364994Y-13498882D01*
X6364994Y-13498882D02*
X6364994Y-13603644D01*
X6364994Y-13498882D02*
X6374518Y-13479834D01*
X6374518Y-13479834D02*
X6393565Y-13470310D01*
X6393565Y-13470310D02*
X6422137Y-13470310D01*
X6422137Y-13470310D02*
X6441184Y-13479834D01*
X6441184Y-13479834D02*
X6450708Y-13498882D01*
X6450708Y-13498882D02*
X6450708Y-13603644D01*
X6545946Y-13603644D02*
X6545946Y-13470310D01*
X6545946Y-13489358D02*
X6555470Y-13479834D01*
X6555470Y-13479834D02*
X6574518Y-13470310D01*
X6574518Y-13470310D02*
X6603089Y-13470310D01*
X6603089Y-13470310D02*
X6622137Y-13479834D01*
X6622137Y-13479834D02*
X6631661Y-13498882D01*
X6631661Y-13498882D02*
X6631661Y-13603644D01*
X6631661Y-13498882D02*
X6641184Y-13479834D01*
X6641184Y-13479834D02*
X6660232Y-13470310D01*
X6660232Y-13470310D02*
X6688803Y-13470310D01*
X6688803Y-13470310D02*
X6707851Y-13479834D01*
X6707851Y-13479834D02*
X6717375Y-13498882D01*
X6717375Y-13498882D02*
X6717375Y-13603644D01*
X7107851Y-13394120D02*
X6936423Y-13651263D01*
X7364994Y-13403644D02*
X7384042Y-13403644D01*
X7384042Y-13403644D02*
X7403089Y-13413168D01*
X7403089Y-13413168D02*
X7412613Y-13422691D01*
X7412613Y-13422691D02*
X7422137Y-13441739D01*
X7422137Y-13441739D02*
X7431661Y-13479834D01*
X7431661Y-13479834D02*
X7431661Y-13527453D01*
X7431661Y-13527453D02*
X7422137Y-13565548D01*
X7422137Y-13565548D02*
X7412613Y-13584596D01*
X7412613Y-13584596D02*
X7403089Y-13594120D01*
X7403089Y-13594120D02*
X7384042Y-13603644D01*
X7384042Y-13603644D02*
X7364994Y-13603644D01*
X7364994Y-13603644D02*
X7345946Y-13594120D01*
X7345946Y-13594120D02*
X7336423Y-13584596D01*
X7336423Y-13584596D02*
X7326899Y-13565548D01*
X7326899Y-13565548D02*
X7317375Y-13527453D01*
X7317375Y-13527453D02*
X7317375Y-13479834D01*
X7317375Y-13479834D02*
X7326899Y-13441739D01*
X7326899Y-13441739D02*
X7336423Y-13422691D01*
X7336423Y-13422691D02*
X7345946Y-13413168D01*
X7345946Y-13413168D02*
X7364994Y-13403644D01*
X7517375Y-13584596D02*
X7526899Y-13594120D01*
X7526899Y-13594120D02*
X7517375Y-13603644D01*
X7517375Y-13603644D02*
X7507851Y-13594120D01*
X7507851Y-13594120D02*
X7517375Y-13584596D01*
X7517375Y-13584596D02*
X7517375Y-13603644D01*
X7650708Y-13403644D02*
X7669756Y-13403644D01*
X7669756Y-13403644D02*
X7688804Y-13413168D01*
X7688804Y-13413168D02*
X7698327Y-13422691D01*
X7698327Y-13422691D02*
X7707851Y-13441739D01*
X7707851Y-13441739D02*
X7717375Y-13479834D01*
X7717375Y-13479834D02*
X7717375Y-13527453D01*
X7717375Y-13527453D02*
X7707851Y-13565548D01*
X7707851Y-13565548D02*
X7698327Y-13584596D01*
X7698327Y-13584596D02*
X7688804Y-13594120D01*
X7688804Y-13594120D02*
X7669756Y-13603644D01*
X7669756Y-13603644D02*
X7650708Y-13603644D01*
X7650708Y-13603644D02*
X7631661Y-13594120D01*
X7631661Y-13594120D02*
X7622137Y-13584596D01*
X7622137Y-13584596D02*
X7612613Y-13565548D01*
X7612613Y-13565548D02*
X7603089Y-13527453D01*
X7603089Y-13527453D02*
X7603089Y-13479834D01*
X7603089Y-13479834D02*
X7612613Y-13441739D01*
X7612613Y-13441739D02*
X7622137Y-13422691D01*
X7622137Y-13422691D02*
X7631661Y-13413168D01*
X7631661Y-13413168D02*
X7650708Y-13403644D01*
X7784042Y-13403644D02*
X7907851Y-13403644D01*
X7907851Y-13403644D02*
X7841185Y-13479834D01*
X7841185Y-13479834D02*
X7869756Y-13479834D01*
X7869756Y-13479834D02*
X7888804Y-13489358D01*
X7888804Y-13489358D02*
X7898327Y-13498882D01*
X7898327Y-13498882D02*
X7907851Y-13517929D01*
X7907851Y-13517929D02*
X7907851Y-13565548D01*
X7907851Y-13565548D02*
X7898327Y-13584596D01*
X7898327Y-13584596D02*
X7888804Y-13594120D01*
X7888804Y-13594120D02*
X7869756Y-13603644D01*
X7869756Y-13603644D02*
X7812613Y-13603644D01*
X7812613Y-13603644D02*
X7793566Y-13594120D01*
X7793566Y-13594120D02*
X7784042Y-13584596D01*
X8003089Y-13603644D02*
X8041185Y-13603644D01*
X8041185Y-13603644D02*
X8060232Y-13594120D01*
X8060232Y-13594120D02*
X8069756Y-13584596D01*
X8069756Y-13584596D02*
X8088804Y-13556025D01*
X8088804Y-13556025D02*
X8098327Y-13517929D01*
X8098327Y-13517929D02*
X8098327Y-13441739D01*
X8098327Y-13441739D02*
X8088804Y-13422691D01*
X8088804Y-13422691D02*
X8079280Y-13413168D01*
X8079280Y-13413168D02*
X8060232Y-13403644D01*
X8060232Y-13403644D02*
X8022137Y-13403644D01*
X8022137Y-13403644D02*
X8003089Y-13413168D01*
X8003089Y-13413168D02*
X7993566Y-13422691D01*
X7993566Y-13422691D02*
X7984042Y-13441739D01*
X7984042Y-13441739D02*
X7984042Y-13489358D01*
X7984042Y-13489358D02*
X7993566Y-13508406D01*
X7993566Y-13508406D02*
X8003089Y-13517929D01*
X8003089Y-13517929D02*
X8022137Y-13527453D01*
X8022137Y-13527453D02*
X8060232Y-13527453D01*
X8060232Y-13527453D02*
X8079280Y-13517929D01*
X8079280Y-13517929D02*
X8088804Y-13508406D01*
X8088804Y-13508406D02*
X8098327Y-13489358D01*
X8269756Y-13470310D02*
X8269756Y-13603644D01*
X8222137Y-13394120D02*
X8174518Y-13536977D01*
X8174518Y-13536977D02*
X8298327Y-13536977D01*
X8364994Y-13403644D02*
X8364994Y-13441739D01*
X8441185Y-13403644D02*
X8441185Y-13441739D01*
X8736423Y-13679834D02*
X8726899Y-13670310D01*
X8726899Y-13670310D02*
X8707851Y-13641739D01*
X8707851Y-13641739D02*
X8698328Y-13622691D01*
X8698328Y-13622691D02*
X8688804Y-13594120D01*
X8688804Y-13594120D02*
X8679280Y-13546501D01*
X8679280Y-13546501D02*
X8679280Y-13508406D01*
X8679280Y-13508406D02*
X8688804Y-13460787D01*
X8688804Y-13460787D02*
X8698328Y-13432215D01*
X8698328Y-13432215D02*
X8707851Y-13413168D01*
X8707851Y-13413168D02*
X8726899Y-13384596D01*
X8726899Y-13384596D02*
X8736423Y-13375072D01*
X8907851Y-13403644D02*
X8812613Y-13403644D01*
X8812613Y-13403644D02*
X8803090Y-13498882D01*
X8803090Y-13498882D02*
X8812613Y-13489358D01*
X8812613Y-13489358D02*
X8831661Y-13479834D01*
X8831661Y-13479834D02*
X8879280Y-13479834D01*
X8879280Y-13479834D02*
X8898328Y-13489358D01*
X8898328Y-13489358D02*
X8907851Y-13498882D01*
X8907851Y-13498882D02*
X8917375Y-13517929D01*
X8917375Y-13517929D02*
X8917375Y-13565548D01*
X8917375Y-13565548D02*
X8907851Y-13584596D01*
X8907851Y-13584596D02*
X8898328Y-13594120D01*
X8898328Y-13594120D02*
X8879280Y-13603644D01*
X8879280Y-13603644D02*
X8831661Y-13603644D01*
X8831661Y-13603644D02*
X8812613Y-13594120D01*
X8812613Y-13594120D02*
X8803090Y-13584596D01*
X9155471Y-13603644D02*
X9155471Y-13403644D01*
X9241185Y-13603644D02*
X9241185Y-13498882D01*
X9241185Y-13498882D02*
X9231661Y-13479834D01*
X9231661Y-13479834D02*
X9212613Y-13470310D01*
X9212613Y-13470310D02*
X9184042Y-13470310D01*
X9184042Y-13470310D02*
X9164994Y-13479834D01*
X9164994Y-13479834D02*
X9155471Y-13489358D01*
X9364994Y-13603644D02*
X9345947Y-13594120D01*
X9345947Y-13594120D02*
X9336423Y-13584596D01*
X9336423Y-13584596D02*
X9326899Y-13565548D01*
X9326899Y-13565548D02*
X9326899Y-13508406D01*
X9326899Y-13508406D02*
X9336423Y-13489358D01*
X9336423Y-13489358D02*
X9345947Y-13479834D01*
X9345947Y-13479834D02*
X9364994Y-13470310D01*
X9364994Y-13470310D02*
X9393566Y-13470310D01*
X9393566Y-13470310D02*
X9412613Y-13479834D01*
X9412613Y-13479834D02*
X9422137Y-13489358D01*
X9422137Y-13489358D02*
X9431661Y-13508406D01*
X9431661Y-13508406D02*
X9431661Y-13565548D01*
X9431661Y-13565548D02*
X9422137Y-13584596D01*
X9422137Y-13584596D02*
X9412613Y-13594120D01*
X9412613Y-13594120D02*
X9393566Y-13603644D01*
X9393566Y-13603644D02*
X9364994Y-13603644D01*
X9545947Y-13603644D02*
X9526899Y-13594120D01*
X9526899Y-13594120D02*
X9517375Y-13575072D01*
X9517375Y-13575072D02*
X9517375Y-13403644D01*
X9698328Y-13594120D02*
X9679280Y-13603644D01*
X9679280Y-13603644D02*
X9641185Y-13603644D01*
X9641185Y-13603644D02*
X9622137Y-13594120D01*
X9622137Y-13594120D02*
X9612613Y-13575072D01*
X9612613Y-13575072D02*
X9612613Y-13498882D01*
X9612613Y-13498882D02*
X9622137Y-13479834D01*
X9622137Y-13479834D02*
X9641185Y-13470310D01*
X9641185Y-13470310D02*
X9679280Y-13470310D01*
X9679280Y-13470310D02*
X9698328Y-13479834D01*
X9698328Y-13479834D02*
X9707852Y-13498882D01*
X9707852Y-13498882D02*
X9707852Y-13517929D01*
X9707852Y-13517929D02*
X9612613Y-13536977D01*
X9784042Y-13594120D02*
X9803090Y-13603644D01*
X9803090Y-13603644D02*
X9841185Y-13603644D01*
X9841185Y-13603644D02*
X9860233Y-13594120D01*
X9860233Y-13594120D02*
X9869756Y-13575072D01*
X9869756Y-13575072D02*
X9869756Y-13565548D01*
X9869756Y-13565548D02*
X9860233Y-13546501D01*
X9860233Y-13546501D02*
X9841185Y-13536977D01*
X9841185Y-13536977D02*
X9812613Y-13536977D01*
X9812613Y-13536977D02*
X9793566Y-13527453D01*
X9793566Y-13527453D02*
X9784042Y-13508406D01*
X9784042Y-13508406D02*
X9784042Y-13498882D01*
X9784042Y-13498882D02*
X9793566Y-13479834D01*
X9793566Y-13479834D02*
X9812613Y-13470310D01*
X9812613Y-13470310D02*
X9841185Y-13470310D01*
X9841185Y-13470310D02*
X9860233Y-13479834D01*
X9936423Y-13679834D02*
X9945947Y-13670310D01*
X9945947Y-13670310D02*
X9964994Y-13641739D01*
X9964994Y-13641739D02*
X9974518Y-13622691D01*
X9974518Y-13622691D02*
X9984042Y-13594120D01*
X9984042Y-13594120D02*
X9993566Y-13546501D01*
X9993566Y-13546501D02*
X9993566Y-13508406D01*
X9993566Y-13508406D02*
X9984042Y-13460787D01*
X9984042Y-13460787D02*
X9974518Y-13432215D01*
X9974518Y-13432215D02*
X9964994Y-13413168D01*
X9964994Y-13413168D02*
X9945947Y-13384596D01*
X9945947Y-13384596D02*
X9936423Y-13375072D01*
M02*
