G04 #@! TF.GenerationSoftware,KiCad,Pcbnew,8.0.4*
G04 #@! TF.CreationDate,2024-08-18T20:29:47-07:00*
G04 #@! TF.ProjectId,ns32k,6e733332-6b2e-46b6-9963-61645f706362,5*
G04 #@! TF.SameCoordinates,Original*
G04 #@! TF.FileFunction,Legend,Bot*
G04 #@! TF.FilePolarity,Positive*
%FSLAX46Y46*%
G04 Gerber Fmt 4.6, Leading zero omitted, Abs format (unit mm)*
G04 Created by KiCad (PCBNEW 8.0.4) date 2024-08-18 20:29:47*
%MOMM*%
%LPD*%
G01*
G04 APERTURE LIST*
G04 Aperture macros list*
%AMRoundRect*
0 Rectangle with rounded corners*
0 $1 Rounding radius*
0 $2 $3 $4 $5 $6 $7 $8 $9 X,Y pos of 4 corners*
0 Add a 4 corners polygon primitive as box body*
4,1,4,$2,$3,$4,$5,$6,$7,$8,$9,$2,$3,0*
0 Add four circle primitives for the rounded corners*
1,1,$1+$1,$2,$3*
1,1,$1+$1,$4,$5*
1,1,$1+$1,$6,$7*
1,1,$1+$1,$8,$9*
0 Add four rect primitives between the rounded corners*
20,1,$1+$1,$2,$3,$4,$5,0*
20,1,$1+$1,$4,$5,$6,$7,0*
20,1,$1+$1,$6,$7,$8,$9,0*
20,1,$1+$1,$8,$9,$2,$3,0*%
G04 Aperture macros list end*
%ADD10C,0.300000*%
%ADD11C,0.150000*%
%ADD12C,0.120000*%
%ADD13C,3.250000*%
%ADD14C,1.890000*%
%ADD15R,1.900000X1.900000*%
%ADD16C,1.900000*%
%ADD17C,2.600000*%
%ADD18R,1.600000X1.600000*%
%ADD19O,1.600000X1.600000*%
%ADD20R,1.422400X1.422400*%
%ADD21C,1.422400*%
%ADD22R,1.700000X1.700000*%
%ADD23O,1.700000X1.700000*%
%ADD24RoundRect,0.100000X-0.637500X-0.100000X0.637500X-0.100000X0.637500X0.100000X-0.637500X0.100000X0*%
%ADD25RoundRect,0.135000X-0.135000X-0.185000X0.135000X-0.185000X0.135000X0.185000X-0.135000X0.185000X0*%
%ADD26RoundRect,0.135000X0.135000X0.185000X-0.135000X0.185000X-0.135000X-0.185000X0.135000X-0.185000X0*%
%ADD27C,0.650000*%
%ADD28RoundRect,0.150000X-0.500000X0.150000X-0.500000X-0.150000X0.500000X-0.150000X0.500000X0.150000X0*%
%ADD29RoundRect,0.075000X-0.575000X0.075000X-0.575000X-0.075000X0.575000X-0.075000X0.575000X0.075000X0*%
%ADD30O,1.600000X1.000000*%
%ADD31O,2.100000X1.000000*%
%ADD32R,1.600000X0.760000*%
%ADD33RoundRect,0.140000X0.140000X0.170000X-0.140000X0.170000X-0.140000X-0.170000X0.140000X-0.170000X0*%
%ADD34RoundRect,0.140000X-0.140000X-0.170000X0.140000X-0.170000X0.140000X0.170000X-0.140000X0.170000X0*%
G04 APERTURE END LIST*
D10*
X89515314Y-60524740D02*
X89586742Y-60739026D01*
X89586742Y-60739026D02*
X89658171Y-60810455D01*
X89658171Y-60810455D02*
X89801028Y-60881883D01*
X89801028Y-60881883D02*
X90015314Y-60881883D01*
X90015314Y-60881883D02*
X90158171Y-60810455D01*
X90158171Y-60810455D02*
X90229600Y-60739026D01*
X90229600Y-60739026D02*
X90301028Y-60596169D01*
X90301028Y-60596169D02*
X90301028Y-60024740D01*
X90301028Y-60024740D02*
X88801028Y-60024740D01*
X88801028Y-60024740D02*
X88801028Y-60524740D01*
X88801028Y-60524740D02*
X88872457Y-60667598D01*
X88872457Y-60667598D02*
X88943885Y-60739026D01*
X88943885Y-60739026D02*
X89086742Y-60810455D01*
X89086742Y-60810455D02*
X89229600Y-60810455D01*
X89229600Y-60810455D02*
X89372457Y-60739026D01*
X89372457Y-60739026D02*
X89443885Y-60667598D01*
X89443885Y-60667598D02*
X89515314Y-60524740D01*
X89515314Y-60524740D02*
X89515314Y-60024740D01*
X90158171Y-62358968D02*
X90229600Y-62287540D01*
X90229600Y-62287540D02*
X90301028Y-62073254D01*
X90301028Y-62073254D02*
X90301028Y-61930397D01*
X90301028Y-61930397D02*
X90229600Y-61716111D01*
X90229600Y-61716111D02*
X90086742Y-61573254D01*
X90086742Y-61573254D02*
X89943885Y-61501825D01*
X89943885Y-61501825D02*
X89658171Y-61430397D01*
X89658171Y-61430397D02*
X89443885Y-61430397D01*
X89443885Y-61430397D02*
X89158171Y-61501825D01*
X89158171Y-61501825D02*
X89015314Y-61573254D01*
X89015314Y-61573254D02*
X88872457Y-61716111D01*
X88872457Y-61716111D02*
X88801028Y-61930397D01*
X88801028Y-61930397D02*
X88801028Y-62073254D01*
X88801028Y-62073254D02*
X88872457Y-62287540D01*
X88872457Y-62287540D02*
X88943885Y-62358968D01*
X89872457Y-59401319D02*
X89872457Y-58687034D01*
X90301028Y-59544176D02*
X88801028Y-59044176D01*
X88801028Y-59044176D02*
X90301028Y-58544176D01*
X88707371Y-62978910D02*
X90207371Y-62978910D01*
X90207371Y-62978910D02*
X90207371Y-63336053D01*
X90207371Y-63336053D02*
X90135942Y-63550339D01*
X90135942Y-63550339D02*
X89993085Y-63693196D01*
X89993085Y-63693196D02*
X89850228Y-63764625D01*
X89850228Y-63764625D02*
X89564514Y-63836053D01*
X89564514Y-63836053D02*
X89350228Y-63836053D01*
X89350228Y-63836053D02*
X89064514Y-63764625D01*
X89064514Y-63764625D02*
X88921657Y-63693196D01*
X88921657Y-63693196D02*
X88778800Y-63550339D01*
X88778800Y-63550339D02*
X88707371Y-63336053D01*
X88707371Y-63336053D02*
X88707371Y-62978910D01*
D11*
X66617694Y-55919019D02*
X66617694Y-56728542D01*
X66617694Y-56728542D02*
X66570075Y-56823780D01*
X66570075Y-56823780D02*
X66522456Y-56871400D01*
X66522456Y-56871400D02*
X66427218Y-56919019D01*
X66427218Y-56919019D02*
X66236742Y-56919019D01*
X66236742Y-56919019D02*
X66141504Y-56871400D01*
X66141504Y-56871400D02*
X66093885Y-56823780D01*
X66093885Y-56823780D02*
X66046266Y-56728542D01*
X66046266Y-56728542D02*
X66046266Y-55919019D01*
X65617694Y-56014257D02*
X65570075Y-55966638D01*
X65570075Y-55966638D02*
X65474837Y-55919019D01*
X65474837Y-55919019D02*
X65236742Y-55919019D01*
X65236742Y-55919019D02*
X65141504Y-55966638D01*
X65141504Y-55966638D02*
X65093885Y-56014257D01*
X65093885Y-56014257D02*
X65046266Y-56109495D01*
X65046266Y-56109495D02*
X65046266Y-56204733D01*
X65046266Y-56204733D02*
X65093885Y-56347590D01*
X65093885Y-56347590D02*
X65665313Y-56919019D01*
X65665313Y-56919019D02*
X65046266Y-56919019D01*
X64665313Y-56014257D02*
X64617694Y-55966638D01*
X64617694Y-55966638D02*
X64522456Y-55919019D01*
X64522456Y-55919019D02*
X64284361Y-55919019D01*
X64284361Y-55919019D02*
X64189123Y-55966638D01*
X64189123Y-55966638D02*
X64141504Y-56014257D01*
X64141504Y-56014257D02*
X64093885Y-56109495D01*
X64093885Y-56109495D02*
X64093885Y-56204733D01*
X64093885Y-56204733D02*
X64141504Y-56347590D01*
X64141504Y-56347590D02*
X64712932Y-56919019D01*
X64712932Y-56919019D02*
X64093885Y-56919019D01*
X200949257Y-88362219D02*
X201282590Y-87886028D01*
X201520685Y-88362219D02*
X201520685Y-87362219D01*
X201520685Y-87362219D02*
X201139733Y-87362219D01*
X201139733Y-87362219D02*
X201044495Y-87409838D01*
X201044495Y-87409838D02*
X200996876Y-87457457D01*
X200996876Y-87457457D02*
X200949257Y-87552695D01*
X200949257Y-87552695D02*
X200949257Y-87695552D01*
X200949257Y-87695552D02*
X200996876Y-87790790D01*
X200996876Y-87790790D02*
X201044495Y-87838409D01*
X201044495Y-87838409D02*
X201139733Y-87886028D01*
X201139733Y-87886028D02*
X201520685Y-87886028D01*
X200568304Y-87457457D02*
X200520685Y-87409838D01*
X200520685Y-87409838D02*
X200425447Y-87362219D01*
X200425447Y-87362219D02*
X200187352Y-87362219D01*
X200187352Y-87362219D02*
X200092114Y-87409838D01*
X200092114Y-87409838D02*
X200044495Y-87457457D01*
X200044495Y-87457457D02*
X199996876Y-87552695D01*
X199996876Y-87552695D02*
X199996876Y-87647933D01*
X199996876Y-87647933D02*
X200044495Y-87790790D01*
X200044495Y-87790790D02*
X200615923Y-88362219D01*
X200615923Y-88362219D02*
X199996876Y-88362219D01*
X199092114Y-87362219D02*
X199568304Y-87362219D01*
X199568304Y-87362219D02*
X199615923Y-87838409D01*
X199615923Y-87838409D02*
X199568304Y-87790790D01*
X199568304Y-87790790D02*
X199473066Y-87743171D01*
X199473066Y-87743171D02*
X199234971Y-87743171D01*
X199234971Y-87743171D02*
X199139733Y-87790790D01*
X199139733Y-87790790D02*
X199092114Y-87838409D01*
X199092114Y-87838409D02*
X199044495Y-87933647D01*
X199044495Y-87933647D02*
X199044495Y-88171742D01*
X199044495Y-88171742D02*
X199092114Y-88266980D01*
X199092114Y-88266980D02*
X199139733Y-88314600D01*
X199139733Y-88314600D02*
X199234971Y-88362219D01*
X199234971Y-88362219D02*
X199473066Y-88362219D01*
X199473066Y-88362219D02*
X199568304Y-88314600D01*
X199568304Y-88314600D02*
X199615923Y-88266980D01*
X200974657Y-100427219D02*
X201307990Y-99951028D01*
X201546085Y-100427219D02*
X201546085Y-99427219D01*
X201546085Y-99427219D02*
X201165133Y-99427219D01*
X201165133Y-99427219D02*
X201069895Y-99474838D01*
X201069895Y-99474838D02*
X201022276Y-99522457D01*
X201022276Y-99522457D02*
X200974657Y-99617695D01*
X200974657Y-99617695D02*
X200974657Y-99760552D01*
X200974657Y-99760552D02*
X201022276Y-99855790D01*
X201022276Y-99855790D02*
X201069895Y-99903409D01*
X201069895Y-99903409D02*
X201165133Y-99951028D01*
X201165133Y-99951028D02*
X201546085Y-99951028D01*
X200593704Y-99522457D02*
X200546085Y-99474838D01*
X200546085Y-99474838D02*
X200450847Y-99427219D01*
X200450847Y-99427219D02*
X200212752Y-99427219D01*
X200212752Y-99427219D02*
X200117514Y-99474838D01*
X200117514Y-99474838D02*
X200069895Y-99522457D01*
X200069895Y-99522457D02*
X200022276Y-99617695D01*
X200022276Y-99617695D02*
X200022276Y-99712933D01*
X200022276Y-99712933D02*
X200069895Y-99855790D01*
X200069895Y-99855790D02*
X200641323Y-100427219D01*
X200641323Y-100427219D02*
X200022276Y-100427219D01*
X199403228Y-99427219D02*
X199307990Y-99427219D01*
X199307990Y-99427219D02*
X199212752Y-99474838D01*
X199212752Y-99474838D02*
X199165133Y-99522457D01*
X199165133Y-99522457D02*
X199117514Y-99617695D01*
X199117514Y-99617695D02*
X199069895Y-99808171D01*
X199069895Y-99808171D02*
X199069895Y-100046266D01*
X199069895Y-100046266D02*
X199117514Y-100236742D01*
X199117514Y-100236742D02*
X199165133Y-100331980D01*
X199165133Y-100331980D02*
X199212752Y-100379600D01*
X199212752Y-100379600D02*
X199307990Y-100427219D01*
X199307990Y-100427219D02*
X199403228Y-100427219D01*
X199403228Y-100427219D02*
X199498466Y-100379600D01*
X199498466Y-100379600D02*
X199546085Y-100331980D01*
X199546085Y-100331980D02*
X199593704Y-100236742D01*
X199593704Y-100236742D02*
X199641323Y-100046266D01*
X199641323Y-100046266D02*
X199641323Y-99808171D01*
X199641323Y-99808171D02*
X199593704Y-99617695D01*
X199593704Y-99617695D02*
X199546085Y-99522457D01*
X199546085Y-99522457D02*
X199498466Y-99474838D01*
X199498466Y-99474838D02*
X199403228Y-99427219D01*
X98559857Y-55496619D02*
X98893190Y-55020428D01*
X99131285Y-55496619D02*
X99131285Y-54496619D01*
X99131285Y-54496619D02*
X98750333Y-54496619D01*
X98750333Y-54496619D02*
X98655095Y-54544238D01*
X98655095Y-54544238D02*
X98607476Y-54591857D01*
X98607476Y-54591857D02*
X98559857Y-54687095D01*
X98559857Y-54687095D02*
X98559857Y-54829952D01*
X98559857Y-54829952D02*
X98607476Y-54925190D01*
X98607476Y-54925190D02*
X98655095Y-54972809D01*
X98655095Y-54972809D02*
X98750333Y-55020428D01*
X98750333Y-55020428D02*
X99131285Y-55020428D01*
X98178904Y-54591857D02*
X98131285Y-54544238D01*
X98131285Y-54544238D02*
X98036047Y-54496619D01*
X98036047Y-54496619D02*
X97797952Y-54496619D01*
X97797952Y-54496619D02*
X97702714Y-54544238D01*
X97702714Y-54544238D02*
X97655095Y-54591857D01*
X97655095Y-54591857D02*
X97607476Y-54687095D01*
X97607476Y-54687095D02*
X97607476Y-54782333D01*
X97607476Y-54782333D02*
X97655095Y-54925190D01*
X97655095Y-54925190D02*
X98226523Y-55496619D01*
X98226523Y-55496619D02*
X97607476Y-55496619D01*
X96750333Y-54496619D02*
X96940809Y-54496619D01*
X96940809Y-54496619D02*
X97036047Y-54544238D01*
X97036047Y-54544238D02*
X97083666Y-54591857D01*
X97083666Y-54591857D02*
X97178904Y-54734714D01*
X97178904Y-54734714D02*
X97226523Y-54925190D01*
X97226523Y-54925190D02*
X97226523Y-55306142D01*
X97226523Y-55306142D02*
X97178904Y-55401380D01*
X97178904Y-55401380D02*
X97131285Y-55449000D01*
X97131285Y-55449000D02*
X97036047Y-55496619D01*
X97036047Y-55496619D02*
X96845571Y-55496619D01*
X96845571Y-55496619D02*
X96750333Y-55449000D01*
X96750333Y-55449000D02*
X96702714Y-55401380D01*
X96702714Y-55401380D02*
X96655095Y-55306142D01*
X96655095Y-55306142D02*
X96655095Y-55068047D01*
X96655095Y-55068047D02*
X96702714Y-54972809D01*
X96702714Y-54972809D02*
X96750333Y-54925190D01*
X96750333Y-54925190D02*
X96845571Y-54877571D01*
X96845571Y-54877571D02*
X97036047Y-54877571D01*
X97036047Y-54877571D02*
X97131285Y-54925190D01*
X97131285Y-54925190D02*
X97178904Y-54972809D01*
X97178904Y-54972809D02*
X97226523Y-55068047D01*
X200305819Y-93830066D02*
X201020104Y-93830066D01*
X201020104Y-93830066D02*
X201162961Y-93782447D01*
X201162961Y-93782447D02*
X201258200Y-93687209D01*
X201258200Y-93687209D02*
X201305819Y-93544352D01*
X201305819Y-93544352D02*
X201305819Y-93449114D01*
X200305819Y-94211019D02*
X200305819Y-94830066D01*
X200305819Y-94830066D02*
X200686771Y-94496733D01*
X200686771Y-94496733D02*
X200686771Y-94639590D01*
X200686771Y-94639590D02*
X200734390Y-94734828D01*
X200734390Y-94734828D02*
X200782009Y-94782447D01*
X200782009Y-94782447D02*
X200877247Y-94830066D01*
X200877247Y-94830066D02*
X201115342Y-94830066D01*
X201115342Y-94830066D02*
X201210580Y-94782447D01*
X201210580Y-94782447D02*
X201258200Y-94734828D01*
X201258200Y-94734828D02*
X201305819Y-94639590D01*
X201305819Y-94639590D02*
X201305819Y-94353876D01*
X201305819Y-94353876D02*
X201258200Y-94258638D01*
X201258200Y-94258638D02*
X201210580Y-94211019D01*
X84645332Y-57326600D02*
X84502475Y-57374219D01*
X84502475Y-57374219D02*
X84264380Y-57374219D01*
X84264380Y-57374219D02*
X84169142Y-57326600D01*
X84169142Y-57326600D02*
X84121523Y-57278980D01*
X84121523Y-57278980D02*
X84073904Y-57183742D01*
X84073904Y-57183742D02*
X84073904Y-57088504D01*
X84073904Y-57088504D02*
X84121523Y-56993266D01*
X84121523Y-56993266D02*
X84169142Y-56945647D01*
X84169142Y-56945647D02*
X84264380Y-56898028D01*
X84264380Y-56898028D02*
X84454856Y-56850409D01*
X84454856Y-56850409D02*
X84550094Y-56802790D01*
X84550094Y-56802790D02*
X84597713Y-56755171D01*
X84597713Y-56755171D02*
X84645332Y-56659933D01*
X84645332Y-56659933D02*
X84645332Y-56564695D01*
X84645332Y-56564695D02*
X84597713Y-56469457D01*
X84597713Y-56469457D02*
X84550094Y-56421838D01*
X84550094Y-56421838D02*
X84454856Y-56374219D01*
X84454856Y-56374219D02*
X84216761Y-56374219D01*
X84216761Y-56374219D02*
X84073904Y-56421838D01*
X83740570Y-56374219D02*
X83502475Y-57374219D01*
X83502475Y-57374219D02*
X83311999Y-56659933D01*
X83311999Y-56659933D02*
X83121523Y-57374219D01*
X83121523Y-57374219D02*
X82883428Y-56374219D01*
X82550094Y-56469457D02*
X82502475Y-56421838D01*
X82502475Y-56421838D02*
X82407237Y-56374219D01*
X82407237Y-56374219D02*
X82169142Y-56374219D01*
X82169142Y-56374219D02*
X82073904Y-56421838D01*
X82073904Y-56421838D02*
X82026285Y-56469457D01*
X82026285Y-56469457D02*
X81978666Y-56564695D01*
X81978666Y-56564695D02*
X81978666Y-56659933D01*
X81978666Y-56659933D02*
X82026285Y-56802790D01*
X82026285Y-56802790D02*
X82597713Y-57374219D01*
X82597713Y-57374219D02*
X81978666Y-57374219D01*
X95638857Y-55537019D02*
X95972190Y-55060828D01*
X96210285Y-55537019D02*
X96210285Y-54537019D01*
X96210285Y-54537019D02*
X95829333Y-54537019D01*
X95829333Y-54537019D02*
X95734095Y-54584638D01*
X95734095Y-54584638D02*
X95686476Y-54632257D01*
X95686476Y-54632257D02*
X95638857Y-54727495D01*
X95638857Y-54727495D02*
X95638857Y-54870352D01*
X95638857Y-54870352D02*
X95686476Y-54965590D01*
X95686476Y-54965590D02*
X95734095Y-55013209D01*
X95734095Y-55013209D02*
X95829333Y-55060828D01*
X95829333Y-55060828D02*
X96210285Y-55060828D01*
X95257904Y-54632257D02*
X95210285Y-54584638D01*
X95210285Y-54584638D02*
X95115047Y-54537019D01*
X95115047Y-54537019D02*
X94876952Y-54537019D01*
X94876952Y-54537019D02*
X94781714Y-54584638D01*
X94781714Y-54584638D02*
X94734095Y-54632257D01*
X94734095Y-54632257D02*
X94686476Y-54727495D01*
X94686476Y-54727495D02*
X94686476Y-54822733D01*
X94686476Y-54822733D02*
X94734095Y-54965590D01*
X94734095Y-54965590D02*
X95305523Y-55537019D01*
X95305523Y-55537019D02*
X94686476Y-55537019D01*
X94115047Y-54965590D02*
X94210285Y-54917971D01*
X94210285Y-54917971D02*
X94257904Y-54870352D01*
X94257904Y-54870352D02*
X94305523Y-54775114D01*
X94305523Y-54775114D02*
X94305523Y-54727495D01*
X94305523Y-54727495D02*
X94257904Y-54632257D01*
X94257904Y-54632257D02*
X94210285Y-54584638D01*
X94210285Y-54584638D02*
X94115047Y-54537019D01*
X94115047Y-54537019D02*
X93924571Y-54537019D01*
X93924571Y-54537019D02*
X93829333Y-54584638D01*
X93829333Y-54584638D02*
X93781714Y-54632257D01*
X93781714Y-54632257D02*
X93734095Y-54727495D01*
X93734095Y-54727495D02*
X93734095Y-54775114D01*
X93734095Y-54775114D02*
X93781714Y-54870352D01*
X93781714Y-54870352D02*
X93829333Y-54917971D01*
X93829333Y-54917971D02*
X93924571Y-54965590D01*
X93924571Y-54965590D02*
X94115047Y-54965590D01*
X94115047Y-54965590D02*
X94210285Y-55013209D01*
X94210285Y-55013209D02*
X94257904Y-55060828D01*
X94257904Y-55060828D02*
X94305523Y-55156066D01*
X94305523Y-55156066D02*
X94305523Y-55346542D01*
X94305523Y-55346542D02*
X94257904Y-55441780D01*
X94257904Y-55441780D02*
X94210285Y-55489400D01*
X94210285Y-55489400D02*
X94115047Y-55537019D01*
X94115047Y-55537019D02*
X93924571Y-55537019D01*
X93924571Y-55537019D02*
X93829333Y-55489400D01*
X93829333Y-55489400D02*
X93781714Y-55441780D01*
X93781714Y-55441780D02*
X93734095Y-55346542D01*
X93734095Y-55346542D02*
X93734095Y-55156066D01*
X93734095Y-55156066D02*
X93781714Y-55060828D01*
X93781714Y-55060828D02*
X93829333Y-55013209D01*
X93829333Y-55013209D02*
X93924571Y-54965590D01*
X65920857Y-65586780D02*
X65968476Y-65634400D01*
X65968476Y-65634400D02*
X66111333Y-65682019D01*
X66111333Y-65682019D02*
X66206571Y-65682019D01*
X66206571Y-65682019D02*
X66349428Y-65634400D01*
X66349428Y-65634400D02*
X66444666Y-65539161D01*
X66444666Y-65539161D02*
X66492285Y-65443923D01*
X66492285Y-65443923D02*
X66539904Y-65253447D01*
X66539904Y-65253447D02*
X66539904Y-65110590D01*
X66539904Y-65110590D02*
X66492285Y-64920114D01*
X66492285Y-64920114D02*
X66444666Y-64824876D01*
X66444666Y-64824876D02*
X66349428Y-64729638D01*
X66349428Y-64729638D02*
X66206571Y-64682019D01*
X66206571Y-64682019D02*
X66111333Y-64682019D01*
X66111333Y-64682019D02*
X65968476Y-64729638D01*
X65968476Y-64729638D02*
X65920857Y-64777257D01*
X65587523Y-64682019D02*
X64968476Y-64682019D01*
X64968476Y-64682019D02*
X65301809Y-65062971D01*
X65301809Y-65062971D02*
X65158952Y-65062971D01*
X65158952Y-65062971D02*
X65063714Y-65110590D01*
X65063714Y-65110590D02*
X65016095Y-65158209D01*
X65016095Y-65158209D02*
X64968476Y-65253447D01*
X64968476Y-65253447D02*
X64968476Y-65491542D01*
X64968476Y-65491542D02*
X65016095Y-65586780D01*
X65016095Y-65586780D02*
X65063714Y-65634400D01*
X65063714Y-65634400D02*
X65158952Y-65682019D01*
X65158952Y-65682019D02*
X65444666Y-65682019D01*
X65444666Y-65682019D02*
X65539904Y-65634400D01*
X65539904Y-65634400D02*
X65587523Y-65586780D01*
X64492285Y-65682019D02*
X64301809Y-65682019D01*
X64301809Y-65682019D02*
X64206571Y-65634400D01*
X64206571Y-65634400D02*
X64158952Y-65586780D01*
X64158952Y-65586780D02*
X64063714Y-65443923D01*
X64063714Y-65443923D02*
X64016095Y-65253447D01*
X64016095Y-65253447D02*
X64016095Y-64872495D01*
X64016095Y-64872495D02*
X64063714Y-64777257D01*
X64063714Y-64777257D02*
X64111333Y-64729638D01*
X64111333Y-64729638D02*
X64206571Y-64682019D01*
X64206571Y-64682019D02*
X64397047Y-64682019D01*
X64397047Y-64682019D02*
X64492285Y-64729638D01*
X64492285Y-64729638D02*
X64539904Y-64777257D01*
X64539904Y-64777257D02*
X64587523Y-64872495D01*
X64587523Y-64872495D02*
X64587523Y-65110590D01*
X64587523Y-65110590D02*
X64539904Y-65205828D01*
X64539904Y-65205828D02*
X64492285Y-65253447D01*
X64492285Y-65253447D02*
X64397047Y-65301066D01*
X64397047Y-65301066D02*
X64206571Y-65301066D01*
X64206571Y-65301066D02*
X64111333Y-65253447D01*
X64111333Y-65253447D02*
X64063714Y-65205828D01*
X64063714Y-65205828D02*
X64016095Y-65110590D01*
X159469057Y-83519180D02*
X159516676Y-83566800D01*
X159516676Y-83566800D02*
X159659533Y-83614419D01*
X159659533Y-83614419D02*
X159754771Y-83614419D01*
X159754771Y-83614419D02*
X159897628Y-83566800D01*
X159897628Y-83566800D02*
X159992866Y-83471561D01*
X159992866Y-83471561D02*
X160040485Y-83376323D01*
X160040485Y-83376323D02*
X160088104Y-83185847D01*
X160088104Y-83185847D02*
X160088104Y-83042990D01*
X160088104Y-83042990D02*
X160040485Y-82852514D01*
X160040485Y-82852514D02*
X159992866Y-82757276D01*
X159992866Y-82757276D02*
X159897628Y-82662038D01*
X159897628Y-82662038D02*
X159754771Y-82614419D01*
X159754771Y-82614419D02*
X159659533Y-82614419D01*
X159659533Y-82614419D02*
X159516676Y-82662038D01*
X159516676Y-82662038D02*
X159469057Y-82709657D01*
X159135723Y-82614419D02*
X158516676Y-82614419D01*
X158516676Y-82614419D02*
X158850009Y-82995371D01*
X158850009Y-82995371D02*
X158707152Y-82995371D01*
X158707152Y-82995371D02*
X158611914Y-83042990D01*
X158611914Y-83042990D02*
X158564295Y-83090609D01*
X158564295Y-83090609D02*
X158516676Y-83185847D01*
X158516676Y-83185847D02*
X158516676Y-83423942D01*
X158516676Y-83423942D02*
X158564295Y-83519180D01*
X158564295Y-83519180D02*
X158611914Y-83566800D01*
X158611914Y-83566800D02*
X158707152Y-83614419D01*
X158707152Y-83614419D02*
X158992866Y-83614419D01*
X158992866Y-83614419D02*
X159088104Y-83566800D01*
X159088104Y-83566800D02*
X159135723Y-83519180D01*
X158135723Y-82709657D02*
X158088104Y-82662038D01*
X158088104Y-82662038D02*
X157992866Y-82614419D01*
X157992866Y-82614419D02*
X157754771Y-82614419D01*
X157754771Y-82614419D02*
X157659533Y-82662038D01*
X157659533Y-82662038D02*
X157611914Y-82709657D01*
X157611914Y-82709657D02*
X157564295Y-82804895D01*
X157564295Y-82804895D02*
X157564295Y-82900133D01*
X157564295Y-82900133D02*
X157611914Y-83042990D01*
X157611914Y-83042990D02*
X158183342Y-83614419D01*
X158183342Y-83614419D02*
X157564295Y-83614419D01*
X158148257Y-55569980D02*
X158195876Y-55617600D01*
X158195876Y-55617600D02*
X158338733Y-55665219D01*
X158338733Y-55665219D02*
X158433971Y-55665219D01*
X158433971Y-55665219D02*
X158576828Y-55617600D01*
X158576828Y-55617600D02*
X158672066Y-55522361D01*
X158672066Y-55522361D02*
X158719685Y-55427123D01*
X158719685Y-55427123D02*
X158767304Y-55236647D01*
X158767304Y-55236647D02*
X158767304Y-55093790D01*
X158767304Y-55093790D02*
X158719685Y-54903314D01*
X158719685Y-54903314D02*
X158672066Y-54808076D01*
X158672066Y-54808076D02*
X158576828Y-54712838D01*
X158576828Y-54712838D02*
X158433971Y-54665219D01*
X158433971Y-54665219D02*
X158338733Y-54665219D01*
X158338733Y-54665219D02*
X158195876Y-54712838D01*
X158195876Y-54712838D02*
X158148257Y-54760457D01*
X157814923Y-54665219D02*
X157195876Y-54665219D01*
X157195876Y-54665219D02*
X157529209Y-55046171D01*
X157529209Y-55046171D02*
X157386352Y-55046171D01*
X157386352Y-55046171D02*
X157291114Y-55093790D01*
X157291114Y-55093790D02*
X157243495Y-55141409D01*
X157243495Y-55141409D02*
X157195876Y-55236647D01*
X157195876Y-55236647D02*
X157195876Y-55474742D01*
X157195876Y-55474742D02*
X157243495Y-55569980D01*
X157243495Y-55569980D02*
X157291114Y-55617600D01*
X157291114Y-55617600D02*
X157386352Y-55665219D01*
X157386352Y-55665219D02*
X157672066Y-55665219D01*
X157672066Y-55665219D02*
X157767304Y-55617600D01*
X157767304Y-55617600D02*
X157814923Y-55569980D01*
X156862542Y-54665219D02*
X156243495Y-54665219D01*
X156243495Y-54665219D02*
X156576828Y-55046171D01*
X156576828Y-55046171D02*
X156433971Y-55046171D01*
X156433971Y-55046171D02*
X156338733Y-55093790D01*
X156338733Y-55093790D02*
X156291114Y-55141409D01*
X156291114Y-55141409D02*
X156243495Y-55236647D01*
X156243495Y-55236647D02*
X156243495Y-55474742D01*
X156243495Y-55474742D02*
X156291114Y-55569980D01*
X156291114Y-55569980D02*
X156338733Y-55617600D01*
X156338733Y-55617600D02*
X156433971Y-55665219D01*
X156433971Y-55665219D02*
X156719685Y-55665219D01*
X156719685Y-55665219D02*
X156814923Y-55617600D01*
X156814923Y-55617600D02*
X156862542Y-55569980D01*
D12*
X63078000Y-57448000D02*
X65278000Y-57448000D01*
X63078000Y-64218000D02*
X65278000Y-64218000D01*
X67478000Y-57448000D02*
X65278000Y-57448000D01*
X67478000Y-64218000D02*
X65278000Y-64218000D01*
X61418000Y-63758000D02*
X61088000Y-63998000D01*
X61088000Y-63518000D01*
X61418000Y-63758000D01*
G36*
X61418000Y-63758000D02*
G01*
X61088000Y-63998000D01*
X61088000Y-63518000D01*
X61418000Y-63758000D01*
G37*
X197793041Y-87527400D02*
X197485759Y-87527400D01*
X197793041Y-88287400D02*
X197485759Y-88287400D01*
X197818441Y-99592400D02*
X197511159Y-99592400D01*
X197818441Y-100352400D02*
X197511159Y-100352400D01*
X97001359Y-55855600D02*
X97308641Y-55855600D01*
X97001359Y-56615600D02*
X97308641Y-56615600D01*
X196544200Y-90329200D02*
X196544200Y-91129200D01*
X201244200Y-89229200D02*
X199464200Y-89229200D01*
X201244200Y-98629200D02*
X199464200Y-98629200D01*
X80552000Y-57919400D02*
X86072000Y-57919400D01*
X80552000Y-59188400D02*
X80552000Y-57919400D01*
X80552000Y-64389400D02*
X80552000Y-63119400D01*
X80552000Y-64389400D02*
X86072000Y-64389400D01*
X86072000Y-58569400D02*
X86072000Y-57919400D01*
X86072000Y-58569400D02*
X87922000Y-58569400D01*
X86072000Y-64389400D02*
X86072000Y-63119400D01*
X94842359Y-55872200D02*
X95149641Y-55872200D01*
X94842359Y-56632200D02*
X95149641Y-56632200D01*
X67506964Y-64435400D02*
X67722636Y-64435400D01*
X67506964Y-65155400D02*
X67722636Y-65155400D01*
X158984836Y-84171200D02*
X158769164Y-84171200D01*
X158984836Y-84891200D02*
X158769164Y-84891200D01*
X157397564Y-56010400D02*
X157613236Y-56010400D01*
X157397564Y-56730400D02*
X157613236Y-56730400D01*
%LPC*%
D13*
X194508600Y-66776600D03*
X194508600Y-55346600D03*
D14*
X197888600Y-54736600D03*
X199408600Y-57276600D03*
X197888600Y-64846600D03*
X199408600Y-67386600D03*
D15*
X188168600Y-65506600D03*
D16*
X185628600Y-64236600D03*
X188168600Y-62966600D03*
X185628600Y-61696600D03*
X188168600Y-60426600D03*
X185628600Y-59156600D03*
X188168600Y-57886600D03*
X185628600Y-56616600D03*
D17*
X191458600Y-68836600D03*
X191458600Y-53286600D03*
D18*
X110109000Y-53102600D03*
D19*
X107569000Y-53102600D03*
X105029000Y-53102600D03*
X102489000Y-53102600D03*
X99949000Y-53102600D03*
X97409000Y-53102600D03*
X94869000Y-53102600D03*
X92329000Y-53102600D03*
X89789000Y-53102600D03*
X87249000Y-53102600D03*
X84709000Y-53102600D03*
X82169000Y-53102600D03*
X79629000Y-53102600D03*
X77089000Y-53102600D03*
X74549000Y-53102600D03*
X72009000Y-53102600D03*
X69469000Y-53102600D03*
X66929000Y-53102600D03*
X64389000Y-53102600D03*
X61849000Y-53102600D03*
X61849000Y-68342600D03*
X64389000Y-68342600D03*
X66929000Y-68342600D03*
X69469000Y-68342600D03*
X72009000Y-68342600D03*
X74549000Y-68342600D03*
X77089000Y-68342600D03*
X79629000Y-68342600D03*
X82169000Y-68342600D03*
X84709000Y-68342600D03*
X87249000Y-68342600D03*
X89789000Y-68342600D03*
X92329000Y-68342600D03*
X94869000Y-68342600D03*
X97409000Y-68342600D03*
X99949000Y-68342600D03*
X102489000Y-68342600D03*
X105029000Y-68342600D03*
X107569000Y-68342600D03*
X110109000Y-68342600D03*
D18*
X120309000Y-75327600D03*
D19*
X117769000Y-75327600D03*
X115229000Y-75327600D03*
X112689000Y-75327600D03*
X110149000Y-75327600D03*
X107609000Y-75327600D03*
X105069000Y-75327600D03*
X102529000Y-75327600D03*
X99989000Y-75327600D03*
X97449000Y-75327600D03*
X94909000Y-75327600D03*
X92369000Y-75327600D03*
X89829000Y-75327600D03*
X87289000Y-75327600D03*
X84749000Y-75327600D03*
X82209000Y-75327600D03*
X79669000Y-75327600D03*
X77129000Y-75327600D03*
X74589000Y-75327600D03*
X72049000Y-75327600D03*
X69509000Y-75327600D03*
X66969000Y-75327600D03*
X64429000Y-75327600D03*
X61889000Y-75327600D03*
X61889000Y-90567600D03*
X64429000Y-90567600D03*
X66969000Y-90567600D03*
X69509000Y-90567600D03*
X72049000Y-90567600D03*
X74589000Y-90567600D03*
X77129000Y-90567600D03*
X79669000Y-90567600D03*
X82209000Y-90567600D03*
X84749000Y-90567600D03*
X87289000Y-90567600D03*
X89829000Y-90567600D03*
X92369000Y-90567600D03*
X94909000Y-90567600D03*
X97449000Y-90567600D03*
X99989000Y-90567600D03*
X102529000Y-90567600D03*
X105069000Y-90567600D03*
X107609000Y-90567600D03*
X110149000Y-90567600D03*
X112689000Y-90567600D03*
X115229000Y-90567600D03*
X117769000Y-90567600D03*
X120309000Y-90567600D03*
D18*
X120309000Y-97679600D03*
D19*
X117769000Y-97679600D03*
X115229000Y-97679600D03*
X112689000Y-97679600D03*
X110149000Y-97679600D03*
X107609000Y-97679600D03*
X105069000Y-97679600D03*
X102529000Y-97679600D03*
X99989000Y-97679600D03*
X97449000Y-97679600D03*
X94909000Y-97679600D03*
X92369000Y-97679600D03*
X89829000Y-97679600D03*
X87289000Y-97679600D03*
X84749000Y-97679600D03*
X82209000Y-97679600D03*
X79669000Y-97679600D03*
X77129000Y-97679600D03*
X74589000Y-97679600D03*
X72049000Y-97679600D03*
X69509000Y-97679600D03*
X66969000Y-97679600D03*
X64429000Y-97679600D03*
X61889000Y-97679600D03*
X61889000Y-112919600D03*
X64429000Y-112919600D03*
X66969000Y-112919600D03*
X69509000Y-112919600D03*
X72049000Y-112919600D03*
X74589000Y-112919600D03*
X77129000Y-112919600D03*
X79669000Y-112919600D03*
X82209000Y-112919600D03*
X84749000Y-112919600D03*
X87289000Y-112919600D03*
X89829000Y-112919600D03*
X92369000Y-112919600D03*
X94909000Y-112919600D03*
X97449000Y-112919600D03*
X99989000Y-112919600D03*
X102529000Y-112919600D03*
X105069000Y-112919600D03*
X107609000Y-112919600D03*
X110149000Y-112919600D03*
X112689000Y-112919600D03*
X115229000Y-112919600D03*
X117769000Y-112919600D03*
X120309000Y-112919600D03*
D20*
X158115000Y-89170600D03*
D21*
X155575000Y-86630600D03*
X155575000Y-89170600D03*
X153035000Y-86630600D03*
X150495000Y-89170600D03*
X153035000Y-89170600D03*
X150495000Y-91710600D03*
X153035000Y-91710600D03*
X150495000Y-94250600D03*
X153035000Y-94250600D03*
X150495000Y-96790600D03*
X153035000Y-96790600D03*
X150495000Y-99330600D03*
X153035000Y-101870600D03*
X153035000Y-99330600D03*
X155575000Y-101870600D03*
X155575000Y-99330600D03*
X158115000Y-101870600D03*
X158115000Y-99330600D03*
X160655000Y-101870600D03*
X163195000Y-99330600D03*
X160655000Y-99330600D03*
X163195000Y-96790600D03*
X160655000Y-96790600D03*
X163195000Y-94250600D03*
X160655000Y-94250600D03*
X163195000Y-91710600D03*
X160655000Y-91710600D03*
X163195000Y-89170600D03*
X160655000Y-86630600D03*
X160655000Y-89170600D03*
X158115000Y-86630600D03*
D18*
X93751400Y-118736200D03*
D19*
X91211400Y-118736200D03*
X88671400Y-118736200D03*
X86131400Y-118736200D03*
X83591400Y-118736200D03*
X81051400Y-118736200D03*
X78511400Y-118736200D03*
X75971400Y-118736200D03*
X73431400Y-118736200D03*
X70891400Y-118736200D03*
X68351400Y-118736200D03*
X65811400Y-118736200D03*
X65811400Y-133976200D03*
X68351400Y-133976200D03*
X70891400Y-133976200D03*
X73431400Y-133976200D03*
X75971400Y-133976200D03*
X78511400Y-133976200D03*
X81051400Y-133976200D03*
X83591400Y-133976200D03*
X86131400Y-133976200D03*
X88671400Y-133976200D03*
X91211400Y-133976200D03*
X93751400Y-133976200D03*
D20*
X158115000Y-60976600D03*
D21*
X155575000Y-58436600D03*
X155575000Y-60976600D03*
X153035000Y-58436600D03*
X150495000Y-60976600D03*
X153035000Y-60976600D03*
X150495000Y-63516600D03*
X153035000Y-63516600D03*
X150495000Y-66056600D03*
X153035000Y-66056600D03*
X150495000Y-68596600D03*
X153035000Y-68596600D03*
X150495000Y-71136600D03*
X153035000Y-73676600D03*
X153035000Y-71136600D03*
X155575000Y-73676600D03*
X155575000Y-71136600D03*
X158115000Y-73676600D03*
X158115000Y-71136600D03*
X160655000Y-73676600D03*
X163195000Y-71136600D03*
X160655000Y-71136600D03*
X163195000Y-68596600D03*
X160655000Y-68596600D03*
X163195000Y-66056600D03*
X160655000Y-66056600D03*
X163195000Y-63516600D03*
X160655000Y-63516600D03*
X163195000Y-60976600D03*
X160655000Y-58436600D03*
X160655000Y-60976600D03*
X158115000Y-58436600D03*
D22*
X199466200Y-110185200D03*
D23*
X199466200Y-107645200D03*
X199466200Y-105105200D03*
D22*
X114599800Y-54677400D03*
D23*
X117139800Y-54677400D03*
D24*
X62415500Y-63758000D03*
X62415500Y-63108000D03*
X62415500Y-62458000D03*
X62415500Y-61808000D03*
X62415500Y-61158000D03*
X62415500Y-60508000D03*
X62415500Y-59858000D03*
X62415500Y-59208000D03*
X62415500Y-58558000D03*
X62415500Y-57908000D03*
X68140500Y-57908000D03*
X68140500Y-58558000D03*
X68140500Y-59208000D03*
X68140500Y-59858000D03*
X68140500Y-60508000D03*
X68140500Y-61158000D03*
X68140500Y-61808000D03*
X68140500Y-62458000D03*
X68140500Y-63108000D03*
X68140500Y-63758000D03*
D25*
X197129400Y-87907400D03*
X198149400Y-87907400D03*
X197154800Y-99972400D03*
X198174800Y-99972400D03*
D26*
X97665000Y-56235600D03*
X96645000Y-56235600D03*
D27*
X198639200Y-91039200D03*
X198639200Y-96819200D03*
D28*
X197499200Y-90729200D03*
X197499200Y-91529200D03*
D29*
X197499200Y-92679200D03*
X197499200Y-93679200D03*
X197499200Y-94179200D03*
X197499200Y-95179200D03*
D28*
X197499200Y-96329200D03*
X197499200Y-97129200D03*
X197499200Y-97129200D03*
X197499200Y-96329200D03*
D29*
X197499200Y-95679200D03*
X197499200Y-94679200D03*
X197499200Y-93179200D03*
X197499200Y-92179200D03*
D28*
X197499200Y-91529200D03*
X197499200Y-90729200D03*
D30*
X202319200Y-89609200D03*
D31*
X198139200Y-89609200D03*
D30*
X202319200Y-98249200D03*
D31*
X198139200Y-98249200D03*
D32*
X87122000Y-59249400D03*
X87122000Y-60519400D03*
X87122000Y-61789400D03*
X87122000Y-63059400D03*
X79502000Y-63059400D03*
X79502000Y-61789400D03*
X79502000Y-60519400D03*
X79502000Y-59249400D03*
D26*
X95506000Y-56252200D03*
X94486000Y-56252200D03*
D33*
X68094800Y-64795400D03*
X67134800Y-64795400D03*
D34*
X158397000Y-84531200D03*
X159357000Y-84531200D03*
D33*
X157985400Y-56370400D03*
X157025400Y-56370400D03*
%LPD*%
M02*
