G04 #@! TF.GenerationSoftware,KiCad,Pcbnew,8.0.4*
G04 #@! TF.CreationDate,2024-07-23T15:45:12-07:00*
G04 #@! TF.ProjectId,ns32k,6e733332-6b2e-46b6-9963-61645f706362,rev?*
G04 #@! TF.SameCoordinates,Original*
G04 #@! TF.FileFunction,Soldermask,Top*
G04 #@! TF.FilePolarity,Negative*
%FSLAX46Y46*%
G04 Gerber Fmt 4.6, Leading zero omitted, Abs format (unit mm)*
G04 Created by KiCad (PCBNEW 8.0.4) date 2024-07-23 15:45:12*
%MOMM*%
%LPD*%
G01*
G04 APERTURE LIST*
G04 Aperture macros list*
%AMRoundRect*
0 Rectangle with rounded corners*
0 $1 Rounding radius*
0 $2 $3 $4 $5 $6 $7 $8 $9 X,Y pos of 4 corners*
0 Add a 4 corners polygon primitive as box body*
4,1,4,$2,$3,$4,$5,$6,$7,$8,$9,$2,$3,0*
0 Add four circle primitives for the rounded corners*
1,1,$1+$1,$2,$3*
1,1,$1+$1,$4,$5*
1,1,$1+$1,$6,$7*
1,1,$1+$1,$8,$9*
0 Add four rect primitives between the rounded corners*
20,1,$1+$1,$2,$3,$4,$5,0*
20,1,$1+$1,$4,$5,$6,$7,0*
20,1,$1+$1,$6,$7,$8,$9,0*
20,1,$1+$1,$8,$9,$2,$3,0*%
G04 Aperture macros list end*
%ADD10RoundRect,0.250000X0.475000X-0.250000X0.475000X0.250000X-0.475000X0.250000X-0.475000X-0.250000X0*%
%ADD11RoundRect,0.135000X0.185000X-0.135000X0.185000X0.135000X-0.185000X0.135000X-0.185000X-0.135000X0*%
%ADD12RoundRect,0.218750X-0.256250X0.218750X-0.256250X-0.218750X0.256250X-0.218750X0.256250X0.218750X0*%
%ADD13RoundRect,0.140000X-0.170000X0.140000X-0.170000X-0.140000X0.170000X-0.140000X0.170000X0.140000X0*%
%ADD14RoundRect,0.100000X0.100000X-0.637500X0.100000X0.637500X-0.100000X0.637500X-0.100000X-0.637500X0*%
%ADD15RoundRect,0.135000X-0.135000X-0.185000X0.135000X-0.185000X0.135000X0.185000X-0.135000X0.185000X0*%
%ADD16RoundRect,0.135000X0.135000X0.185000X-0.135000X0.185000X-0.135000X-0.185000X0.135000X-0.185000X0*%
%ADD17RoundRect,0.140000X0.170000X-0.140000X0.170000X0.140000X-0.170000X0.140000X-0.170000X-0.140000X0*%
%ADD18RoundRect,0.140000X0.140000X0.170000X-0.140000X0.170000X-0.140000X-0.170000X0.140000X-0.170000X0*%
%ADD19RoundRect,0.218750X0.256250X-0.218750X0.256250X0.218750X-0.256250X0.218750X-0.256250X-0.218750X0*%
%ADD20RoundRect,0.225000X-0.250000X0.225000X-0.250000X-0.225000X0.250000X-0.225000X0.250000X0.225000X0*%
%ADD21RoundRect,0.135000X-0.185000X0.135000X-0.185000X-0.135000X0.185000X-0.135000X0.185000X0.135000X0*%
%ADD22RoundRect,0.100000X-0.637500X-0.100000X0.637500X-0.100000X0.637500X0.100000X-0.637500X0.100000X0*%
%ADD23RoundRect,0.140000X-0.140000X-0.170000X0.140000X-0.170000X0.140000X0.170000X-0.140000X0.170000X0*%
%ADD24R,1.600000X1.600000*%
%ADD25O,1.600000X1.600000*%
%ADD26RoundRect,0.075000X0.662500X0.075000X-0.662500X0.075000X-0.662500X-0.075000X0.662500X-0.075000X0*%
%ADD27RoundRect,0.075000X0.075000X0.662500X-0.075000X0.662500X-0.075000X-0.662500X0.075000X-0.662500X0*%
%ADD28RoundRect,0.175000X0.175000X0.325000X-0.175000X0.325000X-0.175000X-0.325000X0.175000X-0.325000X0*%
%ADD29RoundRect,0.150000X0.200000X0.150000X-0.200000X0.150000X-0.200000X-0.150000X0.200000X-0.150000X0*%
%ADD30R,1.422400X1.422400*%
%ADD31C,1.422400*%
%ADD32RoundRect,0.250000X-0.475000X0.250000X-0.475000X-0.250000X0.475000X-0.250000X0.475000X0.250000X0*%
%ADD33RoundRect,0.225000X-0.225000X-0.250000X0.225000X-0.250000X0.225000X0.250000X-0.225000X0.250000X0*%
%ADD34C,0.650000*%
%ADD35RoundRect,0.150000X0.150000X0.500000X-0.150000X0.500000X-0.150000X-0.500000X0.150000X-0.500000X0*%
%ADD36RoundRect,0.075000X0.075000X0.575000X-0.075000X0.575000X-0.075000X-0.575000X0.075000X-0.575000X0*%
%ADD37O,1.000000X2.100000*%
%ADD38O,1.000000X1.600000*%
%ADD39RoundRect,0.150000X-0.512500X-0.150000X0.512500X-0.150000X0.512500X0.150000X-0.512500X0.150000X0*%
%ADD40RoundRect,0.500000X0.500000X-2.250000X0.500000X2.250000X-0.500000X2.250000X-0.500000X-2.250000X0*%
%ADD41RoundRect,0.237500X0.262500X0.237500X-0.262500X0.237500X-0.262500X-0.237500X0.262500X-0.237500X0*%
%ADD42R,1.000000X0.950000*%
%ADD43RoundRect,0.075000X-0.075000X0.712500X-0.075000X-0.712500X0.075000X-0.712500X0.075000X0.712500X0*%
%ADD44R,1.800000X1.800000*%
%ADD45R,0.300000X0.300000*%
%ADD46R,0.900000X0.300000*%
%ADD47R,0.300000X0.900000*%
%ADD48R,1.700000X1.700000*%
%ADD49O,1.700000X1.700000*%
%ADD50R,2.000000X0.700000*%
G04 APERTURE END LIST*
D10*
X167182800Y-42148800D03*
X167182800Y-40248800D03*
D11*
X116535200Y-36878800D03*
X116535200Y-37898800D03*
X115265200Y-37898800D03*
X115265200Y-36878800D03*
X113893600Y-36878800D03*
X113893600Y-37898800D03*
X112623600Y-37898800D03*
X112623600Y-36878800D03*
D12*
X118059200Y-33858100D03*
X118059200Y-35433100D03*
X116281200Y-35433100D03*
X116281200Y-33858100D03*
X114503200Y-35433100D03*
X114503200Y-33858100D03*
X112725200Y-33858100D03*
X112725200Y-35433100D03*
D11*
X85471000Y-109476000D03*
X85471000Y-108456000D03*
D13*
X166319200Y-83238400D03*
X166319200Y-84198400D03*
D14*
X123571000Y-72654000D03*
X124221000Y-72654000D03*
X124871000Y-72654000D03*
X125521000Y-72654000D03*
X126171000Y-72654000D03*
X126821000Y-72654000D03*
X127471000Y-72654000D03*
X128121000Y-72654000D03*
X128771000Y-72654000D03*
X129421000Y-72654000D03*
X129421000Y-66929000D03*
X128771000Y-66929000D03*
X128121000Y-66929000D03*
X127471000Y-66929000D03*
X126821000Y-66929000D03*
X126171000Y-66929000D03*
X125521000Y-66929000D03*
X124871000Y-66929000D03*
X124221000Y-66929000D03*
X123571000Y-66929000D03*
D15*
X77366400Y-115773200D03*
X78386400Y-115773200D03*
D12*
X166344600Y-52148000D03*
X166344600Y-53723000D03*
D16*
X74678000Y-115773200D03*
X73658000Y-115773200D03*
D17*
X165582600Y-41755000D03*
X165582600Y-40795000D03*
D18*
X112798800Y-72288400D03*
X111838800Y-72288400D03*
D16*
X93982000Y-100584000D03*
X92962000Y-100584000D03*
D15*
X106805000Y-72644000D03*
X107825000Y-72644000D03*
D19*
X97917000Y-117652900D03*
X97917000Y-116077900D03*
D20*
X86868000Y-108572000D03*
X86868000Y-110122000D03*
D21*
X164947600Y-52705000D03*
X164947600Y-53725000D03*
D17*
X160934400Y-82826800D03*
X160934400Y-81866800D03*
D12*
X168025600Y-52148000D03*
X168025600Y-53723000D03*
D22*
X123502500Y-34428000D03*
X123502500Y-35078000D03*
X123502500Y-35728000D03*
X123502500Y-36378000D03*
X123502500Y-37028000D03*
X123502500Y-37678000D03*
X123502500Y-38328000D03*
X123502500Y-38978000D03*
X129227500Y-38978000D03*
X129227500Y-38328000D03*
X129227500Y-37678000D03*
X129227500Y-37028000D03*
X129227500Y-36378000D03*
X129227500Y-35728000D03*
X129227500Y-35078000D03*
X129227500Y-34428000D03*
D13*
X143764000Y-115471000D03*
X143764000Y-116431000D03*
D23*
X82677000Y-115773200D03*
X83637000Y-115773200D03*
D17*
X169214800Y-68298000D03*
X169214800Y-67338000D03*
D11*
X175488600Y-35310000D03*
X175488600Y-34290000D03*
D24*
X112943000Y-54991000D03*
D25*
X110403000Y-54991000D03*
X107863000Y-54991000D03*
X105323000Y-54991000D03*
X102783000Y-54991000D03*
X100243000Y-54991000D03*
X97703000Y-54991000D03*
X95163000Y-54991000D03*
X92623000Y-54991000D03*
X90083000Y-54991000D03*
X87543000Y-54991000D03*
X85003000Y-54991000D03*
X82463000Y-54991000D03*
X79923000Y-54991000D03*
X77383000Y-54991000D03*
X74843000Y-54991000D03*
X72303000Y-54991000D03*
X69763000Y-54991000D03*
X67223000Y-54991000D03*
X64683000Y-54991000D03*
X62143000Y-54991000D03*
X59603000Y-54991000D03*
X57063000Y-54991000D03*
X54523000Y-54991000D03*
X54523000Y-70231000D03*
X57063000Y-70231000D03*
X59603000Y-70231000D03*
X62143000Y-70231000D03*
X64683000Y-70231000D03*
X67223000Y-70231000D03*
X69763000Y-70231000D03*
X72303000Y-70231000D03*
X74843000Y-70231000D03*
X77383000Y-70231000D03*
X79923000Y-70231000D03*
X82463000Y-70231000D03*
X85003000Y-70231000D03*
X87543000Y-70231000D03*
X90083000Y-70231000D03*
X92623000Y-70231000D03*
X95163000Y-70231000D03*
X97703000Y-70231000D03*
X100243000Y-70231000D03*
X102783000Y-70231000D03*
X105323000Y-70231000D03*
X107863000Y-70231000D03*
X110403000Y-70231000D03*
X112943000Y-70231000D03*
D17*
X58928000Y-115753000D03*
X58928000Y-116713000D03*
D26*
X170989700Y-80248800D03*
X170989700Y-79748800D03*
X170989700Y-79248800D03*
X170989700Y-78748800D03*
X170989700Y-78248800D03*
X170989700Y-77748800D03*
X170989700Y-77248800D03*
X170989700Y-76748800D03*
X170989700Y-76248800D03*
X170989700Y-75748800D03*
X170989700Y-75248800D03*
X170989700Y-74748800D03*
D27*
X169577200Y-73336300D03*
X169077200Y-73336300D03*
X168577200Y-73336300D03*
X168077200Y-73336300D03*
X167577200Y-73336300D03*
X167077200Y-73336300D03*
X166577200Y-73336300D03*
X166077200Y-73336300D03*
X165577200Y-73336300D03*
X165077200Y-73336300D03*
X164577200Y-73336300D03*
X164077200Y-73336300D03*
D26*
X162664700Y-74748800D03*
X162664700Y-75248800D03*
X162664700Y-75748800D03*
X162664700Y-76248800D03*
X162664700Y-76748800D03*
X162664700Y-77248800D03*
X162664700Y-77748800D03*
X162664700Y-78248800D03*
X162664700Y-78748800D03*
X162664700Y-79248800D03*
X162664700Y-79748800D03*
X162664700Y-80248800D03*
D27*
X164077200Y-81661300D03*
X164577200Y-81661300D03*
X165077200Y-81661300D03*
X165577200Y-81661300D03*
X166077200Y-81661300D03*
X166577200Y-81661300D03*
X167077200Y-81661300D03*
X167577200Y-81661300D03*
X168077200Y-81661300D03*
X168577200Y-81661300D03*
X169077200Y-81661300D03*
X169577200Y-81661300D03*
D15*
X162532600Y-45722000D03*
X163552600Y-45722000D03*
D24*
X112943000Y-77343000D03*
D25*
X110403000Y-77343000D03*
X107863000Y-77343000D03*
X105323000Y-77343000D03*
X102783000Y-77343000D03*
X100243000Y-77343000D03*
X97703000Y-77343000D03*
X95163000Y-77343000D03*
X92623000Y-77343000D03*
X90083000Y-77343000D03*
X87543000Y-77343000D03*
X85003000Y-77343000D03*
X82463000Y-77343000D03*
X79923000Y-77343000D03*
X77383000Y-77343000D03*
X74843000Y-77343000D03*
X72303000Y-77343000D03*
X69763000Y-77343000D03*
X67223000Y-77343000D03*
X64683000Y-77343000D03*
X62143000Y-77343000D03*
X59603000Y-77343000D03*
X57063000Y-77343000D03*
X54523000Y-77343000D03*
X54523000Y-92583000D03*
X57063000Y-92583000D03*
X59603000Y-92583000D03*
X62143000Y-92583000D03*
X64683000Y-92583000D03*
X67223000Y-92583000D03*
X69763000Y-92583000D03*
X72303000Y-92583000D03*
X74843000Y-92583000D03*
X77383000Y-92583000D03*
X79923000Y-92583000D03*
X82463000Y-92583000D03*
X85003000Y-92583000D03*
X87543000Y-92583000D03*
X90083000Y-92583000D03*
X92623000Y-92583000D03*
X95163000Y-92583000D03*
X97703000Y-92583000D03*
X100243000Y-92583000D03*
X102783000Y-92583000D03*
X105323000Y-92583000D03*
X107863000Y-92583000D03*
X110403000Y-92583000D03*
X112943000Y-92583000D03*
D21*
X97917000Y-113307400D03*
X97917000Y-114327400D03*
D20*
X105410000Y-48247000D03*
X105410000Y-49797000D03*
D28*
X172281600Y-43109000D03*
D29*
X172281600Y-41409000D03*
X170281600Y-41409000D03*
X170281600Y-43309000D03*
D30*
X150749000Y-68834000D03*
D31*
X148209000Y-66294000D03*
X148209000Y-68834000D03*
X145669000Y-66294000D03*
X143129000Y-68834000D03*
X145669000Y-68834000D03*
X143129000Y-71374000D03*
X145669000Y-71374000D03*
X143129000Y-73914000D03*
X145669000Y-73914000D03*
X143129000Y-76454000D03*
X145669000Y-76454000D03*
X143129000Y-78994000D03*
X145669000Y-81534000D03*
X145669000Y-78994000D03*
X148209000Y-81534000D03*
X148209000Y-78994000D03*
X150749000Y-81534000D03*
X150749000Y-78994000D03*
X153289000Y-81534000D03*
X155829000Y-78994000D03*
X153289000Y-78994000D03*
X155829000Y-76454000D03*
X153289000Y-76454000D03*
X155829000Y-73914000D03*
X153289000Y-73914000D03*
X155829000Y-71374000D03*
X153289000Y-71374000D03*
X155829000Y-68834000D03*
X153289000Y-66294000D03*
X153289000Y-68834000D03*
X150749000Y-66294000D03*
D11*
X163169600Y-35310000D03*
X163169600Y-34290000D03*
D22*
X123375500Y-105365000D03*
X123375500Y-106015000D03*
X123375500Y-106665000D03*
X123375500Y-107315000D03*
X123375500Y-107965000D03*
X123375500Y-108615000D03*
X123375500Y-109265000D03*
X129100500Y-109265000D03*
X129100500Y-108615000D03*
X129100500Y-107965000D03*
X129100500Y-107315000D03*
X129100500Y-106665000D03*
X129100500Y-106015000D03*
X129100500Y-105365000D03*
D18*
X57376000Y-96316800D03*
X56416000Y-96316800D03*
D32*
X98933000Y-105603000D03*
X98933000Y-107503000D03*
D21*
X164439600Y-40745000D03*
X164439600Y-41765000D03*
D33*
X64630000Y-94996000D03*
X66180000Y-94996000D03*
D13*
X163728400Y-114683600D03*
X163728400Y-115643600D03*
D15*
X73912000Y-94996000D03*
X74932000Y-94996000D03*
D20*
X115570000Y-70599000D03*
X115570000Y-72149000D03*
D21*
X169392600Y-52705000D03*
X169392600Y-53725000D03*
X174980600Y-40894000D03*
X174980600Y-41914000D03*
D20*
X91440000Y-102349000D03*
X91440000Y-103899000D03*
D14*
X124964000Y-58936000D03*
X125614000Y-58936000D03*
X126264000Y-58936000D03*
X126914000Y-58936000D03*
X127564000Y-58936000D03*
X128214000Y-58936000D03*
X128864000Y-58936000D03*
X129514000Y-58936000D03*
X130164000Y-58936000D03*
X130814000Y-58936000D03*
X130814000Y-53211000D03*
X130164000Y-53211000D03*
X129514000Y-53211000D03*
X128864000Y-53211000D03*
X128214000Y-53211000D03*
X127564000Y-53211000D03*
X126914000Y-53211000D03*
X126264000Y-53211000D03*
X125614000Y-53211000D03*
X124964000Y-53211000D03*
D17*
X131953000Y-34262000D03*
X131953000Y-33302000D03*
D33*
X112255000Y-95377000D03*
X113805000Y-95377000D03*
D17*
X135001000Y-34262000D03*
X135001000Y-33302000D03*
D23*
X59210000Y-96316800D03*
X60170000Y-96316800D03*
D34*
X172251600Y-36578000D03*
X166471600Y-36578000D03*
D35*
X172561600Y-37718000D03*
X171761600Y-37718000D03*
D36*
X170611600Y-37718000D03*
X169611600Y-37718000D03*
X169111600Y-37718000D03*
X168111600Y-37718000D03*
D35*
X166961600Y-37718000D03*
X166161600Y-37718000D03*
X166161600Y-37718000D03*
X166961600Y-37718000D03*
D36*
X167611600Y-37718000D03*
X168611600Y-37718000D03*
X170111600Y-37718000D03*
X171111600Y-37718000D03*
D35*
X171761600Y-37718000D03*
X172561600Y-37718000D03*
D37*
X173681600Y-37078000D03*
D38*
X173681600Y-32898000D03*
D37*
X165041600Y-37078000D03*
D38*
X165041600Y-32898000D03*
D23*
X129060000Y-78613000D03*
X130020000Y-78613000D03*
D17*
X165813800Y-68298000D03*
X165813800Y-67338000D03*
D22*
X123502500Y-80006000D03*
X123502500Y-80656000D03*
X123502500Y-81306000D03*
X123502500Y-81956000D03*
X123502500Y-82606000D03*
X123502500Y-83256000D03*
X123502500Y-83906000D03*
X123502500Y-84556000D03*
X123502500Y-85206000D03*
X123502500Y-85856000D03*
X129227500Y-85856000D03*
X129227500Y-85206000D03*
X129227500Y-84556000D03*
X129227500Y-83906000D03*
X129227500Y-83256000D03*
X129227500Y-82606000D03*
X129227500Y-81956000D03*
X129227500Y-81306000D03*
X129227500Y-80656000D03*
X129227500Y-80006000D03*
D39*
X93477500Y-102240000D03*
X93477500Y-103190000D03*
X93477500Y-104140000D03*
X95752500Y-104140000D03*
X95752500Y-102240000D03*
D17*
X132969000Y-34262000D03*
X132969000Y-33302000D03*
D11*
X57531000Y-115695000D03*
X57531000Y-116715000D03*
D40*
X162610800Y-68503400D03*
X162610800Y-59003400D03*
D15*
X166977600Y-68961000D03*
X167997600Y-68961000D03*
D41*
X56079000Y-117882000D03*
X54229000Y-117882000D03*
X54229000Y-116332000D03*
D42*
X56079000Y-116332000D03*
D15*
X78865000Y-94996000D03*
X79885000Y-94996000D03*
D43*
X149264000Y-93782000D03*
X148764000Y-93782000D03*
X148264000Y-93782000D03*
X147764000Y-93782000D03*
X147264000Y-93782000D03*
X146764000Y-93782000D03*
X146264000Y-93782000D03*
X145764000Y-93782000D03*
X145264000Y-93782000D03*
X144764000Y-93782000D03*
X144264000Y-93782000D03*
X143764000Y-93782000D03*
X143264000Y-93782000D03*
X142764000Y-93782000D03*
X142264000Y-93782000D03*
X141764000Y-93782000D03*
X141264000Y-93782000D03*
X140764000Y-93782000D03*
X140264000Y-93782000D03*
X139764000Y-93782000D03*
X139264000Y-93782000D03*
X138764000Y-93782000D03*
X138264000Y-93782000D03*
X137764000Y-93782000D03*
X137764000Y-113157000D03*
X138264000Y-113157000D03*
X138764000Y-113157000D03*
X139264000Y-113157000D03*
X139764000Y-113157000D03*
X140264000Y-113157000D03*
X140764000Y-113157000D03*
X141264000Y-113157000D03*
X141764000Y-113157000D03*
X142264000Y-113157000D03*
X142764000Y-113157000D03*
X143264000Y-113157000D03*
X143764000Y-113157000D03*
X144264000Y-113157000D03*
X144764000Y-113157000D03*
X145264000Y-113157000D03*
X145764000Y-113157000D03*
X146264000Y-113157000D03*
X146764000Y-113157000D03*
X147264000Y-113157000D03*
X147764000Y-113157000D03*
X148264000Y-113157000D03*
X148764000Y-113157000D03*
X149264000Y-113157000D03*
X170687000Y-93472000D03*
X170187000Y-93472000D03*
X169687000Y-93472000D03*
X169187000Y-93472000D03*
X168687000Y-93472000D03*
X168187000Y-93472000D03*
X167687000Y-93472000D03*
X167187000Y-93472000D03*
X166687000Y-93472000D03*
X166187000Y-93472000D03*
X165687000Y-93472000D03*
X165187000Y-93472000D03*
X164687000Y-93472000D03*
X164187000Y-93472000D03*
X163687000Y-93472000D03*
X163187000Y-93472000D03*
X162687000Y-93472000D03*
X162187000Y-93472000D03*
X161687000Y-93472000D03*
X161187000Y-93472000D03*
X160687000Y-93472000D03*
X160187000Y-93472000D03*
X159687000Y-93472000D03*
X159187000Y-93472000D03*
X159187000Y-112847000D03*
X159687000Y-112847000D03*
X160187000Y-112847000D03*
X160687000Y-112847000D03*
X161187000Y-112847000D03*
X161687000Y-112847000D03*
X162187000Y-112847000D03*
X162687000Y-112847000D03*
X163187000Y-112847000D03*
X163687000Y-112847000D03*
X164187000Y-112847000D03*
X164687000Y-112847000D03*
X165187000Y-112847000D03*
X165687000Y-112847000D03*
X166187000Y-112847000D03*
X166687000Y-112847000D03*
X167187000Y-112847000D03*
X167687000Y-112847000D03*
X168187000Y-112847000D03*
X168687000Y-112847000D03*
X169187000Y-112847000D03*
X169687000Y-112847000D03*
X170187000Y-112847000D03*
X170687000Y-112847000D03*
D23*
X128806000Y-103759000D03*
X129766000Y-103759000D03*
D21*
X162077400Y-81838800D03*
X162077400Y-82858800D03*
D13*
X115316000Y-92484000D03*
X115316000Y-93444000D03*
D24*
X82443000Y-98425000D03*
D25*
X79903000Y-98425000D03*
X77363000Y-98425000D03*
X74823000Y-98425000D03*
X72283000Y-98425000D03*
X69743000Y-98425000D03*
X67203000Y-98425000D03*
X64663000Y-98425000D03*
X62123000Y-98425000D03*
X59583000Y-98425000D03*
X57043000Y-98425000D03*
X54503000Y-98425000D03*
X54503000Y-113665000D03*
X57043000Y-113665000D03*
X59583000Y-113665000D03*
X62123000Y-113665000D03*
X64663000Y-113665000D03*
X67203000Y-113665000D03*
X69743000Y-113665000D03*
X72283000Y-113665000D03*
X74823000Y-113665000D03*
X77363000Y-113665000D03*
X79903000Y-113665000D03*
X82443000Y-113665000D03*
D21*
X93599000Y-113307400D03*
X93599000Y-114327400D03*
D18*
X165453000Y-91821000D03*
X164493000Y-91821000D03*
D17*
X122529600Y-66062800D03*
X122529600Y-65102800D03*
D23*
X129187000Y-33147000D03*
X130147000Y-33147000D03*
D14*
X114165000Y-49540000D03*
X114815000Y-49540000D03*
X115465000Y-49540000D03*
X116115000Y-49540000D03*
X116765000Y-49540000D03*
X117415000Y-49540000D03*
X118065000Y-49540000D03*
X118715000Y-49540000D03*
X119365000Y-49540000D03*
X120015000Y-49540000D03*
X120015000Y-43815000D03*
X119365000Y-43815000D03*
X118715000Y-43815000D03*
X118065000Y-43815000D03*
X117415000Y-43815000D03*
X116765000Y-43815000D03*
X116115000Y-43815000D03*
X115465000Y-43815000D03*
X114815000Y-43815000D03*
X114165000Y-43815000D03*
D19*
X93599000Y-117652900D03*
X93599000Y-116077900D03*
D11*
X173837600Y-41914000D03*
X173837600Y-40894000D03*
D17*
X123571000Y-53312000D03*
X123571000Y-52352000D03*
X112776000Y-43914000D03*
X112776000Y-42954000D03*
D30*
X150749000Y-40640000D03*
D31*
X148209000Y-38100000D03*
X148209000Y-40640000D03*
X145669000Y-38100000D03*
X143129000Y-40640000D03*
X145669000Y-40640000D03*
X143129000Y-43180000D03*
X145669000Y-43180000D03*
X143129000Y-45720000D03*
X145669000Y-45720000D03*
X143129000Y-48260000D03*
X145669000Y-48260000D03*
X143129000Y-50800000D03*
X145669000Y-53340000D03*
X145669000Y-50800000D03*
X148209000Y-53340000D03*
X148209000Y-50800000D03*
X150749000Y-53340000D03*
X150749000Y-50800000D03*
X153289000Y-53340000D03*
X155829000Y-50800000D03*
X153289000Y-50800000D03*
X155829000Y-48260000D03*
X153289000Y-48260000D03*
X155829000Y-45720000D03*
X153289000Y-45720000D03*
X155829000Y-43180000D03*
X153289000Y-43180000D03*
X155829000Y-40640000D03*
X153289000Y-38100000D03*
X153289000Y-40640000D03*
X150749000Y-38100000D03*
D44*
X166344600Y-45849000D03*
D45*
X167594600Y-47099000D03*
D46*
X167894600Y-46599000D03*
X167894600Y-46099000D03*
X167894600Y-45599000D03*
X167894600Y-45099000D03*
D45*
X167594600Y-44599000D03*
D47*
X167094600Y-44299000D03*
X166594600Y-44299000D03*
X166094600Y-44299000D03*
X165594600Y-44299000D03*
D45*
X165094600Y-44599000D03*
D46*
X164794600Y-45099000D03*
X164794600Y-45599000D03*
X164794600Y-46099000D03*
X164794600Y-46599000D03*
D45*
X165094600Y-47099000D03*
D47*
X165594600Y-47399000D03*
X166094600Y-47399000D03*
X166594600Y-47399000D03*
X167094600Y-47399000D03*
D17*
X133985000Y-34262000D03*
X133985000Y-33302000D03*
D22*
X123317000Y-91933000D03*
X123317000Y-92583000D03*
X123317000Y-93233000D03*
X123317000Y-93883000D03*
X123317000Y-94533000D03*
X123317000Y-95183000D03*
X123317000Y-95833000D03*
X123317000Y-96483000D03*
X123317000Y-97133000D03*
X123317000Y-97783000D03*
X129042000Y-97783000D03*
X129042000Y-97133000D03*
X129042000Y-96483000D03*
X129042000Y-95833000D03*
X129042000Y-95183000D03*
X129042000Y-94533000D03*
X129042000Y-93883000D03*
X129042000Y-93233000D03*
X129042000Y-92583000D03*
X129042000Y-91933000D03*
D48*
X171500800Y-64621000D03*
D49*
X171500800Y-62081000D03*
X171500800Y-59541000D03*
D17*
X154787600Y-62100400D03*
X154787600Y-61140400D03*
D13*
X63398400Y-94770000D03*
X63398400Y-95730000D03*
D23*
X151539000Y-34290000D03*
X152499000Y-34290000D03*
D33*
X82509000Y-117221000D03*
X84059000Y-117221000D03*
D49*
X109773800Y-34340800D03*
D48*
X107233800Y-34340800D03*
D16*
X68582000Y-94996000D03*
X67562000Y-94996000D03*
D18*
X102588000Y-50088800D03*
X101628000Y-50088800D03*
D23*
X128806000Y-90551000D03*
X129766000Y-90551000D03*
D50*
X98425000Y-102272000D03*
X98425000Y-103722000D03*
D24*
X102743000Y-32766000D03*
D25*
X100203000Y-32766000D03*
X97663000Y-32766000D03*
X95123000Y-32766000D03*
X92583000Y-32766000D03*
X90043000Y-32766000D03*
X87503000Y-32766000D03*
X84963000Y-32766000D03*
X82423000Y-32766000D03*
X79883000Y-32766000D03*
X77343000Y-32766000D03*
X74803000Y-32766000D03*
X72263000Y-32766000D03*
X69723000Y-32766000D03*
X67183000Y-32766000D03*
X64643000Y-32766000D03*
X62103000Y-32766000D03*
X59563000Y-32766000D03*
X57023000Y-32766000D03*
X54483000Y-32766000D03*
X54483000Y-48006000D03*
X57023000Y-48006000D03*
X59563000Y-48006000D03*
X62103000Y-48006000D03*
X64643000Y-48006000D03*
X67183000Y-48006000D03*
X69723000Y-48006000D03*
X72263000Y-48006000D03*
X74803000Y-48006000D03*
X77343000Y-48006000D03*
X79883000Y-48006000D03*
X82423000Y-48006000D03*
X84963000Y-48006000D03*
X87503000Y-48006000D03*
X90043000Y-48006000D03*
X92583000Y-48006000D03*
X95123000Y-48006000D03*
X97663000Y-48006000D03*
X100203000Y-48006000D03*
X102743000Y-48006000D03*
M02*
